<?xml version="1.0" encoding="UTF-8" standalone="no"?>
<!DOCTYPE svg PUBLIC "-//W3C//DTD SVG 1.1//EN"
 "http://www.w3.org/Graphics/SVG/1.1/DTD/svg11.dtd">
<!-- Generated by graphviz version 2.40.1 (20161225.0304)
 -->
<!-- Title: f13 Pages: 1 -->
<svg width="1207pt" height="469pt"
 viewBox="0.00 0.00 1206.53 468.78" xmlns="http://www.w3.org/2000/svg" xmlns:xlink="http://www.w3.org/1999/xlink">
<g id="graph0" class="graph" transform="scale(1 1) rotate(0) translate(4 464.7845)">
<title>f13</title>
<polygon fill="#ffffff" stroke="transparent" points="-4,4 -4,-464.7845 1202.5342,-464.7845 1202.5342,4 -4,4"/>
<!-- Self\nSeizures -->
<g id="node1" class="node">
<title>Self\nSeizures</title>
<polygon fill="#6495ed" stroke="#6495ed" points="874.5342,-183.6 730.5342,-183.6 730.5342,-39.6 874.5342,-39.6 874.5342,-183.6"/>
<text text-anchor="middle" x="802.5342" y="-114.4" font-family="helvetica:bold" font-size="14.00" fill="#000000">Self</text>
<text text-anchor="middle" x="802.5342" y="-100.4" font-family="helvetica:bold" font-size="14.00" fill="#000000">Seizures</text>
</g>
<!-- Mother -->
<g id="node2" class="node">
<title>Mother</title>
<ellipse fill="#ffc0cb" stroke="#ffc0cb" cx="640.5342" cy="-111.6" rx="72" ry="72"/>
<text text-anchor="middle" x="640.5342" y="-107.4" font-family="helvetica:bold" font-size="14.00" fill="#000000">Mother</text>
</g>
<!-- Mother Sibling\nFibromyalgia -->
<g id="node3" class="node">
<title>Mother Sibling\nFibromyalgia</title>
<ellipse fill="#ffc0cb" stroke="#ffc0cb" cx="964.5342" cy="-111.6" rx="72" ry="72"/>
<text text-anchor="middle" x="964.5342" y="-114.4" font-family="helvetica:bold" font-size="14.00" fill="#000000">Mother Sibling</text>
<text text-anchor="middle" x="964.5342" y="-100.4" font-family="helvetica:bold" font-size="14.00" fill="#000000">Fibromyalgia</text>
</g>
<!-- Mother Sibling Mate -->
<g id="node4" class="node">
<title>Mother Sibling Mate</title>
<polygon fill="#6495ed" stroke="#6495ed" points="1198.5342,-183.6 1054.5342,-183.6 1054.5342,-39.6 1198.5342,-39.6 1198.5342,-183.6"/>
<text text-anchor="middle" x="1126.5342" y="-107.4" font-family="helvetica:bold" font-size="14.00" fill="#000000">Mother Sibling Mate</text>
</g>
<!-- mothersiblingmate+mothersibling -->
<g id="node12" class="node">
<title>mothersiblingmate+mothersibling</title>
<ellipse fill="#000000" stroke="#000000" cx="1045.5342" cy="-1.8" rx="1.8" ry="1.8"/>
</g>
<!-- Mother Sibling Mate&#45;&#45;mothersiblingmate+mothersibling -->
<g id="edge1" class="edge">
<title>Mother Sibling Mate&#45;&#45;mothersiblingmate+mothersibling</title>
<path fill="none" stroke="#000000" d="M1073.4098,-39.5869C1061.0049,-22.7714 1050.3557,-8.3358 1046.7984,-3.5137"/>
</g>
<!-- Maternal Grandfather -->
<g id="node5" class="node">
<title>Maternal Grandfather</title>
<polygon fill="#6495ed" stroke="#6495ed" points="149.1026,-414.7606 -.0342,-414.7606 -.0342,-265.6239 149.1026,-265.6239 149.1026,-414.7606"/>
<text text-anchor="middle" x="74.5342" y="-335.9923" font-family="helvetica:bold" font-size="14.00" fill="#000000">Maternal Grandfather</text>
</g>
<!-- maternalgrandfather+maternalgrandmother -->
<g id="node13" class="node">
<title>maternalgrandfather+maternalgrandmother</title>
<ellipse fill="#000000" stroke="#000000" cx="553.5342" cy="-458.9845" rx="1.8" ry="1.8"/>
</g>
<!-- Maternal Grandfather&#45;&#45;maternalgrandfather+maternalgrandmother -->
<g id="edge3" class="edge">
<title>Maternal Grandfather&#45;&#45;maternalgrandfather+maternalgrandmother</title>
<path fill="none" stroke="#000000" d="M146.6316,-414.8229C150.5124,-417.1803 154.4855,-419.3214 158.5342,-421.1845 234.8834,-456.319 524.5286,-458.8177 551.5151,-458.9747"/>
</g>
<!-- Maternal Grandmother\nGout -->
<g id="node6" class="node">
<title>Maternal Grandmother\nGout</title>
<ellipse fill="#ffc0cb" stroke="#ffc0cb" cx="412.5342" cy="-340.1923" rx="80.9845" ry="80.9845"/>
<text text-anchor="middle" x="412.5342" y="-342.9923" font-family="helvetica:bold" font-size="14.00" fill="#000000">Maternal Grandmother</text>
<text text-anchor="middle" x="412.5342" y="-328.9923" font-family="helvetica:bold" font-size="14.00" fill="#000000">Gout</text>
</g>
<!-- Father -->
<g id="node7" class="node">
<title>Father</title>
<polygon fill="#6495ed" stroke="#6495ed" points="226.5342,-183.6 82.5342,-183.6 82.5342,-39.6 226.5342,-39.6 226.5342,-183.6"/>
<text text-anchor="middle" x="154.5342" y="-107.4" font-family="helvetica:bold" font-size="14.00" fill="#000000">Father</text>
</g>
<!-- father+mother -->
<g id="node14" class="node">
<title>father+mother</title>
<ellipse fill="#000000" stroke="#000000" cx="640.5342" cy="-221.4" rx="1.8" ry="1.8"/>
</g>
<!-- Father&#45;&#45;father+mother -->
<g id="edge5" class="edge">
<title>Father&#45;&#45;father+mother</title>
<path fill="none" stroke="#000000" d="M226.5869,-179.2203C229.5287,-180.8189 232.5143,-182.288 235.5342,-183.6 314.5529,-217.9302 610.8633,-221.1578 638.4688,-221.3849"/>
</g>
<!-- Father Sibling -->
<g id="node8" class="node">
<title>Father Sibling</title>
<polygon fill="#6495ed" stroke="#6495ed" points="388.5342,-183.6 244.5342,-183.6 244.5342,-39.6 388.5342,-39.6 388.5342,-183.6"/>
<text text-anchor="middle" x="316.5342" y="-107.4" font-family="helvetica:bold" font-size="14.00" fill="#000000">Father Sibling</text>
</g>
<!-- fathersibling+fathersiblingmate -->
<g id="node15" class="node">
<title>fathersibling+fathersiblingmate</title>
<ellipse fill="#000000" stroke="#000000" cx="397.5342" cy="-1.8" rx="1.8" ry="1.8"/>
</g>
<!-- Father Sibling&#45;&#45;fathersibling+fathersiblingmate -->
<g id="edge7" class="edge">
<title>Father Sibling&#45;&#45;fathersibling+fathersiblingmate</title>
<path fill="none" stroke="#000000" d="M369.6586,-39.5869C382.0635,-22.7714 392.7127,-8.3358 396.27,-3.5137"/>
</g>
<!-- Father Sibling Mate -->
<g id="node9" class="node">
<title>Father Sibling Mate</title>
<ellipse fill="#ffc0cb" stroke="#ffc0cb" cx="478.5342" cy="-111.6" rx="72" ry="72"/>
<text text-anchor="middle" x="478.5342" y="-107.4" font-family="helvetica:bold" font-size="14.00" fill="#000000">Father Sibling Mate</text>
</g>
<!-- Paternal Grandfather\nSuicide -->
<g id="node10" class="node">
<title>Paternal Grandfather\nSuicide</title>
<polygon fill="#6495ed" stroke="#6495ed" points="313.7785,-413.4366 167.2898,-413.4366 167.2898,-266.9479 313.7785,-266.9479 313.7785,-413.4366"/>
<text text-anchor="middle" x="240.5342" y="-342.9923" font-family="helvetica:bold" font-size="14.00" fill="#000000">Paternal Grandfather</text>
<text text-anchor="middle" x="240.5342" y="-328.9923" font-family="helvetica:bold" font-size="14.00" fill="#000000">Suicide</text>
</g>
<!-- paternalgrandfather+paternalgrandmother -->
<g id="node16" class="node">
<title>paternalgrandfather+paternalgrandmother</title>
<ellipse fill="#000000" stroke="#000000" cx="290.5342" cy="-221.4" rx="1.8" ry="1.8"/>
</g>
<!-- Paternal Grandfather\nSuicide&#45;&#45;paternalgrandfather+paternalgrandmother -->
<g id="edge9" class="edge">
<title>Paternal Grandfather\nSuicide&#45;&#45;paternalgrandfather+paternalgrandmother</title>
<path fill="none" stroke="#000000" d="M271.4887,-266.6491C279.9594,-246.5241 287.4617,-228.6997 289.7904,-223.1671"/>
</g>
<!-- Paternal Grandmother -->
<g id="node11" class="node">
<title>Paternal Grandmother</title>
<ellipse fill="#ffc0cb" stroke="#ffc0cb" cx="589.5342" cy="-340.1923" rx="78.3525" ry="78.3525"/>
<text text-anchor="middle" x="589.5342" y="-335.9923" font-family="helvetica:bold" font-size="14.00" fill="#000000">Paternal Grandmother</text>
</g>
<!-- mothersiblingmate+mothersibling&#45;&#45;Mother Sibling\nFibromyalgia -->
<g id="edge2" class="edge">
<title>mothersiblingmate+mothersibling&#45;&#45;Mother Sibling\nFibromyalgia</title>
<path fill="none" stroke="#000000" d="M1044.2332,-3.5636C1039.673,-9.7452 1023.7995,-31.2626 1007.406,-53.4848"/>
</g>
<!-- maternalgrandfather+maternalgrandmother&#45;&#45;Mother -->
<g id="edge12" class="edge">
<title>maternalgrandfather+maternalgrandmother&#45;&#45;Mother</title>
<path fill="none" stroke="#000000" d="M555.3822,-458.7166C569.5546,-456.6217 660.8694,-442.3863 676.5342,-421.1845 728.9452,-350.2476 700.0193,-244.1355 672.0859,-176.4002"/>
</g>
<!-- maternalgrandfather+maternalgrandmother&#45;&#45;Mother Sibling\nFibromyalgia -->
<g id="edge13" class="edge">
<title>maternalgrandfather+maternalgrandmother&#45;&#45;Mother Sibling\nFibromyalgia</title>
<path fill="none" stroke="#000000" d="M555.5137,-458.9426C569.2644,-458.5663 651.5867,-454.9269 705.5342,-421.1845 805.1976,-358.8483 885.4577,-245.2762 928.9496,-174.3814"/>
</g>
<!-- maternalgrandfather+maternalgrandmother&#45;&#45;Maternal Grandmother\nGout -->
<g id="edge4" class="edge">
<title>maternalgrandfather+maternalgrandmother&#45;&#45;Maternal Grandmother\nGout</title>
<path fill="none" stroke="#000000" d="M551.9059,-457.8626C545.4786,-453.4167 521.3063,-436.53 502.5342,-421.1845 492.6067,-413.0691 482.3002,-404.2227 472.3591,-395.4543"/>
</g>
<!-- father+mother&#45;&#45;Self\nSeizures -->
<g id="edge11" class="edge">
<title>father+mother&#45;&#45;Self\nSeizures</title>
<path fill="none" stroke="#000000" d="M642.6532,-220.671C652.2572,-217.315 692.4889,-202.6975 721.5342,-183.6 724.5212,-181.636 727.511,-179.5669 730.4868,-177.4192"/>
</g>
<!-- father+mother&#45;&#45;Mother -->
<g id="edge6" class="edge">
<title>father+mother&#45;&#45;Mother</title>
<path fill="none" stroke="#000000" d="M640.5342,-219.4942C640.5342,-214.5107 640.5342,-200.3292 640.5342,-183.8195"/>
</g>
<!-- fathersibling+fathersiblingmate&#45;&#45;Father Sibling Mate -->
<g id="edge8" class="edge">
<title>fathersibling+fathersiblingmate&#45;&#45;Father Sibling Mate</title>
<path fill="none" stroke="#000000" d="M398.8352,-3.5636C403.3954,-9.7452 419.2689,-31.2626 435.6623,-53.4848"/>
</g>
<!-- paternalgrandfather+paternalgrandmother&#45;&#45;Father -->
<g id="edge14" class="edge">
<title>paternalgrandfather+paternalgrandmother&#45;&#45;Father</title>
<path fill="none" stroke="#000000" d="M288.7677,-220.3001C281.7972,-215.9365 255.6022,-199.3165 235.5342,-183.6 232.5716,-181.2798 229.5775,-178.8827 226.575,-176.4349"/>
</g>
<!-- paternalgrandfather+paternalgrandmother&#45;&#45;Father Sibling -->
<g id="edge15" class="edge">
<title>paternalgrandfather+paternalgrandmother&#45;&#45;Father Sibling</title>
<path fill="none" stroke="#000000" d="M290.9855,-219.4942C292.1655,-214.5107 295.5236,-200.3292 299.433,-183.8195"/>
</g>
<!-- paternalgrandfather+paternalgrandmother&#45;&#45;Paternal Grandmother -->
<g id="edge10" class="edge">
<title>paternalgrandfather+paternalgrandmother&#45;&#45;Paternal Grandmother</title>
<path fill="none" stroke="#000000" d="M292.4447,-221.5897C311.1887,-223.4724 462.3953,-239.1606 502.5342,-259.2 514.5352,-265.1915 526.0507,-273.3619 536.5535,-282.2185"/>
</g>
</g>
</svg>
