<?xml version="1.0" encoding="UTF-8" standalone="no"?>
<!DOCTYPE svg PUBLIC "-//W3C//DTD SVG 1.1//EN"
 "http://www.w3.org/Graphics/SVG/1.1/DTD/svg11.dtd">
<!-- Generated by graphviz version 2.40.1 (20161225.0304)
 -->
<!-- Title: f16 Pages: 1 -->
<svg width="1690pt" height="616pt"
 viewBox="0.00 0.00 1689.50 616.16" xmlns="http://www.w3.org/2000/svg" xmlns:xlink="http://www.w3.org/1999/xlink">
<g id="graph0" class="graph" transform="scale(1 1) rotate(0) translate(4 612.1586)">
<title>f16</title>
<polygon fill="#ffffff" stroke="transparent" points="-4,4 -4,-612.1586 1685.5025,-612.1586 1685.5025,4 -4,4"/>
<!-- Self -->
<g id="node1" class="node">
<title>Self</title>
<ellipse fill="none" stroke="#ffc0cb" cx="945.5386" cy="-92.4055" rx="24.2053" ry="24.2053"/>
<text text-anchor="middle" x="945.5386" y="-88.2055" font-family="Times,serif" font-size="14.00" fill="#000000">Self</text>
</g>
<!-- self+mate -->
<g id="node25" class="node">
<title>self+mate</title>
<ellipse fill="#000000" stroke="#000000" cx="1262.5386" cy="-92.4055" rx="1.8" ry="1.8"/>
</g>
<!-- Self&#45;&#45;self+mate -->
<g id="edge3" class="edge">
<title>Self&#45;&#45;self+mate</title>
<path fill="none" stroke="#000000" d="M946.9755,-117.0916C950.035,-143.7663 959.492,-184.8591 988.5386,-202.8109 1012.5459,-217.6482 1218.5314,-217.6482 1242.5386,-202.8109 1281.3131,-178.8469 1265.9132,-106.4472 1262.98,-94.1805"/>
</g>
<!-- Mate -->
<g id="node2" class="node">
<title>Mate</title>
<polygon fill="none" stroke="#0000ff" points="1326.8048,-114.6717 1282.2724,-114.6717 1282.2724,-70.1392 1326.8048,-70.1392 1326.8048,-114.6717"/>
<text text-anchor="middle" x="1304.5386" y="-88.2055" font-family="Times,serif" font-size="14.00" fill="#000000">Mate</text>
</g>
<!-- Sibling 1 -->
<g id="node3" class="node">
<title>Sibling 1</title>
<ellipse fill="none" stroke="#ffc0cb" cx="1030.5386" cy="-92.4055" rx="42.0889" ry="42.0889"/>
<text text-anchor="middle" x="1030.5386" y="-88.2055" font-family="Times,serif" font-size="14.00" fill="#000000">Sibling 1</text>
</g>
<!-- Sibling 2 -->
<g id="node4" class="node">
<title>Sibling 2</title>
<polygon fill="none" stroke="#0000ff" points="1157.9937,-125.8606 1091.0835,-125.8606 1091.0835,-58.9504 1157.9937,-58.9504 1157.9937,-125.8606"/>
<text text-anchor="middle" x="1124.5386" y="-88.2055" font-family="Times,serif" font-size="14.00" fill="#000000">Sibling 2</text>
</g>
<!-- Sibling 3 -->
<g id="node5" class="node">
<title>Sibling 3</title>
<polygon fill="none" stroke="#0000ff" points="1242.9937,-125.8606 1176.0835,-125.8606 1176.0835,-58.9504 1242.9937,-58.9504 1242.9937,-125.8606"/>
<text text-anchor="middle" x="1209.5386" y="-88.2055" font-family="Times,serif" font-size="14.00" fill="#000000">Sibling 3</text>
</g>
<!-- Sibling 4 -->
<g id="node6" class="node">
<title>Sibling 4</title>
<polygon fill="none" stroke="#0000ff" points="799.9937,-125.8606 733.0835,-125.8606 733.0835,-58.9504 799.9937,-58.9504 799.9937,-125.8606"/>
<text text-anchor="middle" x="766.5386" y="-88.2055" font-family="Times,serif" font-size="14.00" fill="#000000">Sibling 4</text>
</g>
<!-- Sibling 5 -->
<g id="node7" class="node">
<title>Sibling 5</title>
<ellipse fill="none" stroke="#ffc0cb" cx="860.5386" cy="-92.4055" rx="42.0889" ry="42.0889"/>
<text text-anchor="middle" x="860.5386" y="-88.2055" font-family="Times,serif" font-size="14.00" fill="#000000">Sibling 5</text>
</g>
<!-- Father -->
<g id="node8" class="node">
<title>Father</title>
<polygon fill="none" stroke="#0000ff" points="968.3048,-330.8645 916.7725,-330.8645 916.7725,-279.3322 968.3048,-279.3322 968.3048,-330.8645"/>
<text text-anchor="middle" x="942.5386" y="-300.8984" font-family="Times,serif" font-size="14.00" fill="#000000">Father</text>
</g>
<!-- father+mother -->
<g id="node26" class="node">
<title>father+mother</title>
<ellipse fill="#000000" stroke="#000000" cx="988.5386" cy="-305.0984" rx="1.8" ry="1.8"/>
</g>
<!-- Father&#45;&#45;father+mother -->
<g id="edge1" class="edge">
<title>Father&#45;&#45;father+mother</title>
<path fill="none" stroke="#000000" d="M968.4136,-305.0984C974.493,-305.0984 980.5725,-305.0984 986.6519,-305.0984"/>
</g>
<!-- Father Sibling -->
<g id="node9" class="node">
<title>Father Sibling</title>
<ellipse fill="none" stroke="#ffc0cb" cx="1268.5386" cy="-305.0984" rx="60.429" ry="60.429"/>
<text text-anchor="middle" x="1268.5386" y="-300.8984" font-family="Times,serif" font-size="14.00" fill="#000000">Father Sibling</text>
</g>
<!-- fSibling+fSiblingMate -->
<g id="node29" class="node">
<title>fSibling+fSiblingMate</title>
<ellipse fill="#000000" stroke="#000000" cx="1415.5386" cy="-305.0984" rx="1.8" ry="1.8"/>
</g>
<!-- Father Sibling&#45;&#45;fSibling+fSiblingMate -->
<g id="edge9" class="edge">
<title>Father Sibling&#45;&#45;fSibling+fSiblingMate</title>
<path fill="none" stroke="#000000" d="M1329.1187,-305.0984C1357.2502,-305.0984 1385.3817,-305.0984 1413.5131,-305.0984"/>
</g>
<!-- Father Sibling Mate -->
<g id="node10" class="node">
<title>Father Sibling Mate</title>
<polygon fill="none" stroke="#0000ff" points="1563.5249,-369.0847 1435.5523,-369.0847 1435.5523,-241.112 1563.5249,-241.112 1563.5249,-369.0847"/>
<text text-anchor="middle" x="1499.5386" y="-300.8984" font-family="Times,serif" font-size="14.00" fill="#000000">Father Sibling Mate</text>
</g>
<!-- Father Sibling Child 1 -->
<g id="node11" class="node">
<title>Father Sibling Child 1</title>
<polygon fill="none" stroke="#0000ff" points="1485.8766,-162.7434 1345.2006,-162.7434 1345.2006,-22.0675 1485.8766,-22.0675 1485.8766,-162.7434"/>
<text text-anchor="middle" x="1415.5386" y="-88.2055" font-family="Times,serif" font-size="14.00" fill="#000000">Father Sibling Child 1</text>
</g>
<!-- Father Sibling Child 2 -->
<g id="node12" class="node">
<title>Father Sibling Child 2</title>
<ellipse fill="none" stroke="#ffc0cb" cx="1592.5386" cy="-92.4055" rx="88.9279" ry="88.9279"/>
<text text-anchor="middle" x="1592.5386" y="-88.2055" font-family="Times,serif" font-size="14.00" fill="#000000">Father Sibling Child 2</text>
</g>
<!-- Paternal Grandmother -->
<g id="node13" class="node">
<title>Paternal Grandmother</title>
<ellipse fill="none" stroke="#ffc0cb" cx="1213.5386" cy="-516.7722" rx="88.3829" ry="88.3829"/>
<text text-anchor="middle" x="1213.5386" y="-512.5722" font-family="Times,serif" font-size="14.00" fill="#000000">Paternal Grandmother</text>
</g>
<!-- Paternal Grandfather -->
<g id="node14" class="node">
<title>Paternal Grandfather</title>
<polygon fill="none" stroke="#0000ff" points="1086.0357,-583.2693 953.0415,-583.2693 953.0415,-450.2751 1086.0357,-450.2751 1086.0357,-583.2693"/>
<text text-anchor="middle" x="1019.5386" y="-512.5722" font-family="Times,serif" font-size="14.00" fill="#000000">Paternal Grandfather</text>
</g>
<!-- pGFather+pGMother -->
<g id="node27" class="node">
<title>pGFather+pGMother</title>
<ellipse fill="#000000" stroke="#000000" cx="1105.5386" cy="-516.7722" rx="1.8" ry="1.8"/>
</g>
<!-- Paternal Grandfather&#45;&#45;pGFather+pGMother -->
<g id="edge5" class="edge">
<title>Paternal Grandfather&#45;&#45;pGFather+pGMother</title>
<path fill="none" stroke="#000000" d="M1086.0542,-516.7722C1091.9401,-516.7722 1097.826,-516.7722 1103.712,-516.7722"/>
</g>
<!-- Mother -->
<g id="node15" class="node">
<title>Mother</title>
<ellipse fill="none" stroke="#ffc0cb" cx="1044.5386" cy="-305.0984" rx="36.2818" ry="36.2818"/>
<text text-anchor="middle" x="1044.5386" y="-300.8984" font-family="Times,serif" font-size="14.00" fill="#000000">Mother</text>
</g>
<!-- Mother Sibling 1 -->
<g id="node16" class="node">
<title>Mother Sibling 1</title>
<ellipse fill="none" stroke="#ffc0cb" cx="348.5386" cy="-305.0984" rx="70.5772" ry="70.5772"/>
<text text-anchor="middle" x="348.5386" y="-300.8984" font-family="Times,serif" font-size="14.00" fill="#000000">Mother Sibling 1</text>
</g>
<!-- Mother Sibling 2 -->
<g id="node17" class="node">
<title>Mother Sibling 2</title>
<ellipse fill="none" stroke="#ffc0cb" cx="70.5386" cy="-305.0984" rx="70.5772" ry="70.5772"/>
<text text-anchor="middle" x="70.5386" y="-300.8984" font-family="Times,serif" font-size="14.00" fill="#000000">Mother Sibling 2</text>
</g>
<!-- mSibling2+mSibling2Mate -->
<g id="node31" class="node">
<title>mSibling2+mSibling2Mate</title>
<ellipse fill="#000000" stroke="#000000" cx="438.5386" cy="-305.0984" rx="1.8" ry="1.8"/>
</g>
<!-- Mother Sibling 2&#45;&#45;mSibling2+mSibling2Mate -->
<g id="edge13" class="edge">
<title>Mother Sibling 2&#45;&#45;mSibling2+mSibling2Mate</title>
<path fill="none" stroke="#000000" d="M107.6136,-365.1084C121.3436,-381.9725 138.5246,-398.2028 158.5386,-407.3858 184.8966,-419.4795 394.8697,-422.632 419.5386,-407.3858 455.1841,-385.3557 441.8266,-319.2476 439.0088,-307.046"/>
</g>
<!-- Mother Sibling 2 Mate -->
<g id="node18" class="node">
<title>Mother Sibling 2 Mate</title>
<polygon fill="none" stroke="#0000ff" points="602.4732,-377.0329 458.604,-377.0329 458.604,-233.1638 602.4732,-233.1638 602.4732,-377.0329"/>
<text text-anchor="middle" x="530.5386" y="-300.8984" font-family="Times,serif" font-size="14.00" fill="#000000">Mother Sibling 2 Mate</text>
</g>
<!-- Mother Sibling -->
<g id="node19" class="node">
<title>Mother Sibling</title>
<polygon fill="none" stroke="#0000ff" points="260.2077,-355.7675 158.8695,-355.7675 158.8695,-254.4293 260.2077,-254.4293 260.2077,-355.7675"/>
<text text-anchor="middle" x="209.5386" y="-300.8984" font-family="Times,serif" font-size="14.00" fill="#000000">Mother Sibling</text>
</g>
<!-- mSibling+mSiblingMate -->
<g id="node30" class="node">
<title>mSibling+mSiblingMate</title>
<ellipse fill="#000000" stroke="#000000" cx="622.5386" cy="-305.0984" rx="1.8" ry="1.8"/>
</g>
<!-- Mother Sibling&#45;&#45;mSibling+mSiblingMate -->
<g id="edge11" class="edge">
<title>Mother Sibling&#45;&#45;mSibling+mSiblingMate</title>
<path fill="none" stroke="#000000" d="M230.3416,-355.8772C241.2619,-375.6743 256.7706,-396.2538 277.5386,-407.3858 309.3658,-424.4458 571.8207,-426.3705 602.5386,-407.3858 638.2483,-385.316 625.66,-319.2402 622.9858,-307.0449"/>
</g>
<!-- Mother Sibling Mate -->
<g id="node20" class="node">
<title>Mother Sibling Mate</title>
<ellipse fill="none" stroke="#ffc0cb" cx="726.5386" cy="-305.0984" rx="84.0754" ry="84.0754"/>
<text text-anchor="middle" x="726.5386" y="-300.8984" font-family="Times,serif" font-size="14.00" fill="#000000">Mother Sibling Mate</text>
</g>
<!-- Mother Sibling Child 1 -->
<g id="node21" class="node">
<title>Mother Sibling Child 1</title>
<polygon fill="none" stroke="#0000ff" points="511.825,-165.6919 365.2522,-165.6919 365.2522,-19.1191 511.825,-19.1191 511.825,-165.6919"/>
<text text-anchor="middle" x="438.5386" y="-88.2055" font-family="Times,serif" font-size="14.00" fill="#000000">Mother Sibling Child 1</text>
</g>
<!-- Mother Sibling Child 2 -->
<g id="node22" class="node">
<title>Mother Sibling Child 2</title>
<ellipse fill="none" stroke="#ffc0cb" cx="622.5386" cy="-92.4055" rx="92.311" ry="92.311"/>
<text text-anchor="middle" x="622.5386" y="-88.2055" font-family="Times,serif" font-size="14.00" fill="#000000">Mother Sibling Child 2</text>
</g>
<!-- Maternal Grandmother -->
<g id="node23" class="node">
<title>Maternal Grandmother</title>
<ellipse fill="none" stroke="#ffc0cb" cx="389.5386" cy="-516.7722" rx="91.2729" ry="91.2729"/>
<text text-anchor="middle" x="389.5386" y="-512.5722" font-family="Times,serif" font-size="14.00" fill="#000000">Maternal Grandmother</text>
</g>
<!-- Maternal Grandfather -->
<g id="node24" class="node">
<title>Maternal Grandfather</title>
<polygon fill="none" stroke="#0000ff" points="258.1982,-585.4318 120.879,-585.4318 120.879,-448.1126 258.1982,-448.1126 258.1982,-585.4318"/>
<text text-anchor="middle" x="189.5386" y="-512.5722" font-family="Times,serif" font-size="14.00" fill="#000000">Maternal Grandfather</text>
</g>
<!-- mGFather+mGMother -->
<g id="node28" class="node">
<title>mGFather+mGMother</title>
<ellipse fill="#000000" stroke="#000000" cx="278.5386" cy="-516.7722" rx="1.8" ry="1.8"/>
</g>
<!-- Maternal Grandfather&#45;&#45;mGFather+mGMother -->
<g id="edge7" class="edge">
<title>Maternal Grandfather&#45;&#45;mGFather+mGMother</title>
<path fill="none" stroke="#000000" d="M258.3745,-516.7722C264.4658,-516.7722 270.557,-516.7722 276.6482,-516.7722"/>
</g>
<!-- self+mate&#45;&#45;Mate -->
<g id="edge4" class="edge">
<title>self+mate&#45;&#45;Mate</title>
<path fill="none" stroke="#000000" d="M1264.5074,-92.4055C1270.3453,-92.4055 1276.1831,-92.4055 1282.021,-92.4055"/>
</g>
<!-- father+mother&#45;&#45;Self -->
<g id="edge15" class="edge">
<title>father+mother&#45;&#45;Self</title>
<path fill="none" stroke="#000000" d="M988.354,-302.9991C987.4969,-293.4635 983.6843,-253.291 977.5386,-220.8109 970.5337,-183.7897 959.371,-141.5043 952.2525,-115.8929"/>
</g>
<!-- father+mother&#45;&#45;Sibling 1 -->
<g id="edge16" class="edge">
<title>father+mother&#45;&#45;Sibling 1</title>
<path fill="none" stroke="#000000" d="M988.7288,-303.0002C989.6101,-293.4691 993.5122,-253.3134 999.5386,-220.8109 1004.9946,-191.3848 1012.9437,-158.592 1019.4264,-133.5116"/>
</g>
<!-- father+mother&#45;&#45;Sibling 2 -->
<g id="edge17" class="edge">
<title>father+mother&#45;&#45;Sibling 2</title>
<path fill="none" stroke="#000000" d="M988.1801,-303.26C986.3975,-293.5573 979.3522,-247.7295 999.5386,-220.8109 1023.4178,-188.9679 1053.0886,-212.6461 1081.5386,-184.8109 1097.8543,-168.8478 1108.6455,-145.5088 1115.3369,-126.2808"/>
</g>
<!-- father+mother&#45;&#45;Sibling 3 -->
<g id="edge18" class="edge">
<title>father+mother&#45;&#45;Sibling 3</title>
<path fill="none" stroke="#000000" d="M988.0867,-303.1823C985.828,-293.0836 976.7488,-245.5642 999.5386,-220.8109 1050.9662,-164.9527 1107.2043,-232.1858 1166.5386,-184.8109 1184.7911,-170.2374 1195.653,-146.1251 1201.8932,-126.1855"/>
</g>
<!-- father+mother&#45;&#45;Sibling 4 -->
<g id="edge19" class="edge">
<title>father+mother&#45;&#45;Sibling 4</title>
<path fill="none" stroke="#000000" d="M988.9911,-303.1818C991.2526,-293.0805 1000.3436,-245.5502 977.5386,-220.8109 925.7822,-164.6648 869.2417,-232.4203 809.5386,-184.8109 791.2772,-170.2486 780.4155,-146.1359 774.1777,-126.1934"/>
</g>
<!-- father+mother&#45;&#45;Sibling 5 -->
<g id="edge20" class="edge">
<title>father+mother&#45;&#45;Sibling 5</title>
<path fill="none" stroke="#000000" d="M988.8518,-303.2924C990.404,-293.7543 996.4644,-248.6303 977.5386,-220.8109 958.9632,-193.5067 935.9689,-208.083 912.5386,-184.8109 897.3882,-169.7629 885.2911,-149.3792 876.591,-131.5851"/>
</g>
<!-- father+mother&#45;&#45;Mother -->
<g id="edge2" class="edge">
<title>father+mother&#45;&#45;Mother</title>
<path fill="none" stroke="#000000" d="M990.7261,-305.0984C996.6119,-305.0984 1002.4976,-305.0984 1008.3833,-305.0984"/>
</g>
<!-- pGFather+pGMother&#45;&#45;Father -->
<g id="edge21" class="edge">
<title>pGFather+pGMother&#45;&#45;Father</title>
<path fill="none" stroke="#000000" d="M1105.9505,-515.0085C1108.2046,-504.8811 1118.1051,-453.5906 1094.5386,-425.3858 1059.6542,-383.6356 1017.7941,-425.9849 977.5386,-389.3858 960.7738,-374.1437 951.8175,-349.63 947.1772,-330.9586"/>
</g>
<!-- pGFather+pGMother&#45;&#45;Father Sibling -->
<g id="edge22" class="edge">
<title>pGFather+pGMother&#45;&#45;Father Sibling</title>
<path fill="none" stroke="#000000" d="M1105.2656,-514.8724C1103.9185,-504.8283 1098.7339,-457.1741 1116.5386,-425.3858 1138.986,-385.3086 1180.7098,-353.7716 1214.7716,-333.0616"/>
</g>
<!-- pGFather+pGMother&#45;&#45;Paternal Grandmother -->
<g id="edge6" class="edge">
<title>pGFather+pGMother&#45;&#45;Paternal Grandmother</title>
<path fill="none" stroke="#000000" d="M1107.648,-516.7722C1113.4389,-516.7722 1119.2298,-516.7722 1125.0207,-516.7722"/>
</g>
<!-- mGFather+mGMother&#45;&#45;Mother -->
<g id="edge23" class="edge">
<title>mGFather+mGMother&#45;&#45;Mother</title>
<path fill="none" stroke="#000000" d="M278.0244,-514.9117C275.2012,-504.2455 262.6666,-450.4615 289.5386,-425.3858 347.29,-371.4949 932.847,-431.7141 999.5386,-389.3858 1017.0454,-378.2745 1028.1845,-357.9184 1035.0005,-339.9947"/>
</g>
<!-- mGFather+mGMother&#45;&#45;Mother Sibling 1 -->
<g id="edge25" class="edge">
<title>mGFather+mGMother&#45;&#45;Mother Sibling 1</title>
<path fill="none" stroke="#000000" d="M278.5348,-514.4543C278.5758,-503.9341 279.3747,-459.7082 289.5386,-425.3858 295.4166,-405.5364 304.3386,-384.95 313.4776,-366.5382"/>
</g>
<!-- mGFather+mGMother&#45;&#45;Mother Sibling 2 -->
<g id="edge26" class="edge">
<title>mGFather+mGMother&#45;&#45;Mother Sibling 2</title>
<path fill="none" stroke="#000000" d="M278.9516,-515.0077C281.2115,-504.8754 291.1387,-453.5625 267.5386,-425.3858 232.3317,-383.3514 196.0832,-418.369 149.5386,-389.3858 136.9401,-381.5408 125.0241,-371.1883 114.4487,-360.4336"/>
</g>
<!-- mGFather+mGMother&#45;&#45;Mother Sibling -->
<g id="edge24" class="edge">
<title>mGFather+mGMother&#45;&#45;Mother Sibling</title>
<path fill="none" stroke="#000000" d="M278.537,-514.4559C278.4726,-503.9426 277.587,-459.7422 267.5386,-425.3858 260.5749,-401.5763 249.2999,-376.6561 238.5342,-355.7131"/>
</g>
<!-- mGFather+mGMother&#45;&#45;Maternal Grandmother -->
<g id="edge8" class="edge">
<title>mGFather+mGMother&#45;&#45;Maternal Grandmother</title>
<path fill="none" stroke="#000000" d="M280.7066,-516.7722C286.5166,-516.7722 292.3267,-516.7722 298.1367,-516.7722"/>
</g>
<!-- fSibling+fSiblingMate&#45;&#45;Father Sibling Mate -->
<g id="edge10" class="edge">
<title>fSibling+fSiblingMate&#45;&#45;Father Sibling Mate</title>
<path fill="none" stroke="#000000" d="M1417.5074,-305.0984C1423.4888,-305.0984 1429.4703,-305.0984 1435.4517,-305.0984"/>
</g>
<!-- fSibling+fSiblingMate&#45;&#45;Father Sibling Child 1 -->
<g id="edge27" class="edge">
<title>fSibling+fSiblingMate&#45;&#45;Father Sibling Child 1</title>
<path fill="none" stroke="#000000" d="M1415.5386,-303.2596C1415.5386,-290.9571 1415.5386,-219.3697 1415.5386,-162.9752"/>
</g>
<!-- fSibling+fSiblingMate&#45;&#45;Father Sibling Child 2 -->
<g id="edge28" class="edge">
<title>fSibling+fSiblingMate&#45;&#45;Father Sibling Child 2</title>
<path fill="none" stroke="#000000" d="M1415.216,-303.2859C1413.616,-293.7149 1407.3509,-248.4503 1426.5386,-220.8109 1446.0397,-192.7202 1466.7361,-204.7208 1494.5386,-184.8109 1506.6114,-176.1654 1518.7247,-166.1234 1530.1155,-155.9096"/>
</g>
<!-- mSibling+mSiblingMate&#45;&#45;Mother Sibling Mate -->
<g id="edge12" class="edge">
<title>mSibling+mSiblingMate&#45;&#45;Mother Sibling Mate</title>
<path fill="none" stroke="#000000" d="M624.5699,-305.0984C630.4118,-305.0984 636.2538,-305.0984 642.0957,-305.0984"/>
</g>
<!-- mSibling+mSiblingMate&#45;&#45;Mother Sibling Child 1 -->
<g id="edge29" class="edge">
<title>mSibling+mSiblingMate&#45;&#45;Mother Sibling Child 1</title>
<path fill="none" stroke="#000000" d="M622.913,-303.2479C624.7768,-293.4832 632.1688,-247.3909 611.5386,-220.8109 585.1237,-186.7778 556.8566,-209.4815 521.5386,-184.8109 513.5835,-179.254 505.8604,-172.7955 498.5337,-165.924"/>
</g>
<!-- mSibling+mSiblingMate&#45;&#45;Mother Sibling Child 2 -->
<g id="edge30" class="edge">
<title>mSibling+mSiblingMate&#45;&#45;Mother Sibling Child 2</title>
<path fill="none" stroke="#000000" d="M622.5386,-303.2596C622.5386,-292.5203 622.5386,-236.6047 622.5386,-185.0552"/>
</g>
<!-- mSibling2+mSibling2Mate&#45;&#45;Mother Sibling 2 Mate -->
<g id="edge14" class="edge">
<title>mSibling2+mSibling2Mate&#45;&#45;Mother Sibling 2 Mate</title>
<path fill="none" stroke="#000000" d="M440.6949,-305.0984C446.661,-305.0984 452.6272,-305.0984 458.5934,-305.0984"/>
</g>
</g>
</svg>
