<?xml version="1.0" encoding="UTF-8" standalone="no"?>
<!DOCTYPE svg PUBLIC "-//W3C//DTD SVG 1.1//EN"
 "http://www.w3.org/Graphics/SVG/1.1/DTD/svg11.dtd">
<!-- Generated by graphviz version 2.40.1 (20161225.0304)
 -->
<!-- Title: f16 Pages: 1 -->
<svg width="1726pt" height="616pt"
 viewBox="0.00 0.00 1725.50 616.16" xmlns="http://www.w3.org/2000/svg" xmlns:xlink="http://www.w3.org/1999/xlink">
<g id="graph0" class="graph" transform="scale(1 1) rotate(0) translate(4 612.1586)">
<title>f16</title>
<polygon fill="#ffffff" stroke="transparent" points="-4,4 -4,-612.1586 1721.5025,-612.1586 1721.5025,4 -4,4"/>
<!-- Self -->
<g id="node1" class="node">
<title>Self</title>
<ellipse fill="#ffc0cb" stroke="#ffc0cb" cx="967.5386" cy="-92.4055" rx="24.2053" ry="24.2053"/>
<text text-anchor="middle" x="967.5386" y="-88.2055" font-family="Times,serif" font-size="14.00" fill="#000000">Self</text>
</g>
<!-- self+mate -->
<g id="node25" class="node">
<title>self+mate</title>
<polygon fill="none" stroke="#000000" points="1291.5386,-101.4055 1282.5386,-92.4055 1291.5386,-83.4055 1300.5386,-92.4055 1291.5386,-101.4055"/>
</g>
<!-- Self&#45;&#45;self+mate -->
<g id="edge3" class="edge">
<title>Self&#45;&#45;self+mate</title>
<path fill="none" stroke="#000000" d="M968.9755,-117.0916C972.035,-143.7663 981.492,-184.8591 1010.5386,-202.8109 1034.5459,-217.6482 1240.5314,-217.6482 1264.5386,-202.8109 1299.4523,-181.2331 1295.4555,-121.8344 1292.7292,-100.3185"/>
</g>
<!-- Mate -->
<g id="node2" class="node">
<title>Mate</title>
<polygon fill="#6495ed" stroke="#6495ed" points="1362.8048,-114.6717 1318.2724,-114.6717 1318.2724,-70.1392 1362.8048,-70.1392 1362.8048,-114.6717"/>
<text text-anchor="middle" x="1340.5386" y="-88.2055" font-family="Times,serif" font-size="14.00" fill="#000000">Mate</text>
</g>
<!-- Sibling 1 -->
<g id="node3" class="node">
<title>Sibling 1</title>
<ellipse fill="#ffc0cb" stroke="#ffc0cb" cx="1052.5386" cy="-92.4055" rx="42.0889" ry="42.0889"/>
<text text-anchor="middle" x="1052.5386" y="-88.2055" font-family="Times,serif" font-size="14.00" fill="#000000">Sibling 1</text>
</g>
<!-- Sibling 2 -->
<g id="node4" class="node">
<title>Sibling 2</title>
<polygon fill="#6495ed" stroke="#6495ed" points="1179.9937,-125.8606 1113.0835,-125.8606 1113.0835,-58.9504 1179.9937,-58.9504 1179.9937,-125.8606"/>
<text text-anchor="middle" x="1146.5386" y="-88.2055" font-family="Times,serif" font-size="14.00" fill="#000000">Sibling 2</text>
</g>
<!-- Sibling 3 -->
<g id="node5" class="node">
<title>Sibling 3</title>
<polygon fill="#6495ed" stroke="#6495ed" points="1264.9937,-125.8606 1198.0835,-125.8606 1198.0835,-58.9504 1264.9937,-58.9504 1264.9937,-125.8606"/>
<text text-anchor="middle" x="1231.5386" y="-88.2055" font-family="Times,serif" font-size="14.00" fill="#000000">Sibling 3</text>
</g>
<!-- Sibling 4 -->
<g id="node6" class="node">
<title>Sibling 4</title>
<polygon fill="#6495ed" stroke="#6495ed" points="821.9937,-125.8606 755.0835,-125.8606 755.0835,-58.9504 821.9937,-58.9504 821.9937,-125.8606"/>
<text text-anchor="middle" x="788.5386" y="-88.2055" font-family="Times,serif" font-size="14.00" fill="#000000">Sibling 4</text>
</g>
<!-- Sibling 5 -->
<g id="node7" class="node">
<title>Sibling 5</title>
<ellipse fill="#ffc0cb" stroke="#ffc0cb" cx="882.5386" cy="-92.4055" rx="42.0889" ry="42.0889"/>
<text text-anchor="middle" x="882.5386" y="-88.2055" font-family="Times,serif" font-size="14.00" fill="#000000">Sibling 5</text>
</g>
<!-- Father -->
<g id="node8" class="node">
<title>Father</title>
<polygon fill="#6495ed" stroke="#6495ed" points="983.3048,-330.8645 931.7725,-330.8645 931.7725,-279.3322 983.3048,-279.3322 983.3048,-330.8645"/>
<text text-anchor="middle" x="957.5386" y="-300.8984" font-family="Times,serif" font-size="14.00" fill="#000000">Father</text>
</g>
<!-- father+mother -->
<g id="node26" class="node">
<title>father+mother</title>
<polygon fill="none" stroke="#000000" points="1010.5386,-314.0984 1001.5386,-305.0984 1010.5386,-296.0984 1019.5386,-305.0984 1010.5386,-314.0984"/>
</g>
<!-- Father&#45;&#45;father+mother -->
<g id="edge1" class="edge">
<title>Father&#45;&#45;father+mother</title>
<path fill="none" stroke="#000000" d="M983.6245,-305.0984C989.512,-305.0984 995.3995,-305.0984 1001.2869,-305.0984"/>
</g>
<!-- Father Sibling -->
<g id="node9" class="node">
<title>Father Sibling</title>
<ellipse fill="#ffc0cb" stroke="#ffc0cb" cx="1297.5386" cy="-305.0984" rx="60.429" ry="60.429"/>
<text text-anchor="middle" x="1297.5386" y="-300.8984" font-family="Times,serif" font-size="14.00" fill="#000000">Father Sibling</text>
</g>
<!-- fSibling+fSiblingMate -->
<g id="node29" class="node">
<title>fSibling+fSiblingMate</title>
<polygon fill="none" stroke="#000000" points="1451.5386,-314.0984 1442.5386,-305.0984 1451.5386,-296.0984 1460.5386,-305.0984 1451.5386,-314.0984"/>
</g>
<!-- Father Sibling&#45;&#45;fSibling+fSiblingMate -->
<g id="edge17" class="edge">
<title>Father Sibling&#45;&#45;fSibling+fSiblingMate</title>
<path fill="none" stroke="#000000" d="M1358.2964,-305.0984C1386.3419,-305.0984 1414.3874,-305.0984 1442.4329,-305.0984"/>
</g>
<!-- Father Sibling Mate -->
<g id="node10" class="node">
<title>Father Sibling Mate</title>
<polygon fill="#6495ed" stroke="#6495ed" points="1606.5249,-369.0847 1478.5523,-369.0847 1478.5523,-241.112 1606.5249,-241.112 1606.5249,-369.0847"/>
<text text-anchor="middle" x="1542.5386" y="-300.8984" font-family="Times,serif" font-size="14.00" fill="#000000">Father Sibling Mate</text>
</g>
<!-- Father Sibling Child 1 -->
<g id="node11" class="node">
<title>Father Sibling Child 1</title>
<polygon fill="#6495ed" stroke="#6495ed" points="1521.8766,-162.7434 1381.2006,-162.7434 1381.2006,-22.0675 1521.8766,-22.0675 1521.8766,-162.7434"/>
<text text-anchor="middle" x="1451.5386" y="-88.2055" font-family="Times,serif" font-size="14.00" fill="#000000">Father Sibling Child 1</text>
</g>
<!-- Father Sibling Child 2 -->
<g id="node12" class="node">
<title>Father Sibling Child 2</title>
<ellipse fill="#ffc0cb" stroke="#ffc0cb" cx="1628.5386" cy="-92.4055" rx="88.9279" ry="88.9279"/>
<text text-anchor="middle" x="1628.5386" y="-88.2055" font-family="Times,serif" font-size="14.00" fill="#000000">Father Sibling Child 2</text>
</g>
<!-- Paternal Grandmother -->
<g id="node13" class="node">
<title>Paternal Grandmother</title>
<ellipse fill="#ffc0cb" stroke="#ffc0cb" cx="1242.5386" cy="-516.7722" rx="88.3829" ry="88.3829"/>
<text text-anchor="middle" x="1242.5386" y="-512.5722" font-family="Times,serif" font-size="14.00" fill="#000000">Paternal Grandmother</text>
</g>
<!-- Paternal Grandfather -->
<g id="node14" class="node">
<title>Paternal Grandfather</title>
<polygon fill="#6495ed" stroke="#6495ed" points="1101.0357,-583.2693 968.0415,-583.2693 968.0415,-450.2751 1101.0357,-450.2751 1101.0357,-583.2693"/>
<text text-anchor="middle" x="1034.5386" y="-512.5722" font-family="Times,serif" font-size="14.00" fill="#000000">Paternal Grandfather</text>
</g>
<!-- pGFather+pGMother -->
<g id="node27" class="node">
<title>pGFather+pGMother</title>
<polygon fill="none" stroke="#000000" points="1127.5386,-525.7722 1118.5386,-516.7722 1127.5386,-507.7722 1136.5386,-516.7722 1127.5386,-525.7722"/>
</g>
<!-- Paternal Grandfather&#45;&#45;pGFather+pGMother -->
<g id="edge5" class="edge">
<title>Paternal Grandfather&#45;&#45;pGFather+pGMother</title>
<path fill="none" stroke="#000000" d="M1101.3824,-516.7722C1106.9678,-516.7722 1112.5533,-516.7722 1118.1387,-516.7722"/>
</g>
<!-- Mother -->
<g id="node15" class="node">
<title>Mother</title>
<ellipse fill="#ffc0cb" stroke="#ffc0cb" cx="1073.5386" cy="-305.0984" rx="36.2818" ry="36.2818"/>
<text text-anchor="middle" x="1073.5386" y="-300.8984" font-family="Times,serif" font-size="14.00" fill="#000000">Mother</text>
</g>
<!-- Mother Sibling 1 -->
<g id="node16" class="node">
<title>Mother Sibling 1</title>
<ellipse fill="#ffc0cb" stroke="#ffc0cb" cx="348.5386" cy="-305.0984" rx="70.5772" ry="70.5772"/>
<text text-anchor="middle" x="348.5386" y="-300.8984" font-family="Times,serif" font-size="14.00" fill="#000000">Mother Sibling 1</text>
</g>
<!-- Mother Sibling 2 -->
<g id="node17" class="node">
<title>Mother Sibling 2</title>
<ellipse fill="#ffc0cb" stroke="#ffc0cb" cx="70.5386" cy="-305.0984" rx="70.5772" ry="70.5772"/>
<text text-anchor="middle" x="70.5386" y="-300.8984" font-family="Times,serif" font-size="14.00" fill="#000000">Mother Sibling 2</text>
</g>
<!-- mSibling2+mSibling2Mate -->
<g id="node31" class="node">
<title>mSibling2+mSibling2Mate</title>
<polygon fill="none" stroke="#000000" points="446.5386,-314.0984 437.5386,-305.0984 446.5386,-296.0984 455.5386,-305.0984 446.5386,-314.0984"/>
</g>
<!-- Mother Sibling 2&#45;&#45;mSibling2+mSibling2Mate -->
<g id="edge21" class="edge">
<title>Mother Sibling 2&#45;&#45;mSibling2+mSibling2Mate</title>
<path fill="none" stroke="#000000" d="M107.6136,-365.1084C121.3436,-381.9725 138.5246,-398.2028 158.5386,-407.3858 184.8966,-419.4795 394.8697,-422.632 419.5386,-407.3858 451.5667,-387.5914 449.6136,-333.9071 447.5642,-313.3028"/>
</g>
<!-- Mother Sibling 2 Mate -->
<g id="node18" class="node">
<title>Mother Sibling 2 Mate</title>
<polygon fill="#6495ed" stroke="#6495ed" points="617.4732,-377.0329 473.604,-377.0329 473.604,-233.1638 617.4732,-233.1638 617.4732,-377.0329"/>
<text text-anchor="middle" x="545.5386" y="-300.8984" font-family="Times,serif" font-size="14.00" fill="#000000">Mother Sibling 2 Mate</text>
</g>
<!-- Mother Sibling -->
<g id="node19" class="node">
<title>Mother Sibling</title>
<polygon fill="#6495ed" stroke="#6495ed" points="260.2077,-355.7675 158.8695,-355.7675 158.8695,-254.4293 260.2077,-254.4293 260.2077,-355.7675"/>
<text text-anchor="middle" x="209.5386" y="-300.8984" font-family="Times,serif" font-size="14.00" fill="#000000">Mother Sibling</text>
</g>
<!-- mSibling+mSiblingMate -->
<g id="node30" class="node">
<title>mSibling+mSiblingMate</title>
<polygon fill="none" stroke="#000000" points="644.5386,-314.0984 635.5386,-305.0984 644.5386,-296.0984 653.5386,-305.0984 644.5386,-314.0984"/>
</g>
<!-- Mother Sibling&#45;&#45;mSibling+mSiblingMate -->
<g id="edge19" class="edge">
<title>Mother Sibling&#45;&#45;mSibling+mSiblingMate</title>
<path fill="none" stroke="#000000" d="M230.3416,-355.8772C241.2619,-375.6743 256.7706,-396.2538 277.5386,-407.3858 310.8347,-425.2332 585.4029,-427.2468 617.5386,-407.3858 649.5667,-387.5914 647.6136,-333.9071 645.5642,-313.3028"/>
</g>
<!-- Mother Sibling Mate -->
<g id="node20" class="node">
<title>Mother Sibling Mate</title>
<ellipse fill="#ffc0cb" stroke="#ffc0cb" cx="755.5386" cy="-305.0984" rx="84.0754" ry="84.0754"/>
<text text-anchor="middle" x="755.5386" y="-300.8984" font-family="Times,serif" font-size="14.00" fill="#000000">Mother Sibling Mate</text>
</g>
<!-- Mother Sibling Child 1 -->
<g id="node21" class="node">
<title>Mother Sibling Child 1</title>
<polygon fill="#6495ed" stroke="#6495ed" points="533.825,-165.6919 387.2522,-165.6919 387.2522,-19.1191 533.825,-19.1191 533.825,-165.6919"/>
<text text-anchor="middle" x="460.5386" y="-88.2055" font-family="Times,serif" font-size="14.00" fill="#000000">Mother Sibling Child 1</text>
</g>
<!-- Mother Sibling Child 2 -->
<g id="node22" class="node">
<title>Mother Sibling Child 2</title>
<ellipse fill="#ffc0cb" stroke="#ffc0cb" cx="644.5386" cy="-92.4055" rx="92.311" ry="92.311"/>
<text text-anchor="middle" x="644.5386" y="-88.2055" font-family="Times,serif" font-size="14.00" fill="#000000">Mother Sibling Child 2</text>
</g>
<!-- Maternal Grandmother -->
<g id="node23" class="node">
<title>Maternal Grandmother</title>
<ellipse fill="#ffc0cb" stroke="#ffc0cb" cx="396.5386" cy="-516.7722" rx="91.2729" ry="91.2729"/>
<text text-anchor="middle" x="396.5386" y="-512.5722" font-family="Times,serif" font-size="14.00" fill="#000000">Maternal Grandmother</text>
</g>
<!-- Maternal Grandfather -->
<g id="node24" class="node">
<title>Maternal Grandfather</title>
<polygon fill="#6495ed" stroke="#6495ed" points="251.1982,-585.4318 113.879,-585.4318 113.879,-448.1126 251.1982,-448.1126 251.1982,-585.4318"/>
<text text-anchor="middle" x="182.5386" y="-512.5722" font-family="Times,serif" font-size="14.00" fill="#000000">Maternal Grandfather</text>
</g>
<!-- mGFather+mGMother -->
<g id="node28" class="node">
<title>mGFather+mGMother</title>
<polygon fill="none" stroke="#000000" points="278.5386,-525.7722 269.5386,-516.7722 278.5386,-507.7722 287.5386,-516.7722 278.5386,-525.7722"/>
</g>
<!-- Maternal Grandfather&#45;&#45;mGFather+mGMother -->
<g id="edge7" class="edge">
<title>Maternal Grandfather&#45;&#45;mGFather+mGMother</title>
<path fill="none" stroke="#000000" d="M251.5386,-516.7722C257.4449,-516.7722 263.3511,-516.7722 269.2574,-516.7722"/>
</g>
<!-- self+mate&#45;&#45;Mate -->
<g id="edge4" class="edge">
<title>self+mate&#45;&#45;Mate</title>
<path fill="none" stroke="#000000" d="M1300.7261,-92.4055C1306.5321,-92.4055 1312.3381,-92.4055 1318.1441,-92.4055"/>
</g>
<!-- father+mother&#45;&#45;Self -->
<g id="edge9" class="edge">
<title>father+mother&#45;&#45;Self</title>
<path fill="none" stroke="#000000" d="M1009.0082,-297.5285C1003.1585,-268.5938 982.0585,-164.2256 972.4121,-116.5114"/>
</g>
<!-- father+mother&#45;&#45;Sibling 1 -->
<g id="edge10" class="edge">
<title>father+mother&#45;&#45;Sibling 1</title>
<path fill="none" stroke="#000000" d="M1012.0334,-297.5285C1017.1187,-271.7759 1034.0036,-186.269 1044.2987,-134.1334"/>
</g>
<!-- father+mother&#45;&#45;Sibling 2 -->
<g id="edge11" class="edge">
<title>father+mother&#45;&#45;Sibling 2</title>
<path fill="none" stroke="#000000" d="M1010.0272,-296.4199C1009.5166,-279.8868 1010.6769,-243.5035 1028.5386,-220.8109 1051.4074,-191.757 1077.5508,-211.112 1103.5386,-184.8109 1119.582,-168.5742 1130.3753,-145.2373 1137.1358,-126.0787"/>
</g>
<!-- father+mother&#45;&#45;Sibling 3 -->
<g id="edge12" class="edge">
<title>father+mother&#45;&#45;Sibling 3</title>
<path fill="none" stroke="#000000" d="M1009.6426,-296.8147C1008.3197,-279.9925 1007.9142,-241.6618 1028.5386,-220.8109 1079.7967,-168.9901 1131.7838,-230.5458 1188.5386,-184.8109 1206.7253,-170.1555 1217.5894,-146.0457 1223.847,-126.1278"/>
</g>
<!-- father+mother&#45;&#45;Sibling 4 -->
<g id="edge13" class="edge">
<title>father+mother&#45;&#45;Sibling 4</title>
<path fill="none" stroke="#000000" d="M1011.4369,-296.8124C1012.7641,-279.9861 1013.1769,-241.6481 992.5386,-220.8109 940.9409,-168.7161 888.6617,-230.7799 831.5386,-184.8109 813.3421,-170.1676 802.4784,-146.0574 796.2234,-126.1363"/>
</g>
<!-- father+mother&#45;&#45;Sibling 5 -->
<g id="edge14" class="edge">
<title>father+mother&#45;&#45;Sibling 5</title>
<path fill="none" stroke="#000000" d="M1010.8246,-296.3349C1010.9262,-279.9731 1009.0637,-244.3119 992.5386,-220.8109 975.0873,-195.9927 955.5266,-206.7197 934.5386,-184.8109 919.8942,-169.524 907.9134,-149.3242 899.1583,-131.7104"/>
</g>
<!-- father+mother&#45;&#45;Mother -->
<g id="edge2" class="edge">
<title>father+mother&#45;&#45;Mother</title>
<path fill="none" stroke="#000000" d="M1019.8902,-305.0984C1025.6183,-305.0984 1031.3464,-305.0984 1037.0744,-305.0984"/>
</g>
<!-- pGFather+pGMother&#45;&#45;Father -->
<g id="edge15" class="edge">
<title>pGFather+pGMother&#45;&#45;Father</title>
<path fill="none" stroke="#000000" d="M1128.4858,-508.4879C1130.0178,-490.8318 1130.9709,-449.1721 1109.5386,-425.3858 1073.1199,-384.967 1032.7941,-425.9849 992.5386,-389.3858 975.7738,-374.1437 966.8175,-349.63 962.1772,-330.9586"/>
</g>
<!-- pGFather+pGMother&#45;&#45;Father Sibling -->
<g id="edge16" class="edge">
<title>pGFather+pGMother&#45;&#45;Father Sibling</title>
<path fill="none" stroke="#000000" d="M1127.3188,-507.7328C1127.3064,-490.4397 1129.2817,-452.0264 1145.5386,-425.3858 1169.2913,-386.4618 1210.4831,-355.0434 1243.9987,-334.0899"/>
</g>
<!-- pGFather+pGMother&#45;&#45;Paternal Grandmother -->
<g id="edge6" class="edge">
<title>pGFather+pGMother&#45;&#45;Paternal Grandmother</title>
<path fill="none" stroke="#000000" d="M1136.9722,-516.7722C1142.6079,-516.7722 1148.2436,-516.7722 1153.8793,-516.7722"/>
</g>
<!-- mGFather+mGMother&#45;&#45;Mother -->
<g id="edge23" class="edge">
<title>mGFather+mGMother&#45;&#45;Mother</title>
<path fill="none" stroke="#000000" d="M277.2689,-508.8732C274.8757,-490.8552 271.9477,-446.6394 296.5386,-425.3858 358.1481,-372.1375 959.7525,-432.9701 1028.5386,-389.3858 1046.0538,-378.2878 1057.1932,-357.932 1064.0071,-340.0052"/>
</g>
<!-- mGFather+mGMother&#45;&#45;Mother Sibling 1 -->
<g id="edge25" class="edge">
<title>mGFather+mGMother&#45;&#45;Mother Sibling 1</title>
<path fill="none" stroke="#000000" d="M279.5566,-508.5594C281.6928,-492.3781 287.2303,-455.3438 296.5386,-425.3858 302.378,-406.5924 310.208,-386.766 318.0168,-368.7504"/>
</g>
<!-- mGFather+mGMother&#45;&#45;Mother Sibling 2 -->
<g id="edge26" class="edge">
<title>mGFather+mGMother&#45;&#45;Mother Sibling 2</title>
<path fill="none" stroke="#000000" d="M279.458,-508.5128C280.936,-490.9049 281.7904,-449.3334 260.5386,-425.3858 226.1143,-386.5947 193.3223,-417.1845 149.5386,-389.3858 137.0093,-381.4308 125.1224,-371.0319 114.5536,-360.2668"/>
</g>
<!-- mGFather+mGMother&#45;&#45;Mother Sibling -->
<g id="edge24" class="edge">
<title>mGFather+mGMother&#45;&#45;Mother Sibling</title>
<path fill="none" stroke="#000000" d="M277.5021,-508.5651C275.3334,-492.3938 269.7417,-455.3763 260.5386,-425.3858 253.352,-401.9663 243.1522,-376.8985 233.7606,-355.7412"/>
</g>
<!-- mGFather+mGMother&#45;&#45;Maternal Grandmother -->
<g id="edge8" class="edge">
<title>mGFather+mGMother&#45;&#45;Maternal Grandmother</title>
<path fill="none" stroke="#000000" d="M287.7574,-516.7722C293.4231,-516.7722 299.0887,-516.7722 304.7544,-516.7722"/>
</g>
<!-- fSibling+fSiblingMate&#45;&#45;Father Sibling Mate -->
<g id="edge18" class="edge">
<title>fSibling+fSiblingMate&#45;&#45;Father Sibling Mate</title>
<path fill="none" stroke="#000000" d="M1460.7808,-305.0984C1466.6359,-305.0984 1472.4909,-305.0984 1478.346,-305.0984"/>
</g>
<!-- fSibling+fSiblingMate&#45;&#45;Father Sibling Child 1 -->
<g id="edge27" class="edge">
<title>fSibling+fSiblingMate&#45;&#45;Father Sibling Child 1</title>
<path fill="none" stroke="#000000" d="M1451.5386,-295.9592C1451.5386,-273.1787 1451.5386,-212.1562 1451.5386,-162.823"/>
</g>
<!-- fSibling+fSiblingMate&#45;&#45;Father Sibling Child 2 -->
<g id="edge28" class="edge">
<title>fSibling+fSiblingMate&#45;&#45;Father Sibling Child 2</title>
<path fill="none" stroke="#000000" d="M1451.2036,-296.3C1451.0203,-279.8801 1452.7521,-244.1259 1469.5386,-220.8109 1487.9326,-195.2634 1505.3749,-203.7265 1530.5386,-184.8109 1542.3148,-175.9587 1554.23,-165.8672 1565.5026,-155.6824"/>
</g>
<!-- mSibling+mSiblingMate&#45;&#45;Mother Sibling Mate -->
<g id="edge20" class="edge">
<title>mSibling+mSiblingMate&#45;&#45;Mother Sibling Mate</title>
<path fill="none" stroke="#000000" d="M653.6441,-305.0984C659.4818,-305.0984 665.3195,-305.0984 671.1572,-305.0984"/>
</g>
<!-- mSibling+mSiblingMate&#45;&#45;Mother Sibling Child 1 -->
<g id="edge29" class="edge">
<title>mSibling+mSiblingMate&#45;&#45;Mother Sibling Child 1</title>
<path fill="none" stroke="#000000" d="M645.1182,-296.614C645.7821,-280.0957 644.9261,-243.2734 626.5386,-220.8109 601.069,-189.6968 576.1679,-208.3082 543.5386,-184.8109 535.6641,-179.1403 527.9934,-172.608 520.6981,-165.6922"/>
</g>
<!-- mSibling+mSiblingMate&#45;&#45;Mother Sibling Child 2 -->
<g id="edge30" class="edge">
<title>mSibling+mSiblingMate&#45;&#45;Mother Sibling Child 2</title>
<path fill="none" stroke="#000000" d="M644.5386,-295.9592C644.5386,-276.4785 644.5386,-229.0323 644.5386,-184.845"/>
</g>
<!-- mSibling2+mSibling2Mate&#45;&#45;Mother Sibling 2 Mate -->
<g id="edge22" class="edge">
<title>mSibling2+mSibling2Mate&#45;&#45;Mother Sibling 2 Mate</title>
<path fill="none" stroke="#000000" d="M455.8199,-305.0984C461.6609,-305.0984 467.502,-305.0984 473.3431,-305.0984"/>
</g>
</g>
</svg>
