<?xml version="1.0" encoding="UTF-8" standalone="no"?>
<!DOCTYPE svg PUBLIC "-//W3C//DTD SVG 1.1//EN"
 "http://www.w3.org/Graphics/SVG/1.1/DTD/svg11.dtd">
<!-- Generated by graphviz version 2.40.1 (20161225.0304)
 -->
<!-- Title: f18 Pages: 1 -->
<svg width="1598pt" height="1349pt"
 viewBox="0.00 0.00 1598.26 1349.38" xmlns="http://www.w3.org/2000/svg" xmlns:xlink="http://www.w3.org/1999/xlink">
<g id="graph0" class="graph" transform="scale(1 1) rotate(0) translate(4 1345.3789)">
<title>f18</title>
<polygon fill="#ffffff" stroke="transparent" points="-4,4 -4,-1345.3789 1594.2565,-1345.3789 1594.2565,4 -4,4"/>
<!-- Self\nCrohn&#39;s Disease -->
<g id="node1" class="node">
<title>Self\nCrohn&#39;s Disease</title>
<polygon fill="#6495ed" stroke="#6495ed" points="740.2565,-367.4138 596.2565,-367.4138 596.2565,-223.4138 740.2565,-223.4138 740.2565,-367.4138"/>
<text text-anchor="middle" x="668.2565" y="-298.2138" font-family="helvetica:bold" font-size="14.00" fill="#000000">Self</text>
<text text-anchor="middle" x="668.2565" y="-284.2138" font-family="helvetica:bold" font-size="14.00" fill="#000000">Crohn&#39;s Disease</text>
</g>
<!-- self+mate -->
<g id="node28" class="node">
<title>self+mate</title>
<ellipse fill="#000000" stroke="#000000" cx="587.2565" cy="-181.8" rx="1.8" ry="1.8"/>
</g>
<!-- Self\nCrohn&#39;s Disease&#45;&#45;self+mate -->
<g id="edge1" class="edge">
<title>Self\nCrohn&#39;s Disease&#45;&#45;self+mate</title>
<path fill="none" stroke="#000000" d="M616.7285,-223.1386C603.4992,-204.5827 591.9693,-188.4104 588.3967,-183.3993"/>
</g>
<!-- Mate -->
<g id="node2" class="node">
<title>Mate</title>
<ellipse fill="#ffc0cb" stroke="#ffc0cb" cx="506.2565" cy="-295.4138" rx="72" ry="72"/>
<text text-anchor="middle" x="506.2565" y="-291.2138" font-family="helvetica:bold" font-size="14.00" fill="#000000">Mate</text>
</g>
<!-- Child 1 -->
<g id="node3" class="node">
<title>Child 1</title>
<polygon fill="#6495ed" stroke="#6495ed" points="497.2565,-144 353.2565,-144 353.2565,0 497.2565,0 497.2565,-144"/>
<text text-anchor="middle" x="425.2565" y="-67.8" font-family="helvetica:bold" font-size="14.00" fill="#000000">Child 1</text>
</g>
<!-- Child 2 -->
<g id="node4" class="node">
<title>Child 2</title>
<polygon fill="#6495ed" stroke="#6495ed" points="659.2565,-144 515.2565,-144 515.2565,0 659.2565,0 659.2565,-144"/>
<text text-anchor="middle" x="587.2565" y="-67.8" font-family="helvetica:bold" font-size="14.00" fill="#000000">Child 2</text>
</g>
<!-- Child 3 -->
<g id="node5" class="node">
<title>Child 3</title>
<polygon fill="#6495ed" stroke="#6495ed" points="821.2565,-144 677.2565,-144 677.2565,0 821.2565,0 821.2565,-144"/>
<text text-anchor="middle" x="749.2565" y="-67.8" font-family="helvetica:bold" font-size="14.00" fill="#000000">Child 3</text>
</g>
<!-- Sibling\nPsoriasis -->
<g id="node6" class="node">
<title>Sibling\nPsoriasis</title>
<polygon fill="#6495ed" stroke="#6495ed" points="1064.2565,-367.4138 920.2565,-367.4138 920.2565,-223.4138 1064.2565,-223.4138 1064.2565,-367.4138"/>
<text text-anchor="middle" x="992.2565" y="-298.2138" font-family="helvetica:bold" font-size="14.00" fill="#000000">Sibling</text>
<text text-anchor="middle" x="992.2565" y="-284.2138" font-family="helvetica:bold" font-size="14.00" fill="#000000">Psoriasis</text>
</g>
<!-- sibling+siblingmate -->
<g id="node29" class="node">
<title>sibling+siblingmate</title>
<ellipse fill="#000000" stroke="#000000" cx="971.2565" cy="-181.8" rx="1.8" ry="1.8"/>
</g>
<!-- Sibling\nPsoriasis&#45;&#45;sibling+siblingmate -->
<g id="edge3" class="edge">
<title>Sibling\nPsoriasis&#45;&#45;sibling+siblingmate</title>
<path fill="none" stroke="#000000" d="M978.8974,-223.1386C975.5323,-204.9328 972.5913,-189.0215 971.6067,-183.6948"/>
</g>
<!-- Sibling Mate -->
<g id="node7" class="node">
<title>Sibling Mate</title>
<ellipse fill="#ffc0cb" stroke="#ffc0cb" cx="830.2565" cy="-295.4138" rx="72" ry="72"/>
<text text-anchor="middle" x="830.2565" y="-291.2138" font-family="helvetica:bold" font-size="14.00" fill="#000000">Sibling Mate</text>
</g>
<!-- Sibling Child 1 -->
<g id="node8" class="node">
<title>Sibling Child 1</title>
<polygon fill="#6495ed" stroke="#6495ed" points="1023.2565,-144 879.2565,-144 879.2565,0 1023.2565,0 1023.2565,-144"/>
<text text-anchor="middle" x="951.2565" y="-67.8" font-family="helvetica:bold" font-size="14.00" fill="#000000">Sibling Child 1</text>
</g>
<!-- Sibling Child 2 -->
<g id="node9" class="node">
<title>Sibling Child 2</title>
<polygon fill="#6495ed" stroke="#6495ed" points="1185.2565,-144 1041.2565,-144 1041.2565,0 1185.2565,0 1185.2565,-144"/>
<text text-anchor="middle" x="1113.2565" y="-67.8" font-family="helvetica:bold" font-size="14.00" fill="#000000">Sibling Child 2</text>
</g>
<!-- Mother\nAlzheimer&#39;s Disease -->
<g id="node10" class="node">
<title>Mother\nAlzheimer&#39;s Disease</title>
<ellipse fill="#ffc0cb" stroke="#ffc0cb" cx="1354.2565" cy="-520.3538" rx="73.5523" ry="73.5523"/>
<text text-anchor="middle" x="1354.2565" y="-523.1538" font-family="helvetica:bold" font-size="14.00" fill="#000000">Mother</text>
<text text-anchor="middle" x="1354.2565" y="-509.1538" font-family="helvetica:bold" font-size="14.00" fill="#000000">Alzheimer&#39;s Disease</text>
</g>
<!-- Mother Sibling -->
<g id="node11" class="node">
<title>Mother Sibling</title>
<polygon fill="#6495ed" stroke="#6495ed" points="1590.2565,-592.3538 1446.2565,-592.3538 1446.2565,-448.3538 1590.2565,-448.3538 1590.2565,-592.3538"/>
<text text-anchor="middle" x="1518.2565" y="-516.1538" font-family="helvetica:bold" font-size="14.00" fill="#000000">Mother Sibling</text>
</g>
<!-- Maternal Grandmother\nLung Cancer -->
<g id="node12" class="node">
<title>Maternal Grandmother\nLung Cancer</title>
<ellipse fill="#ffc0cb" stroke="#ffc0cb" cx="1245.2565" cy="-783.03" rx="80.9845" ry="80.9845"/>
<text text-anchor="middle" x="1245.2565" y="-785.83" font-family="helvetica:bold" font-size="14.00" fill="#000000">Maternal Grandmother</text>
<text text-anchor="middle" x="1245.2565" y="-771.83" font-family="helvetica:bold" font-size="14.00" fill="#000000">Lung Cancer</text>
</g>
<!-- Maternal Grandfather\nLiver Cancer -->
<g id="node13" class="node">
<title>Maternal Grandfather\nLiver Cancer</title>
<polygon fill="#6495ed" stroke="#6495ed" points="1145.8249,-857.5984 996.6881,-857.5984 996.6881,-708.4617 1145.8249,-708.4617 1145.8249,-857.5984"/>
<text text-anchor="middle" x="1071.2565" y="-785.83" font-family="helvetica:bold" font-size="14.00" fill="#000000">Maternal Grandfather</text>
<text text-anchor="middle" x="1071.2565" y="-771.83" font-family="helvetica:bold" font-size="14.00" fill="#000000">Liver Cancer</text>
</g>
<!-- maternalgrandfather+maternalgrandmother -->
<g id="node30" class="node">
<title>maternalgrandfather+maternalgrandmother</title>
<ellipse fill="#000000" stroke="#000000" cx="1289.2565" cy="-934.3801" rx="1.8" ry="1.8"/>
</g>
<!-- Maternal Grandfather\nLiver Cancer&#45;&#45;maternalgrandfather+maternalgrandmother -->
<g id="edge5" class="edge">
<title>Maternal Grandfather\nLiver Cancer&#45;&#45;maternalgrandfather+maternalgrandmother</title>
<path fill="none" stroke="#000000" d="M1115.3874,-857.6724C1126.8277,-872.2428 1140.2246,-886.1985 1155.2565,-896.5801 1201.3999,-928.4483 1273.9611,-933.6001 1287.1608,-934.2859"/>
</g>
<!-- Father\nHypertension -->
<g id="node14" class="node">
<title>Father\nHypertension</title>
<polygon fill="#6495ed" stroke="#6495ed" points="250.2565,-592.3538 106.2565,-592.3538 106.2565,-448.3538 250.2565,-448.3538 250.2565,-592.3538"/>
<text text-anchor="middle" x="178.2565" y="-523.1538" font-family="helvetica:bold" font-size="14.00" fill="#000000">Father</text>
<text text-anchor="middle" x="178.2565" y="-509.1538" font-family="helvetica:bold" font-size="14.00" fill="#000000">Hypertension</text>
</g>
<!-- father+fathermate2 -->
<g id="node31" class="node">
<title>father+fathermate2</title>
<ellipse fill="#000000" stroke="#000000" cx="811.2565" cy="-631.68" rx="1.8" ry="1.8"/>
</g>
<!-- Father\nHypertension&#45;&#45;father+fathermate2 -->
<g id="edge7" class="edge">
<title>Father\nHypertension&#45;&#45;father+fathermate2</title>
<path fill="none" stroke="#000000" d="M250.4655,-589.6417C253.3531,-591.1931 256.2862,-592.6146 259.2565,-593.88 313.6059,-617.0331 773.2198,-630.5934 809.0442,-631.6175"/>
</g>
<!-- Father Mate 2 -->
<g id="node15" class="node">
<title>Father Mate 2</title>
<ellipse fill="#ffc0cb" stroke="#ffc0cb" cx="711.2565" cy="-520.3538" rx="72" ry="72"/>
<text text-anchor="middle" x="711.2565" y="-516.1538" font-family="helvetica:bold" font-size="14.00" fill="#000000">Father Mate 2</text>
</g>
<!-- Father Mate 2 Child -->
<g id="node16" class="node">
<title>Father Mate 2 Child</title>
<ellipse fill="#ffc0cb" stroke="#ffc0cb" cx="1154.2565" cy="-295.4138" rx="72" ry="72"/>
<text text-anchor="middle" x="1154.2565" y="-291.2138" font-family="helvetica:bold" font-size="14.00" fill="#000000">Father Mate 2 Child</text>
</g>
<!-- Father Sibling -->
<g id="node17" class="node">
<title>Father Sibling</title>
<polygon fill="#6495ed" stroke="#6495ed" points="574.2565,-592.3538 430.2565,-592.3538 430.2565,-448.3538 574.2565,-448.3538 574.2565,-592.3538"/>
<text text-anchor="middle" x="502.2565" y="-516.1538" font-family="helvetica:bold" font-size="14.00" fill="#000000">Father Sibling</text>
</g>
<!-- fathersibling+fathersiblingmate -->
<g id="node32" class="node">
<title>fathersibling+fathersiblingmate</title>
<ellipse fill="#000000" stroke="#000000" cx="340.2565" cy="-409.0277" rx="1.8" ry="1.8"/>
</g>
<!-- Father Sibling&#45;&#45;fathersibling+fathersiblingmate -->
<g id="edge9" class="edge">
<title>Father Sibling&#45;&#45;fathersibling+fathersiblingmate</title>
<path fill="none" stroke="#000000" d="M430.2547,-453.1203C427.2662,-450.9324 424.2613,-448.8258 421.2565,-446.8277 392.3112,-427.579 352.0046,-413.0749 342.3802,-409.7496"/>
</g>
<!-- Father Sibling Mate -->
<g id="node18" class="node">
<title>Father Sibling Mate</title>
<ellipse fill="#ffc0cb" stroke="#ffc0cb" cx="340.2565" cy="-520.3538" rx="72" ry="72"/>
<text text-anchor="middle" x="340.2565" y="-516.1538" font-family="helvetica:bold" font-size="14.00" fill="#000000">Father Sibling Mate</text>
</g>
<!-- Father Sibling Child 1 -->
<g id="node19" class="node">
<title>Father Sibling Child 1</title>
<polygon fill="#6495ed" stroke="#6495ed" points="246.1042,-370.2616 96.4088,-370.2616 96.4088,-220.5661 246.1042,-220.5661 246.1042,-370.2616"/>
<text text-anchor="middle" x="171.2565" y="-291.2138" font-family="helvetica:bold" font-size="14.00" fill="#000000">Father Sibling Child 1</text>
</g>
<!-- Father Sibling Child 2 -->
<g id="node20" class="node">
<title>Father Sibling Child 2</title>
<ellipse fill="#ffc0cb" stroke="#ffc0cb" cx="340.2565" cy="-295.4138" rx="75.6281" ry="75.6281"/>
<text text-anchor="middle" x="340.2565" y="-291.2138" font-family="helvetica:bold" font-size="14.00" fill="#000000">Father Sibling Child 2</text>
</g>
<!-- Paternal Grandmother (Adopted)\nHypertension -->
<g id="node21" class="node">
<title>Paternal Grandmother (Adopted)\nHypertension</title>
<ellipse fill="#ffc0cb" stroke="#ffc0cb" cx="778.2565" cy="-783.03" rx="113.6001" ry="113.6001"/>
<text text-anchor="middle" x="778.2565" y="-785.83" font-family="helvetica:bold" font-size="14.00" fill="#000000">Paternal Grandmother (Adopted)</text>
<text text-anchor="middle" x="778.2565" y="-771.83" font-family="helvetica:bold" font-size="14.00" fill="#000000">Hypertension</text>
</g>
<!-- Paternal Grandmother Mother (Through Adoption) -->
<g id="node22" class="node">
<title>Paternal Grandmother Mother (Through Adoption)</title>
<ellipse fill="#ffc0cb" stroke="#ffc0cb" cx="929.2565" cy="-1136.9795" rx="164.599" ry="164.599"/>
<text text-anchor="middle" x="929.2565" y="-1132.7795" font-family="helvetica:bold" font-size="14.00" fill="#000000">Paternal Grandmother Mother (Through Adoption)</text>
</g>
<!-- Paternal Grandmother Father (Through Adoption)\nHypertension -->
<g id="node23" class="node">
<title>Paternal Grandmother Father (Through Adoption)\nHypertension</title>
<polygon fill="#6495ed" stroke="#6495ed" points="746.3759,-1298.0988 424.1371,-1298.0988 424.1371,-975.8601 746.3759,-975.8601 746.3759,-1298.0988"/>
<text text-anchor="middle" x="585.2565" y="-1139.7795" font-family="helvetica:bold" font-size="14.00" fill="#000000">Paternal Grandmother Father (Through Adoption)</text>
<text text-anchor="middle" x="585.2565" y="-1125.7795" font-family="helvetica:bold" font-size="14.00" fill="#000000">Hypertension</text>
</g>
<!-- paternalgrandmotherfather(throughadoption)+paternalgrandmothermother(throughadoption) -->
<g id="node33" class="node">
<title>paternalgrandmotherfather(throughadoption)+paternalgrandmothermother(throughadoption)</title>
<ellipse fill="#000000" stroke="#000000" cx="929.2565" cy="-1339.5789" rx="1.8" ry="1.8"/>
</g>
<!-- Paternal Grandmother Father (Through Adoption)\nHypertension&#45;&#45;paternalgrandmotherfather(throughadoption)+paternalgrandmothermother(throughadoption) -->
<g id="edge11" class="edge">
<title>Paternal Grandmother Father (Through Adoption)\nHypertension&#45;&#45;paternalgrandmotherfather(throughadoption)+paternalgrandmothermother(throughadoption)</title>
<path fill="none" stroke="#000000" d="M746.6081,-1296.9334C749.4745,-1298.6088 752.3579,-1300.2257 755.2565,-1301.7789 819.5616,-1336.2349 913.1787,-1339.2871 927.4139,-1339.5537"/>
</g>
<!-- Paternal Grandfather\nHypercholesterolemia -->
<g id="node24" class="node">
<title>Paternal Grandfather\nHypercholesterolemia</title>
<polygon fill="#6495ed" stroke="#6495ed" points="386.1496,-858.9231 234.3634,-858.9231 234.3634,-707.1369 386.1496,-707.1369 386.1496,-858.9231"/>
<text text-anchor="middle" x="310.2565" y="-785.83" font-family="helvetica:bold" font-size="14.00" fill="#000000">Paternal Grandfather</text>
<text text-anchor="middle" x="310.2565" y="-771.83" font-family="helvetica:bold" font-size="14.00" fill="#000000">Hypercholesterolemia</text>
</g>
<!-- paternalgrandfather+paternalgrandmother(adopted) -->
<g id="node34" class="node">
<title>paternalgrandfather+paternalgrandmother(adopted)</title>
<ellipse fill="#000000" stroke="#000000" cx="359.2565" cy="-631.68" rx="1.8" ry="1.8"/>
</g>
<!-- Paternal Grandfather\nHypercholesterolemia&#45;&#45;paternalgrandfather+paternalgrandmother(adopted) -->
<g id="edge13" class="edge">
<title>Paternal Grandfather\nHypercholesterolemia&#45;&#45;paternalgrandfather+paternalgrandmother(adopted)</title>
<path fill="none" stroke="#000000" d="M334.9001,-706.9116C345.3861,-674.5225 355.8371,-642.2417 358.5691,-633.8033"/>
</g>
<!-- Paternal Grandfather Sibling\nLung Cancer -->
<g id="node25" class="node">
<title>Paternal Grandfather Sibling\nLung Cancer</title>
<ellipse fill="#ffc0cb" stroke="#ffc0cb" cx="503.2565" cy="-783.03" rx="99.4796" ry="99.4796"/>
<text text-anchor="middle" x="503.2565" y="-785.83" font-family="helvetica:bold" font-size="14.00" fill="#000000">Paternal Grandfather Sibling</text>
<text text-anchor="middle" x="503.2565" y="-771.83" font-family="helvetica:bold" font-size="14.00" fill="#000000">Lung Cancer</text>
</g>
<!-- Paternal Grandfather Mother -->
<g id="node26" class="node">
<title>Paternal Grandfather Mother</title>
<ellipse fill="#ffc0cb" stroke="#ffc0cb" cx="98.2565" cy="-1136.9795" rx="98.0136" ry="98.0136"/>
<text text-anchor="middle" x="98.2565" y="-1132.7795" font-family="helvetica:bold" font-size="14.00" fill="#000000">Paternal Grandfather Mother</text>
</g>
<!-- Paternal Grandfather Father -->
<g id="node27" class="node">
<title>Paternal Grandfather Father</title>
<polygon fill="#6495ed" stroke="#6495ed" points="405.8522,-1232.5752 214.6608,-1232.5752 214.6608,-1041.3837 405.8522,-1041.3837 405.8522,-1232.5752"/>
<text text-anchor="middle" x="310.2565" y="-1132.7795" font-family="helvetica:bold" font-size="14.00" fill="#000000">Paternal Grandfather Father</text>
</g>
<!-- paternalgrandfatherfather+paternalgrandfathermother -->
<g id="node35" class="node">
<title>paternalgrandfatherfather+paternalgrandfathermother</title>
<ellipse fill="#000000" stroke="#000000" cx="310.2565" cy="-934.3801" rx="1.8" ry="1.8"/>
</g>
<!-- Paternal Grandfather Father&#45;&#45;paternalgrandfatherfather+paternalgrandfathermother -->
<g id="edge15" class="edge">
<title>Paternal Grandfather Father&#45;&#45;paternalgrandfatherfather+paternalgrandfathermother</title>
<path fill="none" stroke="#000000" d="M310.2565,-1041.3159C310.2565,-994.5963 310.2565,-946.2731 310.2565,-936.2613"/>
</g>
<!-- self+mate&#45;&#45;Mate -->
<g id="edge2" class="edge">
<title>self+mate&#45;&#45;Mate</title>
<path fill="none" stroke="#000000" d="M586.1632,-183.3334C581.8161,-189.431 565.1652,-212.7861 548.1801,-236.6102"/>
</g>
<!-- self+mate&#45;&#45;Child 1 -->
<g id="edge18" class="edge">
<title>self+mate&#45;&#45;Child 1</title>
<path fill="none" stroke="#000000" d="M585.1375,-181.071C575.5334,-177.715 535.3018,-163.0975 506.2565,-144 503.2695,-142.036 500.2797,-139.9669 497.3039,-137.8192"/>
</g>
<!-- self+mate&#45;&#45;Child 2 -->
<g id="edge19" class="edge">
<title>self+mate&#45;&#45;Child 2</title>
<path fill="none" stroke="#000000" d="M587.2565,-179.8942C587.2565,-174.9107 587.2565,-160.7292 587.2565,-144.2195"/>
</g>
<!-- self+mate&#45;&#45;Child 3 -->
<g id="edge20" class="edge">
<title>self+mate&#45;&#45;Child 3</title>
<path fill="none" stroke="#000000" d="M589.3755,-181.071C598.9796,-177.715 639.2113,-163.0975 668.2565,-144 671.2435,-142.036 674.2333,-139.9669 677.2091,-137.8192"/>
</g>
<!-- sibling+siblingmate&#45;&#45;Sibling Mate -->
<g id="edge4" class="edge">
<title>sibling+siblingmate&#45;&#45;Sibling Mate</title>
<path fill="none" stroke="#000000" d="M969.3027,-182.8506C961.5988,-187.0297 932.6991,-203.0522 911.2565,-219.6 901.345,-227.249 891.2447,-235.9013 881.6905,-244.5544"/>
</g>
<!-- sibling+siblingmate&#45;&#45;Sibling Child 1 -->
<g id="edge22" class="edge">
<title>sibling+siblingmate&#45;&#45;Sibling Child 1</title>
<path fill="none" stroke="#000000" d="M970.9094,-179.8942C970.0016,-174.9107 967.4185,-160.7292 964.4112,-144.2195"/>
</g>
<!-- sibling+siblingmate&#45;&#45;Sibling Child 2 -->
<g id="edge23" class="edge">
<title>sibling+siblingmate&#45;&#45;Sibling Child 2</title>
<path fill="none" stroke="#000000" d="M973.2325,-180.7397C981.0264,-176.5243 1010.2831,-160.3841 1032.2565,-144 1035.1224,-141.8631 1038.009,-139.6468 1040.8976,-137.3746"/>
</g>
<!-- maternalgrandfather+maternalgrandmother&#45;&#45;Mother\nAlzheimer&#39;s Disease -->
<g id="edge24" class="edge">
<title>maternalgrandfather+maternalgrandmother&#45;&#45;Mother\nAlzheimer&#39;s Disease</title>
<path fill="none" stroke="#000000" d="M1291.1226,-933.5526C1298.4066,-930.2081 1325.0247,-916.8886 1335.2565,-896.5801 1383.7363,-800.3557 1377.6864,-672.1638 1367.2139,-593.0026"/>
</g>
<!-- maternalgrandfather+maternalgrandmother&#45;&#45;Mother Sibling -->
<g id="edge25" class="edge">
<title>maternalgrandfather+maternalgrandmother&#45;&#45;Mother Sibling</title>
<path fill="none" stroke="#000000" d="M1291.0585,-934.0393C1300.559,-932.1523 1345.3002,-922.129 1369.2565,-896.5801 1449.9861,-810.4835 1488.927,-675.3616 1506.1596,-592.6388"/>
</g>
<!-- maternalgrandfather+maternalgrandmother&#45;&#45;Maternal Grandmother\nLung Cancer -->
<g id="edge6" class="edge">
<title>maternalgrandfather+maternalgrandmother&#45;&#45;Maternal Grandmother\nLung Cancer</title>
<path fill="none" stroke="#000000" d="M1288.6345,-932.2405C1286.2217,-923.9409 1277.1562,-892.7576 1267.9322,-861.0292"/>
</g>
<!-- father+fathermate2&#45;&#45;Self\nCrohn&#39;s Disease -->
<g id="edge17" class="edge">
<title>father+fathermate2&#45;&#45;Self\nCrohn&#39;s Disease</title>
<path fill="none" stroke="#000000" d="M811.4623,-629.7587C812.9739,-614.9086 821.506,-517.1223 792.2565,-446.8277 780.1172,-417.6536 760.4332,-389.6937 740.2882,-365.916"/>
</g>
<!-- father+fathermate2&#45;&#45;Sibling\nPsoriasis -->
<g id="edge21" class="edge">
<title>father+fathermate2&#45;&#45;Sibling\nPsoriasis</title>
<path fill="none" stroke="#000000" d="M812.2303,-629.8708C822.0249,-611.6742 903.4424,-460.4147 953.3719,-367.6546"/>
</g>
<!-- father+fathermate2&#45;&#45;Father Mate 2 -->
<g id="edge8" class="edge">
<title>father+fathermate2&#45;&#45;Father Mate 2</title>
<path fill="none" stroke="#000000" d="M809.8429,-630.1063C804.0742,-623.6843 781.5743,-598.636 759.5242,-574.0884"/>
</g>
<!-- father+fathermate2&#45;&#45;Father Mate 2 Child -->
<g id="edge27" class="edge">
<title>father+fathermate2&#45;&#45;Father Mate 2 Child</title>
<path fill="none" stroke="#000000" d="M813.2347,-630.9782C822.1923,-627.7404 859.6247,-613.559 885.2565,-593.88 977.105,-523.3628 1062.9442,-418.8012 1111.9478,-353.9969"/>
</g>
<!-- fathersibling+fathersiblingmate&#45;&#45;Father Sibling Mate -->
<g id="edge10" class="edge">
<title>fathersibling+fathersiblingmate&#45;&#45;Father Sibling Mate</title>
<path fill="none" stroke="#000000" d="M340.2565,-411.117C340.2565,-416.4247 340.2565,-431.222 340.2565,-448.2771"/>
</g>
<!-- fathersibling+fathersiblingmate&#45;&#45;Father Sibling Child 1 -->
<g id="edge29" class="edge">
<title>fathersibling+fathersiblingmate&#45;&#45;Father Sibling Child 1</title>
<path fill="none" stroke="#000000" d="M338.5365,-408.4902C329.4334,-405.6007 286.1312,-391.2943 255.2565,-371.2277 252.2916,-369.3007 249.3284,-367.2699 246.3813,-365.1594"/>
</g>
<!-- fathersibling+fathersiblingmate&#45;&#45;Father Sibling Child 2 -->
<g id="edge30" class="edge">
<title>fathersibling+fathersiblingmate&#45;&#45;Father Sibling Child 2</title>
<path fill="none" stroke="#000000" d="M340.2565,-407.0557C340.2565,-402.017 340.2565,-387.8908 340.2565,-371.3094"/>
</g>
<!-- paternalgrandmotherfather(throughadoption)+paternalgrandmothermother(throughadoption)&#45;&#45;Paternal Grandmother (Adopted)\nHypertension -->
<g id="edge31" class="edge">
<title>paternalgrandmotherfather(throughadoption)+paternalgrandmothermother(throughadoption)&#45;&#45;Paternal Grandmother (Adopted)\nHypertension</title>
<path fill="none" stroke="#000000" d="M931.3738,-1339.4693C949.6185,-1338.4776 1080.1701,-1330.419 1103.2565,-1301.7789 1195.1895,-1187.7299 1176.2798,-1099.17 1103.2565,-972.1801 1096.7376,-960.8435 971.0299,-889.582 877.9066,-837.8609"/>
</g>
<!-- paternalgrandmotherfather(throughadoption)+paternalgrandmothermother(throughadoption)&#45;&#45;Paternal Grandmother Mother (Through Adoption) -->
<g id="edge12" class="edge">
<title>paternalgrandmotherfather(throughadoption)+paternalgrandmothermother(throughadoption)&#45;&#45;Paternal Grandmother Mother (Through Adoption)</title>
<path fill="none" stroke="#000000" d="M929.2565,-1337.3036C929.2565,-1332.2607 929.2565,-1319.2201 929.2565,-1302.0646"/>
</g>
<!-- paternalgrandfather+paternalgrandmother(adopted)&#45;&#45;Father\nHypertension -->
<g id="edge26" class="edge">
<title>paternalgrandfather+paternalgrandmother(adopted)&#45;&#45;Father\nHypertension</title>
<path fill="none" stroke="#000000" d="M357.4982,-631.2791C347.3712,-628.9184 295.6662,-616.1646 259.2565,-593.88 256.3407,-592.0954 253.4345,-590.1983 250.551,-588.2132"/>
</g>
<!-- paternalgrandfather+paternalgrandmother(adopted)&#45;&#45;Father Sibling -->
<g id="edge28" class="edge">
<title>paternalgrandfather+paternalgrandmother(adopted)&#45;&#45;Father Sibling</title>
<path fill="none" stroke="#000000" d="M360.8606,-630.8487C368.1348,-627.0496 398.6448,-610.7959 421.2565,-593.88 424.1459,-591.7184 427.0526,-589.4727 429.9581,-587.1672"/>
</g>
<!-- paternalgrandfather+paternalgrandmother(adopted)&#45;&#45;Paternal Grandmother (Adopted)\nHypertension -->
<g id="edge14" class="edge">
<title>paternalgrandfather+paternalgrandmother(adopted)&#45;&#45;Paternal Grandmother (Adopted)\nHypertension</title>
<path fill="none" stroke="#000000" d="M361.5072,-631.8778C383.5925,-633.8391 561.8198,-650.1338 611.2565,-669.48 638.1922,-680.0208 665.1108,-695.5605 689.2259,-711.7824"/>
</g>
<!-- paternalgrandfatherfather+paternalgrandfathermother&#45;&#45;Paternal Grandfather\nHypercholesterolemia -->
<g id="edge32" class="edge">
<title>paternalgrandfatherfather+paternalgrandfathermother&#45;&#45;Paternal Grandfather\nHypercholesterolemia</title>
<path fill="none" stroke="#000000" d="M310.2565,-932.2405C310.2565,-923.7612 310.2565,-891.397 310.2565,-858.9683"/>
</g>
<!-- paternalgrandfatherfather+paternalgrandfathermother&#45;&#45;Paternal Grandfather Sibling\nLung Cancer -->
<g id="edge33" class="edge">
<title>paternalgrandfatherfather+paternalgrandfathermother&#45;&#45;Paternal Grandfather Sibling\nLung Cancer</title>
<path fill="none" stroke="#000000" d="M312.0048,-933.8842C321.2517,-931.2072 365.1688,-917.8085 395.2565,-896.5801 410.4842,-885.8361 425.2952,-872.7119 438.8224,-859.2505"/>
</g>
<!-- paternalgrandfatherfather+paternalgrandfathermother&#45;&#45;Paternal Grandfather Mother -->
<g id="edge16" class="edge">
<title>paternalgrandfatherfather+paternalgrandfathermother&#45;&#45;Paternal Grandfather Mother</title>
<path fill="none" stroke="#000000" d="M308.3079,-934.614C297.1048,-936.0457 240.1778,-944.4997 205.2565,-972.1801 179.5928,-992.5224 158.13,-1020.783 141.3263,-1048.1623"/>
</g>
</g>
</svg>
