<?xml version="1.0" encoding="UTF-8" standalone="no"?>
<!DOCTYPE svg PUBLIC "-//W3C//DTD SVG 1.1//EN"
 "http://www.w3.org/Graphics/SVG/1.1/DTD/svg11.dtd">
<!-- Generated by graphviz version 2.40.1 (20161225.0304)
 -->
<!-- Title: f2 Pages: 1 -->
<svg width="1404pt" height="649pt"
 viewBox="0.00 0.00 1404.37 648.78" xmlns="http://www.w3.org/2000/svg" xmlns:xlink="http://www.w3.org/1999/xlink">
<g id="graph0" class="graph" transform="scale(1 1) rotate(0) translate(4 644.7845)">
<title>f2</title>
<polygon fill="#ffffff" stroke="transparent" points="-4,4 -4,-644.7845 1400.3721,-644.7845 1400.3721,4 -4,4"/>
<!-- Self -->
<g id="node1" class="node">
<title>Self</title>
<polygon fill="#6495ed" stroke="#6495ed" points="748.3721,-363.6 604.3721,-363.6 604.3721,-219.6 748.3721,-219.6 748.3721,-363.6"/>
<text text-anchor="middle" x="676.3721" y="-287.4" font-family="helvetica:bold" font-size="14.00" fill="#000000">Self</text>
</g>
<!-- Sibling 1 -->
<g id="node2" class="node">
<title>Sibling 1</title>
<ellipse fill="#ffc0cb" stroke="#ffc0cb" cx="838.3721" cy="-291.6" rx="72" ry="72"/>
<text text-anchor="middle" x="838.3721" y="-287.4" font-family="helvetica:bold" font-size="14.00" fill="#000000">Sibling 1</text>
</g>
<!-- Sibling Mate -->
<g id="node3" class="node">
<title>Sibling Mate</title>
<polygon fill="#6495ed" stroke="#6495ed" points="1396.3721,-363.6 1252.3721,-363.6 1252.3721,-219.6 1396.3721,-219.6 1396.3721,-363.6"/>
<text text-anchor="middle" x="1324.3721" y="-287.4" font-family="helvetica:bold" font-size="14.00" fill="#000000">Sibling Mate</text>
</g>
<!-- siblingmate+sibling1 -->
<g id="node13" class="node">
<title>siblingmate+sibling1</title>
<ellipse fill="#000000" stroke="#000000" cx="1081.3721" cy="-181.8" rx="1.8" ry="1.8"/>
</g>
<!-- Sibling Mate&#45;&#45;siblingmate+sibling1 -->
<g id="edge1" class="edge">
<title>Sibling Mate&#45;&#45;siblingmate+sibling1</title>
<path fill="none" stroke="#000000" d="M1252.3147,-224.6569C1249.364,-222.8523 1246.3793,-221.1577 1243.3721,-219.6 1183.3644,-188.5165 1097.7056,-182.6752 1083.4262,-181.9008"/>
</g>
<!-- Sibling Child -->
<g id="node4" class="node">
<title>Sibling Child</title>
<polygon fill="#6495ed" stroke="#6495ed" points="1153.3721,-144 1009.3721,-144 1009.3721,0 1153.3721,0 1153.3721,-144"/>
<text text-anchor="middle" x="1081.3721" y="-67.8" font-family="helvetica:bold" font-size="14.00" fill="#000000">Sibling Child</text>
</g>
<!-- Sibling 2 -->
<g id="node5" class="node">
<title>Sibling 2</title>
<ellipse fill="#ffc0cb" stroke="#ffc0cb" cx="1000.3721" cy="-291.6" rx="72" ry="72"/>
<text text-anchor="middle" x="1000.3721" y="-287.4" font-family="helvetica:bold" font-size="14.00" fill="#000000">Sibling 2</text>
</g>
<!-- Father -->
<g id="node6" class="node">
<title>Father</title>
<polygon fill="#6495ed" stroke="#6495ed" points="424.3721,-363.6 280.3721,-363.6 280.3721,-219.6 424.3721,-219.6 424.3721,-363.6"/>
<text text-anchor="middle" x="352.3721" y="-287.4" font-family="helvetica:bold" font-size="14.00" fill="#000000">Father</text>
</g>
<!-- father+mother -->
<g id="node14" class="node">
<title>father+mother</title>
<ellipse fill="#000000" stroke="#000000" cx="676.3721" cy="-401.4" rx="1.8" ry="1.8"/>
</g>
<!-- Father&#45;&#45;father+mother -->
<g id="edge3" class="edge">
<title>Father&#45;&#45;father+mother</title>
<path fill="none" stroke="#000000" d="M424.7827,-359.1237C427.6127,-360.7361 430.4788,-362.2362 433.3721,-363.6 479.7155,-385.4448 652.7392,-399.5533 674.1862,-401.2315"/>
</g>
<!-- Paternal Grandmother\nStroke -->
<g id="node7" class="node">
<title>Paternal Grandmother\nStroke</title>
<ellipse fill="#ffc0cb" stroke="#ffc0cb" cx="244.3721" cy="-520.1923" rx="79.5846" ry="79.5846"/>
<text text-anchor="middle" x="244.3721" y="-522.9923" font-family="helvetica:bold" font-size="14.00" fill="#000000">Paternal Grandmother</text>
<text text-anchor="middle" x="244.3721" y="-508.9923" font-family="helvetica:bold" font-size="14.00" fill="#000000">Stroke</text>
</g>
<!-- Paternal Grandfather\nHeart Attack -->
<g id="node8" class="node">
<title>Paternal Grandfather\nHeart Attack</title>
<polygon fill="#6495ed" stroke="#6495ed" points="146.6164,-593.4366 .1277,-593.4366 .1277,-446.9479 146.6164,-446.9479 146.6164,-593.4366"/>
<text text-anchor="middle" x="73.3721" y="-522.9923" font-family="helvetica:bold" font-size="14.00" fill="#000000">Paternal Grandfather</text>
<text text-anchor="middle" x="73.3721" y="-508.9923" font-family="helvetica:bold" font-size="14.00" fill="#000000">Heart Attack</text>
</g>
<!-- paternalgrandfather+paternalgrandmother -->
<g id="node15" class="node">
<title>paternalgrandfather+paternalgrandmother</title>
<ellipse fill="#000000" stroke="#000000" cx="244.3721" cy="-638.9845" rx="1.8" ry="1.8"/>
</g>
<!-- Paternal Grandfather\nHeart Attack&#45;&#45;paternalgrandfather+paternalgrandmother -->
<g id="edge5" class="edge">
<title>Paternal Grandfather\nHeart Attack&#45;&#45;paternalgrandfather+paternalgrandmother</title>
<path fill="none" stroke="#000000" d="M144.9829,-593.7251C148.4117,-596.3447 151.8814,-598.8452 155.3721,-601.1845 187.1672,-622.4927 232.9232,-635.8291 242.552,-638.4916"/>
</g>
<!-- Mother -->
<g id="node9" class="node">
<title>Mother</title>
<ellipse fill="#ffc0cb" stroke="#ffc0cb" cx="514.3721" cy="-291.6" rx="72" ry="72"/>
<text text-anchor="middle" x="514.3721" y="-287.4" font-family="helvetica:bold" font-size="14.00" fill="#000000">Mother</text>
</g>
<!-- Mother Sibling\nHypertension -->
<g id="node10" class="node">
<title>Mother Sibling\nHypertension</title>
<polygon fill="#6495ed" stroke="#6495ed" points="1234.3721,-363.6 1090.3721,-363.6 1090.3721,-219.6 1234.3721,-219.6 1234.3721,-363.6"/>
<text text-anchor="middle" x="1162.3721" y="-294.4" font-family="helvetica:bold" font-size="14.00" fill="#000000">Mother Sibling</text>
<text text-anchor="middle" x="1162.3721" y="-280.4" font-family="helvetica:bold" font-size="14.00" fill="#000000">Hypertension</text>
</g>
<!-- Maternal Grandfather -->
<g id="node11" class="node">
<title>Maternal Grandfather</title>
<polygon fill="#6495ed" stroke="#6495ed" points="1091.9404,-594.7606 942.8037,-594.7606 942.8037,-445.6239 1091.9404,-445.6239 1091.9404,-594.7606"/>
<text text-anchor="middle" x="1017.3721" y="-515.9923" font-family="helvetica:bold" font-size="14.00" fill="#000000">Maternal Grandfather</text>
</g>
<!-- maternalgrandfather+maternalgrandmother -->
<g id="node16" class="node">
<title>maternalgrandfather+maternalgrandmother</title>
<ellipse fill="#000000" stroke="#000000" cx="930.3721" cy="-401.4" rx="1.8" ry="1.8"/>
</g>
<!-- Maternal Grandfather&#45;&#45;maternalgrandfather+maternalgrandmother -->
<g id="edge7" class="edge">
<title>Maternal Grandfather&#45;&#45;maternalgrandfather+maternalgrandmother</title>
<path fill="none" stroke="#000000" d="M962.7677,-445.6338C948.2923,-425.8688 935.5752,-408.5044 931.6313,-403.1193"/>
</g>
<!-- Maternal Grandmother\nAlzheimer&#39;s Disease -->
<g id="node12" class="node">
<title>Maternal Grandmother\nAlzheimer&#39;s Disease</title>
<ellipse fill="#ffc0cb" stroke="#ffc0cb" cx="843.3721" cy="-520.1923" rx="80.9845" ry="80.9845"/>
<text text-anchor="middle" x="843.3721" y="-522.9923" font-family="helvetica:bold" font-size="14.00" fill="#000000">Maternal Grandmother</text>
<text text-anchor="middle" x="843.3721" y="-508.9923" font-family="helvetica:bold" font-size="14.00" fill="#000000">Alzheimer&#39;s Disease</text>
</g>
<!-- siblingmate+sibling1&#45;&#45;Sibling 1 -->
<g id="edge2" class="edge">
<title>siblingmate+sibling1&#45;&#45;Sibling 1</title>
<path fill="none" stroke="#000000" d="M1079.318,-181.9008C1065.0385,-182.6752 979.3797,-188.5165 919.3721,-219.6 908.8469,-225.052 898.5965,-232.181 889.1231,-239.8315"/>
</g>
<!-- siblingmate+sibling1&#45;&#45;Sibling Child -->
<g id="edge11" class="edge">
<title>siblingmate+sibling1&#45;&#45;Sibling Child</title>
<path fill="none" stroke="#000000" d="M1081.3721,-179.8942C1081.3721,-174.9107 1081.3721,-160.7292 1081.3721,-144.2195"/>
</g>
<!-- father+mother&#45;&#45;Self -->
<g id="edge9" class="edge">
<title>father+mother&#45;&#45;Self</title>
<path fill="none" stroke="#000000" d="M676.3721,-399.4942C676.3721,-394.5107 676.3721,-380.3292 676.3721,-363.8195"/>
</g>
<!-- father+mother&#45;&#45;Sibling 1 -->
<g id="edge10" class="edge">
<title>father+mother&#45;&#45;Sibling 1</title>
<path fill="none" stroke="#000000" d="M678.491,-400.671C688.0951,-397.315 728.3268,-382.6975 757.3721,-363.6 767.1192,-357.1912 776.8961,-349.6635 786.1166,-341.9348"/>
</g>
<!-- father+mother&#45;&#45;Sibling 2 -->
<g id="edge12" class="edge">
<title>father+mother&#45;&#45;Sibling 2</title>
<path fill="none" stroke="#000000" d="M678.558,-401.2315C700.0049,-399.5533 873.0287,-385.4448 919.3721,-363.6 930.2643,-358.4658 940.7729,-351.3987 950.4089,-343.686"/>
</g>
<!-- father+mother&#45;&#45;Mother -->
<g id="edge4" class="edge">
<title>father+mother&#45;&#45;Mother</title>
<path fill="none" stroke="#000000" d="M674.2531,-400.671C664.649,-397.315 624.4173,-382.6975 595.3721,-363.6 585.625,-357.1912 575.8481,-349.6635 566.6275,-341.9348"/>
</g>
<!-- paternalgrandfather+paternalgrandmother&#45;&#45;Father -->
<g id="edge13" class="edge">
<title>paternalgrandfather+paternalgrandmother&#45;&#45;Father</title>
<path fill="none" stroke="#000000" d="M246.2501,-638.8697C257.0057,-638.101 311.0881,-632.7156 333.3721,-601.1845 382.1652,-532.144 378.2567,-431.347 367.9366,-363.7119"/>
</g>
<!-- paternalgrandfather+paternalgrandmother&#45;&#45;Paternal Grandmother\nStroke -->
<g id="edge6" class="edge">
<title>paternalgrandfather+paternalgrandmother&#45;&#45;Paternal Grandmother\nStroke</title>
<path fill="none" stroke="#000000" d="M244.3721,-636.9226C244.3721,-631.7159 244.3721,-617.2284 244.3721,-600.1543"/>
</g>
<!-- maternalgrandfather+maternalgrandmother&#45;&#45;Mother -->
<g id="edge14" class="edge">
<title>maternalgrandfather+maternalgrandmother&#45;&#45;Mother</title>
<path fill="none" stroke="#000000" d="M928.3706,-401.3415C903.8086,-400.6001 660.3185,-392.5645 595.3721,-363.6 584.3746,-358.6954 573.8133,-351.7431 564.1576,-344.0735"/>
</g>
<!-- maternalgrandfather+maternalgrandmother&#45;&#45;Mother Sibling\nHypertension -->
<g id="edge15" class="edge">
<title>maternalgrandfather+maternalgrandmother&#45;&#45;Mother Sibling\nHypertension</title>
<path fill="none" stroke="#000000" d="M932.2871,-401.2649C945.5996,-400.2587 1025.4567,-393.1355 1081.3721,-363.6 1084.3667,-362.0182 1087.3406,-360.3029 1090.282,-358.4806"/>
</g>
<!-- maternalgrandfather+maternalgrandmother&#45;&#45;Maternal Grandmother\nAlzheimer&#39;s Disease -->
<g id="edge8" class="edge">
<title>maternalgrandfather+maternalgrandmother&#45;&#45;Maternal Grandmother\nAlzheimer&#39;s Disease</title>
<path fill="none" stroke="#000000" d="M929.3054,-402.8565C925.0587,-408.655 908.7437,-430.932 891.4524,-454.542"/>
</g>
</g>
</svg>
