<?xml version="1.0" encoding="UTF-8" standalone="no"?>
<!DOCTYPE svg PUBLIC "-//W3C//DTD SVG 1.1//EN"
 "http://www.w3.org/Graphics/SVG/1.1/DTD/svg11.dtd">
<!-- Generated by graphviz version 2.40.1 (20161225.0304)
 -->
<!-- Title: f4 Pages: 1 -->
<svg width="1466pt" height="427pt"
 viewBox="0.00 0.00 1466.00 426.78" xmlns="http://www.w3.org/2000/svg" xmlns:xlink="http://www.w3.org/1999/xlink">
<g id="graph0" class="graph" transform="scale(1 1) rotate(0) translate(4 422.7841)">
<title>f4</title>
<polygon fill="#ffffff" stroke="transparent" points="-4,4 -4,-422.7841 1462,-422.7841 1462,4 -4,4"/>
<!-- Self -->
<g id="node1" class="node">
<title>Self</title>
<ellipse fill="#ffc0cb" stroke="#ffc0cb" cx="900" cy="-299.392" rx="72" ry="72"/>
<text text-anchor="middle" x="900" y="-295.192" font-family="helvetica:bold" font-size="14.00" fill="#000000">Self</text>
</g>
<!-- Mate -->
<g id="node2" class="node">
<title>Mate</title>
<polygon fill="#6495ed" stroke="#6495ed" points="144,-371.392 0,-371.392 0,-227.392 144,-227.392 144,-371.392"/>
<text text-anchor="middle" x="72" y="-295.192" font-family="helvetica:bold" font-size="14.00" fill="#000000">Mate</text>
</g>
<!-- mate+self -->
<g id="node11" class="node">
<title>mate+self</title>
<ellipse fill="#000000" stroke="#000000" cx="556" cy="-181.8" rx="1.8" ry="1.8"/>
</g>
<!-- Mate&#45;&#45;mate+self -->
<g id="edge1" class="edge">
<title>Mate&#45;&#45;mate+self</title>
<path fill="none" stroke="#000000" d="M139.1419,-227.311C143.6293,-224.4134 148.2577,-221.8077 153,-219.6 192.0206,-201.4342 525.4646,-183.4175 554.0479,-181.9028"/>
</g>
<!-- Child -->
<g id="node3" class="node">
<title>Child</title>
<ellipse fill="#ffc0cb" stroke="#ffc0cb" cx="556" cy="-72" rx="72" ry="72"/>
<text text-anchor="middle" x="556" y="-67.8" font-family="helvetica:bold" font-size="14.00" fill="#000000">Child</text>
</g>
<!-- Sibling -->
<g id="node4" class="node">
<title>Sibling</title>
<ellipse fill="#ffc0cb" stroke="#ffc0cb" cx="1386" cy="-299.392" rx="72" ry="72"/>
<text text-anchor="middle" x="1386" y="-295.192" font-family="helvetica:bold" font-size="14.00" fill="#000000">Sibling</text>
</g>
<!-- Mother\nMelanoma -->
<g id="node5" class="node">
<title>Mother\nMelanoma</title>
<ellipse fill="#ffc0cb" stroke="#ffc0cb" cx="1224" cy="-299.392" rx="72" ry="72"/>
<text text-anchor="middle" x="1224" y="-302.192" font-family="helvetica:bold" font-size="14.00" fill="#000000">Mother</text>
<text text-anchor="middle" x="1224" y="-288.192" font-family="helvetica:bold" font-size="14.00" fill="#000000">Melanoma</text>
</g>
<!-- Father -->
<g id="node6" class="node">
<title>Father</title>
<polygon fill="#6495ed" stroke="#6495ed" points="648,-371.392 504,-371.392 504,-227.392 648,-227.392 648,-371.392"/>
<text text-anchor="middle" x="576" y="-295.192" font-family="helvetica:bold" font-size="14.00" fill="#000000">Father</text>
</g>
<!-- father+mother -->
<g id="node12" class="node">
<title>father+mother</title>
<ellipse fill="#000000" stroke="#000000" cx="1062" cy="-416.9841" rx="1.8" ry="1.8"/>
</g>
<!-- Father&#45;&#45;father+mother -->
<g id="edge3" class="edge">
<title>Father&#45;&#45;father+mother</title>
<path fill="none" stroke="#000000" d="M643.1407,-371.4757C647.6284,-374.3726 652.2572,-376.9774 657,-379.1841 696.2167,-397.4302 1031.3133,-415.3734 1060.0382,-416.8817"/>
</g>
<!-- Father Sibling\nDementia -->
<g id="node7" class="node">
<title>Father Sibling\nDementia</title>
<polygon fill="#6495ed" stroke="#6495ed" points="810,-371.392 666,-371.392 666,-227.392 810,-227.392 810,-371.392"/>
<text text-anchor="middle" x="738" y="-302.192" font-family="helvetica:bold" font-size="14.00" fill="#000000">Father Sibling</text>
<text text-anchor="middle" x="738" y="-288.192" font-family="helvetica:bold" font-size="14.00" fill="#000000">Dementia</text>
</g>
<!-- fathersibling+fathersiblingmate -->
<g id="node13" class="node">
<title>fathersibling+fathersiblingmate</title>
<ellipse fill="#000000" stroke="#000000" cx="900" cy="-181.8" rx="1.8" ry="1.8"/>
</g>
<!-- Father Sibling\nDementia&#45;&#45;fathersibling+fathersiblingmate -->
<g id="edge5" class="edge">
<title>Father Sibling\nDementia&#45;&#45;fathersibling+fathersiblingmate</title>
<path fill="none" stroke="#000000" d="M808.8484,-227.1024C812.205,-224.4796 815.5958,-221.9654 819,-219.6 847.5465,-199.7647 888.1522,-185.7005 897.8576,-182.4944"/>
</g>
<!-- Father Sibling Mate\nUterine Cancer -->
<g id="node8" class="node">
<title>Father Sibling Mate\nUterine Cancer</title>
<ellipse fill="#ffc0cb" stroke="#ffc0cb" cx="1062" cy="-299.392" rx="72" ry="72"/>
<text text-anchor="middle" x="1062" y="-302.192" font-family="helvetica:bold" font-size="14.00" fill="#000000">Father Sibling Mate</text>
<text text-anchor="middle" x="1062" y="-288.192" font-family="helvetica:bold" font-size="14.00" fill="#000000">Uterine Cancer</text>
</g>
<!-- Paternal Grandmother\nCancer -->
<g id="node9" class="node">
<title>Paternal Grandmother\nCancer</title>
<ellipse fill="#ffc0cb" stroke="#ffc0cb" cx="406" cy="-299.392" rx="79.5846" ry="79.5846"/>
<text text-anchor="middle" x="406" y="-302.192" font-family="helvetica:bold" font-size="14.00" fill="#000000">Paternal Grandmother</text>
<text text-anchor="middle" x="406" y="-288.192" font-family="helvetica:bold" font-size="14.00" fill="#000000">Cancer</text>
</g>
<!-- Paternal Grandfather\nHeart Attack -->
<g id="node10" class="node">
<title>Paternal Grandfather\nHeart Attack</title>
<polygon fill="#6495ed" stroke="#6495ed" points="308.2444,-372.6364 161.7556,-372.6364 161.7556,-226.1477 308.2444,-226.1477 308.2444,-372.6364"/>
<text text-anchor="middle" x="235" y="-302.192" font-family="helvetica:bold" font-size="14.00" fill="#000000">Paternal Grandfather</text>
<text text-anchor="middle" x="235" y="-288.192" font-family="helvetica:bold" font-size="14.00" fill="#000000">Heart Attack</text>
</g>
<!-- paternalgrandfather+paternalgrandmother -->
<g id="node14" class="node">
<title>paternalgrandfather+paternalgrandmother</title>
<ellipse fill="#000000" stroke="#000000" cx="491" cy="-416.9841" rx="1.8" ry="1.8"/>
</g>
<!-- Paternal Grandfather\nHeart Attack&#45;&#45;paternalgrandfather+paternalgrandmother -->
<g id="edge7" class="edge">
<title>Paternal Grandfather\nHeart Attack&#45;&#45;paternalgrandfather+paternalgrandmother</title>
<path fill="none" stroke="#000000" d="M306.1449,-372.6721C309.7012,-375.0238 313.325,-377.2105 317,-379.1841 381.2726,-413.7007 474.9171,-416.7017 489.1568,-416.96"/>
</g>
<!-- mate+self&#45;&#45;Self -->
<g id="edge2" class="edge">
<title>mate+self&#45;&#45;Self</title>
<path fill="none" stroke="#000000" d="M557.825,-181.9043C578.5096,-183.1093 768.9938,-194.8047 819,-219.6 831.3795,-225.7383 843.0451,-234.4856 853.4618,-243.9562"/>
</g>
<!-- mate+self&#45;&#45;Child -->
<g id="edge10" class="edge">
<title>mate+self&#45;&#45;Child</title>
<path fill="none" stroke="#000000" d="M556,-179.8942C556,-174.9107 556,-160.7292 556,-144.2195"/>
</g>
<!-- father+mother&#45;&#45;Self -->
<g id="edge9" class="edge">
<title>father+mother&#45;&#45;Self</title>
<path fill="none" stroke="#000000" d="M1059.8576,-416.2896C1050.1522,-413.0835 1009.5465,-399.0194 981,-379.1841 969.9768,-371.5247 959.0947,-362.3045 949.0563,-352.8931"/>
</g>
<!-- father+mother&#45;&#45;Sibling -->
<g id="edge11" class="edge">
<title>father+mother&#45;&#45;Sibling</title>
<path fill="none" stroke="#000000" d="M1064.1927,-416.8294C1085.7047,-415.2848 1259.2314,-402.2089 1305,-379.1841 1317.3438,-372.9743 1328.9932,-364.1945 1339.4052,-354.7146"/>
</g>
<!-- father+mother&#45;&#45;Mother\nMelanoma -->
<g id="edge4" class="edge">
<title>father+mother&#45;&#45;Mother\nMelanoma</title>
<path fill="none" stroke="#000000" d="M1064.1424,-416.2896C1073.8478,-413.0835 1114.4535,-399.0194 1143,-379.1841 1154.0232,-371.5247 1164.9053,-362.3045 1174.9437,-352.8931"/>
</g>
<!-- fathersibling+fathersiblingmate&#45;&#45;Father Sibling Mate\nUterine Cancer -->
<g id="edge6" class="edge">
<title>fathersibling+fathersiblingmate&#45;&#45;Father Sibling Mate\nUterine Cancer</title>
<path fill="none" stroke="#000000" d="M902.1424,-182.4944C911.8478,-185.7005 952.4535,-199.7647 981,-219.6 992.0232,-227.2594 1002.9053,-236.4795 1012.9437,-245.8909"/>
</g>
<!-- paternalgrandfather+paternalgrandmother&#45;&#45;Father -->
<g id="edge12" class="edge">
<title>paternalgrandfather+paternalgrandmother&#45;&#45;Father</title>
<path fill="none" stroke="#000000" d="M492.2016,-415.3217C496.1364,-409.8782 509.2292,-391.7651 523.9335,-371.4226"/>
</g>
<!-- paternalgrandfather+paternalgrandmother&#45;&#45;Father Sibling\nDementia -->
<g id="edge13" class="edge">
<title>paternalgrandfather+paternalgrandmother&#45;&#45;Father Sibling\nDementia</title>
<path fill="none" stroke="#000000" d="M493.123,-416.9304C507.8781,-416.4748 596.3326,-412.3969 657,-379.1841 661.1555,-376.9091 665.2438,-374.3594 669.241,-371.6064"/>
</g>
<!-- paternalgrandfather+paternalgrandmother&#45;&#45;Paternal Grandmother\nCancer -->
<g id="edge8" class="edge">
<title>paternalgrandfather+paternalgrandmother&#45;&#45;Paternal Grandmother\nCancer</title>
<path fill="none" stroke="#000000" d="M489.7984,-415.3217C485.3995,-409.2362 469.5548,-387.316 452.8085,-364.1486"/>
</g>
</g>
</svg>
