<?xml version="1.0" encoding="UTF-8" standalone="no"?>
<!DOCTYPE svg PUBLIC "-//W3C//DTD SVG 1.1//EN"
 "http://www.w3.org/Graphics/SVG/1.1/DTD/svg11.dtd">
<!-- Generated by graphviz version 2.40.1 (20161225.0304)
 -->
<!-- Title: f6 Pages: 1 -->
<svg width="1131pt" height="670pt"
 viewBox="0.00 0.00 1131.37 670.15" xmlns="http://www.w3.org/2000/svg" xmlns:xlink="http://www.w3.org/1999/xlink">
<g id="graph0" class="graph" transform="scale(1 1) rotate(0) translate(4 666.1514)">
<title>f6</title>
<polygon fill="#ffffff" stroke="transparent" points="-4,4 -4,-666.1514 1127.3721,-666.1514 1127.3721,4 -4,4"/>
<!-- Self -->
<g id="node1" class="node">
<title>Self</title>
<polygon fill="#6495ed" stroke="#6495ed" points="581.3721,-150.9872 437.3721,-150.9872 437.3721,-6.9872 581.3721,-6.9872 581.3721,-150.9872"/>
<text text-anchor="middle" x="509.3721" y="-74.7872" font-family="helvetica:bold" font-size="14.00" fill="#000000">Self</text>
</g>
<!-- Sibling -->
<g id="node2" class="node">
<title>Sibling</title>
<ellipse fill="#ffc0cb" stroke="#ffc0cb" cx="671.3721" cy="-78.9872" rx="72" ry="72"/>
<text text-anchor="middle" x="671.3721" y="-74.7872" font-family="helvetica:bold" font-size="14.00" fill="#000000">Sibling</text>
</g>
<!-- Father\nStomach Cancer -->
<g id="node3" class="node">
<title>Father\nStomach Cancer</title>
<polygon fill="#6495ed" stroke="#6495ed" points="391.3721,-381.2706 247.3721,-381.2706 247.3721,-237.2706 391.3721,-237.2706 391.3721,-381.2706"/>
<text text-anchor="middle" x="319.3721" y="-312.0706" font-family="helvetica:bold" font-size="14.00" fill="#000000">Father</text>
<text text-anchor="middle" x="319.3721" y="-298.0706" font-family="helvetica:bold" font-size="14.00" fill="#000000">Stomach Cancer</text>
</g>
<!-- father+mother -->
<g id="node14" class="node">
<title>father+mother</title>
<ellipse fill="#000000" stroke="#000000" cx="531.3721" cy="-422.7669" rx="1.8" ry="1.8"/>
</g>
<!-- Father\nStomach Cancer&#45;&#45;father+mother -->
<g id="edge1" class="edge">
<title>Father\nStomach Cancer&#45;&#45;father+mother</title>
<path fill="none" stroke="#000000" d="M391.4144,-379.4626C394.3693,-381.4129 397.359,-383.2568 400.3721,-384.9669 448.1319,-412.0746 516.9159,-421.0943 529.3931,-422.5473"/>
</g>
<!-- Father Sibling\nAchondroplasia -->
<g id="node4" class="node">
<title>Father Sibling\nAchondroplasia</title>
<polygon fill="#6495ed" stroke="#6495ed" points="1123.3721,-381.2706 979.3721,-381.2706 979.3721,-237.2706 1123.3721,-237.2706 1123.3721,-381.2706"/>
<text text-anchor="middle" x="1051.3721" y="-312.0706" font-family="helvetica:bold" font-size="14.00" fill="#000000">Father Sibling</text>
<text text-anchor="middle" x="1051.3721" y="-298.0706" font-family="helvetica:bold" font-size="14.00" fill="#000000">Achondroplasia</text>
</g>
<!-- Paternal Grandmother -->
<g id="node5" class="node">
<title>Paternal Grandmother</title>
<ellipse fill="#ffc0cb" stroke="#ffc0cb" cx="243.3721" cy="-541.5592" rx="78.3525" ry="78.3525"/>
<text text-anchor="middle" x="243.3721" y="-537.3592" font-family="helvetica:bold" font-size="14.00" fill="#000000">Paternal Grandmother</text>
</g>
<!-- Paternal Grandfather\nKilled in Action -->
<g id="node6" class="node">
<title>Paternal Grandfather\nKilled in Action</title>
<polygon fill="#6495ed" stroke="#6495ed" points="146.6164,-614.8035 .1277,-614.8035 .1277,-468.3148 146.6164,-468.3148 146.6164,-614.8035"/>
<text text-anchor="middle" x="73.3721" y="-544.3592" font-family="helvetica:bold" font-size="14.00" fill="#000000">Paternal Grandfather</text>
<text text-anchor="middle" x="73.3721" y="-530.3592" font-family="helvetica:bold" font-size="14.00" fill="#000000">Killed in Action</text>
</g>
<!-- paternalgrandfather+paternalgrandmother -->
<g id="node15" class="node">
<title>paternalgrandfather+paternalgrandmother</title>
<ellipse fill="#000000" stroke="#000000" cx="296.3721" cy="-660.3514" rx="1.8" ry="1.8"/>
</g>
<!-- Paternal Grandfather\nKilled in Action&#45;&#45;paternalgrandfather+paternalgrandmother -->
<g id="edge3" class="edge">
<title>Paternal Grandfather\nKilled in Action&#45;&#45;paternalgrandfather+paternalgrandmother</title>
<path fill="none" stroke="#000000" d="M144.2329,-614.8278C148.2079,-617.6104 152.2624,-620.2069 156.3721,-622.5514 207.1051,-651.4938 280.865,-659.0229 294.2491,-660.1802"/>
</g>
<!-- Mother -->
<g id="node7" class="node">
<title>Mother</title>
<ellipse fill="#ffc0cb" stroke="#ffc0cb" cx="481.3721" cy="-309.2706" rx="72" ry="72"/>
<text text-anchor="middle" x="481.3721" y="-305.0706" font-family="helvetica:bold" font-size="14.00" fill="#000000">Mother</text>
</g>
<!-- Mother Sibling\nHypercholesterolemia -->
<g id="node8" class="node">
<title>Mother Sibling\nHypercholesterolemia</title>
<polygon fill="#6495ed" stroke="#6495ed" points="799.2652,-385.1637 647.479,-385.1637 647.479,-233.3776 799.2652,-233.3776 799.2652,-385.1637"/>
<text text-anchor="middle" x="723.3721" y="-312.0706" font-family="helvetica:bold" font-size="14.00" fill="#000000">Mother Sibling</text>
<text text-anchor="middle" x="723.3721" y="-298.0706" font-family="helvetica:bold" font-size="14.00" fill="#000000">Hypercholesterolemia</text>
</g>
<!-- mothersibling+mothersiblingmate -->
<g id="node16" class="node">
<title>mothersibling+mothersiblingmate</title>
<ellipse fill="#000000" stroke="#000000" cx="876.3721" cy="-195.7744" rx="1.8" ry="1.8"/>
</g>
<!-- Mother Sibling\nHypercholesterolemia&#45;&#45;mothersibling+mothersiblingmate -->
<g id="edge5" class="edge">
<title>Mother Sibling\nHypercholesterolemia&#45;&#45;mothersibling+mothersiblingmate</title>
<path fill="none" stroke="#000000" d="M799.1659,-240.3524C802.2358,-238.0161 805.3109,-235.7481 808.3721,-233.5744 833.041,-216.0575 866.6018,-200.2545 874.6066,-196.5775"/>
</g>
<!-- Mother Sibling Mate -->
<g id="node9" class="node">
<title>Mother Sibling Mate</title>
<ellipse fill="#ffc0cb" stroke="#ffc0cb" cx="889.3721" cy="-309.2706" rx="72" ry="72"/>
<text text-anchor="middle" x="889.3721" y="-305.0706" font-family="helvetica:bold" font-size="14.00" fill="#000000">Mother Sibling Mate</text>
</g>
<!-- Mother Sibling Child 1 -->
<g id="node10" class="node">
<title>Mother Sibling Child 1</title>
<polygon fill="#6495ed" stroke="#6495ed" points="939.8301,-155.4452 786.9141,-155.4452 786.9141,-2.5292 939.8301,-2.5292 939.8301,-155.4452"/>
<text text-anchor="middle" x="863.3721" y="-74.7872" font-family="helvetica:bold" font-size="14.00" fill="#000000">Mother Sibling Child 1</text>
</g>
<!-- Mother Sibling Child 2\nHypertension -->
<g id="node11" class="node">
<title>Mother Sibling Child 2\nHypertension</title>
<ellipse fill="#ffc0cb" stroke="#ffc0cb" cx="1036.3721" cy="-78.9872" rx="78.9744" ry="78.9744"/>
<text text-anchor="middle" x="1036.3721" y="-81.7872" font-family="helvetica:bold" font-size="14.00" fill="#000000">Mother Sibling Child 2</text>
<text text-anchor="middle" x="1036.3721" y="-67.7872" font-family="helvetica:bold" font-size="14.00" fill="#000000">Hypertension</text>
</g>
<!-- Maternal Grandfather -->
<g id="node12" class="node">
<title>Maternal Grandfather</title>
<polygon fill="#6495ed" stroke="#6495ed" points="824.9404,-616.1276 675.8037,-616.1276 675.8037,-466.9908 824.9404,-466.9908 824.9404,-616.1276"/>
<text text-anchor="middle" x="750.3721" y="-537.3592" font-family="helvetica:bold" font-size="14.00" fill="#000000">Maternal Grandfather</text>
</g>
<!-- maternalgrandfather+maternalgrandmother -->
<g id="node17" class="node">
<title>maternalgrandfather+maternalgrandmother</title>
<ellipse fill="#000000" stroke="#000000" cx="663.3721" cy="-422.7669" rx="1.8" ry="1.8"/>
</g>
<!-- Maternal Grandfather&#45;&#45;maternalgrandfather+maternalgrandmother -->
<g id="edge7" class="edge">
<title>Maternal Grandfather&#45;&#45;maternalgrandfather+maternalgrandmother</title>
<path fill="none" stroke="#000000" d="M695.7677,-467.0008C681.2923,-447.2358 668.5752,-429.8714 664.6313,-424.4862"/>
</g>
<!-- Maternal Grandmother\nStroke -->
<g id="node13" class="node">
<title>Maternal Grandmother\nStroke</title>
<ellipse fill="#ffc0cb" stroke="#ffc0cb" cx="576.3721" cy="-541.5592" rx="80.9845" ry="80.9845"/>
<text text-anchor="middle" x="576.3721" y="-544.3592" font-family="helvetica:bold" font-size="14.00" fill="#000000">Maternal Grandmother</text>
<text text-anchor="middle" x="576.3721" y="-530.3592" font-family="helvetica:bold" font-size="14.00" fill="#000000">Stroke</text>
</g>
<!-- father+mother&#45;&#45;Self -->
<g id="edge9" class="edge">
<title>father+mother&#45;&#45;Self</title>
<path fill="none" stroke="#000000" d="M532.9539,-421.551C538.3737,-417.2716 556.1991,-402.2286 562.3721,-384.9669 585.0291,-321.6107 573.4335,-299.9445 562.3721,-233.5744 557.7779,-206.0086 548.8727,-176.7697 539.6541,-151.2262"/>
</g>
<!-- father+mother&#45;&#45;Sibling -->
<g id="edge10" class="edge">
<title>father+mother&#45;&#45;Sibling</title>
<path fill="none" stroke="#000000" d="M533.332,-421.9277C541.0062,-418.5391 569.283,-405.0767 583.3721,-384.9669 609.9347,-347.0534 639.4108,-227.762 656.6163,-149.8143"/>
</g>
<!-- father+mother&#45;&#45;Mother -->
<g id="edge2" class="edge">
<title>father+mother&#45;&#45;Mother</title>
<path fill="none" stroke="#000000" d="M530.5042,-420.797C527.8588,-414.7921 519.5216,-395.8673 510.4482,-375.2714"/>
</g>
<!-- paternalgrandfather+paternalgrandmother&#45;&#45;Father\nStomach Cancer -->
<g id="edge11" class="edge">
<title>paternalgrandfather+paternalgrandmother&#45;&#45;Father\nStomach Cancer</title>
<path fill="none" stroke="#000000" d="M298.1028,-659.175C304.0333,-655.0246 323.5442,-640.3524 330.3721,-622.5514 360.387,-544.2996 350.3095,-446.8253 337.5142,-381.5731"/>
</g>
<!-- paternalgrandfather+paternalgrandmother&#45;&#45;Father Sibling\nAchondroplasia -->
<g id="edge12" class="edge">
<title>paternalgrandfather+paternalgrandmother&#45;&#45;Father Sibling\nAchondroplasia</title>
<path fill="none" stroke="#000000" d="M298.5416,-660.3133C333.6729,-659.6819 784.3301,-651.0427 834.3721,-622.5514 928.3789,-569.0288 990.8214,-456.0852 1023.6725,-381.4536"/>
</g>
<!-- paternalgrandfather+paternalgrandmother&#45;&#45;Paternal Grandmother -->
<g id="edge4" class="edge">
<title>paternalgrandfather+paternalgrandmother&#45;&#45;Paternal Grandmother</title>
<path fill="none" stroke="#000000" d="M295.6228,-658.6721C293.1191,-653.0603 284.6683,-634.119 275.2716,-613.0576"/>
</g>
<!-- mothersibling+mothersiblingmate&#45;&#45;Mother Sibling Mate -->
<g id="edge6" class="edge">
<title>mothersibling+mothersiblingmate&#45;&#45;Mother Sibling Mate</title>
<path fill="none" stroke="#000000" d="M876.5929,-197.7026C877.2137,-203.1218 879.0667,-219.2994 881.1759,-237.7137"/>
</g>
<!-- mothersibling+mothersiblingmate&#45;&#45;Mother Sibling Child 1 -->
<g id="edge15" class="edge">
<title>mothersibling+mothersiblingmate&#45;&#45;Mother Sibling Child 1</title>
<path fill="none" stroke="#000000" d="M876.1464,-193.7473C875.553,-188.4164 873.8581,-173.1899 871.8891,-155.5011"/>
</g>
<!-- mothersibling+mothersiblingmate&#45;&#45;Mother Sibling Child 2\nHypertension -->
<g id="edge16" class="edge">
<title>mothersibling+mothersiblingmate&#45;&#45;Mother Sibling Child 2\nHypertension</title>
<path fill="none" stroke="#000000" d="M878.2486,-194.9963C886.7554,-191.4276 922.4055,-176.025 948.3721,-157.9744 958.8232,-150.7092 969.3737,-142.3302 979.3624,-133.8029"/>
</g>
<!-- maternalgrandfather+maternalgrandmother&#45;&#45;Mother -->
<g id="edge13" class="edge">
<title>maternalgrandfather+maternalgrandmother&#45;&#45;Mother</title>
<path fill="none" stroke="#000000" d="M661.7987,-421.7857C651.341,-415.2643 590.821,-377.5237 542.7154,-347.5247"/>
</g>
<!-- maternalgrandfather+maternalgrandmother&#45;&#45;Mother Sibling\nHypercholesterolemia -->
<g id="edge14" class="edge">
<title>maternalgrandfather+maternalgrandmother&#45;&#45;Mother Sibling\nHypercholesterolemia</title>
<path fill="none" stroke="#000000" d="M664.2202,-421.1625C666.6986,-416.4744 674.3241,-402.0499 683.3121,-385.0482"/>
</g>
<!-- maternalgrandfather+maternalgrandmother&#45;&#45;Maternal Grandmother\nStroke -->
<g id="edge8" class="edge">
<title>maternalgrandfather+maternalgrandmother&#45;&#45;Maternal Grandmother\nStroke</title>
<path fill="none" stroke="#000000" d="M662.3054,-424.2234C658.0587,-430.0219 641.7437,-452.299 624.4524,-475.9089"/>
</g>
</g>
</svg>
