<?xml version="1.0" encoding="UTF-8" standalone="no"?>
<!DOCTYPE svg PUBLIC "-//W3C//DTD SVG 1.1//EN"
 "http://www.w3.org/Graphics/SVG/1.1/DTD/svg11.dtd">
<!-- Generated by graphviz version 2.40.1 (20161225.0304)
 -->
<!-- Title: f7 Pages: 1 -->
<svg width="2844pt" height="995pt"
 viewBox="0.00 0.00 2843.96 995.34" xmlns="http://www.w3.org/2000/svg" xmlns:xlink="http://www.w3.org/1999/xlink">
<g id="graph0" class="graph" transform="scale(1 1) rotate(0) translate(4 991.3379)">
<title>f7</title>
<polygon fill="#ffffff" stroke="transparent" points="-4,4 -4,-991.3379 2839.9552,-991.3379 2839.9552,4 -4,4"/>
<!-- Self Twin -->
<g id="node1" class="node">
<title>Self Twin</title>
<polygon fill="#6495ed" stroke="#6495ed" points="559.3721,-211.6003 415.3721,-211.6003 415.3721,-67.6003 559.3721,-67.6003 559.3721,-211.6003"/>
<text text-anchor="middle" x="487.3721" y="-135.4003" font-family="helvetica:bold" font-size="14.00" fill="#000000">Self Twin</text>
</g>
<!-- Sibling Twin -->
<g id="node2" class="node">
<title>Sibling Twin</title>
<polygon fill="#6495ed" stroke="#6495ed" points="721.3721,-211.6003 577.3721,-211.6003 577.3721,-67.6003 721.3721,-67.6003 721.3721,-211.6003"/>
<text text-anchor="middle" x="649.3721" y="-135.4003" font-family="helvetica:bold" font-size="14.00" fill="#000000">Sibling Twin</text>
</g>
<!-- Sibling 2 -->
<g id="node3" class="node">
<title>Sibling 2</title>
<polygon fill="#6495ed" stroke="#6495ed" points="883.3721,-211.6003 739.3721,-211.6003 739.3721,-67.6003 883.3721,-67.6003 883.3721,-211.6003"/>
<text text-anchor="middle" x="811.3721" y="-135.4003" font-family="helvetica:bold" font-size="14.00" fill="#000000">Sibling 2</text>
</g>
<!-- Father -->
<g id="node4" class="node">
<title>Father</title>
<polygon fill="#6495ed" stroke="#6495ed" points="421.3721,-564.3723 277.3721,-564.3723 277.3721,-420.3723 421.3721,-420.3723 421.3721,-564.3723"/>
<text text-anchor="middle" x="349.3721" y="-488.1723" font-family="helvetica:bold" font-size="14.00" fill="#000000">Father</text>
</g>
<!-- father+mother -->
<g id="node26" class="node">
<title>father+mother</title>
<ellipse fill="#000000" stroke="#000000" cx="611.3721" cy="-667.7441" rx="1.8" ry="1.8"/>
</g>
<!-- Father&#45;&#45;father+mother -->
<g id="edge1" class="edge">
<title>Father&#45;&#45;father+mother</title>
<path fill="none" stroke="#000000" d="M377.4806,-564.6546C390.2196,-588.7715 407.6257,-613.6271 430.3721,-629.9441 461.4124,-652.2107 591.1788,-665.7466 609.2738,-667.54"/>
</g>
<!-- Paternal Grandmother -->
<g id="node5" class="node">
<title>Paternal Grandmother</title>
<ellipse fill="#ffc0cb" stroke="#ffc0cb" cx="243.3721" cy="-826.641" rx="78.3525" ry="78.3525"/>
<text text-anchor="middle" x="243.3721" y="-822.441" font-family="helvetica:bold" font-size="14.00" fill="#000000">Paternal Grandmother</text>
</g>
<!-- Paternal Grandfather -->
<g id="node6" class="node">
<title>Paternal Grandfather</title>
<polygon fill="#6495ed" stroke="#6495ed" points="146.6164,-899.8853 .1277,-899.8853 .1277,-753.3966 146.6164,-753.3966 146.6164,-899.8853"/>
<text text-anchor="middle" x="73.3721" y="-822.441" font-family="helvetica:bold" font-size="14.00" fill="#000000">Paternal Grandfather</text>
</g>
<!-- paternalgrandfather+paternalgrandmother -->
<g id="node27" class="node">
<title>paternalgrandfather+paternalgrandmother</title>
<ellipse fill="#000000" stroke="#000000" cx="243.3721" cy="-985.5379" rx="1.8" ry="1.8"/>
</g>
<!-- Paternal Grandfather&#45;&#45;paternalgrandfather+paternalgrandmother -->
<g id="edge3" class="edge">
<title>Paternal Grandfather&#45;&#45;paternalgrandfather+paternalgrandmother</title>
<path fill="none" stroke="#000000" d="M113.9384,-899.9878C125.9425,-917.2306 140.2516,-934.4357 156.3721,-947.7379 185.3327,-971.6355 231.7167,-982.9489 241.5168,-985.1378"/>
</g>
<!-- Paternal Grandfather Sibling 1 -->
<g id="node7" class="node">
<title>Paternal Grandfather Sibling 1</title>
<polygon fill="#6495ed" stroke="#6495ed" points="1772.7093,-928.9782 1568.0349,-928.9782 1568.0349,-724.3038 1772.7093,-724.3038 1772.7093,-928.9782"/>
<text text-anchor="middle" x="1670.3721" y="-822.441" font-family="helvetica:bold" font-size="14.00" fill="#000000">Paternal Grandfather Sibling 1</text>
</g>
<!-- paternalgrandfathersibling1+paternalgrandfathersibling1mate -->
<g id="node28" class="node">
<title>paternalgrandfathersibling1+paternalgrandfathersibling1mate</title>
<ellipse fill="#000000" stroke="#000000" cx="1791.3721" cy="-667.7441" rx="1.8" ry="1.8"/>
</g>
<!-- Paternal Grandfather Sibling 1&#45;&#45;paternalgrandfathersibling1+paternalgrandfathersibling1mate -->
<g id="edge5" class="edge">
<title>Paternal Grandfather Sibling 1&#45;&#45;paternalgrandfathersibling1+paternalgrandfathersibling1mate</title>
<path fill="none" stroke="#000000" d="M1748.3713,-724.2126C1768.492,-697.7901 1785.7874,-675.0778 1790.2538,-669.2125"/>
</g>
<!-- Paternal Grandfather Sibling 1 Mate -->
<g id="node8" class="node">
<title>Paternal Grandfather Sibling 1 Mate</title>
<ellipse fill="#ffc0cb" stroke="#ffc0cb" cx="1911.3721" cy="-826.641" rx="121.1939" ry="121.1939"/>
<text text-anchor="middle" x="1911.3721" y="-822.441" font-family="helvetica:bold" font-size="14.00" fill="#000000">Paternal Grandfather Sibling 1 Mate</text>
</g>
<!-- Paternal Grandfather Sibling 1 Child -->
<g id="node9" class="node">
<title>Paternal Grandfather Sibling 1 Child</title>
<ellipse fill="#ffc0cb" stroke="#ffc0cb" cx="1791.3721" cy="-492.3723" rx="121.4824" ry="121.4824"/>
<text text-anchor="middle" x="1791.3721" y="-488.1723" font-family="helvetica:bold" font-size="14.00" fill="#000000">Paternal Grandfather Sibling 1 Child</text>
</g>
<!-- Paternal Grandfather Sibling 1 Child Mate -->
<g id="node10" class="node">
<title>Paternal Grandfather Sibling 1 Child Mate</title>
<polygon fill="#6495ed" stroke="#6495ed" points="2206.0157,-630.0159 1930.7285,-630.0159 1930.7285,-354.7287 2206.0157,-354.7287 2206.0157,-630.0159"/>
<text text-anchor="middle" x="2068.3721" y="-488.1723" font-family="helvetica:bold" font-size="14.00" fill="#000000">Paternal Grandfather Sibling 1 Child Mate</text>
</g>
<!-- paternalgrandfathersibling1childmate+paternalgrandfathersibling1child -->
<g id="node29" class="node">
<title>paternalgrandfathersibling1childmate+paternalgrandfathersibling1child</title>
<ellipse fill="#000000" stroke="#000000" cx="1877.3721" cy="-317.0005" rx="1.8" ry="1.8"/>
</g>
<!-- Paternal Grandfather Sibling 1 Child Mate&#45;&#45;paternalgrandfathersibling1childmate+paternalgrandfathersibling1child -->
<g id="edge7" class="edge">
<title>Paternal Grandfather Sibling 1 Child Mate&#45;&#45;paternalgrandfathersibling1childmate+paternalgrandfathersibling1child</title>
<path fill="none" stroke="#000000" d="M1930.4248,-362.9522C1927.3851,-360.2043 1924.3647,-357.4841 1921.3721,-354.8005 1904.8773,-340.0089 1884.2378,-322.7241 1878.7591,-318.1553"/>
</g>
<!-- Paternal Grandfather Sibling 1 Child Child\nSIDS -->
<g id="node11" class="node">
<title>Paternal Grandfather Sibling 1 Child Child\nSIDS</title>
<polygon fill="#6495ed" stroke="#6495ed" points="2015.2949,-277.5231 1739.4492,-277.5231 1739.4492,-1.6774 2015.2949,-1.6774 2015.2949,-277.5231"/>
<text text-anchor="middle" x="1877.3721" y="-142.4003" font-family="helvetica:bold" font-size="14.00" fill="#000000">Paternal Grandfather Sibling 1 Child Child</text>
<text text-anchor="middle" x="1877.3721" y="-128.4003" font-family="helvetica:bold" font-size="14.00" fill="#000000">SIDS</text>
</g>
<!-- Paternal Grandfather Sibling 2 -->
<g id="node12" class="node">
<title>Paternal Grandfather Sibling 2</title>
<polygon fill="#6495ed" stroke="#6495ed" points="2352.7093,-928.9782 2148.0349,-928.9782 2148.0349,-724.3038 2352.7093,-724.3038 2352.7093,-928.9782"/>
<text text-anchor="middle" x="2250.3721" y="-822.441" font-family="helvetica:bold" font-size="14.00" fill="#000000">Paternal Grandfather Sibling 2</text>
</g>
<!-- paternalgrandfathersibling2+paternalgrandfathersibling2mate -->
<g id="node30" class="node">
<title>paternalgrandfathersibling2+paternalgrandfathersibling2mate</title>
<ellipse fill="#000000" stroke="#000000" cx="2348.3721" cy="-667.7441" rx="1.8" ry="1.8"/>
</g>
<!-- Paternal Grandfather Sibling 2&#45;&#45;paternalgrandfathersibling2+paternalgrandfathersibling2mate -->
<g id="edge9" class="edge">
<title>Paternal Grandfather Sibling 2&#45;&#45;paternalgrandfathersibling2+paternalgrandfathersibling2mate</title>
<path fill="none" stroke="#000000" d="M2313.545,-724.2126C2329.5448,-698.2705 2343.3388,-675.9049 2347.2588,-669.5491"/>
</g>
<!-- Paternal Grandfather Sibling 2 Mate -->
<g id="node13" class="node">
<title>Paternal Grandfather Sibling 2 Mate</title>
<ellipse fill="#ffc0cb" stroke="#ffc0cb" cx="2491.3721" cy="-826.641" rx="121.1939" ry="121.1939"/>
<text text-anchor="middle" x="2491.3721" y="-822.441" font-family="helvetica:bold" font-size="14.00" fill="#000000">Paternal Grandfather Sibling 2 Mate</text>
</g>
<!-- Paternal Grandfather Sibling 2 Child\nLupus -->
<g id="node14" class="node">
<title>Paternal Grandfather Sibling 2 Child\nLupus</title>
<ellipse fill="#ffc0cb" stroke="#ffc0cb" cx="2348.3721" cy="-492.3723" rx="124.0051" ry="124.0051"/>
<text text-anchor="middle" x="2348.3721" y="-495.1723" font-family="helvetica:bold" font-size="14.00" fill="#000000">Paternal Grandfather Sibling 2 Child</text>
<text text-anchor="middle" x="2348.3721" y="-481.1723" font-family="helvetica:bold" font-size="14.00" fill="#000000">Lupus</text>
</g>
<!-- Paternal Grandfather Sibling 2 Child Child -->
<g id="node15" class="node">
<title>Paternal Grandfather Sibling 2 Child Child</title>
<ellipse fill="#ffc0cb" stroke="#ffc0cb" cx="2173.3721" cy="-139.6003" rx="139.7006" ry="139.7006"/>
<text text-anchor="middle" x="2173.3721" y="-135.4003" font-family="helvetica:bold" font-size="14.00" fill="#000000">Paternal Grandfather Sibling 2 Child Child</text>
</g>
<!-- Mother -->
<g id="node16" class="node">
<title>Mother</title>
<ellipse fill="#ffc0cb" stroke="#ffc0cb" cx="511.3721" cy="-492.3723" rx="72" ry="72"/>
<text text-anchor="middle" x="511.3721" y="-488.1723" font-family="helvetica:bold" font-size="14.00" fill="#000000">Mother</text>
</g>
<!-- Mother Sibling 1 -->
<g id="node17" class="node">
<title>Mother Sibling 1</title>
<ellipse fill="#ffc0cb" stroke="#ffc0cb" cx="849.3721" cy="-492.3723" rx="72" ry="72"/>
<text text-anchor="middle" x="849.3721" y="-488.1723" font-family="helvetica:bold" font-size="14.00" fill="#000000">Mother Sibling 1</text>
</g>
<!-- Mother Sibling 1 Mate -->
<g id="node18" class="node">
<title>Mother Sibling 1 Mate</title>
<polygon fill="#6495ed" stroke="#6495ed" points="1547.5509,-568.5511 1395.1933,-568.5511 1395.1933,-416.1935 1547.5509,-416.1935 1547.5509,-568.5511"/>
<text text-anchor="middle" x="1471.3721" y="-488.1723" font-family="helvetica:bold" font-size="14.00" fill="#000000">Mother Sibling 1 Mate</text>
</g>
<!-- mothersibling1mate+mothersibling1 -->
<g id="node31" class="node">
<title>mothersibling1mate+mothersibling1</title>
<ellipse fill="#000000" stroke="#000000" cx="1385.3721" cy="-317.0005" rx="1.8" ry="1.8"/>
</g>
<!-- Mother Sibling 1 Mate&#45;&#45;mothersibling1mate+mothersibling1 -->
<g id="edge11" class="edge">
<title>Mother Sibling 1 Mate&#45;&#45;mothersibling1mate+mothersibling1</title>
<path fill="none" stroke="#000000" d="M1434.0264,-416.2168C1413.3559,-374.0654 1390.9115,-328.2965 1386.2491,-318.7889"/>
</g>
<!-- Mother Sibling 1 Child 1 -->
<g id="node19" class="node">
<title>Mother Sibling 1 Child 1</title>
<ellipse fill="#ffc0cb" stroke="#ffc0cb" cx="1293.3721" cy="-139.6003" rx="83.09" ry="83.09"/>
<text text-anchor="middle" x="1293.3721" y="-135.4003" font-family="helvetica:bold" font-size="14.00" fill="#000000">Mother Sibling 1 Child 1</text>
</g>
<!-- Mother Sibling 1 Child 2 -->
<g id="node20" class="node">
<title>Mother Sibling 1 Child 2</title>
<ellipse fill="#ffc0cb" stroke="#ffc0cb" cx="1478.3721" cy="-139.6003" rx="83.09" ry="83.09"/>
<text text-anchor="middle" x="1478.3721" y="-135.4003" font-family="helvetica:bold" font-size="14.00" fill="#000000">Mother Sibling 1 Child 2</text>
</g>
<!-- Mother Sibling 2 Identical Twin -->
<g id="node21" class="node">
<title>Mother Sibling 2 Identical Twin</title>
<ellipse fill="#ffc0cb" stroke="#ffc0cb" cx="1043.3721" cy="-492.3723" rx="104.0785" ry="104.0785"/>
<text text-anchor="middle" x="1043.3721" y="-488.1723" font-family="helvetica:bold" font-size="14.00" fill="#000000">Mother Sibling 2 Identical Twin</text>
</g>
<!-- Mother Sibling 3 Identical Twin\nHTN -->
<g id="node22" class="node">
<title>Mother Sibling 3 Identical Twin\nHTN</title>
<ellipse fill="#ffc0cb" stroke="#ffc0cb" cx="1271.3721" cy="-492.3723" rx="106.38" ry="106.38"/>
<text text-anchor="middle" x="1271.3721" y="-495.1723" font-family="helvetica:bold" font-size="14.00" fill="#000000">Mother Sibling 3 Identical Twin</text>
<text text-anchor="middle" x="1271.3721" y="-481.1723" font-family="helvetica:bold" font-size="14.00" fill="#000000">HTN</text>
</g>
<!-- Maternal Grandmother -->
<g id="node23" class="node">
<title>Maternal Grandmother</title>
<ellipse fill="#ffc0cb" stroke="#ffc0cb" cx="860.3721" cy="-826.641" rx="79.2042" ry="79.2042"/>
<text text-anchor="middle" x="860.3721" y="-822.441" font-family="helvetica:bold" font-size="14.00" fill="#000000">Maternal Grandmother</text>
</g>
<!-- Maternal Grandmother Sibling -->
<g id="node24" class="node">
<title>Maternal Grandmother Sibling</title>
<ellipse fill="#ffc0cb" stroke="#ffc0cb" cx="2733.3721" cy="-826.641" rx="102.6664" ry="102.6664"/>
<text text-anchor="middle" x="2733.3721" y="-822.441" font-family="helvetica:bold" font-size="14.00" fill="#000000">Maternal Grandmother Sibling</text>
</g>
<!-- Maternal Grandfather\nAccident -->
<g id="node25" class="node">
<title>Maternal Grandfather\nAccident</title>
<polygon fill="#6495ed" stroke="#6495ed" points="1106.9404,-901.2093 957.8037,-901.2093 957.8037,-752.0726 1106.9404,-752.0726 1106.9404,-901.2093"/>
<text text-anchor="middle" x="1032.3721" y="-829.441" font-family="helvetica:bold" font-size="14.00" fill="#000000">Maternal Grandfather</text>
<text text-anchor="middle" x="1032.3721" y="-815.441" font-family="helvetica:bold" font-size="14.00" fill="#000000">Accident</text>
</g>
<!-- maternalgrandfather+maternalgrandmother -->
<g id="node32" class="node">
<title>maternalgrandfather+maternalgrandmother</title>
<ellipse fill="#000000" stroke="#000000" cx="946.3721" cy="-667.7441" rx="1.8" ry="1.8"/>
</g>
<!-- Maternal Grandfather\nAccident&#45;&#45;maternalgrandfather+maternalgrandmother -->
<g id="edge13" class="edge">
<title>Maternal Grandfather\nAccident&#45;&#45;maternalgrandfather+maternalgrandmother</title>
<path fill="none" stroke="#000000" d="M991.8903,-751.8453C972.3728,-715.784 952.161,-678.44 947.413,-669.6674"/>
</g>
<!-- father+mother&#45;&#45;Self Twin -->
<g id="edge15" class="edge">
<title>father+mother&#45;&#45;Self Twin</title>
<path fill="none" stroke="#000000" d="M611.5482,-665.71C613.2264,-645.6402 625.6127,-481.1338 592.3721,-354.8005 579.2023,-304.7481 554.0081,-252.4813 531.6,-211.9922"/>
</g>
<!-- father+mother&#45;&#45;Sibling Twin -->
<g id="edge16" class="edge">
<title>father+mother&#45;&#45;Sibling Twin</title>
<path fill="none" stroke="#000000" d="M612.2071,-666.0661C614.7488,-660.8634 622.3983,-644.479 625.3721,-629.9441 655.2684,-483.8166 655.5061,-308.3349 652.6634,-211.9172"/>
</g>
<!-- father+mother&#45;&#45;Sibling 2 -->
<g id="edge17" class="edge">
<title>father+mother&#45;&#45;Sibling 2</title>
<path fill="none" stroke="#000000" d="M612.934,-666.7863C619.0537,-662.9546 641.6378,-648.0572 653.3721,-629.9441 739.8101,-496.5175 782.3862,-311.9807 800.3383,-211.6343"/>
</g>
<!-- father+mother&#45;&#45;Mother -->
<g id="edge2" class="edge">
<title>father+mother&#45;&#45;Mother</title>
<path fill="none" stroke="#000000" d="M610.249,-665.7746C604.0048,-654.824 572.9181,-600.3066 547.2448,-555.283"/>
</g>
<!-- paternalgrandfather+paternalgrandmother&#45;&#45;Father -->
<g id="edge18" class="edge">
<title>paternalgrandfather+paternalgrandmother&#45;&#45;Father</title>
<path fill="none" stroke="#000000" d="M245.2189,-985.4139C255.794,-984.5939 308.9442,-978.971 330.3721,-947.7379 409.0432,-833.0675 388.6501,-661.2245 368.1338,-564.7554"/>
</g>
<!-- paternalgrandfather+paternalgrandmother&#45;&#45;Paternal Grandmother -->
<g id="edge4" class="edge">
<title>paternalgrandfather+paternalgrandmother&#45;&#45;Paternal Grandmother</title>
<path fill="none" stroke="#000000" d="M243.3721,-983.5288C243.3721,-974.9068 243.3721,-939.8954 243.3721,-905.1293"/>
</g>
<!-- paternalgrandfathersibling1+paternalgrandfathersibling1mate&#45;&#45;Paternal Grandfather Sibling 1 Mate -->
<g id="edge6" class="edge">
<title>paternalgrandfathersibling1+paternalgrandfathersibling1mate&#45;&#45;Paternal Grandfather Sibling 1 Mate</title>
<path fill="none" stroke="#000000" d="M1792.6112,-669.3848C1797.5545,-675.9304 1816.6402,-701.2026 1838.1108,-729.6327"/>
</g>
<!-- paternalgrandfathersibling1+paternalgrandfathersibling1mate&#45;&#45;Paternal Grandfather Sibling 1 Child -->
<g id="edge19" class="edge">
<title>paternalgrandfathersibling1+paternalgrandfathersibling1mate&#45;&#45;Paternal Grandfather Sibling 1 Child</title>
<path fill="none" stroke="#000000" d="M1791.3721,-665.7746C1791.3721,-659.4902 1791.3721,-638.8575 1791.3721,-613.9051"/>
</g>
<!-- paternalgrandfathersibling1childmate+paternalgrandfathersibling1child&#45;&#45;Paternal Grandfather Sibling 1 Child -->
<g id="edge8" class="edge">
<title>paternalgrandfathersibling1childmate+paternalgrandfathersibling1child&#45;&#45;Paternal Grandfather Sibling 1 Child</title>
<path fill="none" stroke="#000000" d="M1876.5235,-318.7309C1873.1365,-325.6377 1860.0435,-352.337 1845.1042,-382.8014"/>
</g>
<!-- paternalgrandfathersibling1childmate+paternalgrandfathersibling1child&#45;&#45;Paternal Grandfather Sibling 1 Child Child\nSIDS -->
<g id="edge20" class="edge">
<title>paternalgrandfathersibling1childmate+paternalgrandfathersibling1child&#45;&#45;Paternal Grandfather Sibling 1 Child Child\nSIDS</title>
<path fill="none" stroke="#000000" d="M1877.3721,-315.0082C1877.3721,-309.9835 1877.3721,-295.8908 1877.3721,-277.7397"/>
</g>
<!-- paternalgrandfathersibling2+paternalgrandfathersibling2mate&#45;&#45;Paternal Grandfather Sibling 2 Mate -->
<g id="edge10" class="edge">
<title>paternalgrandfathersibling2+paternalgrandfathersibling2mate&#45;&#45;Paternal Grandfather Sibling 2 Mate</title>
<path fill="none" stroke="#000000" d="M2349.7076,-669.2281C2355.8173,-676.017 2382.0212,-705.1339 2410.2623,-736.5144"/>
</g>
<!-- paternalgrandfathersibling2+paternalgrandfathersibling2mate&#45;&#45;Paternal Grandfather Sibling 2 Child\nLupus -->
<g id="edge21" class="edge">
<title>paternalgrandfathersibling2+paternalgrandfathersibling2mate&#45;&#45;Paternal Grandfather Sibling 2 Child\nLupus</title>
<path fill="none" stroke="#000000" d="M2348.3721,-665.7746C2348.3721,-659.716 2348.3721,-640.3216 2348.3721,-616.5773"/>
</g>
<!-- mothersibling1mate+mothersibling1&#45;&#45;Mother Sibling 1 -->
<g id="edge12" class="edge">
<title>mothersibling1mate+mothersibling1&#45;&#45;Mother Sibling 1</title>
<path fill="none" stroke="#000000" d="M1383.5325,-317.0504C1353.7446,-317.8705 971.654,-328.8742 930.3721,-354.8005 904.7882,-370.868 886.3061,-398.1933 873.5163,-424.2769"/>
</g>
<!-- mothersibling1mate+mothersibling1&#45;&#45;Mother Sibling 1 Child 1 -->
<g id="edge24" class="edge">
<title>mothersibling1mate+mothersibling1&#45;&#45;Mother Sibling 1 Child 1</title>
<path fill="none" stroke="#000000" d="M1384.3389,-315.0082C1379.0285,-304.7685 1354.1881,-256.8697 1331.8054,-213.7098"/>
</g>
<!-- mothersibling1mate+mothersibling1&#45;&#45;Mother Sibling 1 Child 2 -->
<g id="edge25" class="edge">
<title>mothersibling1mate+mothersibling1&#45;&#45;Mother Sibling 1 Child 2</title>
<path fill="none" stroke="#000000" d="M1386.4165,-315.0082C1391.7846,-304.7685 1416.895,-256.8697 1439.521,-213.7098"/>
</g>
<!-- maternalgrandfather+maternalgrandmother&#45;&#45;Mother -->
<g id="edge22" class="edge">
<title>maternalgrandfather+maternalgrandmother&#45;&#45;Mother</title>
<path fill="none" stroke="#000000" d="M944.5648,-667.5566C930.5878,-666.0672 838.3993,-655.5353 768.3721,-629.9441 697.9032,-604.1915 622.8644,-562.1297 572.181,-531.2845"/>
</g>
<!-- maternalgrandfather+maternalgrandmother&#45;&#45;Mother Sibling 1 -->
<g id="edge23" class="edge">
<title>maternalgrandfather+maternalgrandmother&#45;&#45;Mother Sibling 1</title>
<path fill="none" stroke="#000000" d="M945.2827,-665.7746C939.2467,-654.8617 909.2787,-600.6808 884.4256,-555.7475"/>
</g>
<!-- maternalgrandfather+maternalgrandmother&#45;&#45;Mother Sibling 2 Identical Twin -->
<g id="edge26" class="edge">
<title>maternalgrandfather+maternalgrandmother&#45;&#45;Mother Sibling 2 Identical Twin</title>
<path fill="none" stroke="#000000" d="M947.4614,-665.7746C952.2694,-657.0819 972.2622,-620.9359 992.7591,-583.8784"/>
</g>
<!-- maternalgrandfather+maternalgrandmother&#45;&#45;Mother Sibling 3 Identical Twin\nHTN -->
<g id="edge27" class="edge">
<title>maternalgrandfather+maternalgrandmother&#45;&#45;Mother Sibling 3 Identical Twin\nHTN</title>
<path fill="none" stroke="#000000" d="M948.28,-667.5812C966.9971,-665.9581 1117.935,-652.2749 1156.3721,-629.9441 1177.5017,-617.6683 1196.4863,-599.9854 1212.6544,-581.3657"/>
</g>
<!-- maternalgrandfather+maternalgrandmother&#45;&#45;Maternal Grandmother -->
<g id="edge14" class="edge">
<title>maternalgrandfather+maternalgrandmother&#45;&#45;Maternal Grandmother</title>
<path fill="none" stroke="#000000" d="M945.5104,-669.336C940.9287,-677.8014 918.8617,-718.5733 898.3433,-756.4839"/>
</g>
</g>
</svg>
