<?xml version="1.0" encoding="UTF-8" standalone="no"?>
<!DOCTYPE svg PUBLIC "-//W3C//DTD SVG 1.1//EN"
 "http://www.w3.org/Graphics/SVG/1.1/DTD/svg11.dtd">
<!-- Generated by graphviz version 2.40.1 (20161225.0304)
 -->
<!-- Title: f8 Pages: 1 -->
<svg width="1165pt" height="887pt"
 viewBox="0.00 0.00 1165.37 887.34" xmlns="http://www.w3.org/2000/svg" xmlns:xlink="http://www.w3.org/1999/xlink">
<g id="graph0" class="graph" transform="scale(1 1) rotate(0) translate(4 883.3382)">
<title>f8</title>
<polygon fill="#ffffff" stroke="transparent" points="-4,4 -4,-883.3382 1161.3721,-883.3382 1161.3721,4 -4,4"/>
<!-- Self\nHypertension -->
<g id="node1" class="node">
<title>Self\nHypertension</title>
<polygon fill="#6495ed" stroke="#6495ed" points="614.3721,-368.9875 470.3721,-368.9875 470.3721,-224.9875 614.3721,-224.9875 614.3721,-368.9875"/>
<text text-anchor="middle" x="542.3721" y="-299.7875" font-family="helvetica:bold" font-size="14.00" fill="#000000">Self</text>
<text text-anchor="middle" x="542.3721" y="-285.7875" font-family="helvetica:bold" font-size="14.00" fill="#000000">Hypertension</text>
</g>
<!-- self+mate -->
<g id="node20" class="node">
<title>self+mate</title>
<ellipse fill="#000000" stroke="#000000" cx="461.3721" cy="-181.8" rx="1.8" ry="1.8"/>
</g>
<!-- Self\nHypertension&#45;&#45;self+mate -->
<g id="edge1" class="edge">
<title>Self\nHypertension&#45;&#45;self+mate</title>
<path fill="none" stroke="#000000" d="M491.5335,-224.6916C478.0565,-205.5263 466.2163,-188.6889 462.5444,-183.4671"/>
</g>
<!-- Mate -->
<g id="node2" class="node">
<title>Mate</title>
<ellipse fill="#ffc0cb" stroke="#ffc0cb" cx="380.3721" cy="-296.9875" rx="72" ry="72"/>
<text text-anchor="middle" x="380.3721" y="-292.7875" font-family="helvetica:bold" font-size="14.00" fill="#000000">Mate</text>
</g>
<!-- Child 1 -->
<g id="node3" class="node">
<title>Child 1</title>
<ellipse fill="#ffc0cb" stroke="#ffc0cb" cx="319.3721" cy="-72" rx="72" ry="72"/>
<text text-anchor="middle" x="319.3721" y="-67.8" font-family="helvetica:bold" font-size="14.00" fill="#000000">Child 1</text>
</g>
<!-- Child 2 -->
<g id="node4" class="node">
<title>Child 2</title>
<polygon fill="#6495ed" stroke="#6495ed" points="553.3721,-144 409.3721,-144 409.3721,0 553.3721,0 553.3721,-144"/>
<text text-anchor="middle" x="481.3721" y="-67.8" font-family="helvetica:bold" font-size="14.00" fill="#000000">Child 2</text>
</g>
<!-- Sibling -->
<g id="node5" class="node">
<title>Sibling</title>
<ellipse fill="#ffc0cb" stroke="#ffc0cb" cx="704.3721" cy="-296.9875" rx="72" ry="72"/>
<text text-anchor="middle" x="704.3721" y="-292.7875" font-family="helvetica:bold" font-size="14.00" fill="#000000">Sibling</text>
</g>
<!-- Sibling Mate -->
<g id="node6" class="node">
<title>Sibling Mate</title>
<polygon fill="#6495ed" stroke="#6495ed" points="938.3721,-368.9875 794.3721,-368.9875 794.3721,-224.9875 938.3721,-224.9875 938.3721,-368.9875"/>
<text text-anchor="middle" x="866.3721" y="-292.7875" font-family="helvetica:bold" font-size="14.00" fill="#000000">Sibling Mate</text>
</g>
<!-- siblingmate+sibling -->
<g id="node21" class="node">
<title>siblingmate+sibling</title>
<ellipse fill="#000000" stroke="#000000" cx="845.3721" cy="-181.8" rx="1.8" ry="1.8"/>
</g>
<!-- Sibling Mate&#45;&#45;siblingmate+sibling -->
<g id="edge3" class="edge">
<title>Sibling Mate&#45;&#45;siblingmate+sibling</title>
<path fill="none" stroke="#000000" d="M853.1917,-224.6916C849.7636,-205.8879 846.744,-189.3251 845.7321,-183.7751"/>
</g>
<!-- Sibling Child 1 -->
<g id="node7" class="node">
<title>Sibling Child 1</title>
<ellipse fill="#ffc0cb" stroke="#ffc0cb" cx="683.3721" cy="-72" rx="72" ry="72"/>
<text text-anchor="middle" x="683.3721" y="-67.8" font-family="helvetica:bold" font-size="14.00" fill="#000000">Sibling Child 1</text>
</g>
<!-- Sibling Child 2 -->
<g id="node8" class="node">
<title>Sibling Child 2</title>
<polygon fill="#6495ed" stroke="#6495ed" points="917.3721,-144 773.3721,-144 773.3721,0 917.3721,0 917.3721,-144"/>
<text text-anchor="middle" x="845.3721" y="-67.8" font-family="helvetica:bold" font-size="14.00" fill="#000000">Sibling Child 2</text>
</g>
<!-- Sibling Child 3 -->
<g id="node9" class="node">
<title>Sibling Child 3</title>
<ellipse fill="#ffc0cb" stroke="#ffc0cb" cx="1007.3721" cy="-72" rx="72" ry="72"/>
<text text-anchor="middle" x="1007.3721" y="-67.8" font-family="helvetica:bold" font-size="14.00" fill="#000000">Sibling Child 3</text>
</g>
<!-- Father -->
<g id="node10" class="node">
<title>Father</title>
<polygon fill="#6495ed" stroke="#6495ed" points="421.3721,-598.0643 277.3721,-598.0643 277.3721,-454.0643 421.3721,-454.0643 421.3721,-598.0643"/>
<text text-anchor="middle" x="349.3721" y="-521.8643" font-family="helvetica:bold" font-size="14.00" fill="#000000">Father</text>
</g>
<!-- father+mother -->
<g id="node22" class="node">
<title>father+mother</title>
<ellipse fill="#000000" stroke="#000000" cx="564.3721" cy="-639.9537" rx="1.8" ry="1.8"/>
</g>
<!-- Father&#45;&#45;father+mother -->
<g id="edge5" class="edge">
<title>Father&#45;&#45;father+mother</title>
<path fill="none" stroke="#000000" d="M421.3879,-596.6463C424.3503,-598.5995 427.3488,-600.4445 430.3721,-602.1537 479.1893,-629.7522 549.578,-638.3731 562.3469,-639.747"/>
</g>
<!-- Paternal Grandfather -->
<g id="node11" class="node">
<title>Paternal Grandfather</title>
<polygon fill="#6495ed" stroke="#6495ed" points="146.6164,-831.9903 .1277,-831.9903 .1277,-685.5016 146.6164,-685.5016 146.6164,-831.9903"/>
<text text-anchor="middle" x="73.3721" y="-754.5459" font-family="helvetica:bold" font-size="14.00" fill="#000000">Paternal Grandfather</text>
</g>
<!-- paternalgrandfather+paternalgrandmother -->
<g id="node23" class="node">
<title>paternalgrandfather+paternalgrandmother</title>
<ellipse fill="#000000" stroke="#000000" cx="243.3721" cy="-877.5382" rx="1.8" ry="1.8"/>
</g>
<!-- Paternal Grandfather&#45;&#45;paternalgrandfather+paternalgrandmother -->
<g id="edge7" class="edge">
<title>Paternal Grandfather&#45;&#45;paternalgrandfather+paternalgrandmother</title>
<path fill="none" stroke="#000000" d="M145.9157,-832.2325C149.37,-834.8647 152.8624,-837.3806 156.3721,-839.7382 187.5402,-860.6754 232.1996,-874.3017 241.596,-877.0319"/>
</g>
<!-- Paternal Grandmother -->
<g id="node12" class="node">
<title>Paternal Grandmother</title>
<ellipse fill="#ffc0cb" stroke="#ffc0cb" cx="243.3721" cy="-758.7459" rx="78.3525" ry="78.3525"/>
<text text-anchor="middle" x="243.3721" y="-754.5459" font-family="helvetica:bold" font-size="14.00" fill="#000000">Paternal Grandmother</text>
</g>
<!-- Mother\nAlzheimer&#39;s Disease -->
<g id="node13" class="node">
<title>Mother\nAlzheimer&#39;s Disease</title>
<ellipse fill="#ffc0cb" stroke="#ffc0cb" cx="513.3721" cy="-526.0643" rx="73.5523" ry="73.5523"/>
<text text-anchor="middle" x="513.3721" y="-528.8643" font-family="helvetica:bold" font-size="14.00" fill="#000000">Mother</text>
<text text-anchor="middle" x="513.3721" y="-514.8643" font-family="helvetica:bold" font-size="14.00" fill="#000000">Alzheimer&#39;s Disease</text>
</g>
<!-- Mother Sibling 1\nHeart Disease -->
<g id="node14" class="node">
<title>Mother Sibling 1\nHeart Disease</title>
<ellipse fill="#ffc0cb" stroke="#ffc0cb" cx="753.3721" cy="-526.0643" rx="72" ry="72"/>
<text text-anchor="middle" x="753.3721" y="-528.8643" font-family="helvetica:bold" font-size="14.00" fill="#000000">Mother Sibling 1</text>
<text text-anchor="middle" x="753.3721" y="-514.8643" font-family="helvetica:bold" font-size="14.00" fill="#000000">Heart Disease</text>
</g>
<!-- Mother Sibling 2 -->
<g id="node15" class="node">
<title>Mother Sibling 2</title>
<ellipse fill="#ffc0cb" stroke="#ffc0cb" cx="1085.3721" cy="-526.0643" rx="72" ry="72"/>
<text text-anchor="middle" x="1085.3721" y="-521.8643" font-family="helvetica:bold" font-size="14.00" fill="#000000">Mother Sibling 2</text>
</g>
<!-- Mother Sibling 2 Mate\nParkinson&#39;s Disease -->
<g id="node16" class="node">
<title>Mother Sibling 2 Mate\nParkinson&#39;s Disease</title>
<polygon fill="#6495ed" stroke="#6495ed" points="995.5509,-602.2431 843.1933,-602.2431 843.1933,-449.8855 995.5509,-449.8855 995.5509,-602.2431"/>
<text text-anchor="middle" x="919.3721" y="-528.8643" font-family="helvetica:bold" font-size="14.00" fill="#000000">Mother Sibling 2 Mate</text>
<text text-anchor="middle" x="919.3721" y="-514.8643" font-family="helvetica:bold" font-size="14.00" fill="#000000">Parkinson&#39;s Disease</text>
</g>
<!-- mothersibling2mate+mothersibling2 -->
<g id="node24" class="node">
<title>mothersibling2mate+mothersibling2</title>
<ellipse fill="#000000" stroke="#000000" cx="1059.3721" cy="-412.175" rx="1.8" ry="1.8"/>
</g>
<!-- Mother Sibling 2 Mate\nParkinson&#39;s Disease&#45;&#45;mothersibling2mate+mothersibling2 -->
<g id="edge9" class="edge">
<title>Mother Sibling 2 Mate\nParkinson&#39;s Disease&#45;&#45;mothersibling2mate+mothersibling2</title>
<path fill="none" stroke="#000000" d="M995.9027,-456.763C998.7402,-454.4474 1001.5692,-452.178 1004.3721,-449.975 1024.4126,-434.2234 1050.6274,-417.6286 1057.604,-413.2728"/>
</g>
<!-- Mother Sibling 2 Child -->
<g id="node17" class="node">
<title>Mother Sibling 2 Child</title>
<ellipse fill="#ffc0cb" stroke="#ffc0cb" cx="1059.3721" cy="-296.9875" rx="77.2751" ry="77.2751"/>
<text text-anchor="middle" x="1059.3721" y="-292.7875" font-family="helvetica:bold" font-size="14.00" fill="#000000">Mother Sibling 2 Child</text>
</g>
<!-- Maternal Grandfather\nCancer -->
<g id="node18" class="node">
<title>Maternal Grandfather\nCancer</title>
<polygon fill="#6495ed" stroke="#6495ed" points="914.9404,-833.3143 765.8037,-833.3143 765.8037,-684.1776 914.9404,-684.1776 914.9404,-833.3143"/>
<text text-anchor="middle" x="840.3721" y="-761.5459" font-family="helvetica:bold" font-size="14.00" fill="#000000">Maternal Grandfather</text>
<text text-anchor="middle" x="840.3721" y="-747.5459" font-family="helvetica:bold" font-size="14.00" fill="#000000">Cancer</text>
</g>
<!-- maternalgrandfather+maternalgrandmother -->
<g id="node25" class="node">
<title>maternalgrandfather+maternalgrandmother</title>
<ellipse fill="#000000" stroke="#000000" cx="753.3721" cy="-639.9537" rx="1.8" ry="1.8"/>
</g>
<!-- Maternal Grandfather\nCancer&#45;&#45;maternalgrandfather+maternalgrandmother -->
<g id="edge11" class="edge">
<title>Maternal Grandfather\nCancer&#45;&#45;maternalgrandfather+maternalgrandmother</title>
<path fill="none" stroke="#000000" d="M785.7677,-684.1875C771.2923,-664.4225 758.5752,-647.0581 754.6313,-641.673"/>
</g>
<!-- Maternal Grandmother\nCancer -->
<g id="node19" class="node">
<title>Maternal Grandmother\nCancer</title>
<ellipse fill="#ffc0cb" stroke="#ffc0cb" cx="666.3721" cy="-758.7459" rx="80.9845" ry="80.9845"/>
<text text-anchor="middle" x="666.3721" y="-761.5459" font-family="helvetica:bold" font-size="14.00" fill="#000000">Maternal Grandmother</text>
<text text-anchor="middle" x="666.3721" y="-747.5459" font-family="helvetica:bold" font-size="14.00" fill="#000000">Cancer</text>
</g>
<!-- self+mate&#45;&#45;Mate -->
<g id="edge2" class="edge">
<title>self+mate&#45;&#45;Mate</title>
<path fill="none" stroke="#000000" d="M460.2617,-183.3791C455.8473,-189.6566 438.9475,-213.6893 421.8212,-238.044"/>
</g>
<!-- self+mate&#45;&#45;Child 1 -->
<g id="edge14" class="edge">
<title>self+mate&#45;&#45;Child 1</title>
<path fill="none" stroke="#000000" d="M459.396,-180.7397C451.6021,-176.5243 422.3454,-160.3841 400.3721,-144 391.0203,-137.027 381.4472,-129.2084 372.3086,-121.3628"/>
</g>
<!-- self+mate&#45;&#45;Child 2 -->
<g id="edge15" class="edge">
<title>self+mate&#45;&#45;Child 2</title>
<path fill="none" stroke="#000000" d="M461.7192,-179.8942C462.6269,-174.9107 465.2101,-160.7292 468.2173,-144.2195"/>
</g>
<!-- siblingmate+sibling&#45;&#45;Sibling -->
<g id="edge4" class="edge">
<title>siblingmate+sibling&#45;&#45;Sibling</title>
<path fill="none" stroke="#000000" d="M843.4133,-182.8441C835.6904,-186.9988 806.7295,-202.9424 785.3721,-219.6 775.2503,-227.4944 764.9638,-236.462 755.2701,-245.4246"/>
</g>
<!-- siblingmate+sibling&#45;&#45;Sibling Child 1 -->
<g id="edge17" class="edge">
<title>siblingmate+sibling&#45;&#45;Sibling Child 1</title>
<path fill="none" stroke="#000000" d="M843.2531,-181.071C833.649,-177.715 793.4173,-163.0975 764.3721,-144 754.625,-137.5912 744.8481,-130.0635 735.6275,-122.3348"/>
</g>
<!-- siblingmate+sibling&#45;&#45;Sibling Child 2 -->
<g id="edge18" class="edge">
<title>siblingmate+sibling&#45;&#45;Sibling Child 2</title>
<path fill="none" stroke="#000000" d="M845.3721,-179.8942C845.3721,-174.9107 845.3721,-160.7292 845.3721,-144.2195"/>
</g>
<!-- siblingmate+sibling&#45;&#45;Sibling Child 3 -->
<g id="edge19" class="edge">
<title>siblingmate+sibling&#45;&#45;Sibling Child 3</title>
<path fill="none" stroke="#000000" d="M847.491,-181.071C857.0951,-177.715 897.3268,-163.0975 926.3721,-144 936.1192,-137.5912 945.8961,-130.0635 955.1166,-122.3348"/>
</g>
<!-- father+mother&#45;&#45;Self\nHypertension -->
<g id="edge13" class="edge">
<title>father+mother&#45;&#45;Self\nHypertension</title>
<path fill="none" stroke="#000000" d="M566.0037,-638.7507C571.5939,-634.5135 589.9819,-619.5921 596.3721,-602.1537 619.6432,-538.6482 607.792,-516.6389 596.3721,-449.975 591.7352,-422.9071 582.7974,-394.2659 573.5074,-369.1761"/>
</g>
<!-- father+mother&#45;&#45;Sibling -->
<g id="edge16" class="edge">
<title>father+mother&#45;&#45;Sibling</title>
<path fill="none" stroke="#000000" d="M566.3711,-639.1266C574.1984,-635.7837 603.0368,-622.4693 617.3721,-602.1537 643.9732,-564.4551 673.0093,-445.4457 689.906,-367.6672"/>
</g>
<!-- father+mother&#45;&#45;Mother\nAlzheimer&#39;s Disease -->
<g id="edge6" class="edge">
<title>father+mother&#45;&#45;Mother\nAlzheimer&#39;s Disease</title>
<path fill="none" stroke="#000000" d="M563.4869,-637.9769C560.8282,-632.0398 552.5335,-613.5166 543.4376,-593.2043"/>
</g>
<!-- paternalgrandfather+paternalgrandmother&#45;&#45;Father -->
<g id="edge20" class="edge">
<title>paternalgrandfather+paternalgrandmother&#45;&#45;Father</title>
<path fill="none" stroke="#000000" d="M245.2098,-877.4079C255.7346,-876.553 308.6516,-870.7685 330.3721,-839.7382 379.6471,-769.3429 375.4825,-666.8371 364.9828,-598.3773"/>
</g>
<!-- paternalgrandfather+paternalgrandmother&#45;&#45;Paternal Grandmother -->
<g id="edge8" class="edge">
<title>paternalgrandfather+paternalgrandmother&#45;&#45;Paternal Grandmother</title>
<path fill="none" stroke="#000000" d="M243.3721,-875.4763C243.3721,-870.1155 243.3721,-854.9167 243.3721,-837.1859"/>
</g>
<!-- mothersibling2mate+mothersibling2&#45;&#45;Mother Sibling 2 -->
<g id="edge10" class="edge">
<title>mothersibling2mate+mothersibling2&#45;&#45;Mother Sibling 2</title>
<path fill="none" stroke="#000000" d="M1059.8302,-414.1819C1061.1171,-419.819 1064.9541,-436.6261 1069.2757,-455.5566"/>
</g>
<!-- mothersibling2mate+mothersibling2&#45;&#45;Mother Sibling 2 Child -->
<g id="edge24" class="edge">
<title>mothersibling2mate+mothersibling2&#45;&#45;Mother Sibling 2 Child</title>
<path fill="none" stroke="#000000" d="M1059.3721,-410.1757C1059.3721,-405.1269 1059.3721,-391.0791 1059.3721,-374.5231"/>
</g>
<!-- maternalgrandfather+maternalgrandmother&#45;&#45;Mother\nAlzheimer&#39;s Disease -->
<g id="edge21" class="edge">
<title>maternalgrandfather+maternalgrandmother&#45;&#45;Mother\nAlzheimer&#39;s Disease</title>
<path fill="none" stroke="#000000" d="M751.3648,-639.0257C742.2448,-634.8075 703.8003,-617.0065 672.3721,-602.1537 641.9373,-587.7704 608.301,-571.6992 579.8337,-558.0464"/>
</g>
<!-- maternalgrandfather+maternalgrandmother&#45;&#45;Mother Sibling 1\nHeart Disease -->
<g id="edge22" class="edge">
<title>maternalgrandfather+maternalgrandmother&#45;&#45;Mother Sibling 1\nHeart Disease</title>
<path fill="none" stroke="#000000" d="M753.3721,-637.9769C753.3721,-632.542 753.3721,-616.5598 753.3721,-598.3132"/>
</g>
<!-- maternalgrandfather+maternalgrandmother&#45;&#45;Mother Sibling 2 -->
<g id="edge23" class="edge">
<title>maternalgrandfather+maternalgrandmother&#45;&#45;Mother Sibling 2</title>
<path fill="none" stroke="#000000" d="M755.6334,-639.7997C777.8197,-638.2623 956.797,-625.2414 1004.3721,-602.1537 1016.0019,-596.5098 1027.0925,-588.6083 1037.1295,-580.0175"/>
</g>
<!-- maternalgrandfather+maternalgrandmother&#45;&#45;Maternal Grandmother\nCancer -->
<g id="edge12" class="edge">
<title>maternalgrandfather+maternalgrandmother&#45;&#45;Maternal Grandmother\nCancer</title>
<path fill="none" stroke="#000000" d="M752.3054,-641.4101C748.0587,-647.2087 731.7437,-669.4857 714.4524,-693.0957"/>
</g>
</g>
</svg>
