<?xml version="1.0" encoding="UTF-8" standalone="no"?>
<!DOCTYPE svg PUBLIC "-//W3C//DTD SVG 1.1//EN"
 "http://www.w3.org/Graphics/SVG/1.1/DTD/svg11.dtd">
<!-- Generated by graphviz version 2.40.1 (20161225.0304)
 -->
<!-- Title: f9 Pages: 1 -->
<svg width="4362pt" height="1021pt"
 viewBox="0.00 0.00 4361.76 1021.36" xmlns="http://www.w3.org/2000/svg" xmlns:xlink="http://www.w3.org/1999/xlink">
<g id="graph0" class="graph" transform="scale(1 1) rotate(0) translate(4 1017.3639)">
<title>f9</title>
<polygon fill="#ffffff" stroke="transparent" points="-4,4 -4,-1017.3639 4357.7646,-1017.3639 4357.7646,4 -4,4"/>
<!-- Self -->
<g id="node1" class="node">
<title>Self</title>
<ellipse fill="#ffc0cb" stroke="#ffc0cb" cx="1405.5479" cy="-83.2947" rx="72" ry="72"/>
<text text-anchor="middle" x="1405.5479" y="-79.0947" font-family="helvetica:bold" font-size="14.00" fill="#000000">Self</text>
</g>
<!-- Father -->
<g id="node2" class="node">
<title>Father</title>
<polygon fill="#6495ed" stroke="#6495ed" points="1215.5479,-390.2788 1071.5479,-390.2788 1071.5479,-246.2788 1215.5479,-246.2788 1215.5479,-390.2788"/>
<text text-anchor="middle" x="1143.5479" y="-314.0788" font-family="helvetica:bold" font-size="14.00" fill="#000000">Father</text>
</g>
<!-- father+mother -->
<g id="node50" class="node">
<title>father+mother</title>
<ellipse fill="#000000" stroke="#000000" cx="1355.5479" cy="-432.1682" rx="1.8" ry="1.8"/>
</g>
<!-- Father&#45;&#45;father+mother -->
<g id="edge1" class="edge">
<title>Father&#45;&#45;father+mother</title>
<path fill="none" stroke="#000000" d="M1215.577,-388.8374C1218.5356,-390.7972 1221.5297,-392.65 1224.5479,-394.3682 1272.2727,-421.5375 1341.0851,-430.5071 1353.568,-431.9502"/>
</g>
<!-- Father Sibling 1 -->
<g id="node3" class="node">
<title>Father Sibling 1</title>
<ellipse fill="#ffc0cb" stroke="#ffc0cb" cx="1673.5479" cy="-318.2788" rx="72" ry="72"/>
<text text-anchor="middle" x="1673.5479" y="-314.0788" font-family="helvetica:bold" font-size="14.00" fill="#000000">Father Sibling 1</text>
</g>
<!-- Father Sibling 1 Mate -->
<g id="node4" class="node">
<title>Father Sibling 1 Mate</title>
<polygon fill="#6495ed" stroke="#6495ed" points="1583.1162,-392.8472 1433.9795,-392.8472 1433.9795,-243.7104 1583.1162,-243.7104 1583.1162,-392.8472"/>
<text text-anchor="middle" x="1508.5479" y="-314.0788" font-family="helvetica:bold" font-size="14.00" fill="#000000">Father Sibling 1 Mate</text>
</g>
<!-- fathersibling1mate+fathersibling1 -->
<g id="node51" class="node">
<title>fathersibling1mate+fathersibling1</title>
<ellipse fill="#000000" stroke="#000000" cx="1658.5479" cy="-204.3895" rx="1.8" ry="1.8"/>
</g>
<!-- Father Sibling 1 Mate&#45;&#45;fathersibling1mate+fathersibling1 -->
<g id="edge3" class="edge">
<title>Father Sibling 1 Mate&#45;&#45;fathersibling1mate+fathersibling1</title>
<path fill="none" stroke="#000000" d="M1583.4502,-249.033C1586.4839,-246.676 1589.5227,-244.3862 1592.5479,-242.1895 1616.4813,-224.8097 1649.0625,-208.9039 1656.8338,-205.199"/>
</g>
<!-- Father Sibling 1 Child -->
<g id="node5" class="node">
<title>Father Sibling 1 Child</title>
<polygon fill="#6495ed" stroke="#6495ed" points="1733.3956,-158.1425 1583.7001,-158.1425 1583.7001,-8.447 1733.3956,-8.447 1733.3956,-158.1425"/>
<text text-anchor="middle" x="1658.5479" y="-79.0947" font-family="helvetica:bold" font-size="14.00" fill="#000000">Father Sibling 1 Child</text>
</g>
<!-- Father Sibling 2 -->
<g id="node6" class="node">
<title>Father Sibling 2</title>
<ellipse fill="#ffc0cb" stroke="#ffc0cb" cx="1835.5479" cy="-318.2788" rx="72" ry="72"/>
<text text-anchor="middle" x="1835.5479" y="-314.0788" font-family="helvetica:bold" font-size="14.00" fill="#000000">Father Sibling 2</text>
</g>
<!-- Father Sibling 3 -->
<g id="node7" class="node">
<title>Father Sibling 3</title>
<polygon fill="#6495ed" stroke="#6495ed" points="2085.5479,-390.2788 1941.5479,-390.2788 1941.5479,-246.2788 2085.5479,-246.2788 2085.5479,-390.2788"/>
<text text-anchor="middle" x="2013.5479" y="-314.0788" font-family="helvetica:bold" font-size="14.00" fill="#000000">Father Sibling 3</text>
</g>
<!-- fathersibling3+fathersibling3mate -->
<g id="node52" class="node">
<title>fathersibling3+fathersibling3mate</title>
<ellipse fill="#000000" stroke="#000000" cx="2042.5479" cy="-204.3895" rx="1.8" ry="1.8"/>
</g>
<!-- Father Sibling 3&#45;&#45;fathersibling3+fathersibling3mate -->
<g id="edge5" class="edge">
<title>Father Sibling 3&#45;&#45;fathersibling3+fathersibling3mate</title>
<path fill="none" stroke="#000000" d="M2031.914,-246.1509C2036.5901,-227.7867 2040.6876,-211.6953 2042.0597,-206.3066"/>
</g>
<!-- Father Sibling 3 Mate -->
<g id="node8" class="node">
<title>Father Sibling 3 Mate</title>
<ellipse fill="#ffc0cb" stroke="#ffc0cb" cx="3096.5479" cy="-318.2788" rx="75.3392" ry="75.3392"/>
<text text-anchor="middle" x="3096.5479" y="-314.0788" font-family="helvetica:bold" font-size="14.00" fill="#000000">Father Sibling 3 Mate</text>
</g>
<!-- Father Sibling 3 Child 1 -->
<g id="node9" class="node">
<title>Father Sibling 3 Child 1</title>
<ellipse fill="#ffc0cb" stroke="#ffc0cb" cx="1876.5479" cy="-83.2947" rx="81.9428" ry="81.9428"/>
<text text-anchor="middle" x="1876.5479" y="-79.0947" font-family="helvetica:bold" font-size="14.00" fill="#000000">Father Sibling 3 Child 1</text>
</g>
<!-- Father Sibling 3 Child 2 -->
<g id="node10" class="node">
<title>Father Sibling 3 Child 2</title>
<ellipse fill="#ffc0cb" stroke="#ffc0cb" cx="2057.5479" cy="-83.2947" rx="81.9428" ry="81.9428"/>
<text text-anchor="middle" x="2057.5479" y="-79.0947" font-family="helvetica:bold" font-size="14.00" fill="#000000">Father Sibling 3 Child 2</text>
</g>
<!-- Paternal Grandfather\nHeart Attack -->
<g id="node11" class="node">
<title>Paternal Grandfather\nHeart Attack</title>
<polygon fill="#6495ed" stroke="#6495ed" points="908.7922,-653.9456 762.3035,-653.9456 762.3035,-507.4568 908.7922,-507.4568 908.7922,-653.9456"/>
<text text-anchor="middle" x="835.5479" y="-583.5012" font-family="helvetica:bold" font-size="14.00" fill="#000000">Paternal Grandfather</text>
<text text-anchor="middle" x="835.5479" y="-569.5012" font-family="helvetica:bold" font-size="14.00" fill="#000000">Heart Attack</text>
</g>
<!-- paternalgrandfather+paternalgrandmother -->
<g id="node53" class="node">
<title>paternalgrandfather+paternalgrandmother</title>
<ellipse fill="#000000" stroke="#000000" cx="1360.5479" cy="-729.2342" rx="1.8" ry="1.8"/>
</g>
<!-- Paternal Grandfather\nHeart Attack&#45;&#45;paternalgrandfather+paternalgrandmother -->
<g id="edge7" class="edge">
<title>Paternal Grandfather\nHeart Attack&#45;&#45;paternalgrandfather+paternalgrandmother</title>
<path fill="none" stroke="#000000" d="M876.5846,-653.96C888.2347,-668.6904 902.2654,-682.4023 918.5479,-691.4342 959.7989,-714.3164 1326.9246,-728.022 1358.3983,-729.1576"/>
</g>
<!-- Paternal Grandfather Sibling 1 -->
<g id="node12" class="node">
<title>Paternal Grandfather Sibling 1</title>
<polygon fill="#6495ed" stroke="#6495ed" points="296.885,-683.0384 92.2107,-683.0384 92.2107,-478.364 296.885,-478.364 296.885,-683.0384"/>
<text text-anchor="middle" x="194.5479" y="-576.5012" font-family="helvetica:bold" font-size="14.00" fill="#000000">Paternal Grandfather Sibling 1</text>
</g>
<!-- Paternal Grandfather Sibling 2 -->
<g id="node13" class="node">
<title>Paternal Grandfather Sibling 2</title>
<polygon fill="#6495ed" stroke="#6495ed" points="518.885,-683.0384 314.2107,-683.0384 314.2107,-478.364 518.885,-478.364 518.885,-683.0384"/>
<text text-anchor="middle" x="416.5479" y="-576.5012" font-family="helvetica:bold" font-size="14.00" fill="#000000">Paternal Grandfather Sibling 2</text>
</g>
<!-- Paternal Grandfather Sibling 3 -->
<g id="node14" class="node">
<title>Paternal Grandfather Sibling 3</title>
<ellipse fill="#ffc0cb" stroke="#ffc0cb" cx="640.5479" cy="-580.7012" rx="103.2643" ry="103.2643"/>
<text text-anchor="middle" x="640.5479" y="-576.5012" font-family="helvetica:bold" font-size="14.00" fill="#000000">Paternal Grandfather Sibling 3</text>
</g>
<!-- Paternal Grandfather Sibling 4 -->
<g id="node15" class="node">
<title>Paternal Grandfather Sibling 4</title>
<ellipse fill="#ffc0cb" stroke="#ffc0cb" cx="1030.5479" cy="-580.7012" rx="103.2643" ry="103.2643"/>
<text text-anchor="middle" x="1030.5479" y="-576.5012" font-family="helvetica:bold" font-size="14.00" fill="#000000">Paternal Grandfather Sibling 4</text>
</g>
<!-- Paternal Grandfather Mother -->
<g id="node16" class="node">
<title>Paternal Grandfather Mother</title>
<ellipse fill="#ffc0cb" stroke="#ffc0cb" cx="307.5479" cy="-870.399" rx="98.0136" ry="98.0136"/>
<text text-anchor="middle" x="307.5479" y="-866.199" font-family="helvetica:bold" font-size="14.00" fill="#000000">Paternal Grandfather Mother</text>
</g>
<!-- Paternal Grandfather Father -->
<g id="node17" class="node">
<title>Paternal Grandfather Father</title>
<polygon fill="#6495ed" stroke="#6495ed" points="191.1436,-965.9948 -.0479,-965.9948 -.0479,-774.8033 191.1436,-774.8033 191.1436,-965.9948"/>
<text text-anchor="middle" x="95.5479" y="-866.199" font-family="helvetica:bold" font-size="14.00" fill="#000000">Paternal Grandfather Father</text>
</g>
<!-- paternalgrandfatherfather+paternalgrandfathermother -->
<g id="node54" class="node">
<title>paternalgrandfatherfather+paternalgrandfathermother</title>
<ellipse fill="#000000" stroke="#000000" cx="471.5479" cy="-1011.5639" rx="1.8" ry="1.8"/>
</g>
<!-- Paternal Grandfather Father&#45;&#45;paternalgrandfatherfather+paternalgrandfathermother -->
<g id="edge9" class="edge">
<title>Paternal Grandfather Father&#45;&#45;paternalgrandfatherfather+paternalgrandfathermother</title>
<path fill="none" stroke="#000000" d="M186.6952,-965.9943C191.2212,-968.8345 195.8446,-971.4449 200.5479,-973.7639 252.1021,-999.1825 448.3565,-1010.3227 469.6676,-1011.4651"/>
</g>
<!-- Paternal Grandmother -->
<g id="node18" class="node">
<title>Paternal Grandmother</title>
<ellipse fill="#ffc0cb" stroke="#ffc0cb" cx="1230.5479" cy="-580.7012" rx="78.3525" ry="78.3525"/>
<text text-anchor="middle" x="1230.5479" y="-576.5012" font-family="helvetica:bold" font-size="14.00" fill="#000000">Paternal Grandmother</text>
</g>
<!-- Paternal Grandmother Sibling 1 -->
<g id="node19" class="node">
<title>Paternal Grandmother Sibling 1</title>
<ellipse fill="#ffc0cb" stroke="#ffc0cb" cx="1596.5479" cy="-580.7012" rx="107.1293" ry="107.1293"/>
<text text-anchor="middle" x="1596.5479" y="-576.5012" font-family="helvetica:bold" font-size="14.00" fill="#000000">Paternal Grandmother Sibling 1</text>
</g>
<!-- Paternal Grandmother Sibling 2 -->
<g id="node20" class="node">
<title>Paternal Grandmother Sibling 2</title>
<ellipse fill="#ffc0cb" stroke="#ffc0cb" cx="1829.5479" cy="-580.7012" rx="107.1293" ry="107.1293"/>
<text text-anchor="middle" x="1829.5479" y="-576.5012" font-family="helvetica:bold" font-size="14.00" fill="#000000">Paternal Grandmother Sibling 2</text>
</g>
<!-- Paternal Grandmother Sibling 3 -->
<g id="node21" class="node">
<title>Paternal Grandmother Sibling 3</title>
<ellipse fill="#ffc0cb" stroke="#ffc0cb" cx="2062.5479" cy="-580.7012" rx="107.1293" ry="107.1293"/>
<text text-anchor="middle" x="2062.5479" y="-576.5012" font-family="helvetica:bold" font-size="14.00" fill="#000000">Paternal Grandmother Sibling 3</text>
</g>
<!-- Paternal Grandmother Sibling 4 -->
<g id="node22" class="node">
<title>Paternal Grandmother Sibling 4</title>
<polygon fill="#6495ed" stroke="#6495ed" points="2399.6573,-686.8106 2187.4384,-686.8106 2187.4384,-474.5918 2399.6573,-474.5918 2399.6573,-686.8106"/>
<text text-anchor="middle" x="2293.5479" y="-576.5012" font-family="helvetica:bold" font-size="14.00" fill="#000000">Paternal Grandmother Sibling 4</text>
</g>
<!-- Paternal Grandmother Sibling 5\nCancer -->
<g id="node23" class="node">
<title>Paternal Grandmother Sibling 5\nCancer</title>
<polygon fill="#6495ed" stroke="#6495ed" points="2629.6573,-686.8106 2417.4384,-686.8106 2417.4384,-474.5918 2629.6573,-474.5918 2629.6573,-686.8106"/>
<text text-anchor="middle" x="2523.5479" y="-583.5012" font-family="helvetica:bold" font-size="14.00" fill="#000000">Paternal Grandmother Sibling 5</text>
<text text-anchor="middle" x="2523.5479" y="-569.5012" font-family="helvetica:bold" font-size="14.00" fill="#000000">Cancer</text>
</g>
<!-- Paternal Grandmother Sibling 6 -->
<g id="node24" class="node">
<title>Paternal Grandmother Sibling 6</title>
<ellipse fill="#ffc0cb" stroke="#ffc0cb" cx="2754.5479" cy="-580.7012" rx="107.1293" ry="107.1293"/>
<text text-anchor="middle" x="2754.5479" y="-576.5012" font-family="helvetica:bold" font-size="14.00" fill="#000000">Paternal Grandmother Sibling 6</text>
</g>
<!-- Paternal Grandmother Sibling 7 -->
<g id="node25" class="node">
<title>Paternal Grandmother Sibling 7</title>
<polygon fill="#6495ed" stroke="#6495ed" points="3091.6573,-686.8106 2879.4384,-686.8106 2879.4384,-474.5918 3091.6573,-474.5918 3091.6573,-686.8106"/>
<text text-anchor="middle" x="2985.5479" y="-576.5012" font-family="helvetica:bold" font-size="14.00" fill="#000000">Paternal Grandmother Sibling 7</text>
</g>
<!-- Paternal Grandmother Sibling 8 -->
<g id="node26" class="node">
<title>Paternal Grandmother Sibling 8</title>
<polygon fill="#6495ed" stroke="#6495ed" points="3321.6573,-686.8106 3109.4384,-686.8106 3109.4384,-474.5918 3321.6573,-474.5918 3321.6573,-686.8106"/>
<text text-anchor="middle" x="3215.5479" y="-576.5012" font-family="helvetica:bold" font-size="14.00" fill="#000000">Paternal Grandmother Sibling 8</text>
</g>
<!-- Paternal Grandmother Mother -->
<g id="node27" class="node">
<title>Paternal Grandmother Mother</title>
<ellipse fill="#ffc0cb" stroke="#ffc0cb" cx="2183.5479" cy="-870.399" rx="102.3781" ry="102.3781"/>
<text text-anchor="middle" x="2183.5479" y="-866.199" font-family="helvetica:bold" font-size="14.00" fill="#000000">Paternal Grandmother Mother</text>
</g>
<!-- Paternal Grandmother Father -->
<g id="node28" class="node">
<title>Paternal Grandmother Father</title>
<polygon fill="#6495ed" stroke="#6495ed" points="2502.9161,-969.7672 2304.1796,-969.7672 2304.1796,-771.0308 2502.9161,-771.0308 2502.9161,-969.7672"/>
<text text-anchor="middle" x="2403.5479" y="-866.199" font-family="helvetica:bold" font-size="14.00" fill="#000000">Paternal Grandmother Father</text>
</g>
<!-- paternalgrandmotherfather+paternalgrandmothermother -->
<g id="node55" class="node">
<title>paternalgrandmotherfather+paternalgrandmothermother</title>
<ellipse fill="#000000" stroke="#000000" cx="2293.5479" cy="-729.2342" rx="1.8" ry="1.8"/>
</g>
<!-- Paternal Grandmother Father&#45;&#45;paternalgrandmotherfather+paternalgrandmothermother -->
<g id="edge11" class="edge">
<title>Paternal Grandmother Father&#45;&#45;paternalgrandmotherfather+paternalgrandmothermother</title>
<path fill="none" stroke="#000000" d="M2325.9565,-770.8248C2310.8829,-751.4806 2298.5494,-735.6528 2294.755,-730.7834"/>
</g>
<!-- Mother -->
<g id="node29" class="node">
<title>Mother</title>
<ellipse fill="#ffc0cb" stroke="#ffc0cb" cx="1305.5479" cy="-318.2788" rx="72" ry="72"/>
<text text-anchor="middle" x="1305.5479" y="-314.0788" font-family="helvetica:bold" font-size="14.00" fill="#000000">Mother</text>
</g>
<!-- Mother Sibling 1 -->
<g id="node30" class="node">
<title>Mother Sibling 1</title>
<ellipse fill="#ffc0cb" stroke="#ffc0cb" cx="2607.5479" cy="-318.2788" rx="72" ry="72"/>
<text text-anchor="middle" x="2607.5479" y="-314.0788" font-family="helvetica:bold" font-size="14.00" fill="#000000">Mother Sibling 1</text>
</g>
<!-- Mother Sibling 2 -->
<g id="node31" class="node">
<title>Mother Sibling 2</title>
<ellipse fill="#ffc0cb" stroke="#ffc0cb" cx="2769.5479" cy="-318.2788" rx="72" ry="72"/>
<text text-anchor="middle" x="2769.5479" y="-314.0788" font-family="helvetica:bold" font-size="14.00" fill="#000000">Mother Sibling 2</text>
</g>
<!-- Mother Sibling 2 Mate -->
<g id="node32" class="node">
<title>Mother Sibling 2 Mate</title>
<polygon fill="#6495ed" stroke="#6495ed" points="3342.7267,-394.4576 3190.369,-394.4576 3190.369,-242.1 3342.7267,-242.1 3342.7267,-394.4576"/>
<text text-anchor="middle" x="3266.5479" y="-314.0788" font-family="helvetica:bold" font-size="14.00" fill="#000000">Mother Sibling 2 Mate</text>
</g>
<!-- mothersibling2mate+mothersibling2 -->
<g id="node56" class="node">
<title>mothersibling2mate+mothersibling2</title>
<ellipse fill="#000000" stroke="#000000" cx="3002.5479" cy="-204.3895" rx="1.8" ry="1.8"/>
</g>
<!-- Mother Sibling 2 Mate&#45;&#45;mothersibling2mate+mothersibling2 -->
<g id="edge13" class="edge">
<title>Mother Sibling 2 Mate&#45;&#45;mothersibling2mate+mothersibling2</title>
<path fill="none" stroke="#000000" d="M3190.3344,-247.6096C3187.108,-245.6664 3183.8414,-243.8492 3180.5479,-242.1895 3113.9673,-208.6371 3018.8707,-204.8224 3004.4182,-204.4312"/>
</g>
<!-- Mother Sibling 2 Child 1 -->
<g id="node33" class="node">
<title>Mother Sibling 2 Child 1</title>
<ellipse fill="#ffc0cb" stroke="#ffc0cb" cx="2727.5479" cy="-83.2947" rx="83.09" ry="83.09"/>
<text text-anchor="middle" x="2727.5479" y="-79.0947" font-family="helvetica:bold" font-size="14.00" fill="#000000">Mother Sibling 2 Child 1</text>
</g>
<!-- Mother Sibling 2 Child 2 -->
<g id="node34" class="node">
<title>Mother Sibling 2 Child 2</title>
<polygon fill="#6495ed" stroke="#6495ed" points="2993.682,-165.4289 2829.4137,-165.4289 2829.4137,-1.1605 2993.682,-1.1605 2993.682,-165.4289"/>
<text text-anchor="middle" x="2911.5479" y="-79.0947" font-family="helvetica:bold" font-size="14.00" fill="#000000">Mother Sibling 2 Child 2</text>
</g>
<!-- Mother Sibling 2 Child 3\nLeukemia -->
<g id="node35" class="node">
<title>Mother Sibling 2 Child 3\nLeukemia</title>
<polygon fill="#6495ed" stroke="#6495ed" points="3176.682,-165.4289 3012.4137,-165.4289 3012.4137,-1.1605 3176.682,-1.1605 3176.682,-165.4289"/>
<text text-anchor="middle" x="3094.5479" y="-86.0947" font-family="helvetica:bold" font-size="14.00" fill="#000000">Mother Sibling 2 Child 3</text>
<text text-anchor="middle" x="3094.5479" y="-72.0947" font-family="helvetica:bold" font-size="14.00" fill="#000000">Leukemia</text>
</g>
<!-- Mother Sibling 2 Child 4 -->
<g id="node36" class="node">
<title>Mother Sibling 2 Child 4</title>
<ellipse fill="#ffc0cb" stroke="#ffc0cb" cx="3278.5479" cy="-83.2947" rx="83.09" ry="83.09"/>
<text text-anchor="middle" x="3278.5479" y="-79.0947" font-family="helvetica:bold" font-size="14.00" fill="#000000">Mother Sibling 2 Child 4</text>
</g>
<!-- Mother Sibling 3 -->
<g id="node37" class="node">
<title>Mother Sibling 3</title>
<ellipse fill="#ffc0cb" stroke="#ffc0cb" cx="2931.5479" cy="-318.2788" rx="72" ry="72"/>
<text text-anchor="middle" x="2931.5479" y="-314.0788" font-family="helvetica:bold" font-size="14.00" fill="#000000">Mother Sibling 3</text>
</g>
<!-- Mother Sibling 4\nMelanoma -->
<g id="node38" class="node">
<title>Mother Sibling 4\nMelanoma</title>
<ellipse fill="#ffc0cb" stroke="#ffc0cb" cx="3432.5479" cy="-318.2788" rx="72" ry="72"/>
<text text-anchor="middle" x="3432.5479" y="-321.0788" font-family="helvetica:bold" font-size="14.00" fill="#000000">Mother Sibling 4</text>
<text text-anchor="middle" x="3432.5479" y="-307.0788" font-family="helvetica:bold" font-size="14.00" fill="#000000">Melanoma</text>
</g>
<!-- Mother Sibling 4 Mate -->
<g id="node39" class="node">
<title>Mother Sibling 4 Mate</title>
<polygon fill="#6495ed" stroke="#6495ed" points="3674.7267,-394.4576 3522.369,-394.4576 3522.369,-242.1 3674.7267,-242.1 3674.7267,-394.4576"/>
<text text-anchor="middle" x="3598.5479" y="-314.0788" font-family="helvetica:bold" font-size="14.00" fill="#000000">Mother Sibling 4 Mate</text>
</g>
<!-- mothersibling4mate+mothersibling4 -->
<g id="node57" class="node">
<title>mothersibling4mate+mothersibling4</title>
<ellipse fill="#000000" stroke="#000000" cx="3515.5479" cy="-204.3895" rx="1.8" ry="1.8"/>
</g>
<!-- Mother Sibling 4 Mate&#45;&#45;mothersibling4mate+mothersibling4 -->
<g id="edge15" class="edge">
<title>Mother Sibling 4 Mate&#45;&#45;mothersibling4mate+mothersibling4</title>
<path fill="none" stroke="#000000" d="M3542.9552,-241.9967C3530.6705,-225.1401 3520.2553,-210.8488 3516.7815,-206.0822"/>
</g>
<!-- Mother Sibling 4 Child -->
<g id="node40" class="node">
<title>Mother Sibling 4 Child</title>
<ellipse fill="#ffc0cb" stroke="#ffc0cb" cx="3515.5479" cy="-83.2947" rx="77.2751" ry="77.2751"/>
<text text-anchor="middle" x="3515.5479" y="-79.0947" font-family="helvetica:bold" font-size="14.00" fill="#000000">Mother Sibling 4 Child</text>
</g>
<!-- Maternal Grandmother\nBreast Cancer -->
<g id="node41" class="node">
<title>Maternal Grandmother\nBreast Cancer</title>
<ellipse fill="#ffc0cb" stroke="#ffc0cb" cx="3800.5479" cy="-580.7012" rx="80.9845" ry="80.9845"/>
<text text-anchor="middle" x="3800.5479" y="-583.5012" font-family="helvetica:bold" font-size="14.00" fill="#000000">Maternal Grandmother</text>
<text text-anchor="middle" x="3800.5479" y="-569.5012" font-family="helvetica:bold" font-size="14.00" fill="#000000">Breast Cancer</text>
</g>
<!-- Maternal Grandmother Sibling 1\nOvarian Cancer -->
<g id="node42" class="node">
<title>Maternal Grandmother Sibling 1\nOvarian Cancer</title>
<ellipse fill="#ffc0cb" stroke="#ffc0cb" cx="4010.5479" cy="-580.7012" rx="110.9666" ry="110.9666"/>
<text text-anchor="middle" x="4010.5479" y="-583.5012" font-family="helvetica:bold" font-size="14.00" fill="#000000">Maternal Grandmother Sibling 1</text>
<text text-anchor="middle" x="4010.5479" y="-569.5012" font-family="helvetica:bold" font-size="14.00" fill="#000000">Ovarian Cancer</text>
</g>
<!-- Maternal Grandmother Sibling 2 -->
<g id="node43" class="node">
<title>Maternal Grandmother Sibling 2</title>
<polygon fill="#6495ed" stroke="#6495ed" points="4353.9819,-688.1352 4139.1138,-688.1352 4139.1138,-473.2672 4353.9819,-473.2672 4353.9819,-688.1352"/>
<text text-anchor="middle" x="4246.5479" y="-576.5012" font-family="helvetica:bold" font-size="14.00" fill="#000000">Maternal Grandmother Sibling 2</text>
</g>
<!-- Maternal Grandmother Mother -->
<g id="node44" class="node">
<title>Maternal Grandmother Mother</title>
<ellipse fill="#ffc0cb" stroke="#ffc0cb" cx="3899.5479" cy="-870.399" rx="103.2298" ry="103.2298"/>
<text text-anchor="middle" x="3899.5479" y="-866.199" font-family="helvetica:bold" font-size="14.00" fill="#000000">Maternal Grandmother Mother</text>
</g>
<!-- Maternal Grandmother Father\nProstate Cancer -->
<g id="node45" class="node">
<title>Maternal Grandmother Father\nProstate Cancer</title>
<polygon fill="#6495ed" stroke="#6495ed" points="4222.2403,-971.0915 4020.8554,-971.0915 4020.8554,-769.7066 4222.2403,-769.7066 4222.2403,-971.0915"/>
<text text-anchor="middle" x="4121.5479" y="-873.199" font-family="helvetica:bold" font-size="14.00" fill="#000000">Maternal Grandmother Father</text>
<text text-anchor="middle" x="4121.5479" y="-859.199" font-family="helvetica:bold" font-size="14.00" fill="#000000">Prostate Cancer</text>
</g>
<!-- maternalgrandmotherfather+maternalgrandmothermother -->
<g id="node58" class="node">
<title>maternalgrandmotherfather+maternalgrandmothermother</title>
<ellipse fill="#000000" stroke="#000000" cx="4010.5479" cy="-729.2342" rx="1.8" ry="1.8"/>
</g>
<!-- Maternal Grandmother Father\nProstate Cancer&#45;&#45;maternalgrandmotherfather+maternalgrandmothermother -->
<g id="edge17" class="edge">
<title>Maternal Grandmother Father\nProstate Cancer&#45;&#45;maternalgrandmotherfather+maternalgrandmothermother</title>
<path fill="none" stroke="#000000" d="M4042.356,-769.6864C4027.5027,-750.7966 4015.4364,-735.4513 4011.7274,-730.7344"/>
</g>
<!-- Maternal Grandfather -->
<g id="node46" class="node">
<title>Maternal Grandfather</title>
<polygon fill="#6495ed" stroke="#6495ed" points="3489.1162,-655.2696 3339.9795,-655.2696 3339.9795,-506.1328 3489.1162,-506.1328 3489.1162,-655.2696"/>
<text text-anchor="middle" x="3414.5479" y="-576.5012" font-family="helvetica:bold" font-size="14.00" fill="#000000">Maternal Grandfather</text>
</g>
<!-- maternalgrandfather+maternalgrandmother -->
<g id="node59" class="node">
<title>maternalgrandfather+maternalgrandmother</title>
<ellipse fill="#000000" stroke="#000000" cx="2931.5479" cy="-432.1682" rx="1.8" ry="1.8"/>
</g>
<!-- Maternal Grandfather&#45;&#45;maternalgrandfather+maternalgrandmother -->
<g id="edge19" class="edge">
<title>Maternal Grandfather&#45;&#45;maternalgrandfather+maternalgrandmother</title>
<path fill="none" stroke="#000000" d="M3371.6639,-506.1174C3360.1152,-491.9238 3346.3587,-478.7735 3330.5479,-469.9682 3293.3143,-449.2321 2961.9005,-433.5648 2933.4883,-432.2567"/>
</g>
<!-- Maternal Grandfather Sibling -->
<g id="node47" class="node">
<title>Maternal Grandfather Sibling</title>
<polygon fill="#6495ed" stroke="#6495ed" points="3702.0332,-678.1865 3507.0625,-678.1865 3507.0625,-483.2158 3702.0332,-483.2158 3702.0332,-678.1865"/>
<text text-anchor="middle" x="3604.5479" y="-576.5012" font-family="helvetica:bold" font-size="14.00" fill="#000000">Maternal Grandfather Sibling</text>
</g>
<!-- Maternal Grandfather Mother -->
<g id="node48" class="node">
<title>Maternal Grandfather Mother</title>
<ellipse fill="#ffc0cb" stroke="#ffc0cb" cx="3381.5479" cy="-870.399" rx="99.3649" ry="99.3649"/>
<text text-anchor="middle" x="3381.5479" y="-866.199" font-family="helvetica:bold" font-size="14.00" fill="#000000">Maternal Grandfather Mother</text>
</g>
<!-- Maternal Grandfather Father -->
<g id="node49" class="node">
<title>Maternal Grandfather Father</title>
<polygon fill="#6495ed" stroke="#6495ed" points="3692.4682,-967.3194 3498.6275,-967.3194 3498.6275,-773.4787 3692.4682,-773.4787 3692.4682,-967.3194"/>
<text text-anchor="middle" x="3595.5479" y="-866.199" font-family="helvetica:bold" font-size="14.00" fill="#000000">Maternal Grandfather Father</text>
</g>
<!-- maternalgrandfatherfather+maternalgrandfathermother -->
<g id="node60" class="node">
<title>maternalgrandfatherfather+maternalgrandfathermother</title>
<ellipse fill="#000000" stroke="#000000" cx="3509.5479" cy="-729.2342" rx="1.8" ry="1.8"/>
</g>
<!-- Maternal Grandfather Father&#45;&#45;maternalgrandfatherfather+maternalgrandfathermother -->
<g id="edge21" class="edge">
<title>Maternal Grandfather Father&#45;&#45;maternalgrandfatherfather+maternalgrandfathermother</title>
<path fill="none" stroke="#000000" d="M3536.5228,-773.5123C3524.0953,-753.1131 3513.7517,-736.1346 3510.5632,-730.9008"/>
</g>
<!-- father+mother&#45;&#45;Self -->
<g id="edge23" class="edge">
<title>father+mother&#45;&#45;Self</title>
<path fill="none" stroke="#000000" d="M1357.0914,-430.9379C1362.3858,-426.6115 1379.8513,-411.4336 1386.5479,-394.3682 1416.9851,-316.8024 1417.6782,-219.9875 1413.3985,-155.1518"/>
</g>
<!-- father+mother&#45;&#45;Mother -->
<g id="edge2" class="edge">
<title>father+mother&#45;&#45;Mother</title>
<path fill="none" stroke="#000000" d="M1354.68,-430.1914C1352.0346,-424.1657 1343.6974,-405.1753 1334.624,-384.5081"/>
</g>
<!-- fathersibling1mate+fathersibling1&#45;&#45;Father Sibling 1 -->
<g id="edge4" class="edge">
<title>fathersibling1mate+fathersibling1&#45;&#45;Father Sibling 1</title>
<path fill="none" stroke="#000000" d="M1658.805,-206.3423C1659.5278,-211.8297 1661.6846,-228.2059 1664.1333,-246.7976"/>
</g>
<!-- fathersibling1mate+fathersibling1&#45;&#45;Father Sibling 1 Child -->
<g id="edge26" class="edge">
<title>fathersibling1mate+fathersibling1&#45;&#45;Father Sibling 1 Child</title>
<path fill="none" stroke="#000000" d="M1658.5479,-202.2876C1658.5479,-196.3204 1658.5479,-178.3954 1658.5479,-158.2093"/>
</g>
<!-- fathersibling3+fathersibling3mate&#45;&#45;Father Sibling 3 Mate -->
<g id="edge6" class="edge">
<title>fathersibling3+fathersibling3mate&#45;&#45;Father Sibling 3 Mate</title>
<path fill="none" stroke="#000000" d="M2044.575,-204.4282C2092.2135,-205.3444 2963.9816,-222.3686 3012.5479,-242.1895 3024.2074,-246.9479 3035.2871,-254.0828 3045.3483,-262.1084"/>
</g>
<!-- fathersibling3+fathersibling3mate&#45;&#45;Father Sibling 3 Child 1 -->
<g id="edge29" class="edge">
<title>fathersibling3+fathersibling3mate&#45;&#45;Father Sibling 3 Child 1</title>
<path fill="none" stroke="#000000" d="M2040.5557,-203.6442C2031.527,-200.2178 1993.7144,-185.3404 1966.5479,-166.5895 1955.6846,-159.0914 1944.8042,-150.3396 1934.5523,-141.3811"/>
</g>
<!-- fathersibling3+fathersibling3mate&#45;&#45;Father Sibling 3 Child 2 -->
<g id="edge30" class="edge">
<title>fathersibling3+fathersibling3mate&#45;&#45;Father Sibling 3 Child 2</title>
<path fill="none" stroke="#000000" d="M2042.8082,-202.2876C2043.4696,-196.9485 2045.3167,-182.0366 2047.4893,-164.4974"/>
</g>
<!-- paternalgrandfather+paternalgrandmother&#45;&#45;Father -->
<g id="edge24" class="edge">
<title>paternalgrandfather+paternalgrandmother&#45;&#45;Father</title>
<path fill="none" stroke="#000000" d="M1360.7096,-727.4321C1362.2167,-709.6743 1372.5551,-564.6527 1317.5479,-469.9682 1290.7898,-423.9094 1264.6523,-429.4258 1224.5479,-394.3682 1221.6426,-391.8285 1218.6969,-389.2213 1215.7348,-386.5725"/>
</g>
<!-- paternalgrandfather+paternalgrandmother&#45;&#45;Father Sibling 1 -->
<g id="edge25" class="edge">
<title>paternalgrandfather+paternalgrandmother&#45;&#45;Father Sibling 1</title>
<path fill="none" stroke="#000000" d="M1360.5702,-727.3554C1360.8836,-704.3114 1365.0976,-476.2518 1409.5479,-430.3682 1467.2241,-370.832 1518.8019,-432.2186 1592.5479,-394.3682 1604.0485,-388.4654 1615.0774,-380.4405 1625.0939,-371.8086"/>
</g>
<!-- paternalgrandfather+paternalgrandmother&#45;&#45;Father Sibling 2 -->
<g id="edge27" class="edge">
<title>paternalgrandfather+paternalgrandmother&#45;&#45;Father Sibling 2</title>
<path fill="none" stroke="#000000" d="M1361.8974,-727.9399C1366.5419,-723.4042 1381.9944,-707.625 1389.5479,-691.4342 1439.7993,-583.7212 1359.3317,-510.0251 1447.5479,-430.3682 1498.529,-384.3335 1692.268,-423.3421 1754.5479,-394.3682 1766.2685,-388.9155 1777.4024,-381.105 1787.4538,-372.5445"/>
</g>
<!-- paternalgrandfather+paternalgrandmother&#45;&#45;Father Sibling 3 -->
<g id="edge28" class="edge">
<title>paternalgrandfather+paternalgrandmother&#45;&#45;Father Sibling 3</title>
<path fill="none" stroke="#000000" d="M1362.6577,-728.4397C1370.9193,-725.2185 1401.3617,-712.2982 1416.5479,-691.4342 1476.8422,-608.5969 1404.2394,-538.338 1480.5479,-469.9682 1627.0243,-338.7301 1736.8457,-474.2801 1916.5479,-394.3682 1924.9572,-390.6286 1933.2783,-385.9985 1941.3035,-380.8826"/>
</g>
<!-- paternalgrandfather+paternalgrandmother&#45;&#45;Paternal Grandmother -->
<g id="edge8" class="edge">
<title>paternalgrandfather+paternalgrandmother&#45;&#45;Paternal Grandmother</title>
<path fill="none" stroke="#000000" d="M1359.0479,-727.8405C1353.8389,-722.9802 1336.1104,-706.2684 1322.5479,-691.4342 1308.2126,-675.7549 1293.2543,-658.2799 1279.6672,-641.9302"/>
</g>
<!-- paternalgrandfatherfather+paternalgrandfathermother&#45;&#45;Paternal Grandfather\nHeart Attack -->
<g id="edge31" class="edge">
<title>paternalgrandfatherfather+paternalgrandfathermother&#45;&#45;Paternal Grandfather\nHeart Attack</title>
<path fill="none" stroke="#000000" d="M472.9652,-1010.043C489.1063,-992.7052 639.766,-830.3879 752.5479,-691.4342 762.2379,-679.4955 772.2704,-666.6054 781.8686,-653.9856"/>
</g>
<!-- paternalgrandfatherfather+paternalgrandfathermother&#45;&#45;Paternal Grandfather Sibling 1 -->
<g id="edge32" class="edge">
<title>paternalgrandfatherfather+paternalgrandfathermother&#45;&#45;Paternal Grandfather Sibling 1</title>
<path fill="none" stroke="#000000" d="M471.6016,-1009.6122C472.004,-991.6113 473.0901,-853.2136 414.5479,-767.0342 381.4194,-718.2661 350.818,-729.2024 305.5479,-691.4342 302.3081,-688.7314 299.0538,-685.9499 295.7985,-683.1092"/>
</g>
<!-- paternalgrandfatherfather+paternalgrandfathermother&#45;&#45;Paternal Grandfather Sibling 2 -->
<g id="edge33" class="edge">
<title>paternalgrandfatherfather+paternalgrandfathermother&#45;&#45;Paternal Grandfather Sibling 2</title>
<path fill="none" stroke="#000000" d="M472.4144,-1009.8919C475.047,-1004.7067 482.9304,-988.3672 485.5479,-973.7639 504.8628,-866.0013 509.416,-834.2806 485.5479,-727.4342 482.2338,-712.5986 477.2477,-697.493 471.4424,-682.8913"/>
</g>
<!-- paternalgrandfatherfather+paternalgrandfathermother&#45;&#45;Paternal Grandfather Sibling 3 -->
<g id="edge34" class="edge">
<title>paternalgrandfatherfather+paternalgrandfathermother&#45;&#45;Paternal Grandfather Sibling 3</title>
<path fill="none" stroke="#000000" d="M473.217,-1010.3227C478.9706,-1005.9608 498.1911,-990.6809 508.5479,-973.7639 564.3626,-882.5941 599.8403,-764.9336 619.7939,-682.1936"/>
</g>
<!-- paternalgrandfatherfather+paternalgrandfathermother&#45;&#45;Paternal Grandfather Sibling 4 -->
<g id="edge35" class="edge">
<title>paternalgrandfatherfather+paternalgrandfathermother&#45;&#45;Paternal Grandfather Sibling 4</title>
<path fill="none" stroke="#000000" d="M473.4751,-1011.0433C483.6776,-1008.24 532.2482,-994.302 567.5479,-973.7639 740.2934,-873.2566 768.224,-824.2692 917.5479,-691.4342 930.7847,-679.659 944.5247,-666.7881 957.674,-654.121"/>
</g>
<!-- paternalgrandfatherfather+paternalgrandfathermother&#45;&#45;Paternal Grandfather Mother -->
<g id="edge10" class="edge">
<title>paternalgrandfatherfather+paternalgrandfathermother&#45;&#45;Paternal Grandfather Mother</title>
<path fill="none" stroke="#000000" d="M469.8784,-1010.4554C463.2907,-1006.0597 438.5328,-989.3356 419.5479,-973.7639 406.0453,-962.6889 392.0607,-950.4541 378.7401,-938.3936"/>
</g>
<!-- paternalgrandmotherfather+paternalgrandmothermother&#45;&#45;Paternal Grandmother -->
<g id="edge36" class="edge">
<title>paternalgrandmotherfather+paternalgrandmothermother&#45;&#45;Paternal Grandmother</title>
<path fill="none" stroke="#000000" d="M2291.4654,-729.1847C2248.8583,-728.166 1565.8116,-711.5521 1480.5479,-691.4342 1416.0972,-676.2272 1347.6527,-644.7124 1298.7051,-619.1783"/>
</g>
<!-- paternalgrandmotherfather+paternalgrandmothermother&#45;&#45;Paternal Grandmother Sibling 1 -->
<g id="edge37" class="edge">
<title>paternalgrandmotherfather+paternalgrandmothermother&#45;&#45;Paternal Grandmother Sibling 1</title>
<path fill="none" stroke="#000000" d="M2291.6594,-729.1898C2257.499,-728.3755 1770.6574,-716.3566 1713.5479,-691.4342 1697.0146,-684.2192 1681.3853,-673.6105 1667.2541,-661.7762"/>
</g>
<!-- paternalgrandmotherfather+paternalgrandmothermother&#45;&#45;Paternal Grandmother Sibling 2 -->
<g id="edge38" class="edge">
<title>paternalgrandmotherfather+paternalgrandmothermother&#45;&#45;Paternal Grandmother Sibling 2</title>
<path fill="none" stroke="#000000" d="M2291.4713,-729.1908C2265.9876,-728.6317 2013.375,-722.3415 1946.5479,-691.4342 1930.302,-683.9206 1914.8666,-673.243 1900.8518,-661.453"/>
</g>
<!-- paternalgrandmotherfather+paternalgrandmothermother&#45;&#45;Paternal Grandmother Sibling 3 -->
<g id="edge39" class="edge">
<title>paternalgrandmotherfather+paternalgrandmothermother&#45;&#45;Paternal Grandmother Sibling 3</title>
<path fill="none" stroke="#000000" d="M2291.5132,-728.9126C2279.7967,-726.993 2220.0102,-716.2808 2178.5479,-691.4342 2163.6217,-682.4897 2149.0696,-671.3124 2135.5985,-659.5256"/>
</g>
<!-- paternalgrandmotherfather+paternalgrandmothermother&#45;&#45;Paternal Grandmother Sibling 4 -->
<g id="edge40" class="edge">
<title>paternalgrandmotherfather+paternalgrandmothermother&#45;&#45;Paternal Grandmother Sibling 4</title>
<path fill="none" stroke="#000000" d="M2293.5479,-727.1345C2293.5479,-721.6691 2293.5479,-706.0925 2293.5479,-687.0276"/>
</g>
<!-- paternalgrandmotherfather+paternalgrandmothermother&#45;&#45;Paternal Grandmother Sibling 5\nCancer -->
<g id="edge41" class="edge">
<title>paternalgrandmotherfather+paternalgrandmothermother&#45;&#45;Paternal Grandmother Sibling 5\nCancer</title>
<path fill="none" stroke="#000000" d="M2295.5842,-728.9154C2307.3099,-727.0112 2367.1393,-716.3704 2408.5479,-691.4342 2411.5158,-689.6469 2414.4681,-687.7702 2417.3991,-685.817"/>
</g>
<!-- paternalgrandmotherfather+paternalgrandmothermother&#45;&#45;Paternal Grandmother Sibling 6 -->
<g id="edge42" class="edge">
<title>paternalgrandmotherfather+paternalgrandmothermother&#45;&#45;Paternal Grandmother Sibling 6</title>
<path fill="none" stroke="#000000" d="M2295.613,-729.1907C2320.9565,-728.6303 2572.177,-722.3285 2638.5479,-691.4342 2654.5759,-683.9735 2669.7898,-673.4009 2683.6071,-661.7192"/>
</g>
<!-- paternalgrandmotherfather+paternalgrandmothermother&#45;&#45;Paternal Grandmother Sibling 7 -->
<g id="edge43" class="edge">
<title>paternalgrandmotherfather+paternalgrandmothermother&#45;&#45;Paternal Grandmother Sibling 7</title>
<path fill="none" stroke="#000000" d="M2295.4269,-729.1902C2329.418,-728.3843 2813.8439,-716.4822 2870.5479,-691.4342 2873.717,-690.0343 2876.8508,-688.5071 2879.9452,-686.8684"/>
</g>
<!-- paternalgrandmotherfather+paternalgrandmothermother&#45;&#45;Paternal Grandmother Sibling 8 -->
<g id="edge44" class="edge">
<title>paternalgrandmotherfather+paternalgrandmothermother&#45;&#45;Paternal Grandmother Sibling 8</title>
<path fill="none" stroke="#000000" d="M2295.6289,-729.2266C2338.2055,-729.0584 3020.6796,-725.83 3100.5479,-691.4342 3103.7299,-690.0639 3106.8753,-688.5633 3109.9802,-686.9486"/>
</g>
<!-- paternalgrandmotherfather+paternalgrandmothermother&#45;&#45;Paternal Grandmother Mother -->
<g id="edge12" class="edge">
<title>paternalgrandmotherfather+paternalgrandmothermother&#45;&#45;Paternal Grandmother Mother</title>
<path fill="none" stroke="#000000" d="M2292.2757,-730.8669C2287.2071,-737.3714 2267.7004,-762.4046 2246.5789,-789.5103"/>
</g>
<!-- mothersibling2mate+mothersibling2&#45;&#45;Mother Sibling 2 -->
<g id="edge14" class="edge">
<title>mothersibling2mate+mothersibling2&#45;&#45;Mother Sibling 2</title>
<path fill="none" stroke="#000000" d="M3000.611,-204.5044C2987.1487,-205.374 2906.4213,-211.7422 2850.5479,-242.1895 2839.1968,-248.375 2828.2391,-256.5346 2818.2464,-265.2114"/>
</g>
<!-- mothersibling2mate+mothersibling2&#45;&#45;Mother Sibling 2 Child 1 -->
<g id="edge48" class="edge">
<title>mothersibling2mate+mothersibling2&#45;&#45;Mother Sibling 2 Child 1</title>
<path fill="none" stroke="#000000" d="M3000.6338,-204.3619C2985.8439,-204.0778 2888.5333,-200.918 2820.5479,-166.5895 2808.3584,-160.4345 2796.5362,-152.2645 2785.6386,-143.4439"/>
</g>
<!-- mothersibling2mate+mothersibling2&#45;&#45;Mother Sibling 2 Child 2 -->
<g id="edge49" class="edge">
<title>mothersibling2mate+mothersibling2&#45;&#45;Mother Sibling 2 Child 2</title>
<path fill="none" stroke="#000000" d="M3001.2614,-202.6776C2997.6106,-197.8194 2986.5954,-183.1614 2973.4753,-165.7023"/>
</g>
<!-- mothersibling2mate+mothersibling2&#45;&#45;Mother Sibling 2 Child 3\nLeukemia -->
<g id="edge50" class="edge">
<title>mothersibling2mate+mothersibling2&#45;&#45;Mother Sibling 2 Child 3\nLeukemia</title>
<path fill="none" stroke="#000000" d="M3003.8484,-202.6776C3007.5394,-197.8194 3018.6756,-183.1614 3031.9399,-165.7023"/>
</g>
<!-- mothersibling2mate+mothersibling2&#45;&#45;Mother Sibling 2 Child 4 -->
<g id="edge51" class="edge">
<title>mothersibling2mate+mothersibling2&#45;&#45;Mother Sibling 2 Child 4</title>
<path fill="none" stroke="#000000" d="M3004.4724,-204.3646C3019.343,-204.1002 3117.1855,-201.0616 3185.5479,-166.5895 3197.7406,-160.4412 3209.5646,-152.2745 3220.4628,-143.4552"/>
</g>
<!-- mothersibling4mate+mothersibling4&#45;&#45;Mother Sibling 4\nMelanoma -->
<g id="edge16" class="edge">
<title>mothersibling4mate+mothersibling4&#45;&#45;Mother Sibling 4\nMelanoma</title>
<path fill="none" stroke="#000000" d="M3514.41,-205.9507C3509.8866,-212.1575 3492.5695,-235.9194 3475.0204,-259.9996"/>
</g>
<!-- mothersibling4mate+mothersibling4&#45;&#45;Mother Sibling 4 Child -->
<g id="edge54" class="edge">
<title>mothersibling4mate+mothersibling4&#45;&#45;Mother Sibling 4 Child</title>
<path fill="none" stroke="#000000" d="M3515.5479,-202.2876C3515.5479,-196.5716 3515.5479,-179.8837 3515.5479,-160.7463"/>
</g>
<!-- maternalgrandmotherfather+maternalgrandmothermother&#45;&#45;Maternal Grandmother\nBreast Cancer -->
<g id="edge55" class="edge">
<title>maternalgrandmotherfather+maternalgrandmothermother&#45;&#45;Maternal Grandmother\nBreast Cancer</title>
<path fill="none" stroke="#000000" d="M4008.6868,-729.0507C3996.9619,-727.8183 3932.4644,-719.9108 3890.5479,-691.4342 3873.6421,-679.9491 3858.2856,-664.3663 3845.2357,-648.5197"/>
</g>
<!-- maternalgrandmotherfather+maternalgrandmothermother&#45;&#45;Maternal Grandmother Sibling 1\nOvarian Cancer -->
<g id="edge56" class="edge">
<title>maternalgrandmotherfather+maternalgrandmothermother&#45;&#45;Maternal Grandmother Sibling 1\nOvarian Cancer</title>
<path fill="none" stroke="#000000" d="M4010.5479,-727.1345C4010.5479,-722.1275 4010.5479,-708.6342 4010.5479,-691.7471"/>
</g>
<!-- maternalgrandmotherfather+maternalgrandmothermother&#45;&#45;Maternal Grandmother Sibling 2 -->
<g id="edge57" class="edge">
<title>maternalgrandmotherfather+maternalgrandmothermother&#45;&#45;Maternal Grandmother Sibling 2</title>
<path fill="none" stroke="#000000" d="M4012.3638,-728.9795C4023.8129,-727.3123 4086.9197,-717.2121 4130.5479,-691.4342 4133.4243,-689.7347 4136.2859,-687.9512 4139.1278,-686.0953"/>
</g>
<!-- maternalgrandmotherfather+maternalgrandmothermother&#45;&#45;Maternal Grandmother Mother -->
<g id="edge18" class="edge">
<title>maternalgrandmotherfather+maternalgrandmothermother&#45;&#45;Maternal Grandmother Mother</title>
<path fill="none" stroke="#000000" d="M4009.2749,-730.8531C4004.203,-737.3033 3984.6785,-762.1337 3963.4739,-789.1008"/>
</g>
<!-- maternalgrandfather+maternalgrandmother&#45;&#45;Mother -->
<g id="edge45" class="edge">
<title>maternalgrandfather+maternalgrandmother&#45;&#45;Mother</title>
<path fill="none" stroke="#000000" d="M2929.5995,-432.1498C2870.8567,-431.5918 1502.9096,-418.3497 1424.5479,-394.3682 1402.6235,-387.6585 1380.8401,-375.7001 1362.0193,-363.2219"/>
</g>
<!-- maternalgrandfather+maternalgrandmother&#45;&#45;Mother Sibling 1 -->
<g id="edge46" class="edge">
<title>maternalgrandfather+maternalgrandmother&#45;&#45;Mother Sibling 1</title>
<path fill="none" stroke="#000000" d="M2929.3584,-432.0071C2907.8769,-430.4008 2734.5865,-416.8482 2688.5479,-394.3682 2676.9317,-388.6962 2665.8477,-380.7812 2655.8129,-372.1859"/>
</g>
<!-- maternalgrandfather+maternalgrandmother&#45;&#45;Mother Sibling 2 -->
<g id="edge47" class="edge">
<title>maternalgrandfather+maternalgrandmother&#45;&#45;Mother Sibling 2</title>
<path fill="none" stroke="#000000" d="M2929.4164,-431.4578C2919.7584,-428.1826 2879.3277,-413.8633 2850.5479,-394.3682 2840.005,-387.2266 2829.5144,-378.7099 2819.7499,-370.0018"/>
</g>
<!-- maternalgrandfather+maternalgrandmother&#45;&#45;Mother Sibling 3 -->
<g id="edge52" class="edge">
<title>maternalgrandfather+maternalgrandmother&#45;&#45;Mother Sibling 3</title>
<path fill="none" stroke="#000000" d="M2931.5479,-430.1914C2931.5479,-424.7565 2931.5479,-408.7743 2931.5479,-390.5277"/>
</g>
<!-- maternalgrandfather+maternalgrandmother&#45;&#45;Mother Sibling 4\nMelanoma -->
<g id="edge53" class="edge">
<title>maternalgrandfather+maternalgrandmother&#45;&#45;Mother Sibling 4\nMelanoma</title>
<path fill="none" stroke="#000000" d="M2933.581,-432.0665C2963.3505,-430.5677 3310.6389,-412.7329 3351.5479,-394.3682 3363.517,-388.995 3374.8426,-381.1077 3385.0221,-372.4211"/>
</g>
<!-- maternalgrandfather+maternalgrandmother&#45;&#45;Maternal Grandmother\nBreast Cancer -->
<g id="edge20" class="edge">
<title>maternalgrandfather+maternalgrandmother&#45;&#45;Maternal Grandmother\nBreast Cancer</title>
<path fill="none" stroke="#000000" d="M2933.6728,-432.2211C2977.1338,-433.3094 3673.0942,-451.0182 3710.5479,-469.9682 3729.3372,-479.4748 3745.5712,-494.8761 3758.8755,-511.2097"/>
</g>
<!-- maternalgrandfatherfather+maternalgrandfathermother&#45;&#45;Maternal Grandfather -->
<g id="edge58" class="edge">
<title>maternalgrandfatherfather+maternalgrandfathermother&#45;&#45;Maternal Grandfather</title>
<path fill="none" stroke="#000000" d="M3508.481,-727.5661C3503.6294,-719.9807 3482.9912,-687.7128 3462.2914,-655.3485"/>
</g>
<!-- maternalgrandfatherfather+maternalgrandfathermother&#45;&#45;Maternal Grandfather Sibling -->
<g id="edge59" class="edge">
<title>maternalgrandfatherfather+maternalgrandfathermother&#45;&#45;Maternal Grandfather Sibling</title>
<path fill="none" stroke="#000000" d="M3510.6147,-727.5661C3514.3044,-721.7974 3527.1245,-701.7531 3542.1584,-678.2475"/>
</g>
<!-- maternalgrandfatherfather+maternalgrandfathermother&#45;&#45;Maternal Grandfather Mother -->
<g id="edge22" class="edge">
<title>maternalgrandfatherfather+maternalgrandfathermother&#45;&#45;Maternal Grandfather Mother</title>
<path fill="none" stroke="#000000" d="M3508.197,-730.7241C3502.0254,-737.5304 3475.6454,-766.6236 3448.5469,-796.5092"/>
</g>
</g>
</svg>
