<?xml version="1.0" encoding="UTF-8" standalone="no"?>
<!DOCTYPE svg PUBLIC "-//W3C//DTD SVG 1.1//EN"
 "http://www.w3.org/Graphics/SVG/1.1/DTD/svg11.dtd">
<!-- Generated by graphviz version 2.40.1 (20161225.0304)
 -->
<!-- Title: f12 Pages: 1 -->
<svg width="902pt" height="634pt"
 viewBox="0.00 0.00 902.00 633.52" xmlns="http://www.w3.org/2000/svg" xmlns:xlink="http://www.w3.org/1999/xlink">
<g id="graph0" class="graph" transform="scale(1 1) rotate(0) translate(4 629.5205)">
<title>f12</title>
<polygon fill="#ffffff" stroke="transparent" points="-4,4 -4,-629.5205 898,-629.5205 898,4 -4,4"/>
<!-- Self -->
<g id="node1" class="node">
<title>Self</title>
<polygon fill="#6495ed" stroke="#6495ed" points="570,-363.6 426,-363.6 426,-219.6 570,-219.6 570,-363.6"/>
<text text-anchor="middle" x="498" y="-287.4" font-family="helvetica:bold" font-size="14.00" fill="#000000">Self</text>
</g>
<!-- self+mate -->
<g id="node12" class="node">
<title>self+mate</title>
<ellipse fill="#000000" stroke="#000000" cx="417" cy="-181.8" rx="1.8" ry="1.8"/>
</g>
<!-- Self&#45;&#45;self+mate -->
<g id="edge1" class="edge">
<title>Self&#45;&#45;self+mate</title>
<path fill="none" stroke="#000000" d="M444.8756,-219.5869C432.4707,-202.7714 421.8215,-188.3358 418.2642,-183.5137"/>
</g>
<!-- Mate -->
<g id="node2" class="node">
<title>Mate</title>
<ellipse fill="#ffc0cb" stroke="#ffc0cb" cx="336" cy="-291.6" rx="72" ry="72"/>
<text text-anchor="middle" x="336" y="-287.4" font-family="helvetica:bold" font-size="14.00" fill="#000000">Mate</text>
</g>
<!-- Child -->
<g id="node3" class="node">
<title>Child</title>
<ellipse fill="#ffc0cb" stroke="#ffc0cb" cx="417" cy="-72" rx="72" ry="72"/>
<text text-anchor="middle" x="417" y="-67.8" font-family="helvetica:bold" font-size="14.00" fill="#000000">Child</text>
</g>
<!-- Mate Mother\nRheumatoid Arthritis -->
<g id="node4" class="node">
<title>Mate Mother\nRheumatoid Arthritis</title>
<ellipse fill="#ffc0cb" stroke="#ffc0cb" cx="235" cy="-512.5603" rx="73.2208" ry="73.2208"/>
<text text-anchor="middle" x="235" y="-515.3603" font-family="helvetica:bold" font-size="14.00" fill="#000000">Mate Mother</text>
<text text-anchor="middle" x="235" y="-501.3603" font-family="helvetica:bold" font-size="14.00" fill="#000000">Rheumatoid Arthritis</text>
</g>
<!-- Mate Father -->
<g id="node5" class="node">
<title>Mate Father</title>
<polygon fill="#6495ed" stroke="#6495ed" points="144,-584.5603 0,-584.5603 0,-440.5603 144,-440.5603 144,-584.5603"/>
<text text-anchor="middle" x="72" y="-508.3603" font-family="helvetica:bold" font-size="14.00" fill="#000000">Mate Father</text>
</g>
<!-- matefather+matemother -->
<g id="node13" class="node">
<title>matefather+matemother</title>
<ellipse fill="#000000" stroke="#000000" cx="235" cy="-623.7205" rx="1.8" ry="1.8"/>
</g>
<!-- Mate Father&#45;&#45;matefather+matemother -->
<g id="edge3" class="edge">
<title>Mate Father&#45;&#45;matefather+matemother</title>
<path fill="none" stroke="#000000" d="M144.4671,-580.0014C147.3018,-582.057 150.1508,-584.0377 153,-585.9205 182.2954,-605.2795 223.1051,-619.7009 232.8498,-623.0037"/>
</g>
<!-- Sibling 1 -->
<g id="node6" class="node">
<title>Sibling 1</title>
<polygon fill="#6495ed" stroke="#6495ed" points="732,-363.6 588,-363.6 588,-219.6 732,-219.6 732,-363.6"/>
<text text-anchor="middle" x="660" y="-287.4" font-family="helvetica:bold" font-size="14.00" fill="#000000">Sibling 1</text>
</g>
<!-- Sibling 2 -->
<g id="node7" class="node">
<title>Sibling 2</title>
<polygon fill="#6495ed" stroke="#6495ed" points="894,-363.6 750,-363.6 750,-219.6 894,-219.6 894,-363.6"/>
<text text-anchor="middle" x="822" y="-287.4" font-family="helvetica:bold" font-size="14.00" fill="#000000">Sibling 2</text>
</g>
<!-- Sibling 2 Child 1 -->
<g id="node8" class="node">
<title>Sibling 2 Child 1</title>
<ellipse fill="#ffc0cb" stroke="#ffc0cb" cx="579" cy="-72" rx="72" ry="72"/>
<text text-anchor="middle" x="579" y="-67.8" font-family="helvetica:bold" font-size="14.00" fill="#000000">Sibling 2 Child 1</text>
</g>
<!-- Sibling 2 Child 2 -->
<g id="node9" class="node">
<title>Sibling 2 Child 2</title>
<polygon fill="#6495ed" stroke="#6495ed" points="813,-144 669,-144 669,0 813,0 813,-144"/>
<text text-anchor="middle" x="741" y="-67.8" font-family="helvetica:bold" font-size="14.00" fill="#000000">Sibling 2 Child 2</text>
</g>
<!-- Father\nType 2 Diabetes -->
<g id="node10" class="node">
<title>Father\nType 2 Diabetes</title>
<polygon fill="#6495ed" stroke="#6495ed" points="651,-584.5603 507,-584.5603 507,-440.5603 651,-440.5603 651,-584.5603"/>
<text text-anchor="middle" x="579" y="-515.3603" font-family="helvetica:bold" font-size="14.00" fill="#000000">Father</text>
<text text-anchor="middle" x="579" y="-501.3603" font-family="helvetica:bold" font-size="14.00" fill="#000000">Type 2 Diabetes</text>
</g>
<!-- father+mother -->
<g id="node14" class="node">
<title>father+mother</title>
<ellipse fill="#000000" stroke="#000000" cx="660" cy="-401.4" rx="1.8" ry="1.8"/>
</g>
<!-- Father\nType 2 Diabetes&#45;&#45;father+mother -->
<g id="edge5" class="edge">
<title>Father\nType 2 Diabetes&#45;&#45;father+mother</title>
<path fill="none" stroke="#000000" d="M631.6701,-440.2785C644.482,-422.6961 655.5026,-407.572 658.9124,-402.8925"/>
</g>
<!-- Mother -->
<g id="node11" class="node">
<title>Mother</title>
<ellipse fill="#ffc0cb" stroke="#ffc0cb" cx="741" cy="-512.5603" rx="72" ry="72"/>
<text text-anchor="middle" x="741" y="-508.3603" font-family="helvetica:bold" font-size="14.00" fill="#000000">Mother</text>
</g>
<!-- self+mate&#45;&#45;Mate -->
<g id="edge2" class="edge">
<title>self+mate&#45;&#45;Mate</title>
<path fill="none" stroke="#000000" d="M415.699,-183.5636C411.1388,-189.7452 395.2653,-211.2626 378.8718,-233.4848"/>
</g>
<!-- self+mate&#45;&#45;Child -->
<g id="edge9" class="edge">
<title>self+mate&#45;&#45;Child</title>
<path fill="none" stroke="#000000" d="M417,-179.8942C417,-174.9107 417,-160.7292 417,-144.2195"/>
</g>
<!-- matefather+matemother&#45;&#45;Mate -->
<g id="edge8" class="edge">
<title>matefather+matemother&#45;&#45;Mate</title>
<path fill="none" stroke="#000000" d="M237.0023,-623.5203C247.5313,-622.3494 296.7702,-615.3853 317,-585.9205 361.9219,-520.4916 359.4114,-426.3974 350.4382,-362.3354"/>
</g>
<!-- matefather+matemother&#45;&#45;Mate Mother\nRheumatoid Arthritis -->
<g id="edge4" class="edge">
<title>matefather+matemother&#45;&#45;Mate Mother\nRheumatoid Arthritis</title>
<path fill="none" stroke="#000000" d="M235,-621.7911C235,-616.7747 235,-602.5524 235,-585.9607"/>
</g>
<!-- father+mother&#45;&#45;Self -->
<g id="edge7" class="edge">
<title>father+mother&#45;&#45;Self</title>
<path fill="none" stroke="#000000" d="M657.881,-400.671C648.2769,-397.315 608.0453,-382.6975 579,-363.6 576.013,-361.636 573.0232,-359.5669 570.0474,-357.4192"/>
</g>
<!-- father+mother&#45;&#45;Sibling 1 -->
<g id="edge10" class="edge">
<title>father+mother&#45;&#45;Sibling 1</title>
<path fill="none" stroke="#000000" d="M660,-399.4942C660,-394.5107 660,-380.3292 660,-363.8195"/>
</g>
<!-- father+mother&#45;&#45;Sibling 2 -->
<g id="edge11" class="edge">
<title>father+mother&#45;&#45;Sibling 2</title>
<path fill="none" stroke="#000000" d="M662.119,-400.671C671.7231,-397.315 711.9547,-382.6975 741,-363.6 743.987,-361.636 746.9768,-359.5669 749.9526,-357.4192"/>
</g>
<!-- father+mother&#45;&#45;Mother -->
<g id="edge6" class="edge">
<title>father+mother&#45;&#45;Mother</title>
<path fill="none" stroke="#000000" d="M661.0678,-402.8654C665.315,-408.694 681.5953,-431.0363 698.3651,-454.0504"/>
</g>
</g>
</svg>
