<?xml version="1.0" encoding="UTF-8" standalone="no"?>
<!DOCTYPE svg PUBLIC "-//W3C//DTD SVG 1.1//EN"
 "http://www.w3.org/Graphics/SVG/1.1/DTD/svg11.dtd">
<!-- Generated by graphviz version 2.40.1 (20161225.0304)
 -->
<!-- Title: f19 Pages: 1 -->
<svg width="1144pt" height="204pt"
 viewBox="0.00 0.00 1143.70 203.95" xmlns="http://www.w3.org/2000/svg" xmlns:xlink="http://www.w3.org/1999/xlink">
<g id="graph0" class="graph" transform="scale(1 1) rotate(0) translate(4 199.9521)">
<title>f19</title>
<polygon fill="#ffffff" stroke="transparent" points="-4,4 -4,-199.9521 1139.6963,-199.9521 1139.6963,4 -4,4"/>
<!-- Self\nEpilepsy -->
<g id="node1" class="node">
<title>Self\nEpilepsy</title>
<ellipse fill="#ffc0cb" stroke="#ffc0cb" cx="901.6963" cy="-78.176" rx="72" ry="72"/>
<text text-anchor="middle" x="901.6963" y="-80.976" font-family="helvetica:bold" font-size="14.00" fill="#000000">Self</text>
<text text-anchor="middle" x="901.6963" y="-66.976" font-family="helvetica:bold" font-size="14.00" fill="#000000">Epilepsy</text>
</g>
<!-- Sibling -->
<g id="node2" class="node">
<title>Sibling</title>
<polygon fill="#6495ed" stroke="#6495ed" points="1135.6963,-150.176 991.6963,-150.176 991.6963,-6.176 1135.6963,-6.176 1135.6963,-150.176"/>
<text text-anchor="middle" x="1063.6963" y="-73.976" font-family="helvetica:bold" font-size="14.00" fill="#000000">Sibling</text>
</g>
<!-- Mother -->
<g id="node3" class="node">
<title>Mother</title>
<ellipse fill="#ffc0cb" stroke="#ffc0cb" cx="739.6963" cy="-78.176" rx="72" ry="72"/>
<text text-anchor="middle" x="739.6963" y="-73.976" font-family="helvetica:bold" font-size="14.00" fill="#000000">Mother</text>
</g>
<!-- Father -->
<g id="node4" class="node">
<title>Father</title>
<polygon fill="#6495ed" stroke="#6495ed" points="487.6963,-150.176 343.6963,-150.176 343.6963,-6.176 487.6963,-6.176 487.6963,-150.176"/>
<text text-anchor="middle" x="415.6963" y="-73.976" font-family="helvetica:bold" font-size="14.00" fill="#000000">Father</text>
</g>
<!-- father+mother -->
<g id="node8" class="node">
<title>father+mother</title>
<ellipse fill="#000000" stroke="#000000" cx="820.6963" cy="-194.1521" rx="1.8" ry="1.8"/>
</g>
<!-- Father&#45;&#45;father+mother -->
<g id="edge1" class="edge">
<title>Father&#45;&#45;father+mother</title>
<path fill="none" stroke="#000000" d="M485.517,-150.267C489.1664,-152.5086 492.898,-154.5551 496.6963,-156.3521 558.894,-185.7781 794.9425,-193.3991 818.7558,-194.0972"/>
</g>
<!-- Father Sibling\nHypertension -->
<g id="node5" class="node">
<title>Father Sibling\nHypertension</title>
<ellipse fill="#ffc0cb" stroke="#ffc0cb" cx="577.6963" cy="-78.176" rx="72" ry="72"/>
<text text-anchor="middle" x="577.6963" y="-80.976" font-family="helvetica:bold" font-size="14.00" fill="#000000">Father Sibling</text>
<text text-anchor="middle" x="577.6963" y="-66.976" font-family="helvetica:bold" font-size="14.00" fill="#000000">Hypertension</text>
</g>
<!-- Paternal Grandmother -->
<g id="node6" class="node">
<title>Paternal Grandmother</title>
<ellipse fill="#ffc0cb" stroke="#ffc0cb" cx="247.6963" cy="-78.176" rx="78.3525" ry="78.3525"/>
<text text-anchor="middle" x="247.6963" y="-73.976" font-family="helvetica:bold" font-size="14.00" fill="#000000">Paternal Grandmother</text>
</g>
<!-- Paternal Grandfather\nHypercholesterolemia -->
<g id="node7" class="node">
<title>Paternal Grandfather\nHypercholesterolemia</title>
<polygon fill="#6495ed" stroke="#6495ed" points="151.5894,-154.0691 -.1968,-154.0691 -.1968,-2.283 151.5894,-2.283 151.5894,-154.0691"/>
<text text-anchor="middle" x="75.6963" y="-80.976" font-family="helvetica:bold" font-size="14.00" fill="#000000">Paternal Grandfather</text>
<text text-anchor="middle" x="75.6963" y="-66.976" font-family="helvetica:bold" font-size="14.00" fill="#000000">Hypercholesterolemia</text>
</g>
<!-- paternalgrandfather+paternalgrandmother -->
<g id="node9" class="node">
<title>paternalgrandfather+paternalgrandmother</title>
<ellipse fill="#000000" stroke="#000000" cx="331.6963" cy="-194.1521" rx="1.8" ry="1.8"/>
</g>
<!-- Paternal Grandfather\nHypercholesterolemia&#45;&#45;paternalgrandfather+paternalgrandmother -->
<g id="edge3" class="edge">
<title>Paternal Grandfather\nHypercholesterolemia&#45;&#45;paternalgrandfather+paternalgrandmother</title>
<path fill="none" stroke="#000000" d="M151.4579,-151.0826C154.5021,-152.9645 157.5851,-154.7301 160.6963,-156.3521 224.3224,-189.5233 315.9628,-193.6596 329.8933,-194.1034"/>
</g>
<!-- father+mother&#45;&#45;Self\nEpilepsy -->
<g id="edge5" class="edge">
<title>father+mother&#45;&#45;Self\nEpilepsy</title>
<path fill="none" stroke="#000000" d="M821.8413,-192.5126C826.3216,-186.0977 843.2618,-161.8427 860.3936,-137.3134"/>
</g>
<!-- father+mother&#45;&#45;Sibling -->
<g id="edge6" class="edge">
<title>father+mother&#45;&#45;Sibling</title>
<path fill="none" stroke="#000000" d="M822.7648,-194.0784C837.1415,-193.4872 923.3387,-188.6596 982.6963,-156.3521 986.1295,-154.4835 989.5206,-152.4297 992.8553,-150.231"/>
</g>
<!-- father+mother&#45;&#45;Mother -->
<g id="edge2" class="edge">
<title>father+mother&#45;&#45;Mother</title>
<path fill="none" stroke="#000000" d="M819.5512,-192.5126C815.0709,-186.0977 798.1308,-161.8427 780.999,-137.3134"/>
</g>
<!-- paternalgrandfather+paternalgrandmother&#45;&#45;Father -->
<g id="edge7" class="edge">
<title>paternalgrandfather+paternalgrandmother&#45;&#45;Father</title>
<path fill="none" stroke="#000000" d="M332.8837,-192.5126C336.6925,-187.254 349.184,-170.0073 363.3502,-150.4485"/>
</g>
<!-- paternalgrandfather+paternalgrandmother&#45;&#45;Father Sibling\nHypertension -->
<g id="edge8" class="edge">
<title>paternalgrandfather+paternalgrandmother&#45;&#45;Father Sibling\nHypertension</title>
<path fill="none" stroke="#000000" d="M333.8029,-194.0883C348.4444,-193.5639 436.2297,-189.1056 496.6963,-156.3521 508.3818,-150.0223 519.5745,-141.5394 529.7117,-132.4937"/>
</g>
<!-- paternalgrandfather+paternalgrandmother&#45;&#45;Paternal Grandmother -->
<g id="edge4" class="edge">
<title>paternalgrandfather+paternalgrandmother&#45;&#45;Paternal Grandmother</title>
<path fill="none" stroke="#000000" d="M330.5088,-192.5126C326.1418,-186.4831 310.3595,-164.6931 293.7263,-141.7282"/>
</g>
</g>
</svg>
