<?xml version="1.0" encoding="UTF-8" standalone="no"?>
<!DOCTYPE svg PUBLIC "-//W3C//DTD SVG 1.1//EN"
 "http://www.w3.org/Graphics/SVG/1.1/DTD/svg11.dtd">
<!-- Generated by graphviz version 2.40.1 (20161225.0304)
 -->
<!-- Title: f1 Pages: 1 -->
<svg width="938pt" height="631pt"
 viewBox="0.00 0.00 938.00 630.80" xmlns="http://www.w3.org/2000/svg" xmlns:xlink="http://www.w3.org/1999/xlink">
<g id="graph0" class="graph" transform="scale(1 1) rotate(0) translate(4 626.8)">
<title>f1</title>
<polygon fill="#ffffff" stroke="transparent" points="-4,4 -4,-626.8 934,-626.8 934,4 -4,4"/>
<!-- Self -->
<g id="node1" class="node">
<title>Self</title>
<polygon fill="#6495ed" stroke="#6495ed" points="572,-363.6 428,-363.6 428,-219.6 572,-219.6 572,-363.6"/>
<text text-anchor="middle" x="500" y="-287.4" font-family="helvetica:bold" font-size="14.00" fill="#000000">Self</text>
</g>
<!-- self+mate -->
<g id="node10" class="node">
<title>self+mate</title>
<ellipse fill="#000000" stroke="#000000" cx="350" cy="-181.8" rx="1.8" ry="1.8"/>
</g>
<!-- Self&#45;&#45;self+mate -->
<g id="edge1" class="edge">
<title>Self&#45;&#45;self+mate</title>
<path fill="none" stroke="#000000" d="M427.6362,-238.6297C394.0731,-214.0615 359.8052,-188.9774 351.7627,-183.0903"/>
</g>
<!-- Mate -->
<g id="node2" class="node">
<title>Mate</title>
<ellipse fill="#ffc0cb" stroke="#ffc0cb" cx="269" cy="-291.6" rx="72" ry="72"/>
<text text-anchor="middle" x="269" y="-287.4" font-family="helvetica:bold" font-size="14.00" fill="#000000">Mate</text>
</g>
<!-- Child -->
<g id="node3" class="node">
<title>Child</title>
<ellipse fill="#ffc0cb" stroke="#ffc0cb" cx="350" cy="-72" rx="72" ry="72"/>
<text text-anchor="middle" x="350" y="-67.8" font-family="helvetica:bold" font-size="14.00" fill="#000000">Child</text>
</g>
<!-- Sibling 1 -->
<g id="node4" class="node">
<title>Sibling 1</title>
<polygon fill="#6495ed" stroke="#6495ed" points="768,-363.6 624,-363.6 624,-219.6 768,-219.6 768,-363.6"/>
<text text-anchor="middle" x="696" y="-287.4" font-family="helvetica:bold" font-size="14.00" fill="#000000">Sibling 1</text>
</g>
<!-- Sibling 2 -->
<g id="node5" class="node">
<title>Sibling 2</title>
<ellipse fill="#ffc0cb" stroke="#ffc0cb" cx="858" cy="-291.6" rx="72" ry="72"/>
<text text-anchor="middle" x="858" y="-287.4" font-family="helvetica:bold" font-size="14.00" fill="#000000">Sibling 2</text>
</g>
<!-- Mother -->
<g id="node6" class="node">
<title>Mother</title>
<ellipse fill="#ffc0cb" stroke="#ffc0cb" cx="558" cy="-511.2" rx="72" ry="72"/>
<text text-anchor="middle" x="558" y="-507" font-family="helvetica:bold" font-size="14.00" fill="#000000">Mother</text>
</g>
<!-- Father -->
<g id="node7" class="node">
<title>Father</title>
<polygon fill="#6495ed" stroke="#6495ed" points="468,-583.2 324,-583.2 324,-439.2 468,-439.2 468,-583.2"/>
<text text-anchor="middle" x="396" y="-507" font-family="helvetica:bold" font-size="14.00" fill="#000000">Father</text>
</g>
<!-- father+mother -->
<g id="node11" class="node">
<title>father+mother</title>
<ellipse fill="#000000" stroke="#000000" cx="658" cy="-621" rx="1.8" ry="1.8"/>
</g>
<!-- Father&#45;&#45;father+mother -->
<g id="edge3" class="edge">
<title>Father&#45;&#45;father+mother</title>
<path fill="none" stroke="#000000" d="M468.0108,-578.2344C470.9746,-580.0132 473.9748,-581.6775 477,-583.2 544.6727,-617.2578 641.3973,-620.646 656.0975,-620.9675"/>
</g>
<!-- Mate&#39;s Mother -->
<g id="node8" class="node">
<title>Mate&#39;s Mother</title>
<ellipse fill="#ffc0cb" stroke="#ffc0cb" cx="234" cy="-511.2" rx="72" ry="72"/>
<text text-anchor="middle" x="234" y="-507" font-family="helvetica:bold" font-size="14.00" fill="#000000">Mate&#39;s Mother</text>
</g>
<!-- Mate&#39;s Father\nHeart Attack -->
<g id="node9" class="node">
<title>Mate&#39;s Father\nHeart Attack</title>
<polygon fill="#6495ed" stroke="#6495ed" points="144,-583.2 0,-583.2 0,-439.2 144,-439.2 144,-583.2"/>
<text text-anchor="middle" x="72" y="-514" font-family="helvetica:bold" font-size="14.00" fill="#000000">Mate&#39;s Father</text>
<text text-anchor="middle" x="72" y="-500" font-family="helvetica:bold" font-size="14.00" fill="#000000">Heart Attack</text>
</g>
<!-- mate&#39;sfather+mate&#39;smother -->
<g id="node12" class="node">
<title>mate&#39;sfather+mate&#39;smother</title>
<ellipse fill="#000000" stroke="#000000" cx="234" cy="-401.4" rx="1.8" ry="1.8"/>
</g>
<!-- Mate&#39;s Father\nHeart Attack&#45;&#45;mate&#39;sfather+mate&#39;smother -->
<g id="edge5" class="edge">
<title>Mate&#39;s Father\nHeart Attack&#45;&#45;mate&#39;sfather+mate&#39;smother</title>
<path fill="none" stroke="#000000" d="M144.0474,-445.3808C147.0232,-443.2331 150.013,-441.164 153,-439.2 182.0453,-420.1025 222.2769,-405.485 231.881,-402.129"/>
</g>
<!-- self+mate&#45;&#45;Mate -->
<g id="edge2" class="edge">
<title>self+mate&#45;&#45;Mate</title>
<path fill="none" stroke="#000000" d="M348.699,-183.5636C344.1388,-189.7452 328.2653,-211.2626 311.8718,-233.4848"/>
</g>
<!-- self+mate&#45;&#45;Child -->
<g id="edge9" class="edge">
<title>self+mate&#45;&#45;Child</title>
<path fill="none" stroke="#000000" d="M350,-179.8942C350,-174.9107 350,-160.7292 350,-144.2195"/>
</g>
<!-- father+mother&#45;&#45;Self -->
<g id="edge7" class="edge">
<title>father+mother&#45;&#45;Self</title>
<path fill="none" stroke="#000000" d="M658.2416,-619.0912C660.023,-604.3413 670.2049,-507.2826 639,-439.2 623.6739,-405.7617 597.6986,-375.0281 572.322,-350.3628"/>
</g>
<!-- father+mother&#45;&#45;Sibling 1 -->
<g id="edge10" class="edge">
<title>father+mother&#45;&#45;Sibling 1</title>
<path fill="none" stroke="#000000" d="M658.8137,-619.3175C661.2939,-614.1016 668.7853,-597.6836 672,-583.2 688.3447,-509.5597 693.8028,-423.233 695.5046,-363.7174"/>
</g>
<!-- father+mother&#45;&#45;Sibling 2 -->
<g id="edge11" class="edge">
<title>father+mother&#45;&#45;Sibling 2</title>
<path fill="none" stroke="#000000" d="M659.6052,-619.6939C665.1582,-615.1199 683.875,-599.2305 696,-583.2 750.5,-511.1457 798.7348,-418.6255 828.1023,-357.3386"/>
</g>
<!-- father+mother&#45;&#45;Mother -->
<g id="edge4" class="edge">
<title>father+mother&#45;&#45;Mother</title>
<path fill="none" stroke="#000000" d="M656.5864,-619.4478C650.8415,-613.1399 628.5027,-588.612 606.5399,-564.4968"/>
</g>
<!-- mate&#39;sfather+mate&#39;smother&#45;&#45;Mate -->
<g id="edge8" class="edge">
<title>mate&#39;sfather+mate&#39;smother&#45;&#45;Mate</title>
<path fill="none" stroke="#000000" d="M234.6075,-399.4942C236.305,-394.169 241.3503,-378.341 247.0716,-360.3926"/>
</g>
<!-- mate&#39;sfather+mate&#39;smother&#45;&#45;Mate&#39;s Mother -->
<g id="edge6" class="edge">
<title>mate&#39;sfather+mate&#39;smother&#45;&#45;Mate&#39;s Mother</title>
<path fill="none" stroke="#000000" d="M234,-403.4025C234,-408.4919 234,-422.6948 234,-439.1869"/>
</g>
</g>
</svg>
