<?xml version="1.0" encoding="UTF-8" standalone="no"?>
<!DOCTYPE svg PUBLIC "-//W3C//DTD SVG 1.1//EN"
 "http://www.w3.org/Graphics/SVG/1.1/DTD/svg11.dtd">
<!-- Generated by graphviz version 2.40.1 (20161225.0304)
 -->
<!-- Title: f17 Pages: 1 -->
<svg width="1536pt" height="248pt"
 viewBox="0.00 0.00 1536.00 247.92" xmlns="http://www.w3.org/2000/svg" xmlns:xlink="http://www.w3.org/1999/xlink">
<g id="graph0" class="graph" transform="scale(1 1) rotate(0) translate(4 243.921)">
<title>f17</title>
<polygon fill="#ffffff" stroke="transparent" points="-4,4 -4,-243.921 1532,-243.921 1532,4 -4,4"/>
<!-- Self -->
<g id="node1" class="node">
<title>Self</title>
<polygon fill="#6495ed" stroke="#6495ed" points="824,-172.1605 680,-172.1605 680,-28.1605 824,-28.1605 824,-172.1605"/>
<text text-anchor="middle" x="752" y="-95.9605" font-family="helvetica:bold" font-size="14.00" fill="#000000">Self</text>
</g>
<!-- Sibling -->
<g id="node2" class="node">
<title>Sibling</title>
<polygon fill="#6495ed" stroke="#6495ed" points="986,-172.1605 842,-172.1605 842,-28.1605 986,-28.1605 986,-172.1605"/>
<text text-anchor="middle" x="914" y="-95.9605" font-family="helvetica:bold" font-size="14.00" fill="#000000">Sibling</text>
</g>
<!-- Father -->
<g id="node3" class="node">
<title>Father</title>
<polygon fill="#6495ed" stroke="#6495ed" points="144,-172.1605 0,-172.1605 0,-28.1605 144,-28.1605 144,-172.1605"/>
<text text-anchor="middle" x="72" y="-95.9605" font-family="helvetica:bold" font-size="14.00" fill="#000000">Father</text>
</g>
<!-- father+motheridenticaltwin -->
<g id="node10" class="node">
<title>father+motheridenticaltwin</title>
<ellipse fill="#000000" stroke="#000000" cx="669" cy="-238.121" rx="1.8" ry="1.8"/>
</g>
<!-- Father&#45;&#45;father+motheridenticaltwin -->
<g id="edge1" class="edge">
<title>Father&#45;&#45;father+motheridenticaltwin</title>
<path fill="none" stroke="#000000" d="M117.7802,-172.2251C128.025,-183.3572 139.8222,-193.4278 153,-200.321 201.949,-225.9257 633.299,-237.2259 666.9235,-238.0697"/>
</g>
<!-- Mother Identical Twin\nHypertension -->
<g id="node4" class="node">
<title>Mother Identical Twin\nHypertension</title>
<ellipse fill="#ffc0cb" stroke="#ffc0cb" cx="586" cy="-100.1605" rx="76.3982" ry="76.3982"/>
<text text-anchor="middle" x="586" y="-102.9605" font-family="helvetica:bold" font-size="14.00" fill="#000000">Mother Identical Twin</text>
<text text-anchor="middle" x="586" y="-88.9605" font-family="helvetica:bold" font-size="14.00" fill="#000000">Hypertension</text>
</g>
<!-- Mother Sibling Identical Twin\nHypertension -->
<g id="node5" class="node">
<title>Mother Sibling Identical Twin\nHypertension</title>
<ellipse fill="#ffc0cb" stroke="#ffc0cb" cx="1104" cy="-100.1605" rx="100.3212" ry="100.3212"/>
<text text-anchor="middle" x="1104" y="-102.9605" font-family="helvetica:bold" font-size="14.00" fill="#000000">Mother Sibling Identical Twin</text>
<text text-anchor="middle" x="1104" y="-88.9605" font-family="helvetica:bold" font-size="14.00" fill="#000000">Hypertension</text>
</g>
<!-- Mother Sibling 1 -->
<g id="node6" class="node">
<title>Mother Sibling 1</title>
<polygon fill="#6495ed" stroke="#6495ed" points="1366,-172.1605 1222,-172.1605 1222,-28.1605 1366,-28.1605 1366,-172.1605"/>
<text text-anchor="middle" x="1294" y="-95.9605" font-family="helvetica:bold" font-size="14.00" fill="#000000">Mother Sibling 1</text>
</g>
<!-- Mother Sibling 2 -->
<g id="node7" class="node">
<title>Mother Sibling 2</title>
<polygon fill="#6495ed" stroke="#6495ed" points="1528,-172.1605 1384,-172.1605 1384,-28.1605 1528,-28.1605 1528,-172.1605"/>
<text text-anchor="middle" x="1456" y="-95.9605" font-family="helvetica:bold" font-size="14.00" fill="#000000">Mother Sibling 2</text>
</g>
<!-- Maternal Grandfather\nHeart Attack -->
<g id="node8" class="node">
<title>Maternal Grandfather\nHeart Attack</title>
<polygon fill="#6495ed" stroke="#6495ed" points="311.5684,-174.7289 162.4316,-174.7289 162.4316,-25.5921 311.5684,-25.5921 311.5684,-174.7289"/>
<text text-anchor="middle" x="237" y="-102.9605" font-family="helvetica:bold" font-size="14.00" fill="#000000">Maternal Grandfather</text>
<text text-anchor="middle" x="237" y="-88.9605" font-family="helvetica:bold" font-size="14.00" fill="#000000">Heart Attack</text>
</g>
<!-- maternalgrandfather+maternalgrandmother -->
<g id="node11" class="node">
<title>maternalgrandfather+maternalgrandmother</title>
<ellipse fill="#000000" stroke="#000000" cx="897" cy="-238.121" rx="1.8" ry="1.8"/>
</g>
<!-- Maternal Grandfather\nHeart Attack&#45;&#45;maternalgrandfather+maternalgrandmother -->
<g id="edge3" class="edge">
<title>Maternal Grandfather\nHeart Attack&#45;&#45;maternalgrandfather+maternalgrandmother</title>
<path fill="none" stroke="#000000" d="M287.4722,-175.0738C297.42,-185.0972 308.6525,-194.0609 321,-200.321 376.1944,-228.3043 861.0928,-237.4775 895.119,-238.0879"/>
</g>
<!-- Maternal Grandmother\nStroke -->
<g id="node9" class="node">
<title>Maternal Grandmother\nStroke</title>
<ellipse fill="#ffc0cb" stroke="#ffc0cb" cx="411" cy="-100.1605" rx="80.9845" ry="80.9845"/>
<text text-anchor="middle" x="411" y="-102.9605" font-family="helvetica:bold" font-size="14.00" fill="#000000">Maternal Grandmother</text>
<text text-anchor="middle" x="411" y="-88.9605" font-family="helvetica:bold" font-size="14.00" fill="#000000">Stroke</text>
</g>
<!-- father+motheridenticaltwin&#45;&#45;Self -->
<g id="edge5" class="edge">
<title>father+motheridenticaltwin&#45;&#45;Self</title>
<path fill="none" stroke="#000000" d="M669.9321,-236.5716C674.0284,-229.7629 691.0055,-201.544 708.4642,-172.5245"/>
</g>
<!-- father+motheridenticaltwin&#45;&#45;Sibling -->
<g id="edge6" class="edge">
<title>father+motheridenticaltwin&#45;&#45;Sibling</title>
<path fill="none" stroke="#000000" d="M670.8811,-237.86C687.1055,-235.5839 803.5158,-218.7507 833,-200.321 844.9471,-192.8532 855.9195,-182.995 865.6735,-172.3752"/>
</g>
<!-- father+motheridenticaltwin&#45;&#45;Mother Identical Twin\nHypertension -->
<g id="edge2" class="edge">
<title>father+motheridenticaltwin&#45;&#45;Mother Identical Twin\nHypertension</title>
<path fill="none" stroke="#000000" d="M668.0679,-236.5716C663.651,-229.2301 644.2583,-196.996 625.4339,-165.7065"/>
</g>
<!-- maternalgrandfather+maternalgrandmother&#45;&#45;Mother Identical Twin\nHypertension -->
<g id="edge7" class="edge">
<title>maternalgrandfather+maternalgrandmother&#45;&#45;Mother Identical Twin\nHypertension</title>
<path fill="none" stroke="#000000" d="M894.9484,-237.9727C874.8219,-236.49 712.5123,-223.8918 671,-200.321 655.0347,-191.2559 640.7053,-177.9879 628.5615,-164.0567"/>
</g>
<!-- maternalgrandfather+maternalgrandmother&#45;&#45;Mother Sibling Identical Twin\nHypertension -->
<g id="edge8" class="edge">
<title>maternalgrandfather+maternalgrandmother&#45;&#45;Mother Sibling Identical Twin\nHypertension</title>
<path fill="none" stroke="#000000" d="M898.993,-237.6504C909.5384,-235.102 959.6776,-222.2527 995,-200.321 1008.2093,-192.1193 1021.2629,-182.2002 1033.4966,-171.8334"/>
</g>
<!-- maternalgrandfather+maternalgrandmother&#45;&#45;Mother Sibling 1 -->
<g id="edge9" class="edge">
<title>maternalgrandfather+maternalgrandmother&#45;&#45;Mother Sibling 1</title>
<path fill="none" stroke="#000000" d="M898.9073,-238.0897C922.3116,-237.6775 1154.2454,-232.7946 1213,-200.321 1225.8203,-193.2352 1237.3828,-183.2185 1247.4919,-172.2344"/>
</g>
<!-- maternalgrandfather+maternalgrandmother&#45;&#45;Mother Sibling 2 -->
<g id="edge10" class="edge">
<title>maternalgrandfather+maternalgrandmother&#45;&#45;Mother Sibling 2</title>
<path fill="none" stroke="#000000" d="M898.9238,-238.0617C930.0757,-237.0897 1329.7046,-224.1818 1375,-200.321 1388.1578,-193.3897 1399.9454,-183.3008 1410.1869,-172.1624"/>
</g>
<!-- maternalgrandfather+maternalgrandmother&#45;&#45;Maternal Grandmother\nStroke -->
<g id="edge4" class="edge">
<title>maternalgrandfather+maternalgrandmother&#45;&#45;Maternal Grandmother\nStroke</title>
<path fill="none" stroke="#000000" d="M895.0786,-238.0231C866.9459,-236.5789 538.7719,-219.3642 501,-200.321 484.822,-192.1647 470.191,-179.7672 457.653,-166.444"/>
</g>
</g>
</svg>
