<?xml version="1.0" encoding="UTF-8" standalone="no"?>
<!DOCTYPE svg PUBLIC "-//W3C//DTD SVG 1.1//EN"
 "http://www.w3.org/Graphics/SVG/1.1/DTD/svg11.dtd">
<!-- Generated by graphviz version 2.40.1 (20161225.0304)
 -->
<!-- Title: f16 Pages: 1 -->
<svg width="2180pt" height="736pt"
 viewBox="0.00 0.00 2180.00 736.46" xmlns="http://www.w3.org/2000/svg" xmlns:xlink="http://www.w3.org/1999/xlink">
<g id="graph0" class="graph" transform="scale(1 1) rotate(0) translate(4 732.4576)">
<title>f16</title>
<polygon fill="#ffffff" stroke="transparent" points="-4,4 -4,-732.4576 2176,-732.4576 2176,4 -4,4"/>
<!-- Self -->
<g id="node1" class="node">
<title>Self</title>
<ellipse fill="#ffc0cb" stroke="#ffc0cb" cx="72" cy="-116.9875" rx="72" ry="72"/>
<text text-anchor="middle" x="72" y="-112.7875" font-family="helvetica:bold" font-size="14.00" fill="#000000">Self</text>
</g>
<!-- Mate -->
<g id="node2" class="node">
<title>Mate</title>
<polygon fill="#6495ed" stroke="#6495ed" points="306,-188.9875 162,-188.9875 162,-44.9875 306,-44.9875 306,-188.9875"/>
<text text-anchor="middle" x="234" y="-112.7875" font-family="helvetica:bold" font-size="14.00" fill="#000000">Mate</text>
</g>
<!-- mate+self -->
<g id="node25" class="node">
<title>mate+self</title>
<ellipse fill="#000000" stroke="#000000" cx="153" cy="-1.8" rx="1.8" ry="1.8"/>
</g>
<!-- Mate&#45;&#45;mate+self -->
<g id="edge1" class="edge">
<title>Mate&#45;&#45;mate+self</title>
<path fill="none" stroke="#000000" d="M183.1614,-44.6916C169.6844,-25.5263 157.8443,-8.6889 154.1723,-3.4671"/>
</g>
<!-- Sibling 1 -->
<g id="node3" class="node">
<title>Sibling 1</title>
<ellipse fill="#ffc0cb" stroke="#ffc0cb" cx="396" cy="-116.9875" rx="72" ry="72"/>
<text text-anchor="middle" x="396" y="-112.7875" font-family="helvetica:bold" font-size="14.00" fill="#000000">Sibling 1</text>
</g>
<!-- Sibling 2 -->
<g id="node4" class="node">
<title>Sibling 2</title>
<polygon fill="#6495ed" stroke="#6495ed" points="630,-188.9875 486,-188.9875 486,-44.9875 630,-44.9875 630,-188.9875"/>
<text text-anchor="middle" x="558" y="-112.7875" font-family="helvetica:bold" font-size="14.00" fill="#000000">Sibling 2</text>
</g>
<!-- Sibling 3\nAsthma -->
<g id="node5" class="node">
<title>Sibling 3\nAsthma</title>
<polygon fill="#6495ed" stroke="#6495ed" points="792,-188.9875 648,-188.9875 648,-44.9875 792,-44.9875 792,-188.9875"/>
<text text-anchor="middle" x="720" y="-119.7875" font-family="helvetica:bold" font-size="14.00" fill="#000000">Sibling 3</text>
<text text-anchor="middle" x="720" y="-105.7875" font-family="helvetica:bold" font-size="14.00" fill="#000000">Asthma</text>
</g>
<!-- Sibling 4 -->
<g id="node6" class="node">
<title>Sibling 4</title>
<polygon fill="#6495ed" stroke="#6495ed" points="954,-188.9875 810,-188.9875 810,-44.9875 954,-44.9875 954,-188.9875"/>
<text text-anchor="middle" x="882" y="-112.7875" font-family="helvetica:bold" font-size="14.00" fill="#000000">Sibling 4</text>
</g>
<!-- Sibling 5 -->
<g id="node7" class="node">
<title>Sibling 5</title>
<ellipse fill="#ffc0cb" stroke="#ffc0cb" cx="1044" cy="-116.9875" rx="72" ry="72"/>
<text text-anchor="middle" x="1044" y="-112.7875" font-family="helvetica:bold" font-size="14.00" fill="#000000">Sibling 5</text>
</g>
<!-- Father -->
<g id="node8" class="node">
<title>Father</title>
<polygon fill="#6495ed" stroke="#6495ed" points="516,-450.4643 372,-450.4643 372,-306.4643 516,-306.4643 516,-450.4643"/>
<text text-anchor="middle" x="444" y="-374.2643" font-family="helvetica:bold" font-size="14.00" fill="#000000">Father</text>
</g>
<!-- father+mother -->
<g id="node26" class="node">
<title>father+mother</title>
<ellipse fill="#000000" stroke="#000000" cx="670" cy="-492.3537" rx="1.8" ry="1.8"/>
</g>
<!-- Father&#45;&#45;father+mother -->
<g id="edge3" class="edge">
<title>Father&#45;&#45;father+mother</title>
<path fill="none" stroke="#000000" d="M516.2118,-446.2368C520.7389,-449.247 525.3488,-452.0487 530,-454.5537 581.4244,-482.2491 654.6226,-490.7913 667.8952,-492.1496"/>
</g>
<!-- Father Sibling\nHypertension -->
<g id="node9" class="node">
<title>Father Sibling\nHypertension</title>
<ellipse fill="#ffc0cb" stroke="#ffc0cb" cx="1282" cy="-378.4643" rx="72" ry="72"/>
<text text-anchor="middle" x="1282" y="-381.2643" font-family="helvetica:bold" font-size="14.00" fill="#000000">Father Sibling</text>
<text text-anchor="middle" x="1282" y="-367.2643" font-family="helvetica:bold" font-size="14.00" fill="#000000">Hypertension</text>
</g>
<!-- Father Sibling Mate -->
<g id="node10" class="node">
<title>Father Sibling Mate</title>
<polygon fill="#6495ed" stroke="#6495ed" points="1030,-450.4643 886,-450.4643 886,-306.4643 1030,-306.4643 1030,-450.4643"/>
<text text-anchor="middle" x="958" y="-374.2643" font-family="helvetica:bold" font-size="14.00" fill="#000000">Father Sibling Mate</text>
</g>
<!-- fathersiblingmate+fathersibling -->
<g id="node27" class="node">
<title>fathersiblingmate+fathersibling</title>
<ellipse fill="#000000" stroke="#000000" cx="1264" cy="-248.375" rx="1.8" ry="1.8"/>
</g>
<!-- Father Sibling Mate&#45;&#45;fathersiblingmate+fathersibling -->
<g id="edge5" class="edge">
<title>Father Sibling Mate&#45;&#45;fathersiblingmate+fathersibling</title>
<path fill="none" stroke="#000000" d="M1030.4282,-307.41C1033.2531,-305.6189 1036.1135,-303.9326 1039,-302.375 1123.1397,-256.9707 1245.3039,-249.3168 1262.0673,-248.4649"/>
</g>
<!-- Father Sibling Child 1 -->
<g id="node11" class="node">
<title>Father Sibling Child 1</title>
<polygon fill="#6495ed" stroke="#6495ed" points="1302.8477,-191.8352 1153.1523,-191.8352 1153.1523,-42.1398 1302.8477,-42.1398 1302.8477,-191.8352"/>
<text text-anchor="middle" x="1228" y="-112.7875" font-family="helvetica:bold" font-size="14.00" fill="#000000">Father Sibling Child 1</text>
</g>
<!-- Father Sibling Child 2 -->
<g id="node12" class="node">
<title>Father Sibling Child 2</title>
<ellipse fill="#ffc0cb" stroke="#ffc0cb" cx="1397" cy="-116.9875" rx="75.6281" ry="75.6281"/>
<text text-anchor="middle" x="1397" y="-112.7875" font-family="helvetica:bold" font-size="14.00" fill="#000000">Father Sibling Child 2</text>
</g>
<!-- Paternal Grandmother -->
<g id="node13" class="node">
<title>Paternal Grandmother</title>
<ellipse fill="#ffc0cb" stroke="#ffc0cb" cx="461" cy="-609.5056" rx="78.3525" ry="78.3525"/>
<text text-anchor="middle" x="461" y="-605.3056" font-family="helvetica:bold" font-size="14.00" fill="#000000">Paternal Grandmother</text>
</g>
<!-- Paternal Grandfather -->
<g id="node14" class="node">
<title>Paternal Grandfather</title>
<polygon fill="#6495ed" stroke="#6495ed" points="364.2444,-682.75 217.7556,-682.75 217.7556,-536.2613 364.2444,-536.2613 364.2444,-682.75"/>
<text text-anchor="middle" x="291" y="-605.3056" font-family="helvetica:bold" font-size="14.00" fill="#000000">Paternal Grandfather</text>
</g>
<!-- paternalgrandfather+paternalgrandmother -->
<g id="node28" class="node">
<title>paternalgrandfather+paternalgrandmother</title>
<ellipse fill="#000000" stroke="#000000" cx="514" cy="-726.6576" rx="1.8" ry="1.8"/>
</g>
<!-- Paternal Grandfather&#45;&#45;paternalgrandfather+paternalgrandmother -->
<g id="edge7" class="edge">
<title>Paternal Grandfather&#45;&#45;paternalgrandfather+paternalgrandmother</title>
<path fill="none" stroke="#000000" d="M364.2123,-682.8285C367.4334,-684.9765 370.7004,-686.9975 374,-688.8576 424.8804,-717.5403 498.5205,-725.2803 511.8809,-726.4795"/>
</g>
<!-- Mother -->
<g id="node15" class="node">
<title>Mother</title>
<ellipse fill="#ffc0cb" stroke="#ffc0cb" cx="1120" cy="-378.4643" rx="72" ry="72"/>
<text text-anchor="middle" x="1120" y="-374.2643" font-family="helvetica:bold" font-size="14.00" fill="#000000">Mother</text>
</g>
<!-- Mother Sibling 1 -->
<g id="node16" class="node">
<title>Mother Sibling 1</title>
<ellipse fill="#ffc0cb" stroke="#ffc0cb" cx="1444" cy="-378.4643" rx="72" ry="72"/>
<text text-anchor="middle" x="1444" y="-374.2643" font-family="helvetica:bold" font-size="14.00" fill="#000000">Mother Sibling 1</text>
</g>
<!-- Mother Sibling 2 -->
<g id="node17" class="node">
<title>Mother Sibling 2</title>
<ellipse fill="#ffc0cb" stroke="#ffc0cb" cx="1606" cy="-378.4643" rx="72" ry="72"/>
<text text-anchor="middle" x="1606" y="-374.2643" font-family="helvetica:bold" font-size="14.00" fill="#000000">Mother Sibling 2</text>
</g>
<!-- Mother Sibling 2 Mate -->
<g id="node18" class="node">
<title>Mother Sibling 2 Mate</title>
<polygon fill="#6495ed" stroke="#6495ed" points="2010.1788,-454.6431 1857.8212,-454.6431 1857.8212,-302.2855 2010.1788,-302.2855 2010.1788,-454.6431"/>
<text text-anchor="middle" x="1934" y="-374.2643" font-family="helvetica:bold" font-size="14.00" fill="#000000">Mother Sibling 2 Mate</text>
</g>
<!-- mothersibling2mate+mothersibling2 -->
<g id="node29" class="node">
<title>mothersibling2mate+mothersibling2</title>
<ellipse fill="#000000" stroke="#000000" cx="1770" cy="-248.375" rx="1.8" ry="1.8"/>
</g>
<!-- Mother Sibling 2 Mate&#45;&#45;mothersibling2mate+mothersibling2 -->
<g id="edge9" class="edge">
<title>Mother Sibling 2 Mate&#45;&#45;mothersibling2mate+mothersibling2</title>
<path fill="none" stroke="#000000" d="M1857.7863,-308.735C1854.8591,-306.5405 1851.9251,-304.4129 1849,-302.375 1820.9421,-282.8266 1805.9141,-289.7986 1781,-266.375 1775.877,-261.5584 1772.251,-253.8417 1770.7582,-250.2844"/>
</g>
<!-- Mother Sibling\nHigh Cholesterol -->
<g id="node19" class="node">
<title>Mother Sibling\nHigh Cholesterol</title>
<polygon fill="#6495ed" stroke="#6495ed" points="1840,-450.4643 1696,-450.4643 1696,-306.4643 1840,-306.4643 1840,-450.4643"/>
<text text-anchor="middle" x="1768" y="-381.2643" font-family="helvetica:bold" font-size="14.00" fill="#000000">Mother Sibling</text>
<text text-anchor="middle" x="1768" y="-367.2643" font-family="helvetica:bold" font-size="14.00" fill="#000000">High Cholesterol</text>
</g>
<!-- Mother Sibling Mate -->
<g id="node20" class="node">
<title>Mother Sibling Mate</title>
<ellipse fill="#ffc0cb" stroke="#ffc0cb" cx="2100" cy="-378.4643" rx="72" ry="72"/>
<text text-anchor="middle" x="2100" y="-374.2643" font-family="helvetica:bold" font-size="14.00" fill="#000000">Mother Sibling Mate</text>
</g>
<!-- Mother Sibling Child 1 -->
<g id="node21" class="node">
<title>Mother Sibling Child 1</title>
<polygon fill="#6495ed" stroke="#6495ed" points="1915.458,-193.4455 1762.542,-193.4455 1762.542,-40.5295 1915.458,-40.5295 1915.458,-193.4455"/>
<text text-anchor="middle" x="1839" y="-112.7875" font-family="helvetica:bold" font-size="14.00" fill="#000000">Mother Sibling Child 1</text>
</g>
<!-- Mother Sibling Child 2 -->
<g id="node22" class="node">
<title>Mother Sibling Child 2</title>
<ellipse fill="#ffc0cb" stroke="#ffc0cb" cx="2011" cy="-116.9875" rx="77.2751" ry="77.2751"/>
<text text-anchor="middle" x="2011" y="-112.7875" font-family="helvetica:bold" font-size="14.00" fill="#000000">Mother Sibling Child 2</text>
</g>
<!-- Maternal Grandmother -->
<g id="node23" class="node">
<title>Maternal Grandmother</title>
<ellipse fill="#ffc0cb" stroke="#ffc0cb" cx="1611" cy="-609.5056" rx="79.2042" ry="79.2042"/>
<text text-anchor="middle" x="1611" y="-605.3056" font-family="helvetica:bold" font-size="14.00" fill="#000000">Maternal Grandmother</text>
</g>
<!-- Maternal Grandfather\nInfection -->
<g id="node24" class="node">
<title>Maternal Grandfather\nInfection</title>
<polygon fill="#6495ed" stroke="#6495ed" points="1513.5684,-684.074 1364.4316,-684.074 1364.4316,-534.9373 1513.5684,-534.9373 1513.5684,-684.074"/>
<text text-anchor="middle" x="1439" y="-612.3056" font-family="helvetica:bold" font-size="14.00" fill="#000000">Maternal Grandfather</text>
<text text-anchor="middle" x="1439" y="-598.3056" font-family="helvetica:bold" font-size="14.00" fill="#000000">Infection</text>
</g>
<!-- maternalgrandfather+maternalgrandmother -->
<g id="node30" class="node">
<title>maternalgrandfather+maternalgrandmother</title>
<ellipse fill="#000000" stroke="#000000" cx="1525" cy="-492.3537" rx="1.8" ry="1.8"/>
</g>
<!-- Maternal Grandfather\nInfection&#45;&#45;maternalgrandfather+maternalgrandmother -->
<g id="edge11" class="edge">
<title>Maternal Grandfather\nInfection&#45;&#45;maternalgrandfather+maternalgrandmother</title>
<path fill="none" stroke="#000000" d="M1493.952,-534.6482C1507.9098,-515.6346 1520.0424,-499.1071 1523.8007,-493.9874"/>
</g>
<!-- mate+self&#45;&#45;Self -->
<g id="edge2" class="edge">
<title>mate+self&#45;&#45;Self</title>
<path fill="none" stroke="#000000" d="M151.8896,-3.3791C147.4752,-9.6566 130.5754,-33.6893 113.4491,-58.044"/>
</g>
<!-- father+mother&#45;&#45;Self -->
<g id="edge13" class="edge">
<title>father+mother&#45;&#45;Self</title>
<path fill="none" stroke="#000000" d="M668.0861,-492.0503C657.9954,-490.3537 610.4734,-481.1436 585,-454.5537 534.7058,-402.0551 578.7423,-351.3378 525,-302.375 397.737,-186.4299 302.1831,-280.3023 153,-194.375 141.7083,-187.8711 130.7789,-179.4709 120.7956,-170.6123"/>
</g>
<!-- father+mother&#45;&#45;Sibling 1 -->
<g id="edge14" class="edge">
<title>father+mother&#45;&#45;Sibling 1</title>
<path fill="none" stroke="#000000" d="M667.9078,-491.5619C659.7189,-488.3508 629.5777,-475.4636 615,-454.5537 556.2054,-370.2204 624.2901,-308.9531 558,-230.375 532.5973,-200.2635 509.7263,-216.3065 477,-194.375 466.1751,-187.1207 455.4682,-178.3628 445.5589,-169.3852"/>
</g>
<!-- father+mother&#45;&#45;Sibling 2 -->
<g id="edge15" class="edge">
<title>father+mother&#45;&#45;Sibling 2</title>
<path fill="none" stroke="#000000" d="M669.4459,-490.2444C664.624,-471.9228 629.1694,-337.8569 596,-230.375 591.8675,-216.9842 587.2724,-202.7719 582.746,-189.1023"/>
</g>
<!-- father+mother&#45;&#45;Sibling 3\nAsthma -->
<g id="edge16" class="edge">
<title>father+mother&#45;&#45;Sibling 3\nAsthma</title>
<path fill="none" stroke="#000000" d="M670.269,-490.3341C673.0477,-469.4734 696.6941,-291.9521 710.3556,-189.3914"/>
</g>
<!-- father+mother&#45;&#45;Sibling 4 -->
<g id="edge17" class="edge">
<title>father+mother&#45;&#45;Sibling 4</title>
<path fill="none" stroke="#000000" d="M671.2391,-490.9803C675.5308,-486.1862 690.0422,-469.6645 700,-454.5537 757.7935,-366.8533 813.4693,-259.0575 847.6922,-189.2336"/>
</g>
<!-- father+mother&#45;&#45;Sibling 5 -->
<g id="edge18" class="edge">
<title>father+mother&#45;&#45;Sibling 5</title>
<path fill="none" stroke="#000000" d="M671.8501,-491.9264C681.6277,-489.5983 727.9679,-477.6904 758,-454.5537 826.0153,-402.1548 821.7895,-368.1285 877,-302.375 915.4406,-256.5938 960.9656,-206.299 994.7669,-169.6603"/>
</g>
<!-- father+mother&#45;&#45;Mother -->
<g id="edge4" class="edge">
<title>father+mother&#45;&#45;Mother</title>
<path fill="none" stroke="#000000" d="M671.8852,-492.3273C697.0822,-491.9508 967.5253,-487.1706 1039,-454.5537 1050.7603,-449.187 1061.913,-441.4175 1071.9707,-432.8706"/>
</g>
<!-- fathersiblingmate+fathersibling&#45;&#45;Father Sibling\nHypertension -->
<g id="edge6" class="edge">
<title>fathersiblingmate+fathersibling&#45;&#45;Father Sibling\nHypertension</title>
<path fill="none" stroke="#000000" d="M1264.2733,-250.3502C1265.232,-257.2792 1268.5757,-281.4446 1272.1048,-306.9501"/>
</g>
<!-- fathersiblingmate+fathersibling&#45;&#45;Father Sibling Child 1 -->
<g id="edge21" class="edge">
<title>fathersiblingmate+fathersibling&#45;&#45;Father Sibling Child 1</title>
<path fill="none" stroke="#000000" d="M1263.4911,-246.5176C1261.6964,-239.9677 1255.4033,-217.0001 1248.6039,-192.1844"/>
</g>
<!-- fathersiblingmate+fathersibling&#45;&#45;Father Sibling Child 2 -->
<g id="edge22" class="edge">
<title>fathersiblingmate+fathersibling&#45;&#45;Father Sibling Child 2</title>
<path fill="none" stroke="#000000" d="M1265.4937,-246.8994C1273.2847,-239.2028 1310.1553,-202.7792 1342.8798,-170.4515"/>
</g>
<!-- paternalgrandfather+paternalgrandmother&#45;&#45;Father -->
<g id="edge19" class="edge">
<title>paternalgrandfather+paternalgrandmother&#45;&#45;Father</title>
<path fill="none" stroke="#000000" d="M515.7307,-725.4812C521.6612,-721.3307 541.1721,-706.6585 548,-688.8576 573.2605,-623.0009 568.8784,-597.5279 548,-530.1537 539.2575,-501.9419 523.2548,-474.3132 506.38,-450.5296"/>
</g>
<!-- paternalgrandfather+paternalgrandmother&#45;&#45;Father Sibling\nHypertension -->
<g id="edge20" class="edge">
<title>paternalgrandfather+paternalgrandmother&#45;&#45;Father Sibling\nHypertension</title>
<path fill="none" stroke="#000000" d="M515.8433,-726.2187C545.8087,-719.0285 934.5698,-623.6903 1201,-454.5537 1211.7507,-447.7289 1222.3419,-439.3657 1232.1413,-430.7109"/>
</g>
<!-- paternalgrandfather+paternalgrandmother&#45;&#45;Paternal Grandmother -->
<g id="edge8" class="edge">
<title>paternalgrandfather+paternalgrandmother&#45;&#45;Paternal Grandmother</title>
<path fill="none" stroke="#000000" d="M513.2508,-725.0015C510.7847,-719.5506 502.5497,-701.3476 493.3238,-680.9547"/>
</g>
<!-- mothersibling2mate+mothersibling2&#45;&#45;Mother Sibling 2 -->
<g id="edge10" class="edge">
<title>mothersibling2mate+mothersibling2&#45;&#45;Mother Sibling 2</title>
<path fill="none" stroke="#000000" d="M1768.345,-249.3031C1759.5812,-254.2476 1717.8321,-278.1744 1687,-302.375 1677.1349,-310.1182 1667.0575,-318.8347 1657.5115,-327.531"/>
</g>
<!-- maternalgrandfather+maternalgrandmother&#45;&#45;Mother -->
<g id="edge23" class="edge">
<title>maternalgrandfather+maternalgrandmother&#45;&#45;Mother</title>
<path fill="none" stroke="#000000" d="M1523.061,-492.2956C1499.2663,-491.5579 1263.3951,-483.5588 1201,-454.5537 1189.2777,-449.1044 1178.1431,-441.2957 1168.0914,-432.7357"/>
</g>
<!-- maternalgrandfather+maternalgrandmother&#45;&#45;Mother Sibling 1 -->
<g id="edge24" class="edge">
<title>maternalgrandfather+maternalgrandmother&#45;&#45;Mother Sibling 1</title>
<path fill="none" stroke="#000000" d="M1523.855,-490.7437C1519.4131,-484.4983 1502.7244,-461.0332 1485.7438,-437.1579"/>
</g>
<!-- maternalgrandfather+maternalgrandmother&#45;&#45;Mother Sibling 2 -->
<g id="edge25" class="edge">
<title>maternalgrandfather+maternalgrandmother&#45;&#45;Mother Sibling 2</title>
<path fill="none" stroke="#000000" d="M1526.145,-490.7437C1530.5869,-484.4983 1547.2756,-461.0332 1564.2562,-437.1579"/>
</g>
<!-- maternalgrandfather+maternalgrandmother&#45;&#45;Mother Sibling\nHigh Cholesterol -->
<g id="edge26" class="edge">
<title>maternalgrandfather+maternalgrandmother&#45;&#45;Mother Sibling\nHigh Cholesterol</title>
<path fill="none" stroke="#000000" d="M1527.0637,-492.2711C1541.408,-491.6198 1627.4255,-486.4595 1687,-454.5537 1689.8914,-453.0052 1692.756,-451.3268 1695.5846,-449.5426"/>
</g>
<!-- maternalgrandfather+maternalgrandmother&#45;&#45;Maternal Grandmother -->
<g id="edge12" class="edge">
<title>maternalgrandfather+maternalgrandmother&#45;&#45;Maternal Grandmother</title>
<path fill="none" stroke="#000000" d="M1526.0718,-493.8137C1530.338,-499.6253 1546.7199,-521.9412 1563.974,-545.4453"/>
</g>
<!-- mothersiblingmate+mothersibling1 -->
<g id="node31" class="node">
<title>mothersiblingmate+mothersibling1</title>
<ellipse fill="none" stroke="#000000" cx="1925" cy="-248.375" rx="134.912" ry="18"/>
<text text-anchor="middle" x="1925" y="-244.175" font-family="Times,serif" font-size="14.00" fill="#000000">mothersiblingmate+mothersibling1</text>
</g>
<!-- mothersiblingmate+mothersibling1&#45;&#45;Mother Sibling Child 1 -->
<g id="edge27" class="edge">
<title>mothersiblingmate+mothersibling1&#45;&#45;Mother Sibling Child 1</title>
<path fill="none" stroke="#000000" d="M1913.2224,-230.3816C1906.736,-220.472 1898.1932,-207.4206 1889.2185,-193.7094"/>
</g>
<!-- mothersiblingmate+mothersibling1&#45;&#45;Mother Sibling Child 2 -->
<g id="edge28" class="edge">
<title>mothersiblingmate+mothersibling1&#45;&#45;Mother Sibling Child 2</title>
<path fill="none" stroke="#000000" d="M1936.7776,-230.3816C1945.104,-217.6608 1956.8193,-199.7628 1968.4867,-181.9377"/>
</g>
</g>
</svg>
