<?xml version="1.0" encoding="UTF-8" standalone="no"?>
<!DOCTYPE svg PUBLIC "-//W3C//DTD SVG 1.1//EN"
 "http://www.w3.org/Graphics/SVG/1.1/DTD/svg11.dtd">
<!-- Generated by graphviz version 2.40.1 (20161225.0304)
 -->
<!-- Title: f15 Pages: 1 -->
<svg width="1375pt" height="649pt"
 viewBox="0.00 0.00 1375.37 648.78" xmlns="http://www.w3.org/2000/svg" xmlns:xlink="http://www.w3.org/1999/xlink">
<g id="graph0" class="graph" transform="scale(1 1) rotate(0) translate(4 644.7845)">
<title>f15</title>
<polygon fill="#ffffff" stroke="transparent" points="-4,4 -4,-644.7845 1371.3721,-644.7845 1371.3721,4 -4,4"/>
<!-- Self -->
<g id="node1" class="node">
<title>Self</title>
<ellipse fill="#ffc0cb" stroke="#ffc0cb" cx="647.3721" cy="-291.6" rx="72" ry="72"/>
<text text-anchor="middle" x="647.3721" y="-287.4" font-family="helvetica:bold" font-size="14.00" fill="#000000">Self</text>
</g>
<!-- Mate -->
<g id="node2" class="node">
<title>Mate</title>
<polygon fill="#6495ed" stroke="#6495ed" points="233.3721,-363.6 89.3721,-363.6 89.3721,-219.6 233.3721,-219.6 233.3721,-363.6"/>
<text text-anchor="middle" x="161.3721" y="-287.4" font-family="helvetica:bold" font-size="14.00" fill="#000000">Mate</text>
</g>
<!-- mate+self -->
<g id="node16" class="node">
<title>mate+self</title>
<ellipse fill="#000000" stroke="#000000" cx="404.3721" cy="-181.8" rx="1.8" ry="1.8"/>
</g>
<!-- Mate&#45;&#45;mate+self -->
<g id="edge1" class="edge">
<title>Mate&#45;&#45;mate+self</title>
<path fill="none" stroke="#000000" d="M233.4295,-224.6569C236.3801,-222.8523 239.3649,-221.1577 242.3721,-219.6 302.3797,-188.5165 388.0385,-182.6752 402.318,-181.9008"/>
</g>
<!-- Child 1 -->
<g id="node3" class="node">
<title>Child 1</title>
<ellipse fill="#ffc0cb" stroke="#ffc0cb" cx="242.3721" cy="-72" rx="72" ry="72"/>
<text text-anchor="middle" x="242.3721" y="-67.8" font-family="helvetica:bold" font-size="14.00" fill="#000000">Child 1</text>
</g>
<!-- Child 2\nCar Accident -->
<g id="node4" class="node">
<title>Child 2\nCar Accident</title>
<polygon fill="#6495ed" stroke="#6495ed" points="476.3721,-144 332.3721,-144 332.3721,0 476.3721,0 476.3721,-144"/>
<text text-anchor="middle" x="404.3721" y="-74.8" font-family="helvetica:bold" font-size="14.00" fill="#000000">Child 2</text>
<text text-anchor="middle" x="404.3721" y="-60.8" font-family="helvetica:bold" font-size="14.00" fill="#000000">Car Accident</text>
</g>
<!-- Child 3 -->
<g id="node5" class="node">
<title>Child 3</title>
<ellipse fill="#ffc0cb" stroke="#ffc0cb" cx="566.3721" cy="-72" rx="72" ry="72"/>
<text text-anchor="middle" x="566.3721" y="-67.8" font-family="helvetica:bold" font-size="14.00" fill="#000000">Child 3</text>
</g>
<!-- Sibling 1\nCar Accident -->
<g id="node6" class="node">
<title>Sibling 1\nCar Accident</title>
<ellipse fill="#ffc0cb" stroke="#ffc0cb" cx="809.3721" cy="-291.6" rx="72" ry="72"/>
<text text-anchor="middle" x="809.3721" y="-294.4" font-family="helvetica:bold" font-size="14.00" fill="#000000">Sibling 1</text>
<text text-anchor="middle" x="809.3721" y="-280.4" font-family="helvetica:bold" font-size="14.00" fill="#000000">Car Accident</text>
</g>
<!-- Sibling 2\nHeart Disease -->
<g id="node7" class="node">
<title>Sibling 2\nHeart Disease</title>
<ellipse fill="#ffc0cb" stroke="#ffc0cb" cx="971.3721" cy="-291.6" rx="72" ry="72"/>
<text text-anchor="middle" x="971.3721" y="-294.4" font-family="helvetica:bold" font-size="14.00" fill="#000000">Sibling 2</text>
<text text-anchor="middle" x="971.3721" y="-280.4" font-family="helvetica:bold" font-size="14.00" fill="#000000">Heart Disease</text>
</g>
<!-- Sibling 2 Mate -->
<g id="node8" class="node">
<title>Sibling 2 Mate</title>
<polygon fill="#6495ed" stroke="#6495ed" points="1205.3721,-363.6 1061.3721,-363.6 1061.3721,-219.6 1205.3721,-219.6 1205.3721,-363.6"/>
<text text-anchor="middle" x="1133.3721" y="-287.4" font-family="helvetica:bold" font-size="14.00" fill="#000000">Sibling 2 Mate</text>
</g>
<!-- sibling2mate+sibling2 -->
<g id="node17" class="node">
<title>sibling2mate+sibling2</title>
<ellipse fill="#000000" stroke="#000000" cx="1052.3721" cy="-181.8" rx="1.8" ry="1.8"/>
</g>
<!-- Sibling 2 Mate&#45;&#45;sibling2mate+sibling2 -->
<g id="edge3" class="edge">
<title>Sibling 2 Mate&#45;&#45;sibling2mate+sibling2</title>
<path fill="none" stroke="#000000" d="M1080.2477,-219.5869C1067.8428,-202.7714 1057.1936,-188.3358 1053.6362,-183.5137"/>
</g>
<!-- Mother\nHeart Disease -->
<g id="node9" class="node">
<title>Mother\nHeart Disease</title>
<ellipse fill="#ffc0cb" stroke="#ffc0cb" cx="485.3721" cy="-291.6" rx="72" ry="72"/>
<text text-anchor="middle" x="485.3721" y="-294.4" font-family="helvetica:bold" font-size="14.00" fill="#000000">Mother</text>
<text text-anchor="middle" x="485.3721" y="-280.4" font-family="helvetica:bold" font-size="14.00" fill="#000000">Heart Disease</text>
</g>
<!-- Mother Sibling\nBlood Infection -->
<g id="node10" class="node">
<title>Mother Sibling\nBlood Infection</title>
<ellipse fill="#ffc0cb" stroke="#ffc0cb" cx="1295.3721" cy="-291.6" rx="72" ry="72"/>
<text text-anchor="middle" x="1295.3721" y="-294.4" font-family="helvetica:bold" font-size="14.00" fill="#000000">Mother Sibling</text>
<text text-anchor="middle" x="1295.3721" y="-280.4" font-family="helvetica:bold" font-size="14.00" fill="#000000">Blood Infection</text>
</g>
<!-- Maternal Grandmother\nEmphysema -->
<g id="node11" class="node">
<title>Maternal Grandmother\nEmphysema</title>
<ellipse fill="#ffc0cb" stroke="#ffc0cb" cx="588.3721" cy="-520.1923" rx="80.9845" ry="80.9845"/>
<text text-anchor="middle" x="588.3721" y="-522.9923" font-family="helvetica:bold" font-size="14.00" fill="#000000">Maternal Grandmother</text>
<text text-anchor="middle" x="588.3721" y="-508.9923" font-family="helvetica:bold" font-size="14.00" fill="#000000">Emphysema</text>
</g>
<!-- Maternal Grandfather\nCirrhosis of the Liver -->
<g id="node12" class="node">
<title>Maternal Grandfather\nCirrhosis of the Liver</title>
<polygon fill="#6495ed" stroke="#6495ed" points="488.9404,-594.7606 339.8037,-594.7606 339.8037,-445.6239 488.9404,-445.6239 488.9404,-594.7606"/>
<text text-anchor="middle" x="414.3721" y="-522.9923" font-family="helvetica:bold" font-size="14.00" fill="#000000">Maternal Grandfather</text>
<text text-anchor="middle" x="414.3721" y="-508.9923" font-family="helvetica:bold" font-size="14.00" fill="#000000">Cirrhosis of the Liver</text>
</g>
<!-- maternalgrandfather+maternalgrandmother -->
<g id="node18" class="node">
<title>maternalgrandfather+maternalgrandmother</title>
<ellipse fill="#000000" stroke="#000000" cx="642.3721" cy="-638.9845" rx="1.8" ry="1.8"/>
</g>
<!-- Maternal Grandfather\nCirrhosis of the Liver&#45;&#45;maternalgrandfather+maternalgrandmother -->
<g id="edge5" class="edge">
<title>Maternal Grandfather\nCirrhosis of the Liver&#45;&#45;maternalgrandfather+maternalgrandmother</title>
<path fill="none" stroke="#000000" d="M488.1666,-594.8916C491.5216,-597.1391 494.9282,-599.2494 498.3721,-601.1845 551.1,-630.8127 627.7482,-637.8591 640.5327,-638.8514"/>
</g>
<!-- Father\nParkinson&#39;s Disease -->
<g id="node13" class="node">
<title>Father\nParkinson&#39;s Disease</title>
<polygon fill="#6495ed" stroke="#6495ed" points="395.3721,-363.6 251.3721,-363.6 251.3721,-219.6 395.3721,-219.6 395.3721,-363.6"/>
<text text-anchor="middle" x="323.3721" y="-294.4" font-family="helvetica:bold" font-size="14.00" fill="#000000">Father</text>
<text text-anchor="middle" x="323.3721" y="-280.4" font-family="helvetica:bold" font-size="14.00" fill="#000000">Parkinson&#39;s Disease</text>
</g>
<!-- father+mother -->
<g id="node19" class="node">
<title>father+mother</title>
<ellipse fill="#000000" stroke="#000000" cx="727.3721" cy="-401.4" rx="1.8" ry="1.8"/>
</g>
<!-- Father\nParkinson&#39;s Disease&#45;&#45;father+mother -->
<g id="edge7" class="edge">
<title>Father\nParkinson&#39;s Disease&#45;&#45;father+mother</title>
<path fill="none" stroke="#000000" d="M395.4654,-359.1284C398.3956,-360.7531 401.3677,-362.2527 404.3721,-363.6 466.964,-391.6698 701.7573,-400.5093 725.4421,-401.3346"/>
</g>
<!-- Paternal Grandmother -->
<g id="node14" class="node">
<title>Paternal Grandmother</title>
<ellipse fill="#ffc0cb" stroke="#ffc0cb" cx="243.3721" cy="-520.1923" rx="78.3525" ry="78.3525"/>
<text text-anchor="middle" x="243.3721" y="-515.9923" font-family="helvetica:bold" font-size="14.00" fill="#000000">Paternal Grandmother</text>
</g>
<!-- Paternal Grandfather -->
<g id="node15" class="node">
<title>Paternal Grandfather</title>
<polygon fill="#6495ed" stroke="#6495ed" points="146.6164,-593.4366 .1277,-593.4366 .1277,-446.9479 146.6164,-446.9479 146.6164,-593.4366"/>
<text text-anchor="middle" x="73.3721" y="-515.9923" font-family="helvetica:bold" font-size="14.00" fill="#000000">Paternal Grandfather</text>
</g>
<!-- paternalgrandfather+paternalgrandmother -->
<g id="node20" class="node">
<title>paternalgrandfather+paternalgrandmother</title>
<ellipse fill="#000000" stroke="#000000" cx="243.3721" cy="-401.4" rx="1.8" ry="1.8"/>
</g>
<!-- Paternal Grandfather&#45;&#45;paternalgrandfather+paternalgrandmother -->
<g id="edge9" class="edge">
<title>Paternal Grandfather&#45;&#45;paternalgrandfather+paternalgrandmother</title>
<path fill="none" stroke="#000000" d="M145.9157,-446.7057C149.37,-444.0735 152.8624,-441.5576 156.3721,-439.2 187.5402,-418.2628 232.1996,-404.6365 241.596,-401.9063"/>
</g>
<!-- mate+self&#45;&#45;Self -->
<g id="edge2" class="edge">
<title>mate+self&#45;&#45;Self</title>
<path fill="none" stroke="#000000" d="M406.4262,-181.9008C420.7056,-182.6752 506.3644,-188.5165 566.3721,-219.6 576.8973,-225.052 587.1477,-232.181 596.621,-239.8315"/>
</g>
<!-- mate+self&#45;&#45;Child 1 -->
<g id="edge12" class="edge">
<title>mate+self&#45;&#45;Child 1</title>
<path fill="none" stroke="#000000" d="M402.2531,-181.071C392.649,-177.715 352.4173,-163.0975 323.3721,-144 313.625,-137.5912 303.8481,-130.0635 294.6275,-122.3348"/>
</g>
<!-- mate+self&#45;&#45;Child 2\nCar Accident -->
<g id="edge13" class="edge">
<title>mate+self&#45;&#45;Child 2\nCar Accident</title>
<path fill="none" stroke="#000000" d="M404.3721,-179.8942C404.3721,-174.9107 404.3721,-160.7292 404.3721,-144.2195"/>
</g>
<!-- mate+self&#45;&#45;Child 3 -->
<g id="edge14" class="edge">
<title>mate+self&#45;&#45;Child 3</title>
<path fill="none" stroke="#000000" d="M406.491,-181.071C416.0951,-177.715 456.3268,-163.0975 485.3721,-144 495.1192,-137.5912 504.8961,-130.0635 514.1166,-122.3348"/>
</g>
<!-- sibling2mate+sibling2&#45;&#45;Sibling 2\nHeart Disease -->
<g id="edge4" class="edge">
<title>sibling2mate+sibling2&#45;&#45;Sibling 2\nHeart Disease</title>
<path fill="none" stroke="#000000" d="M1051.0711,-183.5636C1046.5108,-189.7452 1030.6374,-211.2626 1014.2439,-233.4848"/>
</g>
<!-- maternalgrandfather+maternalgrandmother&#45;&#45;Mother\nHeart Disease -->
<g id="edge17" class="edge">
<title>maternalgrandfather+maternalgrandmother&#45;&#45;Mother\nHeart Disease</title>
<path fill="none" stroke="#000000" d="M644.2017,-637.8355C650.4713,-633.7745 671.1021,-619.3594 678.3721,-601.1845 705.1096,-534.3406 712.1601,-502.7719 678.3721,-439.2 650.1862,-386.1685 613.809,-400.431 566.3721,-363.6 557.158,-356.446 547.6559,-348.5341 538.5458,-340.651"/>
</g>
<!-- maternalgrandfather+maternalgrandmother&#45;&#45;Mother Sibling\nBlood Infection -->
<g id="edge18" class="edge">
<title>maternalgrandfather+maternalgrandmother&#45;&#45;Mother Sibling\nBlood Infection</title>
<path fill="none" stroke="#000000" d="M644.2048,-638.3321C671.1598,-628.6927 989.6457,-513.3085 1214.3721,-363.6 1224.0804,-357.1325 1233.8372,-349.5746 1243.0497,-341.8337"/>
</g>
<!-- maternalgrandfather+maternalgrandmother&#45;&#45;Maternal Grandmother\nEmphysema -->
<g id="edge6" class="edge">
<title>maternalgrandfather+maternalgrandmother&#45;&#45;Maternal Grandmother\nEmphysema</title>
<path fill="none" stroke="#000000" d="M641.6087,-637.3052C639.1602,-631.9189 631.1299,-614.2534 622.0231,-594.2197"/>
</g>
<!-- father+mother&#45;&#45;Self -->
<g id="edge11" class="edge">
<title>father+mother&#45;&#45;Self</title>
<path fill="none" stroke="#000000" d="M726.2412,-399.8478C721.9681,-393.9831 706.2195,-372.3682 689.9066,-349.9786"/>
</g>
<!-- father+mother&#45;&#45;Sibling 1\nCar Accident -->
<g id="edge15" class="edge">
<title>father+mother&#45;&#45;Sibling 1\nCar Accident</title>
<path fill="none" stroke="#000000" d="M728.5312,-399.8478C732.9501,-393.9309 749.3413,-371.9826 766.2202,-349.3814"/>
</g>
<!-- father+mother&#45;&#45;Sibling 2\nHeart Disease -->
<g id="edge16" class="edge">
<title>father+mother&#45;&#45;Sibling 2\nHeart Disease</title>
<path fill="none" stroke="#000000" d="M729.4388,-401.3023C743.8061,-400.549 829.9919,-394.8245 890.3721,-363.6 900.901,-358.1552 911.1532,-351.0298 920.6273,-343.3806"/>
</g>
<!-- father+mother&#45;&#45;Mother\nHeart Disease -->
<g id="edge8" class="edge">
<title>father+mother&#45;&#45;Mother\nHeart Disease</title>
<path fill="none" stroke="#000000" d="M725.5459,-401.099C709.7922,-398.4841 596.6994,-379.3357 566.3721,-363.6 555.8506,-358.1408 545.6021,-351.0081 536.1295,-343.3561"/>
</g>
<!-- paternalgrandfather+paternalgrandmother&#45;&#45;Father\nParkinson&#39;s Disease -->
<g id="edge19" class="edge">
<title>paternalgrandfather+paternalgrandmother&#45;&#45;Father\nParkinson&#39;s Disease</title>
<path fill="none" stroke="#000000" d="M244.503,-399.8478C247.8834,-395.2081 258.4459,-380.7111 270.7881,-363.7715"/>
</g>
<!-- paternalgrandfather+paternalgrandmother&#45;&#45;Paternal Grandmother -->
<g id="edge10" class="edge">
<title>paternalgrandfather+paternalgrandmother&#45;&#45;Paternal Grandmother</title>
<path fill="none" stroke="#000000" d="M243.3721,-403.2362C243.3721,-408.4038 243.3721,-423.8782 243.3721,-441.9493"/>
</g>
</g>
</svg>
