<?xml version="1.0" encoding="UTF-8" standalone="no"?>
<!DOCTYPE svg PUBLIC "-//W3C//DTD SVG 1.1//EN"
 "http://www.w3.org/Graphics/SVG/1.1/DTD/svg11.dtd">
<!-- Generated by graphviz version 2.40.1 (20161225.0304)
 -->
<!-- Title: f14 Pages: 1 -->
<svg width="2274pt" height="907pt"
 viewBox="0.00 0.00 2273.67 906.77" xmlns="http://www.w3.org/2000/svg" xmlns:xlink="http://www.w3.org/1999/xlink">
<g id="graph0" class="graph" transform="scale(1 1) rotate(0) translate(4 902.7689)">
<title>f14</title>
<polygon fill="#ffffff" stroke="transparent" points="-4,4 -4,-902.7689 2269.6668,-902.7689 2269.6668,4 -4,4"/>
<!-- Self -->
<g id="node1" class="node">
<title>Self</title>
<ellipse fill="#ffc0cb" stroke="#ffc0cb" cx="108.3721" cy="-308.7032" rx="72" ry="72"/>
<text text-anchor="middle" x="108.3721" y="-304.5032" font-family="helvetica:bold" font-size="14.00" fill="#000000">Self</text>
</g>
<!-- Mate -->
<g id="node2" class="node">
<title>Mate</title>
<polygon fill="#6495ed" stroke="#6495ed" points="342.3721,-380.7032 198.3721,-380.7032 198.3721,-236.7032 342.3721,-236.7032 342.3721,-380.7032"/>
<text text-anchor="middle" x="270.3721" y="-304.5032" font-family="helvetica:bold" font-size="14.00" fill="#000000">Mate</text>
</g>
<!-- mate+self -->
<g id="node30" class="node">
<title>mate+self</title>
<ellipse fill="#000000" stroke="#000000" cx="168.3721" cy="-187.6085" rx="1.8" ry="1.8"/>
</g>
<!-- Mate&#45;&#45;mate+self -->
<g id="edge1" class="edge">
<title>Mate&#45;&#45;mate+self</title>
<path fill="none" stroke="#000000" d="M209.5654,-236.5133C191.1347,-214.6323 174.4797,-194.8595 169.725,-189.2146"/>
</g>
<!-- Child Identical Twin 1 -->
<g id="node3" class="node">
<title>Child Identical Twin 1</title>
<ellipse fill="#ffc0cb" stroke="#ffc0cb" cx="164.3721" cy="-74.9042" rx="74.8086" ry="74.8086"/>
<text text-anchor="middle" x="164.3721" y="-70.7042" font-family="helvetica:bold" font-size="14.00" fill="#000000">Child Identical Twin 1</text>
</g>
<!-- Child Identical Twin 2 -->
<g id="node4" class="node">
<title>Child Identical Twin 2</title>
<ellipse fill="#ffc0cb" stroke="#ffc0cb" cx="332.3721" cy="-74.9042" rx="74.8086" ry="74.8086"/>
<text text-anchor="middle" x="332.3721" y="-70.7042" font-family="helvetica:bold" font-size="14.00" fill="#000000">Child Identical Twin 2</text>
</g>
<!-- Sibling 1 -->
<g id="node5" class="node">
<title>Sibling 1</title>
<polygon fill="#6495ed" stroke="#6495ed" points="504.3721,-380.7032 360.3721,-380.7032 360.3721,-236.7032 504.3721,-236.7032 504.3721,-380.7032"/>
<text text-anchor="middle" x="432.3721" y="-304.5032" font-family="helvetica:bold" font-size="14.00" fill="#000000">Sibling 1</text>
</g>
<!-- Sibling 2 -->
<g id="node6" class="node">
<title>Sibling 2</title>
<ellipse fill="#ffc0cb" stroke="#ffc0cb" cx="594.3721" cy="-308.7032" rx="72" ry="72"/>
<text text-anchor="middle" x="594.3721" y="-304.5032" font-family="helvetica:bold" font-size="14.00" fill="#000000">Sibling 2</text>
</g>
<!-- Sibling 2 Mate -->
<g id="node7" class="node">
<title>Sibling 2 Mate</title>
<polygon fill="#6495ed" stroke="#6495ed" points="1166.3721,-380.7032 1022.3721,-380.7032 1022.3721,-236.7032 1166.3721,-236.7032 1166.3721,-380.7032"/>
<text text-anchor="middle" x="1094.3721" y="-304.5032" font-family="helvetica:bold" font-size="14.00" fill="#000000">Sibling 2 Mate</text>
</g>
<!-- sibling2mate+sibling2 -->
<g id="node31" class="node">
<title>sibling2mate+sibling2</title>
<ellipse fill="#000000" stroke="#000000" cx="635.3721" cy="-187.6085" rx="1.8" ry="1.8"/>
</g>
<!-- Sibling 2 Mate&#45;&#45;sibling2mate+sibling2 -->
<g id="edge3" class="edge">
<title>Sibling 2 Mate&#45;&#45;sibling2mate+sibling2</title>
<path fill="none" stroke="#000000" d="M1031.967,-236.6947C1026.0397,-232.3704 1019.8214,-228.52 1013.3721,-225.4085 940.9035,-190.4454 663.1851,-187.7914 637.3082,-187.6194"/>
</g>
<!-- Sibling 2 Child 1\nDown Syndrome -->
<g id="node8" class="node">
<title>Sibling 2 Child 1\nDown Syndrome</title>
<ellipse fill="#ffc0cb" stroke="#ffc0cb" cx="575.3721" cy="-74.9042" rx="72" ry="72"/>
<text text-anchor="middle" x="575.3721" y="-77.7042" font-family="helvetica:bold" font-size="14.00" fill="#000000">Sibling 2 Child 1</text>
<text text-anchor="middle" x="575.3721" y="-63.7042" font-family="helvetica:bold" font-size="14.00" fill="#000000">Down Syndrome</text>
</g>
<!-- Sibling 2 Child 2 -->
<g id="node9" class="node">
<title>Sibling 2 Child 2</title>
<polygon fill="#6495ed" stroke="#6495ed" points="809.3721,-146.9042 665.3721,-146.9042 665.3721,-2.9042 809.3721,-2.9042 809.3721,-146.9042"/>
<text text-anchor="middle" x="737.3721" y="-70.7042" font-family="helvetica:bold" font-size="14.00" fill="#000000">Sibling 2 Child 2</text>
</g>
<!-- Father\nHigh Cholesterol -->
<g id="node10" class="node">
<title>Father\nHigh Cholesterol</title>
<polygon fill="#6495ed" stroke="#6495ed" points="370.3721,-616.5911 226.3721,-616.5911 226.3721,-472.5911 370.3721,-472.5911 370.3721,-616.5911"/>
<text text-anchor="middle" x="298.3721" y="-547.3911" font-family="helvetica:bold" font-size="14.00" fill="#000000">Father</text>
<text text-anchor="middle" x="298.3721" y="-533.3911" font-family="helvetica:bold" font-size="14.00" fill="#000000">High Cholesterol</text>
</g>
<!-- father+mother -->
<g id="node32" class="node">
<title>father+mother</title>
<ellipse fill="#000000" stroke="#000000" cx="436.3721" cy="-659.3843" rx="1.8" ry="1.8"/>
</g>
<!-- Father\nHigh Cholesterol&#45;&#45;father+mother -->
<g id="edge5" class="edge">
<title>Father\nHigh Cholesterol&#45;&#45;father+mother</title>
<path fill="none" stroke="#000000" d="M370.6467,-610.231C375.2505,-614.1207 379.8509,-617.9329 384.3721,-621.5843 403.4742,-637.012 428.1479,-653.8396 434.7096,-658.2673"/>
</g>
<!-- Father Sibling -->
<g id="node11" class="node">
<title>Father Sibling</title>
<ellipse fill="#ffc0cb" stroke="#ffc0cb" cx="590.3721" cy="-544.5911" rx="72" ry="72"/>
<text text-anchor="middle" x="590.3721" y="-540.3911" font-family="helvetica:bold" font-size="14.00" fill="#000000">Father Sibling</text>
</g>
<!-- Father Sibling Mate -->
<g id="node12" class="node">
<title>Father Sibling Mate</title>
<polygon fill="#6495ed" stroke="#6495ed" points="831.3721,-616.5911 687.3721,-616.5911 687.3721,-472.5911 831.3721,-472.5911 831.3721,-616.5911"/>
<text text-anchor="middle" x="759.3721" y="-540.3911" font-family="helvetica:bold" font-size="14.00" fill="#000000">Father Sibling Mate</text>
</g>
<!-- fathersiblingmate+fathersibling -->
<g id="node33" class="node">
<title>fathersiblingmate+fathersibling</title>
<ellipse fill="#000000" stroke="#000000" cx="759.3721" cy="-429.7979" rx="1.8" ry="1.8"/>
</g>
<!-- Father Sibling Mate&#45;&#45;fathersiblingmate+fathersibling -->
<g id="edge7" class="edge">
<title>Father Sibling Mate&#45;&#45;fathersiblingmate+fathersibling</title>
<path fill="none" stroke="#000000" d="M759.3721,-472.5427C759.3721,-453.8034 759.3721,-437.2972 759.3721,-431.7662"/>
</g>
<!-- Father Sibling Child 1\nAutism -->
<g id="node13" class="node">
<title>Father Sibling Child 1\nAutism</title>
<polygon fill="#6495ed" stroke="#6495ed" points="834.2198,-383.5509 684.5243,-383.5509 684.5243,-233.8555 834.2198,-233.8555 834.2198,-383.5509"/>
<text text-anchor="middle" x="759.3721" y="-311.5032" font-family="helvetica:bold" font-size="14.00" fill="#000000">Father Sibling Child 1</text>
<text text-anchor="middle" x="759.3721" y="-297.5032" font-family="helvetica:bold" font-size="14.00" fill="#000000">Autism</text>
</g>
<!-- Father Sibling Child 2 -->
<g id="node14" class="node">
<title>Father Sibling Child 2</title>
<ellipse fill="#ffc0cb" stroke="#ffc0cb" cx="928.3721" cy="-308.7032" rx="75.6281" ry="75.6281"/>
<text text-anchor="middle" x="928.3721" y="-304.5032" font-family="helvetica:bold" font-size="14.00" fill="#000000">Father Sibling Child 2</text>
</g>
<!-- Paternal Grandmother\nAlzheimer&#39;s Disease -->
<g id="node15" class="node">
<title>Paternal Grandmother\nAlzheimer&#39;s Disease</title>
<ellipse fill="#ffc0cb" stroke="#ffc0cb" cx="244.3721" cy="-778.1766" rx="79.5846" ry="79.5846"/>
<text text-anchor="middle" x="244.3721" y="-780.9766" font-family="helvetica:bold" font-size="14.00" fill="#000000">Paternal Grandmother</text>
<text text-anchor="middle" x="244.3721" y="-766.9766" font-family="helvetica:bold" font-size="14.00" fill="#000000">Alzheimer&#39;s Disease</text>
</g>
<!-- Paternal Grandfather\nHeart Disease -->
<g id="node16" class="node">
<title>Paternal Grandfather\nHeart Disease</title>
<polygon fill="#6495ed" stroke="#6495ed" points="146.6164,-851.421 .1277,-851.421 .1277,-704.9322 146.6164,-704.9322 146.6164,-851.421"/>
<text text-anchor="middle" x="73.3721" y="-780.9766" font-family="helvetica:bold" font-size="14.00" fill="#000000">Paternal Grandfather</text>
<text text-anchor="middle" x="73.3721" y="-766.9766" font-family="helvetica:bold" font-size="14.00" fill="#000000">Heart Disease</text>
</g>
<!-- paternalgrandfather+paternalgrandmother -->
<g id="node34" class="node">
<title>paternalgrandfather+paternalgrandmother</title>
<ellipse fill="#000000" stroke="#000000" cx="298.3721" cy="-896.9689" rx="1.8" ry="1.8"/>
</g>
<!-- Paternal Grandfather\nHeart Disease&#45;&#45;paternalgrandfather+paternalgrandmother -->
<g id="edge9" class="edge">
<title>Paternal Grandfather\nHeart Disease&#45;&#45;paternalgrandfather+paternalgrandmother</title>
<path fill="none" stroke="#000000" d="M143.3215,-851.477C147.2639,-854.2512 151.2886,-856.8372 155.3721,-859.1689 207.5537,-888.9644 283.8188,-895.8722 296.5414,-896.8395"/>
</g>
<!-- Mother\nMigranes -->
<g id="node17" class="node">
<title>Mother\nMigranes</title>
<ellipse fill="#ffc0cb" stroke="#ffc0cb" cx="1035.3721" cy="-544.5911" rx="72" ry="72"/>
<text text-anchor="middle" x="1035.3721" y="-547.3911" font-family="helvetica:bold" font-size="14.00" fill="#000000">Mother</text>
<text text-anchor="middle" x="1035.3721" y="-533.3911" font-family="helvetica:bold" font-size="14.00" fill="#000000">Migranes</text>
</g>
<!-- Mother Sibling 1 -->
<g id="node18" class="node">
<title>Mother Sibling 1</title>
<polygon fill="#6495ed" stroke="#6495ed" points="1538.3721,-616.5911 1394.3721,-616.5911 1394.3721,-472.5911 1538.3721,-472.5911 1538.3721,-616.5911"/>
<text text-anchor="middle" x="1466.3721" y="-540.3911" font-family="helvetica:bold" font-size="14.00" fill="#000000">Mother Sibling 1</text>
</g>
<!-- mothersibling1+mothersibling1mate -->
<g id="node35" class="node">
<title>mothersibling1+mothersibling1mate</title>
<ellipse fill="#000000" stroke="#000000" cx="1449.3721" cy="-429.7979" rx="1.8" ry="1.8"/>
</g>
<!-- Mother Sibling 1&#45;&#45;mothersibling1+mothersibling1mate -->
<g id="edge11" class="edge">
<title>Mother Sibling 1&#45;&#45;mothersibling1+mothersibling1mate</title>
<path fill="none" stroke="#000000" d="M1455.7022,-472.5427C1452.9271,-453.8034 1450.4827,-437.2972 1449.6636,-431.7662"/>
</g>
<!-- Mother Sibling 1 Mate -->
<g id="node19" class="node">
<title>Mother Sibling 1 Mate</title>
<ellipse fill="#ffc0cb" stroke="#ffc0cb" cx="1299.3721" cy="-544.5911" rx="76.9864" ry="76.9864"/>
<text text-anchor="middle" x="1299.3721" y="-540.3911" font-family="helvetica:bold" font-size="14.00" fill="#000000">Mother Sibling 1 Mate</text>
</g>
<!-- Mother Sibling 1 Child 1 -->
<g id="node20" class="node">
<title>Mother Sibling 1 Child 1</title>
<polygon fill="#6495ed" stroke="#6495ed" points="1348.5063,-390.8374 1184.2379,-390.8374 1184.2379,-226.569 1348.5063,-226.569 1348.5063,-390.8374"/>
<text text-anchor="middle" x="1266.3721" y="-304.5032" font-family="helvetica:bold" font-size="14.00" fill="#000000">Mother Sibling 1 Child 1</text>
</g>
<!-- Mother Sibling 1 Child 2 -->
<g id="node21" class="node">
<title>Mother Sibling 1 Child 2</title>
<polygon fill="#6495ed" stroke="#6495ed" points="1531.5063,-390.8374 1367.2379,-390.8374 1367.2379,-226.569 1531.5063,-226.569 1531.5063,-390.8374"/>
<text text-anchor="middle" x="1449.3721" y="-304.5032" font-family="helvetica:bold" font-size="14.00" fill="#000000">Mother Sibling 1 Child 2</text>
</g>
<!-- Mother Sibling 1 Child 3 -->
<g id="node22" class="node">
<title>Mother Sibling 1 Child 3</title>
<polygon fill="#6495ed" stroke="#6495ed" points="1714.5063,-390.8374 1550.2379,-390.8374 1550.2379,-226.569 1714.5063,-226.569 1714.5063,-390.8374"/>
<text text-anchor="middle" x="1632.3721" y="-304.5032" font-family="helvetica:bold" font-size="14.00" fill="#000000">Mother Sibling 1 Child 3</text>
</g>
<!-- Mother Sibling 2 -->
<g id="node23" class="node">
<title>Mother Sibling 2</title>
<ellipse fill="#ffc0cb" stroke="#ffc0cb" cx="1906.3721" cy="-544.5911" rx="72" ry="72"/>
<text text-anchor="middle" x="1906.3721" y="-540.3911" font-family="helvetica:bold" font-size="14.00" fill="#000000">Mother Sibling 2</text>
</g>
<!-- Mother Sibling 2 Mate -->
<g id="node24" class="node">
<title>Mother Sibling 2 Mate</title>
<polygon fill="#6495ed" stroke="#6495ed" points="1816.5509,-620.77 1664.1933,-620.77 1664.1933,-468.4123 1816.5509,-468.4123 1816.5509,-620.77"/>
<text text-anchor="middle" x="1740.3721" y="-540.3911" font-family="helvetica:bold" font-size="14.00" fill="#000000">Mother Sibling 2 Mate</text>
</g>
<!-- mothersibling2mate+mothersibling2 -->
<g id="node36" class="node">
<title>mothersibling2mate+mothersibling2</title>
<ellipse fill="#000000" stroke="#000000" cx="1906.3721" cy="-429.7979" rx="1.8" ry="1.8"/>
</g>
<!-- Mother Sibling 2 Mate&#45;&#45;mothersibling2mate+mothersibling2 -->
<g id="edge13" class="edge">
<title>Mother Sibling 2 Mate&#45;&#45;mothersibling2mate+mothersibling2</title>
<path fill="none" stroke="#000000" d="M1816.9249,-473.4685C1819.7327,-471.4344 1822.5526,-469.4708 1825.3721,-467.5979 1854.3275,-448.3646 1894.6266,-433.849 1904.2489,-430.5206"/>
</g>
<!-- Mother Sibling 2 Child 1\nSeizures -->
<g id="node25" class="node">
<title>Mother Sibling 2 Child 1\nSeizures</title>
<polygon fill="#6495ed" stroke="#6495ed" points="1897.5063,-390.8374 1733.2379,-390.8374 1733.2379,-226.569 1897.5063,-226.569 1897.5063,-390.8374"/>
<text text-anchor="middle" x="1815.3721" y="-311.5032" font-family="helvetica:bold" font-size="14.00" fill="#000000">Mother Sibling 2 Child 1</text>
<text text-anchor="middle" x="1815.3721" y="-297.5032" font-family="helvetica:bold" font-size="14.00" fill="#000000">Seizures</text>
</g>
<!-- Mother Sibling 2 Child 2 -->
<g id="node26" class="node">
<title>Mother Sibling 2 Child 2</title>
<polygon fill="#6495ed" stroke="#6495ed" points="2080.5063,-390.8374 1916.2379,-390.8374 1916.2379,-226.569 2080.5063,-226.569 2080.5063,-390.8374"/>
<text text-anchor="middle" x="1998.3721" y="-304.5032" font-family="helvetica:bold" font-size="14.00" fill="#000000">Mother Sibling 2 Child 2</text>
</g>
<!-- Mother Sibling 2 Child 3 -->
<g id="node27" class="node">
<title>Mother Sibling 2 Child 3</title>
<ellipse fill="#ffc0cb" stroke="#ffc0cb" cx="2182.3721" cy="-308.7032" rx="83.09" ry="83.09"/>
<text text-anchor="middle" x="2182.3721" y="-304.5032" font-family="helvetica:bold" font-size="14.00" fill="#000000">Mother Sibling 2 Child 3</text>
</g>
<!-- Maternal Grandmother\nStroke -->
<g id="node28" class="node">
<title>Maternal Grandmother\nStroke</title>
<ellipse fill="#ffc0cb" stroke="#ffc0cb" cx="1553.3721" cy="-778.1766" rx="80.9845" ry="80.9845"/>
<text text-anchor="middle" x="1553.3721" y="-780.9766" font-family="helvetica:bold" font-size="14.00" fill="#000000">Maternal Grandmother</text>
<text text-anchor="middle" x="1553.3721" y="-766.9766" font-family="helvetica:bold" font-size="14.00" fill="#000000">Stroke</text>
</g>
<!-- Maternal Grandfather -->
<g id="node29" class="node">
<title>Maternal Grandfather</title>
<polygon fill="#6495ed" stroke="#6495ed" points="1453.9404,-852.745 1304.8037,-852.745 1304.8037,-703.6082 1453.9404,-703.6082 1453.9404,-852.745"/>
<text text-anchor="middle" x="1379.3721" y="-773.9766" font-family="helvetica:bold" font-size="14.00" fill="#000000">Maternal Grandfather</text>
</g>
<!-- maternalgrandfather+maternalgrandmother -->
<g id="node37" class="node">
<title>maternalgrandfather+maternalgrandmother</title>
<ellipse fill="#000000" stroke="#000000" cx="1466.3721" cy="-659.3843" rx="1.8" ry="1.8"/>
</g>
<!-- Maternal Grandfather&#45;&#45;maternalgrandfather+maternalgrandmother -->
<g id="edge15" class="edge">
<title>Maternal Grandfather&#45;&#45;maternalgrandfather+maternalgrandmother</title>
<path fill="none" stroke="#000000" d="M1433.9765,-703.6182C1448.4518,-683.8532 1461.169,-666.4888 1465.1129,-661.1037"/>
</g>
<!-- mate+self&#45;&#45;Self -->
<g id="edge2" class="edge">
<title>mate+self&#45;&#45;Self</title>
<path fill="none" stroke="#000000" d="M167.4236,-189.5228C164.0981,-196.2343 152.5164,-219.6091 140.4799,-243.9017"/>
</g>
<!-- mate+self&#45;&#45;Child Identical Twin 1 -->
<g id="edge18" class="edge">
<title>mate+self&#45;&#45;Child Identical Twin 1</title>
<path fill="none" stroke="#000000" d="M168.3026,-185.6523C168.1242,-180.6247 167.6221,-166.4766 167.0339,-149.9033"/>
</g>
<!-- mate+self&#45;&#45;Child Identical Twin 2 -->
<g id="edge19" class="edge">
<title>mate+self&#45;&#45;Child Identical Twin 2</title>
<path fill="none" stroke="#000000" d="M170.4647,-186.8747C179.9493,-183.4979 219.6812,-168.8038 248.3721,-149.8085 258.4732,-143.1208 268.6086,-135.279 278.1692,-127.2343"/>
</g>
<!-- sibling2mate+sibling2&#45;&#45;Sibling 2 -->
<g id="edge4" class="edge">
<title>sibling2mate+sibling2&#45;&#45;Sibling 2</title>
<path fill="none" stroke="#000000" d="M634.7747,-189.3729C632.6779,-195.5659 625.355,-217.1943 617.5081,-240.3701"/>
</g>
<!-- sibling2mate+sibling2&#45;&#45;Sibling 2 Child 1\nDown Syndrome -->
<g id="edge22" class="edge">
<title>sibling2mate+sibling2&#45;&#45;Sibling 2 Child 1\nDown Syndrome</title>
<path fill="none" stroke="#000000" d="M634.5239,-186.0152C631.49,-180.3164 620.7431,-160.1293 609.2256,-138.4949"/>
</g>
<!-- sibling2mate+sibling2&#45;&#45;Sibling 2 Child 2 -->
<g id="edge23" class="edge">
<title>sibling2mate+sibling2&#45;&#45;Sibling 2 Child 2</title>
<path fill="none" stroke="#000000" d="M636.814,-186.0152C641.2936,-181.0656 655.6646,-165.1864 672.1942,-146.9221"/>
</g>
<!-- father+mother&#45;&#45;Self -->
<g id="edge17" class="edge">
<title>father+mother&#45;&#45;Self</title>
<path fill="none" stroke="#000000" d="M436.0615,-657.5911C432.9849,-640.0061 407.4936,-498.3654 379.3721,-467.5979 318.0569,-400.5138 264.9401,-442.4885 189.3721,-391.9979 177.4641,-384.0416 165.9308,-374.0916 155.4803,-363.8657"/>
</g>
<!-- father+mother&#45;&#45;Sibling 1 -->
<g id="edge20" class="edge">
<title>father+mother&#45;&#45;Sibling 1</title>
<path fill="none" stroke="#000000" d="M436.3505,-657.4976C436.1316,-638.3053 434.2937,-477.1743 433.1941,-380.7669"/>
</g>
<!-- father+mother&#45;&#45;Sibling 2 -->
<g id="edge21" class="edge">
<title>father+mother&#45;&#45;Sibling 2</title>
<path fill="none" stroke="#000000" d="M436.9842,-657.6864C442.9965,-641.0234 491.6489,-506.5033 509.3721,-467.5979 524.1572,-435.1421 542.6301,-400.0829 558.5744,-371.175"/>
</g>
<!-- father+mother&#45;&#45;Mother\nMigranes -->
<g id="edge6" class="edge">
<title>father+mother&#45;&#45;Mother\nMigranes</title>
<path fill="none" stroke="#000000" d="M438.4009,-659.2747C465.523,-657.7971 756.7845,-641.568 840.3721,-621.5843 884.9759,-610.9207 932.9113,-592.1026 970.0936,-575.7403"/>
</g>
<!-- fathersiblingmate+fathersibling&#45;&#45;Father Sibling -->
<g id="edge8" class="edge">
<title>fathersiblingmate+fathersibling&#45;&#45;Father Sibling</title>
<path fill="none" stroke="#000000" d="M757.2566,-430.5323C747.6677,-433.9115 707.4921,-448.6147 678.3721,-467.5979 666.1281,-475.5797 653.8104,-485.162 642.429,-494.8132"/>
</g>
<!-- fathersiblingmate+fathersibling&#45;&#45;Father Sibling Child 1\nAutism -->
<g id="edge26" class="edge">
<title>fathersiblingmate+fathersibling&#45;&#45;Father Sibling Child 1\nAutism</title>
<path fill="none" stroke="#000000" d="M759.3721,-427.6961C759.3721,-421.7289 759.3721,-403.8039 759.3721,-383.6177"/>
</g>
<!-- fathersiblingmate+fathersibling&#45;&#45;Father Sibling Child 2 -->
<g id="edge27" class="edge">
<title>fathersiblingmate+fathersibling&#45;&#45;Father Sibling Child 2</title>
<path fill="none" stroke="#000000" d="M761.5947,-429.1205C771.6636,-425.9882 813.7881,-412.1966 843.3721,-391.9979 854.9752,-384.0758 866.4114,-374.4853 876.9508,-364.6718"/>
</g>
<!-- paternalgrandfather+paternalgrandmother&#45;&#45;Father\nHigh Cholesterol -->
<g id="edge24" class="edge">
<title>paternalgrandfather+paternalgrandmother&#45;&#45;Father\nHigh Cholesterol</title>
<path fill="none" stroke="#000000" d="M300.1523,-895.8061C306.2525,-891.7 326.3237,-877.1554 333.3721,-859.1689 364.298,-780.2498 345.2489,-682.2259 325.2208,-616.7718"/>
</g>
<!-- paternalgrandfather+paternalgrandmother&#45;&#45;Father Sibling -->
<g id="edge25" class="edge">
<title>paternalgrandfather+paternalgrandmother&#45;&#45;Father Sibling</title>
<path fill="none" stroke="#000000" d="M300.3473,-896.0109C308.1186,-892.1783 337.1044,-877.2781 356.3721,-859.1689 438.0857,-782.3684 511.539,-674.1322 553.5212,-606.7294"/>
</g>
<!-- paternalgrandfather+paternalgrandmother&#45;&#45;Paternal Grandmother\nAlzheimer&#39;s Disease -->
<g id="edge10" class="edge">
<title>paternalgrandfather+paternalgrandmother&#45;&#45;Paternal Grandmother\nAlzheimer&#39;s Disease</title>
<path fill="none" stroke="#000000" d="M297.6087,-895.2896C295.109,-889.7905 286.7911,-871.4925 277.4496,-850.9424"/>
</g>
<!-- mothersibling1+mothersibling1mate&#45;&#45;Mother Sibling 1 Mate -->
<g id="edge12" class="edge">
<title>mothersibling1+mothersibling1mate&#45;&#45;Mother Sibling 1 Mate</title>
<path fill="none" stroke="#000000" d="M1447.7154,-430.6219C1440.2034,-434.3891 1408.6973,-450.5251 1385.3721,-467.5979 1375.3461,-474.9364 1365.1322,-483.2363 1355.4094,-491.6015"/>
</g>
<!-- mothersibling1+mothersibling1mate&#45;&#45;Mother Sibling 1 Child 1 -->
<g id="edge30" class="edge">
<title>mothersibling1+mothersibling1mate&#45;&#45;Mother Sibling 1 Child 1</title>
<path fill="none" stroke="#000000" d="M1447.5268,-429.2894C1437.7619,-426.5478 1391.3206,-412.8731 1358.3721,-391.9979 1355.096,-389.9223 1351.8258,-387.7267 1348.5768,-385.4384"/>
</g>
<!-- mothersibling1+mothersibling1mate&#45;&#45;Mother Sibling 1 Child 2 -->
<g id="edge31" class="edge">
<title>mothersibling1+mothersibling1mate&#45;&#45;Mother Sibling 1 Child 2</title>
<path fill="none" stroke="#000000" d="M1449.3721,-427.6961C1449.3721,-422.4826 1449.3721,-408.1415 1449.3721,-391.1394"/>
</g>
<!-- mothersibling1+mothersibling1mate&#45;&#45;Mother Sibling 1 Child 3 -->
<g id="edge32" class="edge">
<title>mothersibling1+mothersibling1mate&#45;&#45;Mother Sibling 1 Child 3</title>
<path fill="none" stroke="#000000" d="M1451.2173,-429.2894C1460.9822,-426.5478 1507.4236,-412.8731 1540.3721,-391.9979 1543.6482,-389.9223 1546.9184,-387.7267 1550.1674,-385.4384"/>
</g>
<!-- mothersibling2mate+mothersibling2&#45;&#45;Mother Sibling 2 -->
<g id="edge14" class="edge">
<title>mothersibling2mate+mothersibling2&#45;&#45;Mother Sibling 2</title>
<path fill="none" stroke="#000000" d="M1906.3721,-431.7662C1906.3721,-437.2972 1906.3721,-453.8034 1906.3721,-472.5427"/>
</g>
<!-- mothersibling2mate+mothersibling2&#45;&#45;Mother Sibling 2 Child 1\nSeizures -->
<g id="edge34" class="edge">
<title>mothersibling2mate+mothersibling2&#45;&#45;Mother Sibling 2 Child 1\nSeizures</title>
<path fill="none" stroke="#000000" d="M1905.0857,-428.0861C1901.4348,-423.2279 1890.4197,-408.5699 1877.2995,-391.1108"/>
</g>
<!-- mothersibling2mate+mothersibling2&#45;&#45;Mother Sibling 2 Child 2 -->
<g id="edge35" class="edge">
<title>mothersibling2mate+mothersibling2&#45;&#45;Mother Sibling 2 Child 2</title>
<path fill="none" stroke="#000000" d="M1907.6726,-428.0861C1911.3636,-423.2279 1922.4998,-408.5699 1935.7641,-391.1108"/>
</g>
<!-- mothersibling2mate+mothersibling2&#45;&#45;Mother Sibling 2 Child 3 -->
<g id="edge36" class="edge">
<title>mothersibling2mate+mothersibling2&#45;&#45;Mother Sibling 2 Child 3</title>
<path fill="none" stroke="#000000" d="M1908.2966,-429.773C1923.1673,-429.5087 2021.0098,-426.4701 2089.3721,-391.9979 2101.5649,-385.8496 2113.3888,-377.6829 2124.287,-368.8636"/>
</g>
<!-- maternalgrandfather+maternalgrandmother&#45;&#45;Mother\nMigranes -->
<g id="edge28" class="edge">
<title>maternalgrandfather+maternalgrandmother&#45;&#45;Mother\nMigranes</title>
<path fill="none" stroke="#000000" d="M1464.3029,-659.2806C1446.3368,-658.3387 1315.0044,-650.6197 1213.3721,-621.5843 1174.5226,-610.4854 1132.9832,-592.8743 1099.8119,-577.2949"/>
</g>
<!-- maternalgrandfather+maternalgrandmother&#45;&#45;Mother Sibling 1 -->
<g id="edge29" class="edge">
<title>maternalgrandfather+maternalgrandmother&#45;&#45;Mother Sibling 1</title>
<path fill="none" stroke="#000000" d="M1466.3721,-657.3919C1466.3721,-651.8543 1466.3721,-635.4534 1466.3721,-616.8129"/>
</g>
<!-- maternalgrandfather+maternalgrandmother&#45;&#45;Mother Sibling 2 -->
<g id="edge33" class="edge">
<title>maternalgrandfather+maternalgrandmother&#45;&#45;Mother Sibling 2</title>
<path fill="none" stroke="#000000" d="M1468.207,-659.3542C1492.7315,-658.9279 1755.953,-653.6296 1825.3721,-621.5843 1837.3506,-616.0548 1848.6806,-608.0305 1858.8615,-599.2269"/>
</g>
<!-- maternalgrandfather+maternalgrandmother&#45;&#45;Maternal Grandmother\nStroke -->
<g id="edge16" class="edge">
<title>maternalgrandfather+maternalgrandmother&#45;&#45;Maternal Grandmother\nStroke</title>
<path fill="none" stroke="#000000" d="M1467.4387,-660.8408C1471.6854,-666.6393 1488.0005,-688.9164 1505.2917,-712.5264"/>
</g>
</g>
</svg>
