<?xml version="1.0" encoding="UTF-8" standalone="no"?>
<!DOCTYPE svg PUBLIC "-//W3C//DTD SVG 1.1//EN"
 "http://www.w3.org/Graphics/SVG/1.1/DTD/svg11.dtd">
<!-- Generated by graphviz version 2.40.1 (20161225.0304)
 -->
<!-- Title: f10 Pages: 1 -->
<svg width="1414pt" height="866pt"
 viewBox="0.00 0.00 1414.37 865.98" xmlns="http://www.w3.org/2000/svg" xmlns:xlink="http://www.w3.org/1999/xlink">
<g id="graph0" class="graph" transform="scale(1 1) rotate(0) translate(4 861.9841)">
<title>f10</title>
<polygon fill="#ffffff" stroke="transparent" points="-4,4 -4,-861.9841 1410.3721,-861.9841 1410.3721,4 -4,4"/>
<!-- Self -->
<g id="node1" class="node">
<title>Self</title>
<ellipse fill="#ffc0cb" stroke="#ffc0cb" cx="324.3721" cy="-291.6" rx="72" ry="72"/>
<text text-anchor="middle" x="324.3721" y="-287.4" font-family="helvetica:bold" font-size="14.00" fill="#000000">Self</text>
</g>
<!-- Mate -->
<g id="node2" class="node">
<title>Mate</title>
<polygon fill="#6495ed" stroke="#6495ed" points="558.3721,-363.6 414.3721,-363.6 414.3721,-219.6 558.3721,-219.6 558.3721,-363.6"/>
<text text-anchor="middle" x="486.3721" y="-287.4" font-family="helvetica:bold" font-size="14.00" fill="#000000">Mate</text>
</g>
<!-- mate+self -->
<g id="node19" class="node">
<title>mate+self</title>
<ellipse fill="#000000" stroke="#000000" cx="445.3721" cy="-181.8" rx="1.8" ry="1.8"/>
</g>
<!-- Mate&#45;&#45;mate+self -->
<g id="edge1" class="edge">
<title>Mate&#45;&#45;mate+self</title>
<path fill="none" stroke="#000000" d="M459.4819,-219.5869C453.2029,-202.7714 447.8126,-188.3358 446.012,-183.5137"/>
</g>
<!-- Child -->
<g id="node3" class="node">
<title>Child</title>
<ellipse fill="#ffc0cb" stroke="#ffc0cb" cx="445.3721" cy="-72" rx="72" ry="72"/>
<text text-anchor="middle" x="445.3721" y="-67.8" font-family="helvetica:bold" font-size="14.00" fill="#000000">Child</text>
</g>
<!-- Sibling -->
<g id="node4" class="node">
<title>Sibling</title>
<ellipse fill="#ffc0cb" stroke="#ffc0cb" cx="810.3721" cy="-291.6" rx="72" ry="72"/>
<text text-anchor="middle" x="810.3721" y="-287.4" font-family="helvetica:bold" font-size="14.00" fill="#000000">Sibling</text>
</g>
<!-- Sibling Mate -->
<g id="node5" class="node">
<title>Sibling Mate</title>
<polygon fill="#6495ed" stroke="#6495ed" points="720.3721,-363.6 576.3721,-363.6 576.3721,-219.6 720.3721,-219.6 720.3721,-363.6"/>
<text text-anchor="middle" x="648.3721" y="-287.4" font-family="helvetica:bold" font-size="14.00" fill="#000000">Sibling Mate</text>
</g>
<!-- siblingmate+sibling -->
<g id="node20" class="node">
<title>siblingmate+sibling</title>
<ellipse fill="#000000" stroke="#000000" cx="688.3721" cy="-181.8" rx="1.8" ry="1.8"/>
</g>
<!-- Sibling Mate&#45;&#45;siblingmate+sibling -->
<g id="edge3" class="edge">
<title>Sibling Mate&#45;&#45;siblingmate+sibling</title>
<path fill="none" stroke="#000000" d="M674.6063,-219.5869C680.7322,-202.7714 685.9911,-188.3358 687.7478,-183.5137"/>
</g>
<!-- Sibling Child\nCystic Fibrosis -->
<g id="node6" class="node">
<title>Sibling Child\nCystic Fibrosis</title>
<ellipse fill="#ffc0cb" stroke="#ffc0cb" cx="688.3721" cy="-72" rx="72" ry="72"/>
<text text-anchor="middle" x="688.3721" y="-74.8" font-family="helvetica:bold" font-size="14.00" fill="#000000">Sibling Child</text>
<text text-anchor="middle" x="688.3721" y="-60.8" font-family="helvetica:bold" font-size="14.00" fill="#000000">Cystic Fibrosis</text>
</g>
<!-- Father -->
<g id="node7" class="node">
<title>Father</title>
<polygon fill="#6495ed" stroke="#6495ed" points="358.3721,-583.2 214.3721,-583.2 214.3721,-439.2 358.3721,-439.2 358.3721,-583.2"/>
<text text-anchor="middle" x="286.3721" y="-507" font-family="helvetica:bold" font-size="14.00" fill="#000000">Father</text>
</g>
<!-- father+mother -->
<g id="node21" class="node">
<title>father+mother</title>
<ellipse fill="#000000" stroke="#000000" cx="498.3721" cy="-621" rx="1.8" ry="1.8"/>
</g>
<!-- Father&#45;&#45;father+mother -->
<g id="edge5" class="edge">
<title>Father&#45;&#45;father+mother</title>
<path fill="none" stroke="#000000" d="M358.5365,-577.943C361.4568,-579.8042 364.4061,-581.5651 367.3721,-583.2 415.466,-609.7104 483.9785,-619.2154 496.402,-620.7646"/>
</g>
<!-- Father Sibling -->
<g id="node8" class="node">
<title>Father Sibling</title>
<polygon fill="#6495ed" stroke="#6495ed" points="1406.3721,-583.2 1262.3721,-583.2 1262.3721,-439.2 1406.3721,-439.2 1406.3721,-583.2"/>
<text text-anchor="middle" x="1334.3721" y="-507" font-family="helvetica:bold" font-size="14.00" fill="#000000">Father Sibling</text>
</g>
<!-- fathersibling+fathersiblingmate -->
<g id="node22" class="node">
<title>fathersibling+fathersiblingmate</title>
<ellipse fill="#000000" stroke="#000000" cx="1153.3721" cy="-401.4" rx="1.8" ry="1.8"/>
</g>
<!-- Father Sibling&#45;&#45;fathersibling+fathersiblingmate -->
<g id="edge7" class="edge">
<title>Father Sibling&#45;&#45;fathersibling+fathersiblingmate</title>
<path fill="none" stroke="#000000" d="M1262.0309,-444.763C1259.1606,-442.8152 1256.2698,-440.9529 1253.3721,-439.2 1216.8467,-417.1055 1165.2339,-404.2003 1155.1268,-401.8068"/>
</g>
<!-- Father Sibling Mate -->
<g id="node9" class="node">
<title>Father Sibling Mate</title>
<ellipse fill="#ffc0cb" stroke="#ffc0cb" cx="686.3721" cy="-511.2" rx="72" ry="72"/>
<text text-anchor="middle" x="686.3721" y="-507" font-family="helvetica:bold" font-size="14.00" fill="#000000">Father Sibling Mate</text>
</g>
<!-- Father Sibling Child -->
<g id="node10" class="node">
<title>Father Sibling Child</title>
<ellipse fill="#ffc0cb" stroke="#ffc0cb" cx="1153.3721" cy="-291.6" rx="72" ry="72"/>
<text text-anchor="middle" x="1153.3721" y="-287.4" font-family="helvetica:bold" font-size="14.00" fill="#000000">Father Sibling Child</text>
</g>
<!-- Paternal Grandmother\nEmphysema -->
<g id="node11" class="node">
<title>Paternal Grandmother\nEmphysema</title>
<ellipse fill="#ffc0cb" stroke="#ffc0cb" cx="244.3721" cy="-738.592" rx="79.5846" ry="79.5846"/>
<text text-anchor="middle" x="244.3721" y="-741.392" font-family="helvetica:bold" font-size="14.00" fill="#000000">Paternal Grandmother</text>
<text text-anchor="middle" x="244.3721" y="-727.392" font-family="helvetica:bold" font-size="14.00" fill="#000000">Emphysema</text>
</g>
<!-- Paternal Grandfather -->
<g id="node12" class="node">
<title>Paternal Grandfather</title>
<polygon fill="#6495ed" stroke="#6495ed" points="146.6164,-811.8364 .1277,-811.8364 .1277,-665.3477 146.6164,-665.3477 146.6164,-811.8364"/>
<text text-anchor="middle" x="73.3721" y="-734.392" font-family="helvetica:bold" font-size="14.00" fill="#000000">Paternal Grandfather</text>
</g>
<!-- paternalgrandfather+paternalgrandmother -->
<g id="node23" class="node">
<title>paternalgrandfather+paternalgrandmother</title>
<ellipse fill="#000000" stroke="#000000" cx="298.3721" cy="-856.1841" rx="1.8" ry="1.8"/>
</g>
<!-- Paternal Grandfather&#45;&#45;paternalgrandfather+paternalgrandmother -->
<g id="edge9" class="edge">
<title>Paternal Grandfather&#45;&#45;paternalgrandfather+paternalgrandmother</title>
<path fill="none" stroke="#000000" d="M144.8822,-811.8384C148.3264,-814.1818 151.8284,-816.3781 155.3721,-818.3841 207.6645,-847.9847 283.8378,-855.0539 296.5439,-856.0504"/>
</g>
<!-- Mother -->
<g id="node13" class="node">
<title>Mother</title>
<ellipse fill="#ffc0cb" stroke="#ffc0cb" cx="448.3721" cy="-511.2" rx="72" ry="72"/>
<text text-anchor="middle" x="448.3721" y="-507" font-family="helvetica:bold" font-size="14.00" fill="#000000">Mother</text>
</g>
<!-- Mother Sibling 1 -->
<g id="node14" class="node">
<title>Mother Sibling 1</title>
<ellipse fill="#ffc0cb" stroke="#ffc0cb" cx="848.3721" cy="-511.2" rx="72" ry="72"/>
<text text-anchor="middle" x="848.3721" y="-507" font-family="helvetica:bold" font-size="14.00" fill="#000000">Mother Sibling 1</text>
</g>
<!-- Mother Sibling 2\nBreast Cancer -->
<g id="node15" class="node">
<title>Mother Sibling 2\nBreast Cancer</title>
<ellipse fill="#ffc0cb" stroke="#ffc0cb" cx="1010.3721" cy="-511.2" rx="72" ry="72"/>
<text text-anchor="middle" x="1010.3721" y="-514" font-family="helvetica:bold" font-size="14.00" fill="#000000">Mother Sibling 2</text>
<text text-anchor="middle" x="1010.3721" y="-500" font-family="helvetica:bold" font-size="14.00" fill="#000000">Breast Cancer</text>
</g>
<!-- Mother Sibling 3 -->
<g id="node16" class="node">
<title>Mother Sibling 3</title>
<polygon fill="#6495ed" stroke="#6495ed" points="1244.3721,-583.2 1100.3721,-583.2 1100.3721,-439.2 1244.3721,-439.2 1244.3721,-583.2"/>
<text text-anchor="middle" x="1172.3721" y="-507" font-family="helvetica:bold" font-size="14.00" fill="#000000">Mother Sibling 3</text>
</g>
<!-- Maternal Grandmother -->
<g id="node17" class="node">
<title>Maternal Grandmother</title>
<ellipse fill="#ffc0cb" stroke="#ffc0cb" cx="986.3721" cy="-738.592" rx="79.2042" ry="79.2042"/>
<text text-anchor="middle" x="986.3721" y="-734.392" font-family="helvetica:bold" font-size="14.00" fill="#000000">Maternal Grandmother</text>
</g>
<!-- Maternal Grandfather\nLung Cancer -->
<g id="node18" class="node">
<title>Maternal Grandfather\nLung Cancer</title>
<polygon fill="#6495ed" stroke="#6495ed" points="888.9404,-813.1604 739.8037,-813.1604 739.8037,-664.0237 888.9404,-664.0237 888.9404,-813.1604"/>
<text text-anchor="middle" x="814.3721" y="-741.392" font-family="helvetica:bold" font-size="14.00" fill="#000000">Maternal Grandfather</text>
<text text-anchor="middle" x="814.3721" y="-727.392" font-family="helvetica:bold" font-size="14.00" fill="#000000">Lung Cancer</text>
</g>
<!-- maternalgrandfather+maternalgrandmother -->
<g id="node24" class="node">
<title>maternalgrandfather+maternalgrandmother</title>
<ellipse fill="#000000" stroke="#000000" cx="900.3721" cy="-621" rx="1.8" ry="1.8"/>
</g>
<!-- Maternal Grandfather\nLung Cancer&#45;&#45;maternalgrandfather+maternalgrandmother -->
<g id="edge11" class="edge">
<title>Maternal Grandfather\nLung Cancer&#45;&#45;maternalgrandfather+maternalgrandmother</title>
<path fill="none" stroke="#000000" d="M869.0808,-663.7861C883.1267,-644.5804 895.3684,-627.8418 899.1615,-622.6553"/>
</g>
<!-- mate+self&#45;&#45;Self -->
<g id="edge2" class="edge">
<title>mate+self&#45;&#45;Self</title>
<path fill="none" stroke="#000000" d="M443.7979,-183.2284C436.6247,-189.7377 406.1591,-217.3833 377.7967,-243.1205"/>
</g>
<!-- mate+self&#45;&#45;Child -->
<g id="edge14" class="edge">
<title>mate+self&#45;&#45;Child</title>
<path fill="none" stroke="#000000" d="M445.3721,-179.8942C445.3721,-174.9107 445.3721,-160.7292 445.3721,-144.2195"/>
</g>
<!-- siblingmate+sibling&#45;&#45;Sibling -->
<g id="edge4" class="edge">
<title>siblingmate+sibling&#45;&#45;Sibling</title>
<path fill="none" stroke="#000000" d="M689.9592,-183.2284C697.1917,-189.7377 727.9091,-217.3833 756.506,-243.1205"/>
</g>
<!-- siblingmate+sibling&#45;&#45;Sibling Child\nCystic Fibrosis -->
<g id="edge16" class="edge">
<title>siblingmate+sibling&#45;&#45;Sibling Child\nCystic Fibrosis</title>
<path fill="none" stroke="#000000" d="M688.3721,-179.8942C688.3721,-174.9107 688.3721,-160.7292 688.3721,-144.2195"/>
</g>
<!-- father+mother&#45;&#45;Self -->
<g id="edge13" class="edge">
<title>father+mother&#45;&#45;Self</title>
<path fill="none" stroke="#000000" d="M499.9539,-619.7841C505.3737,-615.5046 523.1991,-600.4617 529.3721,-583.2 550.9227,-522.9375 560.7073,-495.0042 529.3721,-439.2 497.7695,-382.9197 457.2568,-401.9949 405.3721,-363.6 395.995,-356.661 386.409,-348.8599 377.2651,-341.0213"/>
</g>
<!-- father+mother&#45;&#45;Sibling -->
<g id="edge15" class="edge">
<title>father+mother&#45;&#45;Sibling</title>
<path fill="none" stroke="#000000" d="M500.4048,-620.1646C508.3713,-616.7903 537.7922,-603.3742 553.3721,-583.2 594.9625,-529.345 562.3263,-491.899 605.3721,-439.2 646.2044,-389.2108 677.4874,-401.9949 729.3721,-363.6 738.7491,-356.661 748.3352,-348.8599 757.479,-341.0213"/>
</g>
<!-- father+mother&#45;&#45;Mother -->
<g id="edge6" class="edge">
<title>father+mother&#45;&#45;Mother</title>
<path fill="none" stroke="#000000" d="M497.5042,-619.0942C494.9366,-613.4557 487.0071,-596.0425 478.2468,-576.8049"/>
</g>
<!-- fathersibling+fathersiblingmate&#45;&#45;Father Sibling Mate -->
<g id="edge8" class="edge">
<title>fathersibling+fathersiblingmate&#45;&#45;Father Sibling Mate</title>
<path fill="none" stroke="#000000" d="M1151.4033,-401.4245C1125.0893,-401.7758 842.6418,-406.2947 767.3721,-439.2 756.3387,-444.0234 745.7595,-450.9351 736.097,-458.5895"/>
</g>
<!-- fathersibling+fathersiblingmate&#45;&#45;Father Sibling Child -->
<g id="edge19" class="edge">
<title>fathersibling+fathersiblingmate&#45;&#45;Father Sibling Child</title>
<path fill="none" stroke="#000000" d="M1153.3721,-399.4942C1153.3721,-394.5107 1153.3721,-380.3292 1153.3721,-363.8195"/>
</g>
<!-- paternalgrandfather+paternalgrandmother&#45;&#45;Father -->
<g id="edge17" class="edge">
<title>paternalgrandfather+paternalgrandmother&#45;&#45;Father</title>
<path fill="none" stroke="#000000" d="M300.1523,-855.0213C306.2525,-850.9152 326.3237,-836.3706 333.3721,-818.3841 359.2499,-752.3472 344.2613,-728.8854 333.3721,-658.8 329.4703,-633.6876 322.0447,-607.0026 314.2285,-583.3278"/>
</g>
<!-- paternalgrandfather+paternalgrandmother&#45;&#45;Father Sibling -->
<g id="edge18" class="edge">
<title>paternalgrandfather+paternalgrandmother&#45;&#45;Father Sibling</title>
<path fill="none" stroke="#000000" d="M300.4883,-856.1298C343.7709,-855.0152 1036.8779,-836.8921 1074.3721,-818.3841 1176.4942,-767.974 1253.977,-657.2223 1296.7957,-583.407"/>
</g>
<!-- paternalgrandfather+paternalgrandmother&#45;&#45;Paternal Grandmother\nEmphysema -->
<g id="edge10" class="edge">
<title>paternalgrandfather+paternalgrandmother&#45;&#45;Paternal Grandmother\nEmphysema</title>
<path fill="none" stroke="#000000" d="M297.6087,-854.5217C295.1346,-849.1341 286.9612,-831.3353 277.7367,-811.2478"/>
</g>
<!-- maternalgrandfather+maternalgrandmother&#45;&#45;Mother -->
<g id="edge20" class="edge">
<title>maternalgrandfather+maternalgrandmother&#45;&#45;Mother</title>
<path fill="none" stroke="#000000" d="M898.4552,-620.975C879.5419,-620.6843 724.5117,-617.2929 605.3721,-583.2 573.5156,-574.084 539.909,-559.4231 511.9984,-545.7025"/>
</g>
<!-- maternalgrandfather+maternalgrandmother&#45;&#45;Mother Sibling 1 -->
<g id="edge21" class="edge">
<title>maternalgrandfather+maternalgrandmother&#45;&#45;Mother Sibling 1</title>
<path fill="none" stroke="#000000" d="M899.4695,-619.0942C896.7857,-613.4273 888.4691,-595.8664 879.3037,-576.5133"/>
</g>
<!-- maternalgrandfather+maternalgrandmother&#45;&#45;Mother Sibling 2\nBreast Cancer -->
<g id="edge22" class="edge">
<title>maternalgrandfather+maternalgrandmother&#45;&#45;Mother Sibling 2\nBreast Cancer</title>
<path fill="none" stroke="#000000" d="M901.9271,-619.4478C908.4554,-612.9314 934.4637,-586.9704 959.3721,-562.1073"/>
</g>
<!-- maternalgrandfather+maternalgrandmother&#45;&#45;Mother Sibling 3 -->
<g id="edge23" class="edge">
<title>maternalgrandfather+maternalgrandmother&#45;&#45;Mother Sibling 3</title>
<path fill="none" stroke="#000000" d="M902.5378,-620.731C921.221,-618.3877 1055.3461,-601.0945 1091.3721,-583.2 1094.2367,-581.7771 1097.0781,-580.2257 1099.8866,-578.5691"/>
</g>
<!-- maternalgrandfather+maternalgrandmother&#45;&#45;Maternal Grandmother -->
<g id="edge12" class="edge">
<title>maternalgrandfather+maternalgrandmother&#45;&#45;Maternal Grandmother</title>
<path fill="none" stroke="#000000" d="M901.4439,-622.4655C905.7101,-628.2989 922.092,-650.6987 939.3461,-674.2911"/>
</g>
</g>
</svg>
