<?xml version="1.0" encoding="UTF-8" standalone="no"?>
<!DOCTYPE svg PUBLIC "-//W3C//DTD SVG 1.1//EN"
 "http://www.w3.org/Graphics/SVG/1.1/DTD/svg11.dtd">
<!-- Generated by graphviz version 2.40.1 (20161225.0304)
 -->
<!-- Title: f20 Pages: 1 -->
<svg width="1371pt" height="893pt"
 viewBox="0.00 0.00 1370.70 893.30" xmlns="http://www.w3.org/2000/svg" xmlns:xlink="http://www.w3.org/1999/xlink">
<g id="graph0" class="graph" transform="scale(1 1) rotate(0) translate(4 889.3005)">
<title>f20</title>
<polygon fill="#ffffff" stroke="transparent" points="-4,4 -4,-889.3005 1366.6963,-889.3005 1366.6963,4 -4,4"/>
<!-- Self\nHypercholesterolemia -->
<g id="node1" class="node">
<title>Self\nHypercholesterolemia</title>
<polygon fill="#6495ed" stroke="#6495ed" points="151.5894,-376.2548 -.1968,-376.2548 -.1968,-224.4686 151.5894,-224.4686 151.5894,-376.2548"/>
<text text-anchor="middle" x="75.6963" y="-303.1617" font-family="helvetica:bold" font-size="14.00" fill="#000000">Self</text>
<text text-anchor="middle" x="75.6963" y="-289.1617" font-family="helvetica:bold" font-size="14.00" fill="#000000">Hypercholesterolemia</text>
</g>
<!-- self+mate -->
<g id="node23" class="node">
<title>self+mate</title>
<ellipse fill="#000000" stroke="#000000" cx="158.6963" cy="-181.8" rx="1.8" ry="1.8"/>
</g>
<!-- Self\nHypercholesterolemia&#45;&#45;self+mate -->
<g id="edge1" class="edge">
<title>Self\nHypercholesterolemia&#45;&#45;self+mate</title>
<path fill="none" stroke="#000000" d="M128.7314,-224.6035C142.2022,-205.361 153.9116,-188.6346 157.5388,-183.4534"/>
</g>
<!-- Mate -->
<g id="node2" class="node">
<title>Mate</title>
<ellipse fill="#ffc0cb" stroke="#ffc0cb" cx="241.6963" cy="-300.3617" rx="72" ry="72"/>
<text text-anchor="middle" x="241.6963" y="-296.1617" font-family="helvetica:bold" font-size="14.00" fill="#000000">Mate</text>
</g>
<!-- Sibling 1 -->
<g id="node3" class="node">
<title>Sibling 1</title>
<polygon fill="#6495ed" stroke="#6495ed" points="835.6963,-372.3617 691.6963,-372.3617 691.6963,-228.3617 835.6963,-228.3617 835.6963,-372.3617"/>
<text text-anchor="middle" x="763.6963" y="-296.1617" font-family="helvetica:bold" font-size="14.00" fill="#000000">Sibling 1</text>
</g>
<!-- sibling1+sibling1mate -->
<g id="node24" class="node">
<title>sibling1+sibling1mate</title>
<ellipse fill="#000000" stroke="#000000" cx="844.6963" cy="-181.8" rx="1.8" ry="1.8"/>
</g>
<!-- Sibling 1&#45;&#45;sibling1+sibling1mate -->
<g id="edge3" class="edge">
<title>Sibling 1&#45;&#45;sibling1+sibling1mate</title>
<path fill="none" stroke="#000000" d="M812.9154,-228.3184C827.2266,-207.3708 840.0129,-188.6552 843.6592,-183.318"/>
</g>
<!-- Sibling 1 Mate\nAsthma -->
<g id="node4" class="node">
<title>Sibling 1 Mate\nAsthma</title>
<ellipse fill="#ffc0cb" stroke="#ffc0cb" cx="925.6963" cy="-300.3617" rx="72" ry="72"/>
<text text-anchor="middle" x="925.6963" y="-303.1617" font-family="helvetica:bold" font-size="14.00" fill="#000000">Sibling 1 Mate</text>
<text text-anchor="middle" x="925.6963" y="-289.1617" font-family="helvetica:bold" font-size="14.00" fill="#000000">Asthma</text>
</g>
<!-- Sibling 1 Child -->
<g id="node5" class="node">
<title>Sibling 1 Child</title>
<polygon fill="#6495ed" stroke="#6495ed" points="916.6963,-144 772.6963,-144 772.6963,0 916.6963,0 916.6963,-144"/>
<text text-anchor="middle" x="844.6963" y="-67.8" font-family="helvetica:bold" font-size="14.00" fill="#000000">Sibling 1 Child</text>
</g>
<!-- Sibling 2 -->
<g id="node6" class="node">
<title>Sibling 2</title>
<ellipse fill="#ffc0cb" stroke="#ffc0cb" cx="1249.6963" cy="-300.3617" rx="72" ry="72"/>
<text text-anchor="middle" x="1249.6963" y="-296.1617" font-family="helvetica:bold" font-size="14.00" fill="#000000">Sibling 2</text>
</g>
<!-- Sibling 2 Mate -->
<g id="node7" class="node">
<title>Sibling 2 Mate</title>
<polygon fill="#6495ed" stroke="#6495ed" points="1159.6963,-372.3617 1015.6963,-372.3617 1015.6963,-228.3617 1159.6963,-228.3617 1159.6963,-372.3617"/>
<text text-anchor="middle" x="1087.6963" y="-296.1617" font-family="helvetica:bold" font-size="14.00" fill="#000000">Sibling 2 Mate</text>
</g>
<!-- sibling2mate+sibling2 -->
<g id="node25" class="node">
<title>sibling2mate+sibling2</title>
<ellipse fill="#000000" stroke="#000000" cx="1168.6963" cy="-181.8" rx="1.8" ry="1.8"/>
</g>
<!-- Sibling 2 Mate&#45;&#45;sibling2mate+sibling2 -->
<g id="edge5" class="edge">
<title>Sibling 2 Mate&#45;&#45;sibling2mate+sibling2</title>
<path fill="none" stroke="#000000" d="M1136.9154,-228.3184C1151.2266,-207.3708 1164.0129,-188.6552 1167.6592,-183.318"/>
</g>
<!-- Sibling 2 Child 1 -->
<g id="node8" class="node">
<title>Sibling 2 Child 1</title>
<ellipse fill="#ffc0cb" stroke="#ffc0cb" cx="1128.6963" cy="-72" rx="72" ry="72"/>
<text text-anchor="middle" x="1128.6963" y="-67.8" font-family="helvetica:bold" font-size="14.00" fill="#000000">Sibling 2 Child 1</text>
</g>
<!-- Sibling 2 Child 2\nTay Sachs Disease -->
<g id="node9" class="node">
<title>Sibling 2 Child 2\nTay Sachs Disease</title>
<ellipse fill="#ffc0cb" stroke="#ffc0cb" cx="1290.6963" cy="-72" rx="72" ry="72"/>
<text text-anchor="middle" x="1290.6963" y="-74.8" font-family="helvetica:bold" font-size="14.00" fill="#000000">Sibling 2 Child 2</text>
<text text-anchor="middle" x="1290.6963" y="-60.8" font-family="helvetica:bold" font-size="14.00" fill="#000000">Tay Sachs Disease</text>
</g>
<!-- Mother\nHeart Disease -->
<g id="node10" class="node">
<title>Mother\nHeart Disease</title>
<ellipse fill="#ffc0cb" stroke="#ffc0cb" cx="901.6963" cy="-532.4197" rx="72" ry="72"/>
<text text-anchor="middle" x="901.6963" y="-535.2197" font-family="helvetica:bold" font-size="14.00" fill="#000000">Mother</text>
<text text-anchor="middle" x="901.6963" y="-521.2197" font-family="helvetica:bold" font-size="14.00" fill="#000000">Heart Disease</text>
</g>
<!-- Mother Sibling 1\nCar Accident -->
<g id="node11" class="node">
<title>Mother Sibling 1\nCar Accident</title>
<ellipse fill="#ffc0cb" stroke="#ffc0cb" cx="1063.6963" cy="-532.4197" rx="72" ry="72"/>
<text text-anchor="middle" x="1063.6963" y="-535.2197" font-family="helvetica:bold" font-size="14.00" fill="#000000">Mother Sibling 1</text>
<text text-anchor="middle" x="1063.6963" y="-521.2197" font-family="helvetica:bold" font-size="14.00" fill="#000000">Car Accident</text>
</g>
<!-- Mother Sibling 2 -->
<g id="node12" class="node">
<title>Mother Sibling 2</title>
<ellipse fill="#ffc0cb" stroke="#ffc0cb" cx="1225.6963" cy="-532.4197" rx="72" ry="72"/>
<text text-anchor="middle" x="1225.6963" y="-528.2197" font-family="helvetica:bold" font-size="14.00" fill="#000000">Mother Sibling 2</text>
</g>
<!-- Maternal Grandmother\nHeart Disease -->
<g id="node13" class="node">
<title>Maternal Grandmother\nHeart Disease</title>
<ellipse fill="#ffc0cb" stroke="#ffc0cb" cx="916.6963" cy="-764.7083" rx="80.9845" ry="80.9845"/>
<text text-anchor="middle" x="916.6963" y="-767.5083" font-family="helvetica:bold" font-size="14.00" fill="#000000">Maternal Grandmother</text>
<text text-anchor="middle" x="916.6963" y="-753.5083" font-family="helvetica:bold" font-size="14.00" fill="#000000">Heart Disease</text>
</g>
<!-- Maternal Grandfather\nParkinson&#39;s Disease -->
<g id="node14" class="node">
<title>Maternal Grandfather\nParkinson&#39;s Disease</title>
<polygon fill="#6495ed" stroke="#6495ed" points="817.2647,-839.2766 668.1279,-839.2766 668.1279,-690.1399 817.2647,-690.1399 817.2647,-839.2766"/>
<text text-anchor="middle" x="742.6963" y="-767.5083" font-family="helvetica:bold" font-size="14.00" fill="#000000">Maternal Grandfather</text>
<text text-anchor="middle" x="742.6963" y="-753.5083" font-family="helvetica:bold" font-size="14.00" fill="#000000">Parkinson&#39;s Disease</text>
</g>
<!-- maternalgrandfather+maternalgrandmother -->
<g id="node26" class="node">
<title>maternalgrandfather+maternalgrandmother</title>
<ellipse fill="#000000" stroke="#000000" cx="1025.6963" cy="-883.5005" rx="1.8" ry="1.8"/>
</g>
<!-- Maternal Grandfather\nParkinson&#39;s Disease&#45;&#45;maternalgrandfather+maternalgrandmother -->
<g id="edge7" class="edge">
<title>Maternal Grandfather\nParkinson&#39;s Disease&#45;&#45;maternalgrandfather+maternalgrandmother</title>
<path fill="none" stroke="#000000" d="M815.8024,-839.3809C819.3714,-841.6702 823.0078,-843.7922 826.6963,-845.7005 864.1769,-865.0916 1006.2837,-881.3471 1023.9007,-883.3032"/>
</g>
<!-- Father\nHypercholesterolemia -->
<g id="node15" class="node">
<title>Father\nHypercholesterolemia</title>
<polygon fill="#6495ed" stroke="#6495ed" points="205.5894,-608.3128 53.8032,-608.3128 53.8032,-456.5266 205.5894,-456.5266 205.5894,-608.3128"/>
<text text-anchor="middle" x="129.6963" y="-535.2197" font-family="helvetica:bold" font-size="14.00" fill="#000000">Father</text>
<text text-anchor="middle" x="129.6963" y="-521.2197" font-family="helvetica:bold" font-size="14.00" fill="#000000">Hypercholesterolemia</text>
</g>
<!-- father+mother -->
<g id="node27" class="node">
<title>father+mother</title>
<ellipse fill="#000000" stroke="#000000" cx="763.6963" cy="-645.916" rx="1.8" ry="1.8"/>
</g>
<!-- Father\nHypercholesterolemia&#45;&#45;father+mother -->
<g id="edge9" class="edge">
<title>Father\nHypercholesterolemia&#45;&#45;father+mother</title>
<path fill="none" stroke="#000000" d="M205.5249,-603.7533C208.5397,-605.3503 211.5998,-606.8136 214.6963,-608.116 268.8562,-630.8968 725.8746,-644.8003 761.4965,-645.8518"/>
</g>
<!-- Father Sibling 1 -->
<g id="node16" class="node">
<title>Father Sibling 1</title>
<ellipse fill="#ffc0cb" stroke="#ffc0cb" cx="295.6963" cy="-532.4197" rx="72" ry="72"/>
<text text-anchor="middle" x="295.6963" y="-528.2197" font-family="helvetica:bold" font-size="14.00" fill="#000000">Father Sibling 1</text>
</g>
<!-- Father Sibling 2\nLung Cancer -->
<g id="node17" class="node">
<title>Father Sibling 2\nLung Cancer</title>
<ellipse fill="#ffc0cb" stroke="#ffc0cb" cx="457.6963" cy="-532.4197" rx="72" ry="72"/>
<text text-anchor="middle" x="457.6963" y="-535.2197" font-family="helvetica:bold" font-size="14.00" fill="#000000">Father Sibling 2</text>
<text text-anchor="middle" x="457.6963" y="-521.2197" font-family="helvetica:bold" font-size="14.00" fill="#000000">Lung Cancer</text>
</g>
<!-- Father Sibling 2 Mate -->
<g id="node18" class="node">
<title>Father Sibling 2 Mate</title>
<polygon fill="#6495ed" stroke="#6495ed" points="735.2647,-606.9881 586.1279,-606.9881 586.1279,-457.8514 735.2647,-457.8514 735.2647,-606.9881"/>
<text text-anchor="middle" x="660.6963" y="-528.2197" font-family="helvetica:bold" font-size="14.00" fill="#000000">Father Sibling 2 Mate</text>
</g>
<!-- fathersibling2mate+fathersibling2 -->
<g id="node28" class="node">
<title>fathersibling2mate+fathersibling2</title>
<ellipse fill="#000000" stroke="#000000" cx="589.6963" cy="-418.9234" rx="1.8" ry="1.8"/>
</g>
<!-- Father Sibling 2 Mate&#45;&#45;fathersibling2mate+fathersibling2 -->
<g id="edge11" class="edge">
<title>Father Sibling 2 Mate&#45;&#45;fathersibling2mate+fathersibling2</title>
<path fill="none" stroke="#000000" d="M613.9319,-457.665C603.1311,-440.3995 593.8823,-425.615 590.7937,-420.6777"/>
</g>
<!-- Father Sibling 2 Child 1 -->
<g id="node19" class="node">
<title>Father Sibling 2 Child 1</title>
<polygon fill="#6495ed" stroke="#6495ed" points="493.2204,-380.8859 332.1722,-380.8859 332.1722,-219.8376 493.2204,-219.8376 493.2204,-380.8859"/>
<text text-anchor="middle" x="412.6963" y="-296.1617" font-family="helvetica:bold" font-size="14.00" fill="#000000">Father Sibling 2 Child 1</text>
</g>
<!-- Father Sibling 2 Child 2 -->
<g id="node20" class="node">
<title>Father Sibling 2 Child 2</title>
<polygon fill="#6495ed" stroke="#6495ed" points="673.2204,-380.8859 512.1722,-380.8859 512.1722,-219.8376 673.2204,-219.8376 673.2204,-380.8859"/>
<text text-anchor="middle" x="592.6963" y="-296.1617" font-family="helvetica:bold" font-size="14.00" fill="#000000">Father Sibling 2 Child 2</text>
</g>
<!-- Paternal Grandmother\nFemale Cancer -->
<g id="node21" class="node">
<title>Paternal Grandmother\nFemale Cancer</title>
<ellipse fill="#ffc0cb" stroke="#ffc0cb" cx="210.6963" cy="-764.7083" rx="79.5846" ry="79.5846"/>
<text text-anchor="middle" x="210.6963" y="-767.5083" font-family="helvetica:bold" font-size="14.00" fill="#000000">Paternal Grandmother</text>
<text text-anchor="middle" x="210.6963" y="-753.5083" font-family="helvetica:bold" font-size="14.00" fill="#000000">Female Cancer</text>
</g>
<!-- Paternal Grandfather\nDementia -->
<g id="node22" class="node">
<title>Paternal Grandfather\nDementia</title>
<polygon fill="#6495ed" stroke="#6495ed" points="454.9407,-837.9526 308.4519,-837.9526 308.4519,-691.4639 454.9407,-691.4639 454.9407,-837.9526"/>
<text text-anchor="middle" x="381.6963" y="-767.5083" font-family="helvetica:bold" font-size="14.00" fill="#000000">Paternal Grandfather</text>
<text text-anchor="middle" x="381.6963" y="-753.5083" font-family="helvetica:bold" font-size="14.00" fill="#000000">Dementia</text>
</g>
<!-- paternalgrandfather+paternalgrandmother -->
<g id="node29" class="node">
<title>paternalgrandfather+paternalgrandmother</title>
<ellipse fill="#000000" stroke="#000000" cx="295.6963" cy="-645.916" rx="1.8" ry="1.8"/>
</g>
<!-- Paternal Grandfather\nDementia&#45;&#45;paternalgrandfather+paternalgrandmother -->
<g id="edge13" class="edge">
<title>Paternal Grandfather\nDementia&#45;&#45;paternalgrandfather+paternalgrandmother</title>
<path fill="none" stroke="#000000" d="M328.4545,-691.1652C313.61,-670.6604 300.4946,-652.5439 296.7584,-647.3831"/>
</g>
<!-- self+mate&#45;&#45;Mate -->
<g id="edge2" class="edge">
<title>self+mate&#45;&#45;Mate</title>
<path fill="none" stroke="#000000" d="M159.8696,-183.476C164.5322,-190.1364 182.3643,-215.6086 200.1963,-241.0809"/>
</g>
<!-- sibling1+sibling1mate&#45;&#45;Sibling 1 Mate\nAsthma -->
<g id="edge4" class="edge">
<title>sibling1+sibling1mate&#45;&#45;Sibling 1 Mate\nAsthma</title>
<path fill="none" stroke="#000000" d="M845.8326,-183.4633C850.3487,-190.0736 867.6249,-215.3612 884.959,-240.7335"/>
</g>
<!-- sibling1+sibling1mate&#45;&#45;Sibling 1 Child -->
<g id="edge17" class="edge">
<title>sibling1+sibling1mate&#45;&#45;Sibling 1 Child</title>
<path fill="none" stroke="#000000" d="M844.6963,-179.8942C844.6963,-174.9107 844.6963,-160.7292 844.6963,-144.2195"/>
</g>
<!-- sibling2mate+sibling2&#45;&#45;Sibling 2 -->
<g id="edge6" class="edge">
<title>sibling2mate+sibling2&#45;&#45;Sibling 2</title>
<path fill="none" stroke="#000000" d="M1169.8326,-183.4633C1174.3487,-190.0736 1191.6249,-215.3612 1208.959,-240.7335"/>
</g>
<!-- sibling2mate+sibling2&#45;&#45;Sibling 2 Child 1 -->
<g id="edge19" class="edge">
<title>sibling2mate+sibling2&#45;&#45;Sibling 2 Child 1</title>
<path fill="none" stroke="#000000" d="M1168.002,-179.8942C1166.0309,-174.4836 1160.1099,-158.2304 1153.4421,-139.9271"/>
</g>
<!-- sibling2mate+sibling2&#45;&#45;Sibling 2 Child 2\nTay Sachs Disease -->
<g id="edge20" class="edge">
<title>sibling2mate+sibling2&#45;&#45;Sibling 2 Child 2\nTay Sachs Disease</title>
<path fill="none" stroke="#000000" d="M1170.0664,-180.5669C1176.899,-174.4176 1208.1125,-146.3254 1237.0744,-120.2597"/>
</g>
<!-- maternalgrandfather+maternalgrandmother&#45;&#45;Mother\nHeart Disease -->
<g id="edge21" class="edge">
<title>maternalgrandfather+maternalgrandmother&#45;&#45;Mother\nHeart Disease</title>
<path fill="none" stroke="#000000" d="M1025.8838,-881.4468C1027.2581,-865.5691 1034.9494,-760.9351 1006.6963,-683.716 993.8427,-648.5858 970.806,-613.9644 949.579,-586.7246"/>
</g>
<!-- maternalgrandfather+maternalgrandmother&#45;&#45;Mother Sibling 1\nCar Accident -->
<g id="edge22" class="edge">
<title>maternalgrandfather+maternalgrandmother&#45;&#45;Mother Sibling 1\nCar Accident</title>
<path fill="none" stroke="#000000" d="M1026.5136,-881.8188C1029.0043,-876.6053 1036.5226,-860.1932 1039.6963,-845.7005 1057.5204,-764.3066 1062.6186,-668.5086 1063.8316,-604.4741"/>
</g>
<!-- maternalgrandfather+maternalgrandmother&#45;&#45;Mother Sibling 2 -->
<g id="edge23" class="edge">
<title>maternalgrandfather+maternalgrandmother&#45;&#45;Mother Sibling 2</title>
<path fill="none" stroke="#000000" d="M1027.3669,-882.2188C1033.1415,-877.7241 1052.5679,-862.0628 1064.6963,-845.7005 1122.6865,-767.4663 1170.8311,-665.3358 1198.9389,-599.3136"/>
</g>
<!-- maternalgrandfather+maternalgrandmother&#45;&#45;Maternal Grandmother\nHeart Disease -->
<g id="edge8" class="edge">
<title>maternalgrandfather+maternalgrandmother&#45;&#45;Maternal Grandmother\nHeart Disease</title>
<path fill="none" stroke="#000000" d="M1024.4722,-882.1664C1018.9056,-876.0998 995.226,-850.2929 971.4757,-824.4089"/>
</g>
<!-- father+mother&#45;&#45;Self\nHypercholesterolemia -->
<g id="edge15" class="edge">
<title>father+mother&#45;&#45;Self\nHypercholesterolemia</title>
<path fill="none" stroke="#000000" d="M761.7107,-645.7996C743.4875,-644.6922 605.3268,-635.446 576.6963,-608.116 526.5159,-560.215 588.9259,-504.5729 538.6963,-456.7234 414.6463,-338.5517 312.7719,-460.0282 160.6963,-381.1234 157.6246,-379.5297 154.5861,-377.7915 151.5899,-375.935"/>
</g>
<!-- father+mother&#45;&#45;Sibling 1 -->
<g id="edge16" class="edge">
<title>father+mother&#45;&#45;Sibling 1</title>
<path fill="none" stroke="#000000" d="M763.6963,-644.0568C763.6963,-625.2248 763.6963,-467.7054 763.6963,-372.576"/>
</g>
<!-- father+mother&#45;&#45;Sibling 2 -->
<g id="edge18" class="edge">
<title>father+mother&#45;&#45;Sibling 2</title>
<path fill="none" stroke="#000000" d="M764.3866,-644.1997C766.5117,-638.8867 773.0896,-622.2188 777.6963,-608.116 799.4151,-541.6263 769.7073,-504.6057 820.6963,-456.7234 936.0728,-348.3768 1029.7158,-456.8543 1168.6963,-381.1234 1180.9025,-374.4722 1192.4896,-365.42 1202.8836,-355.7771"/>
</g>
<!-- father+mother&#45;&#45;Mother\nHeart Disease -->
<g id="edge10" class="edge">
<title>father+mother&#45;&#45;Mother\nHeart Disease</title>
<path fill="none" stroke="#000000" d="M765.3549,-644.7942C771.9022,-640.3486 796.5292,-623.463 815.6963,-608.116 826.4096,-599.5379 837.5954,-590.0849 848.2207,-580.8517"/>
</g>
<!-- fathersibling2mate+fathersibling2&#45;&#45;Father Sibling 2\nLung Cancer -->
<g id="edge12" class="edge">
<title>fathersibling2mate+fathersibling2&#45;&#45;Father Sibling 2\nLung Cancer</title>
<path fill="none" stroke="#000000" d="M588.288,-420.1343C580.8048,-426.5685 544.8296,-457.5008 512.5294,-485.2731"/>
</g>
<!-- fathersibling2mate+fathersibling2&#45;&#45;Father Sibling 2 Child 1 -->
<g id="edge27" class="edge">
<title>fathersibling2mate+fathersibling2&#45;&#45;Father Sibling 2 Child 1</title>
<path fill="none" stroke="#000000" d="M587.9357,-418.3936C578.6181,-415.5434 534.2952,-401.4047 502.6963,-381.1234 499.6045,-379.139 496.5148,-377.0485 493.4414,-374.8756"/>
</g>
<!-- fathersibling2mate+fathersibling2&#45;&#45;Father Sibling 2 Child 2 -->
<g id="edge28" class="edge">
<title>fathersibling2mate+fathersibling2&#45;&#45;Father Sibling 2 Child 2</title>
<path fill="none" stroke="#000000" d="M589.7484,-416.8656C589.8775,-411.7612 590.2328,-397.72 590.654,-381.0736"/>
</g>
<!-- paternalgrandfather+paternalgrandmother&#45;&#45;Father\nHypercholesterolemia -->
<g id="edge24" class="edge">
<title>paternalgrandfather+paternalgrandmother&#45;&#45;Father\nHypercholesterolemia</title>
<path fill="none" stroke="#000000" d="M293.5769,-645.1876C283.971,-641.8344 243.7327,-627.2269 214.6963,-608.116 211.7252,-606.1605 208.7517,-604.1058 205.7908,-601.9755"/>
</g>
<!-- paternalgrandfather+paternalgrandmother&#45;&#45;Father Sibling 1 -->
<g id="edge25" class="edge">
<title>paternalgrandfather+paternalgrandmother&#45;&#45;Father Sibling 1</title>
<path fill="none" stroke="#000000" d="M295.6963,-643.9461C295.6963,-638.5593 295.6963,-622.7757 295.6963,-604.7156"/>
</g>
<!-- paternalgrandfather+paternalgrandmother&#45;&#45;Father Sibling 2\nLung Cancer -->
<g id="edge26" class="edge">
<title>paternalgrandfather+paternalgrandmother&#45;&#45;Father Sibling 2\nLung Cancer</title>
<path fill="none" stroke="#000000" d="M297.8265,-645.2039C307.4794,-641.9211 347.8913,-627.5739 376.6963,-608.116 387.0634,-601.113 397.3879,-592.7862 407.0231,-584.2593"/>
</g>
<!-- paternalgrandfather+paternalgrandmother&#45;&#45;Paternal Grandmother\nFemale Cancer -->
<g id="edge14" class="edge">
<title>paternalgrandfather+paternalgrandmother&#45;&#45;Paternal Grandmother\nFemale Cancer</title>
<path fill="none" stroke="#000000" d="M294.637,-647.3965C290.4204,-653.2894 274.229,-675.9178 257.1755,-699.751"/>
</g>
</g>
</svg>
