<?xml version="1.0" encoding="UTF-8" standalone="no"?>
<!DOCTYPE svg PUBLIC "-//W3C//DTD SVG 1.1//EN"
 "http://www.w3.org/Graphics/SVG/1.1/DTD/svg11.dtd">
<!-- Generated by graphviz version 2.40.1 (20161225.0304)
 -->
<!-- Title: f3 Pages: 1 -->
<svg width="1736pt" height="656pt"
 viewBox="0.00 0.00 1736.37 656.09" xmlns="http://www.w3.org/2000/svg" xmlns:xlink="http://www.w3.org/1999/xlink">
<g id="graph0" class="graph" transform="scale(1 1) rotate(0) translate(4 652.087)">
<title>f3</title>
<polygon fill="#ffffff" stroke="transparent" points="-4,4 -4,-652.087 1732.3721,-652.087 1732.3721,4 -4,4"/>
<!-- Self Identical Twin\nHypertension -->
<g id="node1" class="node">
<title>Self Identical Twin\nHypertension</title>
<ellipse fill="#ffc0cb" stroke="#ffc0cb" cx="676.3721" cy="-295.2513" rx="72" ry="72"/>
<text text-anchor="middle" x="676.3721" y="-298.0513" font-family="helvetica:bold" font-size="14.00" fill="#000000">Self Identical Twin</text>
<text text-anchor="middle" x="676.3721" y="-284.0513" font-family="helvetica:bold" font-size="14.00" fill="#000000">Hypertension</text>
</g>
<!-- Mate -->
<g id="node2" class="node">
<title>Mate</title>
<polygon fill="#6495ed" stroke="#6495ed" points="262.3721,-367.2513 118.3721,-367.2513 118.3721,-223.2513 262.3721,-223.2513 262.3721,-367.2513"/>
<text text-anchor="middle" x="190.3721" y="-291.0513" font-family="helvetica:bold" font-size="14.00" fill="#000000">Mate</text>
</g>
<!-- mate+selfidenticaltwin -->
<g id="node20" class="node">
<title>mate+selfidenticaltwin</title>
<ellipse fill="#000000" stroke="#000000" cx="535.3721" cy="-181.8" rx="1.8" ry="1.8"/>
</g>
<!-- Mate&#45;&#45;mate+selfidenticaltwin -->
<g id="edge1" class="edge">
<title>Mate&#45;&#45;mate+selfidenticaltwin</title>
<path fill="none" stroke="#000000" d="M262.3807,-224.4003C265.335,-222.6642 268.3352,-221.0548 271.3721,-219.6 321.8978,-195.396 512.8129,-183.174 533.5431,-181.9096"/>
</g>
<!-- Child 1 -->
<g id="node3" class="node">
<title>Child 1</title>
<polygon fill="#6495ed" stroke="#6495ed" points="530.3721,-144 386.3721,-144 386.3721,0 530.3721,0 530.3721,-144"/>
<text text-anchor="middle" x="458.3721" y="-67.8" font-family="helvetica:bold" font-size="14.00" fill="#000000">Child 1</text>
</g>
<!-- Child 2 -->
<g id="node4" class="node">
<title>Child 2</title>
<polygon fill="#6495ed" stroke="#6495ed" points="692.3721,-144 548.3721,-144 548.3721,0 692.3721,0 692.3721,-144"/>
<text text-anchor="middle" x="620.3721" y="-67.8" font-family="helvetica:bold" font-size="14.00" fill="#000000">Child 2</text>
</g>
<!-- Sibling Identical Twin\nHypertension -->
<g id="node5" class="node">
<title>Sibling Identical Twin\nHypertension</title>
<ellipse fill="#ffc0cb" stroke="#ffc0cb" cx="842.3721" cy="-295.2513" rx="75.8028" ry="75.8028"/>
<text text-anchor="middle" x="842.3721" y="-298.0513" font-family="helvetica:bold" font-size="14.00" fill="#000000">Sibling Identical Twin</text>
<text text-anchor="middle" x="842.3721" y="-284.0513" font-family="helvetica:bold" font-size="14.00" fill="#000000">Hypertension</text>
</g>
<!-- Sibling 2 -->
<g id="node6" class="node">
<title>Sibling 2</title>
<polygon fill="#6495ed" stroke="#6495ed" points="1080.3721,-367.2513 936.3721,-367.2513 936.3721,-223.2513 1080.3721,-223.2513 1080.3721,-367.2513"/>
<text text-anchor="middle" x="1008.3721" y="-291.0513" font-family="helvetica:bold" font-size="14.00" fill="#000000">Sibling 2</text>
</g>
<!-- sibling2+sibling2mate -->
<g id="node21" class="node">
<title>sibling2+sibling2mate</title>
<ellipse fill="#000000" stroke="#000000" cx="1148.3721" cy="-181.8" rx="1.8" ry="1.8"/>
</g>
<!-- Sibling 2&#45;&#45;sibling2+sibling2mate -->
<g id="edge3" class="edge">
<title>Sibling 2&#45;&#45;sibling2+sibling2mate</title>
<path fill="none" stroke="#000000" d="M1080.6767,-226.5557C1083.5804,-224.1699 1086.4851,-221.8431 1089.3721,-219.6 1110.5059,-203.18 1138.889,-187.0656 1146.4538,-182.8582"/>
</g>
<!-- Sibling 2 Mate -->
<g id="node7" class="node">
<title>Sibling 2 Mate</title>
<ellipse fill="#ffc0cb" stroke="#ffc0cb" cx="1656.3721" cy="-295.2513" rx="72" ry="72"/>
<text text-anchor="middle" x="1656.3721" y="-291.0513" font-family="helvetica:bold" font-size="14.00" fill="#000000">Sibling 2 Mate</text>
</g>
<!-- Sibling 2 Child 1 -->
<g id="node8" class="node">
<title>Sibling 2 Child 1</title>
<ellipse fill="#ffc0cb" stroke="#ffc0cb" cx="986.3721" cy="-72" rx="72" ry="72"/>
<text text-anchor="middle" x="986.3721" y="-67.8" font-family="helvetica:bold" font-size="14.00" fill="#000000">Sibling 2 Child 1</text>
</g>
<!-- Sibling 2 Child 2 -->
<g id="node9" class="node">
<title>Sibling 2 Child 2</title>
<ellipse fill="#ffc0cb" stroke="#ffc0cb" cx="1148.3721" cy="-72" rx="72" ry="72"/>
<text text-anchor="middle" x="1148.3721" y="-67.8" font-family="helvetica:bold" font-size="14.00" fill="#000000">Sibling 2 Child 2</text>
</g>
<!-- Sibling 2 Child 3 -->
<g id="node10" class="node">
<title>Sibling 2 Child 3</title>
<polygon fill="#6495ed" stroke="#6495ed" points="1382.3721,-144 1238.3721,-144 1238.3721,0 1382.3721,0 1382.3721,-144"/>
<text text-anchor="middle" x="1310.3721" y="-67.8" font-family="helvetica:bold" font-size="14.00" fill="#000000">Sibling 2 Child 3</text>
</g>
<!-- Sibling 3 -->
<g id="node11" class="node">
<title>Sibling 3</title>
<polygon fill="#6495ed" stroke="#6495ed" points="1242.3721,-367.2513 1098.3721,-367.2513 1098.3721,-223.2513 1242.3721,-223.2513 1242.3721,-367.2513"/>
<text text-anchor="middle" x="1170.3721" y="-291.0513" font-family="helvetica:bold" font-size="14.00" fill="#000000">Sibling 3</text>
</g>
<!-- Father\nHeart Attack -->
<g id="node12" class="node">
<title>Father\nHeart Attack</title>
<polygon fill="#6495ed" stroke="#6495ed" points="424.3721,-367.2513 280.3721,-367.2513 280.3721,-223.2513 424.3721,-223.2513 424.3721,-367.2513"/>
<text text-anchor="middle" x="352.3721" y="-298.0513" font-family="helvetica:bold" font-size="14.00" fill="#000000">Father</text>
<text text-anchor="middle" x="352.3721" y="-284.0513" font-family="helvetica:bold" font-size="14.00" fill="#000000">Heart Attack</text>
</g>
<!-- father+mother -->
<g id="node22" class="node">
<title>father+mother</title>
<ellipse fill="#000000" stroke="#000000" cx="759.3721" cy="-408.7025" rx="1.8" ry="1.8"/>
</g>
<!-- Father\nHeart Attack&#45;&#45;father+mother -->
<g id="edge5" class="edge">
<title>Father\nHeart Attack&#45;&#45;father+mother</title>
<path fill="none" stroke="#000000" d="M424.5852,-366.3543C427.4716,-368.0042 430.4033,-369.5289 433.3721,-370.9025 496.1994,-399.9717 733.4843,-407.9133 757.4215,-408.6449"/>
</g>
<!-- Paternal Grandmother\nLung Cancer -->
<g id="node13" class="node">
<title>Paternal Grandmother\nLung Cancer</title>
<ellipse fill="#ffc0cb" stroke="#ffc0cb" cx="244.3721" cy="-527.4948" rx="79.5846" ry="79.5846"/>
<text text-anchor="middle" x="244.3721" y="-530.2948" font-family="helvetica:bold" font-size="14.00" fill="#000000">Paternal Grandmother</text>
<text text-anchor="middle" x="244.3721" y="-516.2948" font-family="helvetica:bold" font-size="14.00" fill="#000000">Lung Cancer</text>
</g>
<!-- Paternal Grandfather -->
<g id="node14" class="node">
<title>Paternal Grandfather</title>
<polygon fill="#6495ed" stroke="#6495ed" points="146.6164,-600.7391 .1277,-600.7391 .1277,-454.2504 146.6164,-454.2504 146.6164,-600.7391"/>
<text text-anchor="middle" x="73.3721" y="-523.2948" font-family="helvetica:bold" font-size="14.00" fill="#000000">Paternal Grandfather</text>
</g>
<!-- paternalgrandfather+paternalgrandmother -->
<g id="node23" class="node">
<title>paternalgrandfather+paternalgrandmother</title>
<ellipse fill="#000000" stroke="#000000" cx="244.3721" cy="-646.287" rx="1.8" ry="1.8"/>
</g>
<!-- Paternal Grandfather&#45;&#45;paternalgrandfather+paternalgrandmother -->
<g id="edge7" class="edge">
<title>Paternal Grandfather&#45;&#45;paternalgrandfather+paternalgrandmother</title>
<path fill="none" stroke="#000000" d="M144.9829,-601.0276C148.4117,-603.6472 151.8814,-606.1477 155.3721,-608.487 187.1672,-629.7952 232.9232,-643.1316 242.552,-645.7941"/>
</g>
<!-- Mother\nStroke -->
<g id="node15" class="node">
<title>Mother\nStroke</title>
<ellipse fill="#ffc0cb" stroke="#ffc0cb" cx="514.3721" cy="-295.2513" rx="72" ry="72"/>
<text text-anchor="middle" x="514.3721" y="-298.0513" font-family="helvetica:bold" font-size="14.00" fill="#000000">Mother</text>
<text text-anchor="middle" x="514.3721" y="-284.0513" font-family="helvetica:bold" font-size="14.00" fill="#000000">Stroke</text>
</g>
<!-- Mother Sibling 1 -->
<g id="node16" class="node">
<title>Mother Sibling 1</title>
<polygon fill="#6495ed" stroke="#6495ed" points="1404.3721,-367.2513 1260.3721,-367.2513 1260.3721,-223.2513 1404.3721,-223.2513 1404.3721,-367.2513"/>
<text text-anchor="middle" x="1332.3721" y="-291.0513" font-family="helvetica:bold" font-size="14.00" fill="#000000">Mother Sibling 1</text>
</g>
<!-- Mother Sibling 2\nParkinson&#39;s Disease -->
<g id="node17" class="node">
<title>Mother Sibling 2\nParkinson&#39;s Disease</title>
<polygon fill="#6495ed" stroke="#6495ed" points="1566.3721,-367.2513 1422.3721,-367.2513 1422.3721,-223.2513 1566.3721,-223.2513 1566.3721,-367.2513"/>
<text text-anchor="middle" x="1494.3721" y="-298.0513" font-family="helvetica:bold" font-size="14.00" fill="#000000">Mother Sibling 2</text>
<text text-anchor="middle" x="1494.3721" y="-284.0513" font-family="helvetica:bold" font-size="14.00" fill="#000000">Parkinson&#39;s Disease</text>
</g>
<!-- Maternal Grandmother\nFire -->
<g id="node18" class="node">
<title>Maternal Grandmother\nFire</title>
<ellipse fill="#ffc0cb" stroke="#ffc0cb" cx="1245.3721" cy="-527.4948" rx="80.9845" ry="80.9845"/>
<text text-anchor="middle" x="1245.3721" y="-530.2948" font-family="helvetica:bold" font-size="14.00" fill="#000000">Maternal Grandmother</text>
<text text-anchor="middle" x="1245.3721" y="-516.2948" font-family="helvetica:bold" font-size="14.00" fill="#000000">Fire</text>
</g>
<!-- Maternal Grandfather\nFire -->
<g id="node19" class="node">
<title>Maternal Grandfather\nFire</title>
<polygon fill="#6495ed" stroke="#6495ed" points="1493.9404,-602.0632 1344.8037,-602.0632 1344.8037,-452.9264 1493.9404,-452.9264 1493.9404,-602.0632"/>
<text text-anchor="middle" x="1419.3721" y="-530.2948" font-family="helvetica:bold" font-size="14.00" fill="#000000">Maternal Grandfather</text>
<text text-anchor="middle" x="1419.3721" y="-516.2948" font-family="helvetica:bold" font-size="14.00" fill="#000000">Fire</text>
</g>
<!-- maternalgrandfather+maternalgrandmother -->
<g id="node24" class="node">
<title>maternalgrandfather+maternalgrandmother</title>
<ellipse fill="#000000" stroke="#000000" cx="1332.3721" cy="-408.7025" rx="1.8" ry="1.8"/>
</g>
<!-- Maternal Grandfather\nFire&#45;&#45;maternalgrandfather+maternalgrandmother -->
<g id="edge9" class="edge">
<title>Maternal Grandfather\nFire&#45;&#45;maternalgrandfather+maternalgrandmother</title>
<path fill="none" stroke="#000000" d="M1364.7677,-452.9364C1350.2923,-433.1714 1337.5752,-415.807 1333.6313,-410.4219"/>
</g>
<!-- mate+selfidenticaltwin&#45;&#45;Self Identical Twin\nHypertension -->
<g id="edge2" class="edge">
<title>mate+selfidenticaltwin&#45;&#45;Self Identical Twin\nHypertension</title>
<path fill="none" stroke="#000000" d="M537.3253,-182.8513C545.0273,-187.0329 573.9206,-203.0637 595.3721,-219.6 605.2778,-227.236 615.3752,-235.8715 624.9283,-244.5066"/>
</g>
<!-- mate+selfidenticaltwin&#45;&#45;Child 1 -->
<g id="edge12" class="edge">
<title>mate+selfidenticaltwin&#45;&#45;Child 1</title>
<path fill="none" stroke="#000000" d="M534.2836,-180.2478C531.0299,-175.6081 520.8635,-161.1111 508.9841,-144.1715"/>
</g>
<!-- mate+selfidenticaltwin&#45;&#45;Child 2 -->
<g id="edge13" class="edge">
<title>mate+selfidenticaltwin&#45;&#45;Child 2</title>
<path fill="none" stroke="#000000" d="M536.5737,-180.2478C540.1654,-175.6081 551.388,-161.1111 564.5016,-144.1715"/>
</g>
<!-- sibling2+sibling2mate&#45;&#45;Sibling 2 Mate -->
<g id="edge4" class="edge">
<title>sibling2+sibling2mate&#45;&#45;Sibling 2 Mate</title>
<path fill="none" stroke="#000000" d="M1150.4389,-181.9005C1180.7018,-183.3821 1533.7463,-201.022 1575.3721,-219.6 1587.1449,-224.8543 1598.3036,-232.5402 1608.3632,-241.0249"/>
</g>
<!-- sibling2+sibling2mate&#45;&#45;Sibling 2 Child 1 -->
<g id="edge16" class="edge">
<title>sibling2+sibling2mate&#45;&#45;Sibling 2 Child 1</title>
<path fill="none" stroke="#000000" d="M1146.2531,-181.071C1136.649,-177.715 1096.4173,-163.0975 1067.3721,-144 1057.625,-137.5912 1047.8481,-130.0635 1038.6275,-122.3348"/>
</g>
<!-- sibling2+sibling2mate&#45;&#45;Sibling 2 Child 2 -->
<g id="edge17" class="edge">
<title>sibling2+sibling2mate&#45;&#45;Sibling 2 Child 2</title>
<path fill="none" stroke="#000000" d="M1148.3721,-179.8942C1148.3721,-174.9107 1148.3721,-160.7292 1148.3721,-144.2195"/>
</g>
<!-- sibling2+sibling2mate&#45;&#45;Sibling 2 Child 3 -->
<g id="edge18" class="edge">
<title>sibling2+sibling2mate&#45;&#45;Sibling 2 Child 3</title>
<path fill="none" stroke="#000000" d="M1150.491,-181.071C1160.0951,-177.715 1200.3268,-163.0975 1229.3721,-144 1232.3591,-142.036 1235.3489,-139.9669 1238.3247,-137.8192"/>
</g>
<!-- father+mother&#45;&#45;Self Identical Twin\nHypertension -->
<g id="edge11" class="edge">
<title>father+mother&#45;&#45;Self Identical Twin\nHypertension</title>
<path fill="none" stroke="#000000" d="M758.1988,-407.0987C753.6275,-400.8504 736.3981,-377.2999 718.9206,-353.4101"/>
</g>
<!-- father+mother&#45;&#45;Sibling Identical Twin\nHypertension -->
<g id="edge14" class="edge">
<title>father+mother&#45;&#45;Sibling Identical Twin\nHypertension</title>
<path fill="none" stroke="#000000" d="M760.5454,-407.0987C764.9196,-401.1197 780.8842,-379.2979 797.5659,-356.4961"/>
</g>
<!-- father+mother&#45;&#45;Sibling 2 -->
<g id="edge15" class="edge">
<title>father+mother&#45;&#45;Sibling 2</title>
<path fill="none" stroke="#000000" d="M761.5107,-408.6374C776.3765,-408.1041 865.5257,-403.5966 927.3721,-370.9025 930.264,-369.3738 933.129,-367.7144 935.958,-365.9486"/>
</g>
<!-- father+mother&#45;&#45;Sibling 3 -->
<g id="edge19" class="edge">
<title>father+mother&#45;&#45;Sibling 3</title>
<path fill="none" stroke="#000000" d="M761.3465,-408.6473C785.5765,-407.9446 1025.7637,-400.2796 1089.3721,-370.9025 1092.3418,-369.531 1095.2743,-368.008 1098.1614,-366.3597"/>
</g>
<!-- father+mother&#45;&#45;Mother\nStroke -->
<g id="edge6" class="edge">
<title>father+mother&#45;&#45;Mother\nStroke</title>
<path fill="none" stroke="#000000" d="M757.2841,-408.6245C742.7705,-408.0039 655.7341,-403.0137 595.3721,-370.9025 584.1601,-364.9381 573.3455,-357.0207 563.4685,-348.5538"/>
</g>
<!-- paternalgrandfather+paternalgrandmother&#45;&#45;Father\nHeart Attack -->
<g id="edge20" class="edge">
<title>paternalgrandfather+paternalgrandmother&#45;&#45;Father\nHeart Attack</title>
<path fill="none" stroke="#000000" d="M246.2505,-646.1725C257.008,-645.4052 311.0993,-640.026 333.3721,-608.487 382.8707,-538.3952 378.6546,-435.9853 368.0821,-367.5543"/>
</g>
<!-- paternalgrandfather+paternalgrandmother&#45;&#45;Paternal Grandmother\nLung Cancer -->
<g id="edge8" class="edge">
<title>paternalgrandfather+paternalgrandmother&#45;&#45;Paternal Grandmother\nLung Cancer</title>
<path fill="none" stroke="#000000" d="M244.3721,-644.2252C244.3721,-639.0184 244.3721,-624.5309 244.3721,-607.4568"/>
</g>
<!-- maternalgrandfather+maternalgrandmother&#45;&#45;Mother\nStroke -->
<g id="edge21" class="edge">
<title>maternalgrandfather+maternalgrandmother&#45;&#45;Mother\nStroke</title>
<path fill="none" stroke="#000000" d="M1330.4721,-408.685C1291.5996,-408.316 668.4969,-401.9275 595.3721,-370.9025 583.3268,-365.792 571.9655,-358.0588 561.7747,-349.4567"/>
</g>
<!-- maternalgrandfather+maternalgrandmother&#45;&#45;Mother Sibling 1 -->
<g id="edge22" class="edge">
<title>maternalgrandfather+maternalgrandmother&#45;&#45;Mother Sibling 1</title>
<path fill="none" stroke="#000000" d="M1332.3721,-406.7334C1332.3721,-401.3488 1332.3721,-385.5714 1332.3721,-367.5184"/>
</g>
<!-- maternalgrandfather+maternalgrandmother&#45;&#45;Mother Sibling 2\nParkinson&#39;s Disease -->
<g id="edge23" class="edge">
<title>maternalgrandfather+maternalgrandmother&#45;&#45;Mother Sibling 2\nParkinson&#39;s Disease</title>
<path fill="none" stroke="#000000" d="M1334.5022,-407.9902C1344.1545,-404.7066 1384.5641,-390.3562 1413.3721,-370.9025 1416.2424,-368.9642 1419.1096,-366.9244 1421.9599,-364.8071"/>
</g>
<!-- maternalgrandfather+maternalgrandmother&#45;&#45;Maternal Grandmother\nFire -->
<g id="edge10" class="edge">
<title>maternalgrandfather+maternalgrandmother&#45;&#45;Maternal Grandmother\nFire</title>
<path fill="none" stroke="#000000" d="M1331.3054,-410.159C1327.0587,-415.9575 1310.7437,-438.2346 1293.4524,-461.8445"/>
</g>
</g>
</svg>
